<?xml version="1.0" encoding="UTF-8" standalone="no"?>
<!-- Created with Inkscape (http://www.inkscape.org/) -->

<svg
   xmlns:dc="http://purl.org/dc/elements/1.1/"
   xmlns:cc="http://creativecommons.org/ns#"
   xmlns:rdf="http://www.w3.org/1999/02/22-rdf-syntax-ns#"
   xmlns:svg="http://www.w3.org/2000/svg"
   xmlns="http://www.w3.org/2000/svg"
   xmlns:sodipodi="http://sodipodi.sourceforge.net/DTD/sodipodi-0.dtd"
   xmlns:inkscape="http://www.inkscape.org/namespaces/inkscape"
   width="248"
   height="248"
   viewBox="0 0 65.61666356948923 65.61666530018427"
   version="1.1"
   id="svg8"
   inkscape:version="0.92.1 r15371"
   sodipodi:docname="dig-down-tutorial.svg">
  <defs
     id="defs2" />
  <sodipodi:namedview
     id="base"
     pagecolor="#ffffff"
     bordercolor="#666666"
     borderopacity="1.0"
     inkscape:pageopacity="0.0"
     inkscape:pageshadow="2"
     inkscape:zoom="1.236055800122734"
     inkscape:cx="-239.8271027562091"
     inkscape:cy="227.0634882587427"
     inkscape:document-units="mm"
     inkscape:current-layer="layer2"
     showgrid="false"
     inkscape:snap-global="false"
     inkscape:window-width="1920"
     inkscape:window-height="1027"
     inkscape:window-x="-8"
     inkscape:window-y="-8"
     inkscape:window-maximized="1"
     fit-margin-top="0"
     fit-margin-left="0"
     fit-margin-right="0"
     fit-margin-bottom="0"
     units="px" />
  <metadata
     id="metadata5">
    <rdf:RDF>
      <cc:Work
         rdf:about="">
        <dc:format>image/svg+xml</dc:format>
        <dc:type
           rdf:resource="http://purl.org/dc/dcmitype/StillImage" />
        <dc:title></dc:title>
      </cc:Work>
    </rdf:RDF>
  </metadata>
  <g
     inkscape:label="Layer 1"
     inkscape:groupmode="layer"
     id="layer1"
     style="display:inline;opacity:1"
     transform="translate(-23.93931528604367,27.57312794168428)">
    <path
       style="opacity:1;vector-effect:none;fill:#cccccc;fill-opacity:1;stroke:#000000;stroke-width:2.5;stroke-linecap:round;stroke-linejoin:round;stroke-miterlimit:4;stroke-dasharray:none;stroke-dashoffset:0;stroke-opacity:1;paint-order:normal"
       d="m 154.7500001633035,45.51968390284151 c -1.679590523001,-1.98850349592021 -1.3690670913391,-4.61906709476807 -3.0000000031658,-6.25000000659566 -0.5851315877374,-0.5851315877378 -4.8283306686163,0 -5.7500000060678,0 -6.9596710479772,0 -22.3277643707152,-2.05741188645471 -28.5000000300753,0 -3.3513929470565,1.11713098235282 -7.841785691532,5.09178568862831 -10.5000000110804,7.75000000817841 -1.0414245099802,1.04142450998074 -7.19013610106235,6.86972782030102 -6.5000000068593,8.25000000870614 0.6228120067884,1.24562401357707 1.6947485150124,3.86684911201496 2.750000002902,4.50000000474869 7.8023231912024,4.68139391472164 32.9435892308624,8.90320541134699 41.7500000440577,4.5000000047487 6.9772453308935,-3.48862266544733 8.2066675560288,-12.57667020274585 9.7500000102889,-18.75000001978628 z"
       id="path4507"
       inkscape:connector-curvature="0"
       transform="matrix(0.5291666666666666,0,0,0.5291666666666666,-9.209942646870526,-43.18207675604482)" />
    <path
       style="opacity:1;vector-effect:none;fill:#999999;fill-opacity:1;stroke:#000000;stroke-width:2.5;stroke-linecap:round;stroke-linejoin:round;stroke-miterlimit:4;stroke-dasharray:none;stroke-dashoffset:0;stroke-opacity:1;paint-order:normal"
       d="m 143.000000150904,95.51968395560516 c 2.2763368482667,-2.00311416822797 10.3247979866786,-8.63369197101019 13.0000000137186,-14.25000001503783 1.7265869227779,-3.62478942715211 0,-13.29067499182702 0,-17.25000001820331 0,-2.93875634106323 0.076807265603,-21.673192757348 -2.0000000021106,-23.75000002506293 -0.5366648476994,-0.53666484769974 -4.5538970009935,7.80389700442403 -8.5000000089698,11.75000001239937 -0.9971065308995,0.99710653089938 -2.750000002902,6.43994953868469 -2.750000002902,7.50000000791488 0,1.35746386849292 1.464257072974,3.92871464700193 1.0000000010553,6.25000000659541 -1.0873336285411,5.4366681427057 -2.2500000023744,11.43643643110319 -2.2500000023744,17.00000001793957 0,2.28507079221252 -1.4612091283332,12.75000001345484 1.5000000015829,12.75000001345484 z"
       id="path4503"
       inkscape:connector-curvature="0"
       transform="matrix(0.5291666666666666,0,0,0.5291666666666666,-9.209942646870526,-43.18207675604482)"
       sodipodi:nodetypes="csssssssc" />
    <path
       style="opacity:1;vector-effect:none;fill:#ffffff;fill-opacity:1;stroke:#000000;stroke-width:2.5;stroke-linecap:round;stroke-linejoin:round;stroke-miterlimit:4;stroke-dasharray:none;stroke-dashoffset:0;stroke-opacity:1;paint-order:normal"
       d="m 106.1798777577416,53.98017928802028 c 4.4600025328043,-1.39391721661991 9.9054120871251,-0.8172386277256 14.7627043104333,-0.8172386277256 3.4255617459917,0 12.6307294600415,-0.29950374848954 14.7627043104332,-0.81723862772583 7.9053765965721,-1.91976429590204 11.1690910554889,2.35846552898488 9.8418028736221,10.21548284657115 -0.2062449665992,1.22088804554551 -2.2814178952364,32.84925291789431 -2.5303294002331,33.09816442289093 -5.0349011566487,5.03490115664837 -37.0652068914819,6.51232536993066 -41.6791700140105,-0.4086193138628 -4.47957972324792,-6.71936958487231 -3.45358448146175,-35.25694889480087 -0.078613517056,-40.86193138628505 0.890611775891,-1.47908336493127 3.550979599291,-0.69300649804086 4.920901436811,-0.4086193138628 z"
       id="path4485"
       inkscape:connector-curvature="0"
       transform="matrix(0.5291666666666666,0,0,0.5291666666666666,-9.209942646870526,-43.18207675604482)"
       sodipodi:nodetypes="cssssssc" />
    <g
       id="g4501"
       transform="matrix(-2,2.449212707644754e-16,-2.449212707644754e-16,-2,120.6665059745198,36.52352874286096)">
      <path
         sodipodi:nodetypes="csc"
         transform="scale(0.2645833333333333)"
         inkscape:connector-curvature="0"
         id="path4491"
         d="m 115.2860577059734,71.07616626233539 c 0.5838179466566,-3.24607274695518 3.9749467978637,-11.05510304025256 8.379187151562,-11.12409328741863 3.3987590789111,-0.0532398802247 7.075359459947,9.52892211069683 7.9457809195846,10.97962454342608"
         style="opacity:1;vector-effect:none;fill:none;fill-opacity:1;stroke:#000000;stroke-width:2.5;stroke-linecap:round;stroke-linejoin:round;stroke-miterlimit:4;stroke-dasharray:none;stroke-dashoffset:0;stroke-opacity:1;paint-order:normal" />
      <path
         transform="matrix(0.2469546971899902,0,0,0.2280263899005453,2.292932299321249,2.75443018798893)"
         inkscape:connector-curvature="0"
         id="path4497"
         d="m 122.7984323935806,57.92951055902268 c 2.0592476886167,10.7367796568594 1.4446874399245,22.40562693154674 1.4446874399245,33.66121735024012"
         style="opacity:1;vector-effect:none;fill:none;fill-opacity:1;stroke:#000000;stroke-width:2.7874128819;stroke-linecap:round;stroke-linejoin:round;stroke-miterlimit:4;stroke-dasharray:none;stroke-dashoffset:0;stroke-opacity:1;paint-order:normal" />
    </g>
    <g
       id="g5194"
       transform="matrix(2,0,0,2,-11.61741666904821,-40.00707675604483)">
      <path
         transform="matrix(0.2645833333333333,0,0,0.2645833333333333,23.93931528604367,5.235205391649047)"
         inkscape:connector-curvature="0"
         id="path5176"
         d="m 16.98952427558328,105.3924257934088 c 1.19046224227695,-1.1477090592243 -2.97531622247551,-18.43458166429744 -2.22481865513591,-18.80983044796723 1.58200128654648,-0.79100064327325 3.69357091380031,-0.60676872412796 5.66317475852776,-0.60676872412796 1.69987162935337,0 5.20150465337499,-0.46167010515279 6.47219972403173,0.80902496550397 4.80873253234214,4.80873253234216 10.75718023184619,12.70454376776881 4.24738106889582,19.21434293071921 -2.26806254181603,2.268062541816 -8.91399806359109,3.6332506232441 -12.53988696531149,1.8203061723839 -1.76864332710155,-0.8843216635508 -1.44318395547551,-2.2248186551359 -3.03384362063985,-2.2248186551359 -0.47672253271422,0 0.94386245975461,-0.1348374942507 1.41579368963194,-0.202256241376 z"
         style="opacity:1;vector-effect:none;fill:none;fill-opacity:1;stroke:#000000;stroke-width:2.5;stroke-linecap:round;stroke-linejoin:round;stroke-miterlimit:4;stroke-dasharray:none;stroke-dashoffset:0;stroke-opacity:1;paint-order:normal" />
      <path
         transform="matrix(0.2645833333333333,0,0,0.2645833333333333,23.93931528604367,5.235205391649047)"
         inkscape:connector-curvature="0"
         id="path5184"
         d="m 40.45124827519829,90.6277201729614 c 0.40593889753897,0.0236454039256 1.29672178105105,-0.11907190858088 1.61804993100793,0.20225624137599 0.23865048371725,0.23865048371725 -1.6702710585803,6.77889822055245 -2.0225624137599,7.4834809309117 -1.71055201896853,3.42110403793701 0.50400246054285,11.19369621333431 4.04512482751982,6.47219972403171"
         style="opacity:1;vector-effect:none;fill:none;fill-opacity:1;stroke:#000000;stroke-width:2.5;stroke-linecap:round;stroke-linejoin:round;stroke-miterlimit:4;stroke-dasharray:none;stroke-dashoffset:0;stroke-opacity:1;paint-order:normal" />
      <path
         transform="matrix(0.2645833333333333,0,0,0.2645833333333333,23.93931528604367,5.235205391649047)"
         inkscape:connector-curvature="0"
         id="path5186"
         d="m 42.6760669303342,82.33521427654575 c -7.61347506307892,3.0556671344375 4.79098712370289,6.34587438538992 2.2248186551359,1.21353744825595 -0.56328886001834,-1.12657772003668 -0.86891306092224,-1.21353744825595 -2.2248186551359,-1.21353744825595 z"
         style="opacity:1;vector-effect:none;fill:none;fill-opacity:1;stroke:#000000;stroke-width:2.5;stroke-linecap:round;stroke-linejoin:round;stroke-miterlimit:4;stroke-dasharray:none;stroke-dashoffset:0;stroke-opacity:1;paint-order:normal" />
      <path
         transform="matrix(0.2608386264231445,-0.0443570878605112,0.0443570878605112,0.2608386264231445,19.48000646547059,8.082689306926958)"
         inkscape:connector-curvature="0"
         id="path5188"
         d="m 59.86784744729347,91.23448889708939 c -11.29678945949592,-7.79319680292021 -15.30678933169076,11.93311824118351 -6.26994348265574,11.93311824118351 4.38307315076369,0 4.31128808055216,-1.6819569426643 6.87671220678371,-4.24738106889583 1.40799969574204,-1.40799969574204 0.81717273027922,-5.25051451100053 1.41579368963194,-4.6518935516478 0.90167474332818,0.90167474332817 -2.5175029744623,22.22678646588383 -3.23609986201586,23.66398024099104 -4.55659298803691,9.1131859760738 -13.48083787368005,-4.8893149422795 -8.69701837916763,-7.2812246895357"
         style="opacity:1;vector-effect:none;fill:none;fill-opacity:1;stroke:#000000;stroke-width:2.5;stroke-linecap:round;stroke-linejoin:round;stroke-miterlimit:4;stroke-dasharray:none;stroke-dashoffset:0;stroke-opacity:1;paint-order:normal" />
    </g>
  </g>
  <g
     inkscape:groupmode="layer"
     id="layer2"
     inkscape:label="2"
     style="display:inline;opacity:1"
     transform="translate(-23.93931528604367,27.57312794168428)">
    <path
       style="opacity:1;vector-effect:none;fill:#999999;fill-opacity:1;stroke:#000000;stroke-width:2.5;stroke-linecap:round;stroke-linejoin:round;stroke-miterlimit:4;stroke-dasharray:none;stroke-dashoffset:0;stroke-opacity:1;paint-order:normal"
       d="m 156.2500001648866,39.01968389598074 c -1.4640936665625,10.69267132139702 3.6966646379048,33.16000613298182 0.7500000007915,42.00000004432148 -0.8269850294872,2.48095508846157 -4.6153532376814,6.05469306713917 -6.4393398347357,7.87867966419482 -2.0639025490375,2.06390254903886 -4.2975776713591,1.23629626995694 -9.5909902682106,-0.52817459566131 -1.8481052378215,-0.6160350792743 -4.3887923101216,0.64212776534036 -4.9696699192145,-1.10050506193808 -3.5545729529758,-10.66371885892653 -5.0341524532135,-28.46584758213897 3.2500000034297,-36.75000003878036 1.8765933462899,-1.8765933462894 1.896750272572,-5.42256270865008 4.0000000042211,-7.00000000738693 4.0371229673773,-3.02784222553305 7.6864107162588,-3.17160268038403 13.0000000137185,-4.50000000474962 z"
       id="path4539"
       inkscape:connector-curvature="0"
       transform="matrix(0.5291666666666666,0,0,0.5291666666666666,-9.209942646870526,-43.18207675604482)"
       sodipodi:nodetypes="cssssssc" />
    <path
       style="opacity:1;vector-effect:none;fill:#cccccc;fill-opacity:1;stroke:#000000;stroke-width:2.5;stroke-linecap:round;stroke-linejoin:round;stroke-miterlimit:4;stroke-dasharray:none;stroke-dashoffset:0;stroke-opacity:1;paint-order:normal"
       d="m 106.7803301987124,47.20902373256286 c 4.9681397780865,-9.58272616511681 16.4274472107351,-8.68933983710986 31.2196699469155,-8.68933983710986 1.9738073407142,0 19.2073903269725,-1.12217092129481 18.2500000192587,1.75000000184673 -0.661276162262,1.98382848678625 -3.8500004884823,2.70000097168804 -4.7500000050125,4.5000000047487 -1.2853847863446,2.57076957268941 -4.1061815778352,8.42809079564427 -6.7500000071232,9.75000001028911 -11.4039788848551,-1.35535055475043 -28.1313507683325,-2.534627254415 -37.9696699540385,-7.31066017977468 z"
       id="path4537"
       inkscape:connector-curvature="0"
       transform="matrix(0.5291666666666666,0,0,0.5291666666666666,-9.209942646870526,-43.18207675604482)"
       sodipodi:nodetypes="cssscc" />
    <g
       id="g4570"
       transform="matrix(2,0,0,2,-5.374624923438116,-47.20448314891292)">
      <path
         transform="scale(0.2645833333333333)"
         inkscape:connector-curvature="0"
         id="path4535"
         d="m 101.0000001065827,52.26968390996308 c 9.2012961100007,0.0972713789556 18.0257055491244,-1.50000000158298 27.2500000287562,-1.50000000158298 2.4922719904721,0 14.768074733453,-0.84788792409199 16.0000000168844,1.00000000105525 1.0779410864386,1.6169116296578 1.1573462592656,3.5646925198498 2.0000000021106,5.25000000554018 0.9719665216507,1.94393304330196 -1.2500000013191,4.34480414354653 -1.2500000013191,6.25000000659566 0,1.86055926665494 -1.7975332006834,32.06417250470326 -1.8535533926426,32.23223308058112 -0.095032489158,0.28509746747388 -1.9651943672065,3.05214083456306 -2.3964466118423,3.26776695688092 -3.8526844356105,1.92634221780577 -35.9023701306442,3.81508660885427 -39.7500000419472,1.25000000131926 -6.06916969580982,-4.04611313053925 -3.5767036455224,-44.17329640486813 0,-47.75000005038942 z"
         style="opacity:1;vector-effect:none;fill:#ffffff;fill-opacity:1;stroke:#000000;stroke-width:2.5;stroke-linecap:round;stroke-linejoin:round;stroke-miterlimit:4;stroke-dasharray:none;stroke-dashoffset:0;stroke-opacity:1;paint-order:normal"
         sodipodi:nodetypes="csssssssc" />
      <g
         id="g5170"
         transform="rotate(180,32.41145838463784,19.91217677399674)">
        <path
           style="opacity:1;vector-effect:none;fill:none;fill-opacity:1;stroke:#000000;stroke-width:2.5;stroke-linecap:round;stroke-linejoin:round;stroke-miterlimit:4;stroke-dasharray:none;stroke-dashoffset:0;stroke-opacity:1;paint-order:normal"
           d="m 113.8750001802539,72.89468337790822 c 0.561158837177,-2.48714849063458 6.6325144052258,-14.74624282597756 9.8750000156313,-13.12500002077558 1.4296476444723,4.43479079755365 5.149176754844,8.33171107691054 7.3750000116739,12.00000001899479"
           id="path4543"
           inkscape:connector-curvature="0"
           transform="scale(0.2645833333333333)"
           sodipodi:nodetypes="ccc" />
        <path
           style="opacity:1;vector-effect:none;fill:#ffffff;fill-opacity:1;stroke:#000000;stroke-width:2.5;stroke-linecap:round;stroke-linejoin:round;stroke-miterlimit:4;stroke-dasharray:none;stroke-dashoffset:0;stroke-opacity:1;paint-order:normal"
           d="m 122.8750001945001,59.76968335713264 c 0.2276158367376,10.01155441656419 -2.1982152614312,21.33213900195914 0.2500000003957,31.125000049268"
           id="path4545"
           inkscape:connector-curvature="0"
           transform="scale(0.2645833333333333)" />
      </g>
    </g>
    <path
       style="opacity:1;vector-effect:none;fill:none;fill-opacity:1;stroke:#000000;stroke-width:2.5;stroke-linecap:round;stroke-linejoin:round;stroke-miterlimit:4;stroke-dasharray:none;stroke-dashoffset:0;stroke-opacity:1;paint-order:normal"
       d="m 37.21514841318244,88.2006452764495 c 2.61896131687253,5.52600987942637 0.2913620956195,13.12261115655049 3.03384362063986,18.60757420659119 1.63965166720742,3.2793033344149 13.42019851458036,0.2619393152222 14.56244937907138,-2.0225624137599 1.18160265900429,-2.3632053180086 1.41579368963194,-5.12828171644432 1.41579368963194,-8.09024965503966 0,-2.93249818091168 -1.13612598705868,-6.59704450421044 -3.03384362063987,-8.49476213779164 -3.43723533426853,-3.43723533426852 -17.66672614973439,-6.75393232412429 -15.97824306870331,0 z"
       id="path5200"
       inkscape:connector-curvature="0"
       transform="matrix(0.5291666666666666,0,0,0.5291666666666666,24.38118792521682,-29.53666597274672)" />
    <path
       style="opacity:1;vector-effect:none;fill:none;fill-opacity:1;stroke:#000000;stroke-width:2.5;stroke-linecap:round;stroke-linejoin:round;stroke-miterlimit:4;stroke-dasharray:none;stroke-dashoffset:0;stroke-opacity:1;paint-order:normal"
       d="m 61.89040986105338,90.02095144883344 c 0.91025608363749,0.028856226336 1.77784677166354,-0.28717504281674 2.22481865513591,0.60676872412796 1.36605852284725,2.73211704569442 -2.69067151571614,14.2988527598672 -0.80902496550397,16.1804993100793 1.45877530922824,1.4587753092283 3.06602178488097,-2.1512750707243 3.23609986201586,-2.8315873792638"
       id="path5202"
       inkscape:connector-curvature="0"
       transform="matrix(0.5291666666666666,0,0,0.5291666666666666,24.38118792521682,-29.53666597274672)" />
    <path
       style="opacity:1;vector-effect:none;fill:none;fill-opacity:1;stroke:#000000;stroke-width:2.5;stroke-linecap:round;stroke-linejoin:round;stroke-miterlimit:4;stroke-dasharray:none;stroke-dashoffset:0;stroke-opacity:1;paint-order:normal"
       d="m 64.92425348169325,82.53747051792173 c -5.15316998665455,9.7239167236211 8.3932183387024,0 0,0 z"
       id="path5204"
       inkscape:connector-curvature="0"
       transform="matrix(0.5291666666666666,0,0,0.5291666666666666,24.38118792521682,-29.53666597274672)" />
    <path
       style="opacity:1;vector-effect:none;fill:none;fill-opacity:1;stroke:#000000;stroke-width:2.5;stroke-linecap:round;stroke-linejoin:round;stroke-miterlimit:4;stroke-dasharray:none;stroke-dashoffset:0;stroke-opacity:1;paint-order:normal"
       d="m 80.2957278262686,89.61643896608146 c -8.42565872746154,-4.89843505169029 -11.25214025312043,7.15317771209477 -6.06768724127974,12.33763072393543 3.79077254763058,3.7907725476306 8.29250589641563,-3.38755742245826 8.29250589641563,-6.47219972403168 0,-0.30150580306024 0.70601828581221,-0.80902496550397 0.404512482752,-0.80902496550397 -0.3835400634419,0 -1.41579368963194,4.68493406582971 -1.41579368963194,5.25866227577578 0,4.41432817852878 4.86071987475945,16.58063173834088 -3e-14,19.82111165484717 -4.98733193567985,3.3248879571199 -14.22772397296356,-4.8523735458847 -9.1015308619196,-8.6970183791676"
       id="path5206"
       inkscape:connector-curvature="0"
       transform="matrix(0.5291666666666666,0,0,0.5291666666666666,24.38118792521682,-29.53666597274672)"
       sodipodi:nodetypes="csssssc" />
  </g>
</svg>
