<?xml version="1.0" encoding="UTF-8" standalone="no"?>
<!-- Created with Inkscape (http://www.inkscape.org/) -->

<svg
   xmlns:dc="http://purl.org/dc/elements/1.1/"
   xmlns:cc="http://creativecommons.org/ns#"
   xmlns:rdf="http://www.w3.org/1999/02/22-rdf-syntax-ns#"
   xmlns:svg="http://www.w3.org/2000/svg"
   xmlns="http://www.w3.org/2000/svg"
   xmlns:sodipodi="http://sodipodi.sourceforge.net/DTD/sodipodi-0.dtd"
   xmlns:inkscape="http://www.inkscape.org/namespaces/inkscape"
   width="248"
   height="248"
   viewBox="0 0 65.61666356948923 65.61666530018427"
   version="1.1"
   id="svg8"
   inkscape:version="0.92.1 r15371"
   sodipodi:docname="exit-tutorial.svg">
  <defs
     id="defs2" />
  <sodipodi:namedview
     id="base"
     pagecolor="#ffffff"
     bordercolor="#666666"
     borderopacity="1.0"
     inkscape:pageopacity="0.0"
     inkscape:pageshadow="2"
     inkscape:zoom="1.236055800122732"
     inkscape:cx="133.8370739269354"
     inkscape:cy="140.5399917038597"
     inkscape:document-units="mm"
     inkscape:current-layer="layer2"
     showgrid="false"
     inkscape:snap-global="false"
     inkscape:window-width="1920"
     inkscape:window-height="1027"
     inkscape:window-x="-8"
     inkscape:window-y="-8"
     inkscape:window-maximized="1"
     fit-margin-top="0"
     fit-margin-left="0"
     fit-margin-right="0"
     fit-margin-bottom="0"
     units="px" />
  <metadata
     id="metadata5">
    <rdf:RDF>
      <cc:Work
         rdf:about="">
        <dc:format>image/svg+xml</dc:format>
        <dc:type
           rdf:resource="http://purl.org/dc/dcmitype/StillImage" />
        <dc:title></dc:title>
      </cc:Work>
    </rdf:RDF>
  </metadata>
  <g
     inkscape:label="Layer 1"
     inkscape:groupmode="layer"
     id="layer1"
     style="display:inline;opacity:1"
     transform="translate(-23.93931528604367,27.57312794168428)">
    <path
       style="opacity:1;vector-effect:none;fill:#cccccc;fill-opacity:1;stroke:#000000;stroke-width:2.5;stroke-linecap:round;stroke-linejoin:round;stroke-miterlimit:4;stroke-dasharray:none;stroke-dashoffset:0;stroke-opacity:1;paint-order:normal"
       d="m 154.7500001633035,45.51968390284151 c -1.679590523001,-1.98850349592021 -1.3690670913391,-4.61906709476807 -3.0000000031658,-6.25000000659566 -0.5851315877374,-0.5851315877378 -4.8283306686163,0 -5.7500000060678,0 -6.9596710479772,0 -22.3277643707152,-2.05741188645471 -28.5000000300753,0 -3.3513929470565,1.11713098235282 -7.841785691532,5.09178568862831 -10.5000000110804,7.75000000817841 -1.0414245099802,1.04142450998074 -7.19013610106221,6.86972782030102 -6.5000000068593,8.25000000870614 0.6228120067884,1.24562401357707 1.6947485150124,3.86684911201496 2.750000002902,4.50000000474869 7.8023231912024,4.68139391472164 32.9435892308624,8.90320541134699 41.7500000440577,4.5000000047487 6.9772453308935,-3.48862266544733 8.2066675560288,-12.57667020274585 9.7500000102889,-18.75000001978628 z"
       id="path4507"
       inkscape:connector-curvature="0"
       transform="matrix(0.5291666666666666,0,0,0.5291666666666666,-10.47566548723615,-42.6355303733301)" />
    <path
       style="opacity:1;vector-effect:none;fill:#999999;fill-opacity:1;stroke:#000000;stroke-width:2.5;stroke-linecap:round;stroke-linejoin:round;stroke-miterlimit:4;stroke-dasharray:none;stroke-dashoffset:0;stroke-opacity:1;paint-order:normal"
       d="m 143.000000150904,95.51968395560516 c 2.2763368482667,-2.00311416822797 10.3247979866786,-8.63369197101019 13.0000000137186,-14.25000001503783 1.7265869227779,-3.62478942715211 0,-13.29067499182702 0,-17.25000001820331 0,-2.93875634106323 0.076807265603,-21.673192757348 -2.0000000021106,-23.75000002506293 -0.5366648476994,-0.53666484769974 -4.5538970009935,7.80389700442403 -8.5000000089698,11.75000001239937 -0.9971065308995,0.99710653089938 -2.750000002902,6.43994953868469 -2.750000002902,7.50000000791488 0,1.35746386849292 1.464257072974,3.92871464700193 1.0000000010553,6.25000000659541 -1.0873336285411,5.4366681427057 -2.2500000023744,11.43643643110319 -2.2500000023744,17.00000001793957 0,2.28507079221252 -1.4612091283332,12.75000001345484 1.5000000015829,12.75000001345484 z"
       id="path4503"
       inkscape:connector-curvature="0"
       transform="matrix(0.5291666666666666,0,0,0.5291666666666666,-10.47566548723615,-42.6355303733301)"
       sodipodi:nodetypes="csssssssc" />
    <path
       style="opacity:1;vector-effect:none;fill:#ffffff;fill-opacity:1;stroke:#000000;stroke-width:2.5;stroke-linecap:round;stroke-linejoin:round;stroke-miterlimit:4;stroke-dasharray:none;stroke-dashoffset:0;stroke-opacity:1;paint-order:normal"
       d="m 106.1798777577416,53.98017928802028 c 4.4600025328043,-1.39391721661991 9.9054120871251,-0.8172386277256 14.7627043104333,-0.8172386277256 3.4255617459917,0 12.6307294600415,-0.29950374848954 14.7627043104332,-0.81723862772583 7.9053765965721,-1.91976429590204 11.1690910554889,2.35846552898488 9.8418028736221,10.21548284657115 -0.2062449665992,1.22088804554551 -2.2814178952364,32.84925291789431 -2.5303294002331,33.09816442289093 -5.0349011566487,5.03490115664837 -37.0652068914819,6.51232536993066 -41.6791700140105,-0.4086193138628 -4.47957972324792,-6.71936958487231 -3.45358448146175,-35.25694889480087 -0.078613517056,-40.86193138628505 0.890611775891,-1.47908336493127 3.550979599291,-0.69300649804086 4.920901436811,-0.4086193138628 z"
       id="path4485"
       inkscape:connector-curvature="0"
       transform="matrix(0.5291666666666666,0,0,0.5291666666666666,-10.47566548723615,-42.6355303733301)"
       sodipodi:nodetypes="cssssssc" />
    <g
       id="g4501"
       transform="matrix(2,0,0,2,-11.24892354231642,-41.93351298399627)">
      <path
         sodipodi:nodetypes="csc"
         transform="scale(0.2645833333333333)"
         inkscape:connector-curvature="0"
         id="path4491"
         d="m 115.2860577059734,71.07616626233539 c 0.5838179466566,-3.24607274695518 3.9749467978637,-11.05510304025256 8.379187151562,-11.12409328741863 3.3987590789111,-0.0532398802247 7.075359459947,9.52892211069683 7.9457809195846,10.97962454342608"
         style="opacity:1;vector-effect:none;fill:none;fill-opacity:1;stroke:#000000;stroke-width:2.5;stroke-linecap:round;stroke-linejoin:round;stroke-miterlimit:4;stroke-dasharray:none;stroke-dashoffset:0;stroke-opacity:1;paint-order:normal" />
      <path
         transform="matrix(0.2469546971899902,0,0,0.2280263899005453,2.292932299321249,2.75443018798893)"
         inkscape:connector-curvature="0"
         id="path4497"
         d="m 122.7984323935806,57.92951055902268 c 2.0592476886167,10.7367796568594 1.4446874399245,22.40562693154674 1.4446874399245,33.66121735024012"
         style="opacity:1;vector-effect:none;fill:none;fill-opacity:1;stroke:#000000;stroke-width:2.7874128819;stroke-linecap:round;stroke-linejoin:round;stroke-miterlimit:4;stroke-dasharray:none;stroke-dashoffset:0;stroke-opacity:1;paint-order:normal" />
    </g>
    <path
       style="opacity:1;vector-effect:none;fill:none;fill-opacity:1;stroke:#000000;stroke-width:5;stroke-linecap:round;stroke-linejoin:round;stroke-miterlimit:4;stroke-dasharray:none;stroke-dashoffset:0;stroke-opacity:0.9882352941;paint-order:normal"
       d="m 87.57695251580445,160.2207912428196 c -5.83869676308368,0.8496620169391 -19.46606351510586,0.3775808765799 -22.45044279273509,4.8541497930238 -1.44059133647152,2.1608870047073 1.13098982246339,14.2322588759012 1.82030617238392,16.9895242755833 1.31598606353718,5.2639442541487 0,12.5566327079081 0,18.0008054824632 0,3.0077551149406 -0.0618861742439,11.0931501885577 0,11.1240932756796 3.45118811982046,1.7255940599102 19.98557886857593,0.202256241376 25.07977393062298,0.202256241376"
       id="path4554"
       inkscape:connector-curvature="0"
       transform="matrix(0.2645833333333333,0,0,0.2645833333333333,23.93931528604367,-27.57312794168428)" />
    <path
       style="opacity:1;vector-effect:none;fill:none;fill-opacity:1;stroke:#000000;stroke-width:5;stroke-linecap:round;stroke-linejoin:round;stroke-miterlimit:4;stroke-dasharray:none;stroke-dashoffset:0;stroke-opacity:0.9882352941;paint-order:normal"
       d="m 63.10394730930944,188.9411775182104 c 4.72527820883376,-2.4662296738499 16.65424749905505,-0.5171798878106 23.25946775823906,-1.6180499310079"
       id="path4556"
       inkscape:connector-curvature="0"
       transform="matrix(0.2645833333333333,0,0,0.2645833333333333,23.93931528604367,-27.57312794168428)" />
    <path
       style="opacity:1;vector-effect:none;fill:none;fill-opacity:1;stroke:#000000;stroke-width:5;stroke-linecap:round;stroke-linejoin:round;stroke-miterlimit:4;stroke-dasharray:none;stroke-dashoffset:0;stroke-opacity:0.9882352941;paint-order:normal"
       d="m 106.1845267223957,176.4012905528989 c 0.148497291253,4.0462544409806 4.8709747735627,8.5115871183306 7.6857371722877,11.3263495170556 1.863089245964,1.8630892459639 3.0991975807489,5.0087071536278 4.6518935516478,7.0789684481597 4.9977245502571,6.6636327336761 9.9172374870441,13.7578788533142 16.5850117928313,18.2030617238392"
       id="path4558"
       inkscape:connector-curvature="0"
       transform="matrix(0.2645833333333333,0,0,0.2645833333333333,23.93931528604367,-27.57312794168428)" />
    <path
       style="opacity:1;vector-effect:none;fill:none;fill-opacity:1;stroke:#000000;stroke-width:5;stroke-linecap:round;stroke-linejoin:round;stroke-miterlimit:4;stroke-dasharray:none;stroke-dashoffset:0;stroke-opacity:0.9882352941;paint-order:normal"
       d="m 134.5004005150346,179.2328779321628 c -4.7976789214893,0.8102169135603 -7.7159828394933,8.4223952387275 -10.3150683101756,12.1353744825595 -4.3757781415822,6.2511116308317 -14.073852083986,14.2261101297374 -15.7759868273274,21.0346491031032"
       id="path4560"
       inkscape:connector-curvature="0"
       transform="matrix(0.2645833333333333,0,0,0.2645833333333333,23.93931528604367,-27.57312794168428)" />
    <path
       style="opacity:1;vector-effect:none;fill:none;fill-opacity:1;stroke:#000000;stroke-width:5;stroke-linecap:round;stroke-linejoin:round;stroke-miterlimit:4;stroke-dasharray:none;stroke-dashoffset:0;stroke-opacity:0.9882352941;paint-order:normal"
       d="m 150.0741311009859,175.7945218287709 c 10.6446212190971,-9.4312013584806 7.0280345494899,10.2146798661393 4.6518935516478,14.9669618618234 -1.4683084718573,2.9366169437146 0,10.6042452991811 0,13.9556806549435 0,0.5081044436495 -0.3251545278394,2.9109453341764 0,3.2360998620158 3.8135758471889,3.813575847189 10.3372054080281,4.5381857016822 8.4947621377917,-2.8315873792639"
       id="path4562"
       inkscape:connector-curvature="0"
       transform="matrix(0.2645833333333333,0,0,0.2645833333333333,23.93931528604367,-27.57312794168428)" />
    <path
       style="opacity:1;vector-effect:none;fill:none;fill-opacity:1;stroke:#000000;stroke-width:5;stroke-linecap:round;stroke-linejoin:round;stroke-miterlimit:4;stroke-dasharray:none;stroke-dashoffset:0;stroke-opacity:0.9882352941;paint-order:normal"
       d="m 152.2989497561218,156.7824351394277 c -5.0465731555838,1.2041584860541 -5.2980966861755,10.1128120687996 1.415793689632,10.1128120687996 0.4474448336061,0 1.0329089101121,0.5959548725119 1.4157936896319,0.404512482752 3.1132902088855,-1.5566451044428 4.480415661458,-9.7632601799564 2.6293311378879,-12.5398869653115 -0.7772356469663,-1.1658534704495 -4.8545806425728,-1.6180499310079 -6.4721997240317,-1.6180499310079"
       id="path4564"
       inkscape:connector-curvature="0"
       transform="matrix(0.2645833333333333,0,0,0.2645833333333333,23.93931528604367,-27.57312794168428)" />
    <path
       style="opacity:1;vector-effect:none;fill:none;fill-opacity:1;stroke:#000000;stroke-width:5;stroke-linecap:round;stroke-linejoin:round;stroke-miterlimit:4;stroke-dasharray:none;stroke-dashoffset:0;stroke-opacity:0.9882352941;paint-order:normal"
       d="m 177.1764674453688,155.3666414497957 c -1.2009858783274,8.1798711529278 0.6672681995477,15.8762279630504 2.2248186551359,23.6639802409911 1.5731853112866,7.8659265564323 0.9980145270126,18.5943075267239 6.8767122067837,24.473005206495 1.1746711242042,1.1746711242042 7.3852372788462,2.9298310313295 8.8992746205437,1.415793689632 1.2878945644043,-1.2878945644044 2.1891652822675,-4.0571195160369 2.8315873792639,-5.6631747585278"
       id="path4566"
       inkscape:connector-curvature="0"
       transform="matrix(0.2645833333333333,0,0,0.2645833333333333,23.93931528604367,-27.57312794168428)" />
    <path
       style="opacity:1;vector-effect:none;fill:none;fill-opacity:1;stroke:#000000;stroke-width:5;stroke-linecap:round;stroke-linejoin:round;stroke-miterlimit:4;stroke-dasharray:none;stroke-dashoffset:0;stroke-opacity:0.9882352941;paint-order:normal"
       d="m 169.6929865144571,179.2328779321628 c 2.9888306106657,0.143772553672 6.0158633537817,-1.6556580194774 9.1015308619197,-2.4270748965119 3.4755166406685,-0.8688791601671 10.2028040460816,0.9512865553586 13.1466556894394,-1.01128120688"
       id="path4568"
       inkscape:connector-curvature="0"
       transform="matrix(0.2645833333333333,0,0,0.2645833333333333,23.93931528604367,-27.57312794168428)" />
  </g>
  <g
     inkscape:groupmode="layer"
     id="layer2"
     inkscape:label="2"
     style="display:inline"
     transform="translate(-23.93931528604367,27.57312794168428)">
    <path
       style="opacity:1;vector-effect:none;fill:#999999;fill-opacity:1;stroke:#000000;stroke-width:2.5;stroke-linecap:round;stroke-linejoin:round;stroke-miterlimit:4;stroke-dasharray:none;stroke-dashoffset:0;stroke-opacity:1;paint-order:normal"
       d="m 156.2500001648866,39.01968389598074 c -1.4640936665625,10.69267132139702 3.6966646379048,33.16000613298182 0.7500000007915,42.00000004432148 -0.8269850294872,2.48095508846157 -4.6153532376814,6.05469306713917 -6.4393398347357,7.87867966419482 -2.0639025490375,2.06390254903886 -4.2975776713591,1.23629626995694 -9.5909902682106,-0.52817459566131 -1.8481052378215,-0.6160350792743 -4.3887923101216,0.64212776534036 -4.9696699192145,-1.10050506193808 -3.5545729529758,-10.66371885892653 -5.0341524532135,-28.46584758213889 3.2500000034297,-36.75000003878029 1.8765933462899,-1.87659334628939 1.896750272572,-5.42256270865007 4.0000000042211,-7.00000000738692 4.0371229673773,-3.02784222553306 7.6864107162588,-3.17160268038403 13.0000000137185,-4.50000000474969 z"
       id="path4539"
       inkscape:connector-curvature="0"
       transform="matrix(0.5291666666666666,0,0,0.5291666666666666,-10.47566548723615,-42.6355303733301)"
       sodipodi:nodetypes="cssssssc" />
    <path
       style="opacity:1;vector-effect:none;fill:#cccccc;fill-opacity:1;stroke:#000000;stroke-width:2.5;stroke-linecap:round;stroke-linejoin:round;stroke-miterlimit:4;stroke-dasharray:none;stroke-dashoffset:0;stroke-opacity:1;paint-order:normal"
       d="m 106.7803301987124,47.20902373256286 c 4.9681397780865,-9.58272616511681 16.4274472107351,-8.68933983710986 31.2196699469155,-8.68933983710986 1.9738073407142,0 19.2073903269725,-1.12217092129481 18.2500000192587,1.75000000184673 -0.661276162262,1.98382848678625 -3.8500004884823,2.70000097168804 -4.7500000050125,4.5000000047487 -1.2853847863446,2.57076957268941 -4.1061815778352,8.42809079564427 -6.7500000071232,9.75000001028911 -11.4039788848551,-1.35535055475043 -28.1313507683325,-2.534627254415 -37.9696699540385,-7.31066017977468 z"
       id="path4537"
       inkscape:connector-curvature="0"
       transform="matrix(0.5291666666666666,0,0,0.5291666666666666,-10.47566548723615,-42.6355303733301)"
       sodipodi:nodetypes="cssscc" />
    <g
       id="g4570"
       transform="matrix(2,0,0,2,-6.640347763803752,-46.65793676619819)">
      <path
         transform="scale(0.2645833333333333)"
         inkscape:connector-curvature="0"
         id="path4535"
         d="m 101.0000001065827,52.26968390996308 c 9.2012961100007,0.0972713789556 18.0257055491244,-1.50000000158298 27.2500000287562,-1.50000000158298 2.4922719904721,0 14.768074733453,-0.84788792409199 16.0000000168844,1.00000000105525 1.0779410864386,1.6169116296578 1.1573462592656,3.5646925198498 2.0000000021106,5.25000000554018 0.9719665216507,1.94393304330196 -1.2500000013191,4.34480414354653 -1.2500000013191,6.25000000659566 0,1.86055926665494 -1.7975332006834,32.06417250470326 -1.8535533926426,32.23223308058112 -0.095032489158,0.28509746747388 -1.9651943672065,3.05214083456306 -2.3964466118423,3.26776695688092 -3.8526844356105,1.92634221780577 -35.9023701306442,3.81508660885427 -39.7500000419472,1.25000000131926 -6.06916969580989,-4.04611313053925 -3.57670364552247,-44.17329640486813 0,-47.75000005038942 z"
         style="opacity:1;vector-effect:none;fill:#ffffff;fill-opacity:1;stroke:#000000;stroke-width:2.5;stroke-linecap:round;stroke-linejoin:round;stroke-miterlimit:4;stroke-dasharray:none;stroke-dashoffset:0;stroke-opacity:1;paint-order:normal"
         sodipodi:nodetypes="csssssssc" />
      <path
         sodipodi:nodetypes="ccc"
         transform="scale(0.2645833333333333)"
         inkscape:connector-curvature="0"
         id="path4543"
         d="m 113.8750001802539,72.89468337790822 c 0.561158837177,-2.48714849063458 6.6325144052258,-14.74624282597756 9.8750000156313,-13.12500002077558 1.4296476444723,4.43479079755365 5.149176754844,8.33171107691054 7.3750000116739,12.00000001899479"
         style="opacity:1;vector-effect:none;fill:none;fill-opacity:1;stroke:#000000;stroke-width:2.5;stroke-linecap:round;stroke-linejoin:round;stroke-miterlimit:4;stroke-dasharray:none;stroke-dashoffset:0;stroke-opacity:1;paint-order:normal" />
      <path
         transform="scale(0.2645833333333333)"
         inkscape:connector-curvature="0"
         id="path4545"
         d="m 122.8750001945001,59.76968335713264 c 0.2276158367376,10.01155441656419 -2.1982152614312,21.33213900195914 0.2500000003957,31.125000049268"
         style="opacity:1;vector-effect:none;fill:#ffffff;fill-opacity:1;stroke:#000000;stroke-width:2.5;stroke-linecap:round;stroke-linejoin:round;stroke-miterlimit:4;stroke-dasharray:none;stroke-dashoffset:0;stroke-opacity:1;paint-order:normal" />
    </g>
    <path
       style="opacity:1;vector-effect:none;fill:none;fill-opacity:1;stroke:#000000;stroke-width:5;stroke-linecap:round;stroke-linejoin:round;stroke-miterlimit:4;stroke-dasharray:none;stroke-dashoffset:0;stroke-opacity:0.9882352941;paint-order:normal"
       d="m 51.20000000000005,160.7597765363128 c -5.60541840079029,0.8367088666483 -11.39986033562089,0.8160849271993 -16.87597765363131,2.2882681564245 -3.88728127517681,4.5028991759633 -3.76424953683379,10.8655439569832 -3.92718619191078,16.4818478279 0.14322715404866,6.5053477498458 0.29836500132727,13.0083925658005 -0.049377689556,19.5109816749133 0.14143297522936,3.4042466719064 -0.18409436403846,7.3648208359891 1.99714050467708,10.1993051775915 3.1826504640436,2.1823285230146 7.25461893650063,1.8611956091705 10.92601818816366,2.6159837140485 3.70823569483305,0.6488684305986 7.47368275094041,0.9929135994206 10.84087085814338,-0.6479672903859 2.49138405185393,0.3390274951302 4.57456020030172,-1.0011239314897 7.09968516847148,-0.6785868582572"
       id="path4514"
       inkscape:connector-curvature="0"
       transform="matrix(0.2645833333333333,0,0,0.2645833333333333,32.07338712242297,-27.57312794168429)" />
    <path
       style="opacity:1;vector-effect:none;fill:none;fill-opacity:1;stroke:#000000;stroke-width:5;stroke-linecap:round;stroke-linejoin:round;stroke-miterlimit:4;stroke-dasharray:none;stroke-dashoffset:0;stroke-opacity:0.9882352941;paint-order:normal"
       d="m 30.31955307262573,187.9329608938547 c 3.52162980326527,0.3055637110767 6.70496716299359,-1.8186411783421 10.32051529711213,-1.100780101056 4.4527337068696,0.2312404917176 9.04915553112116,1.3545865995362 13.42026682579293,-0.043353977156"
       id="path4516"
       inkscape:connector-curvature="0"
       transform="matrix(0.2645833333333333,0,0,0.2645833333333333,32.07338712242297,-27.57312794168429)" />
    <path
       style="opacity:1;vector-effect:none;fill:none;fill-opacity:1;stroke:#000000;stroke-width:5;stroke-linecap:round;stroke-linejoin:round;stroke-miterlimit:4;stroke-dasharray:none;stroke-dashoffset:0;stroke-opacity:0.9882352941;paint-order:normal"
       d="m 74.36871508379894,176.2055865921787 c 2.15647115891466,3.1465400059993 6.38982991740119,2.7383486537236 9.15238567077991,4.9555135666362 2.88002475960843,1.5787636146036 4.79720298570329,4.2222331740217 5.93823973583592,7.2452000084555 2.65761395141337,6.1454611133225 7.63912635653449,10.7766005123039 11.06964803186872,16.4461446982682 1.8419110196236,2.7198694004369 3.8276282071872,5.3584909827837 6.1615142710127,7.6793987098804"
       id="path4518"
       inkscape:connector-curvature="0"
       transform="matrix(0.2645833333333333,0,0,0.2645833333333333,32.07338712242297,-27.57312794168429)" />
    <path
       style="opacity:1;vector-effect:none;fill:none;fill-opacity:1;stroke:#000000;stroke-width:5;stroke-linecap:round;stroke-linejoin:round;stroke-miterlimit:4;stroke-dasharray:none;stroke-dashoffset:0;stroke-opacity:0.9882352941;paint-order:normal"
       d="m 103.8301675977655,179.6379888268156 c -7.09559624396459,4.4925248583565 -13.79979539403578,10.3162523123248 -17.51440994254413,17.981339794463 -1.348315071323,3.2430651015491 -3.99456031209455,5.7505989506078 -4.40392619482383,9.3358577553534 -0.43008136826033,1.0536346192312 -0.90295131852653,2.1365775241367 -0.96434542687791,3.2883890423624"
       id="path4520"
       inkscape:connector-curvature="0"
       transform="matrix(0.2645833333333333,0,0,0.2645833333333333,32.07338712242297,-27.57312794168429)" />
    <path
       style="opacity:1;vector-effect:none;fill:none;fill-opacity:1;stroke:#000000;stroke-width:5;stroke-linecap:round;stroke-linejoin:round;stroke-miterlimit:4;stroke-dasharray:none;stroke-dashoffset:0;stroke-opacity:0.9882352941;paint-order:normal"
       d="m 118.9899441968617,179.7810055505973 c -0.1216568283288,-1.9369791003832 0.5696095100845,-4.4450106894122 2.7022409789118,-4.9637844986606 1.5475679235504,1.4473681841408 1.8051575457273,3.7677027125881 2.859996447532,5.5271236291556 1.0303731706307,3.99646016278 0.6774406815874,8.1698010981215 0.642208774354,12.2539864513862 -0.038230249276,3.7399381787112 -0.3695529486775,7.4690513322277 -0.4718767931144,11.2046680055659 0.046366993396,2.1168230680444 0.1392325894253,4.4298872891021 1.3457424900606,6.2407660393463 1.446486223581,1.6475677720668 4.7297076920005,1.7200394098426 5.6823145811112,-0.4871057604405 0.4100421830653,-1.21927272425 -0.078856371149,-2.5041009886897 -0.6042018914354,-3.6035868134374"
       id="path4538"
       inkscape:connector-curvature="0"
       transform="matrix(0.2645833333333333,0,0,0.2645833333333333,32.07338712242297,-27.57312794168429)" />
    <path
       style="opacity:1;vector-effect:none;fill:none;fill-opacity:1;stroke:#000000;stroke-width:5;stroke-linecap:round;stroke-linejoin:round;stroke-miterlimit:4;stroke-dasharray:none;stroke-dashoffset:0;stroke-opacity:0.9882352941;paint-order:normal"
       d="m 120.7061453150857,157.4703910136857 c -3.142539743024,-0.7100583848072 -3.9257371065662,2.8249457639326 -3.4324022364479,5.2916201145239 0.7567843025601,3.783921512801 9.172379177812,3.2314658347433 10.1541899494918,0.286033519704 1.4990396227682,-4.4971188683047 -4.6358162478409,-14.2505483508554 -8.2949720714159,-8.1519553115638"
       id="path4548"
       inkscape:connector-curvature="0"
       transform="matrix(0.2645833333333333,0,0,0.2645833333333333,32.07338712242297,-27.57312794168429)" />
    <path
       style="opacity:1;vector-effect:none;fill:none;fill-opacity:1;stroke:#000000;stroke-width:5;stroke-linecap:round;stroke-linejoin:round;stroke-miterlimit:4;stroke-dasharray:none;stroke-dashoffset:0;stroke-opacity:0.9882352941;paint-order:normal"
       d="m 145.624493790714,155.1643852084198 c 0.4632946555812,0.3196158721214 1.1196827207926,-0.1661224034051 1.618049931008,0 1.0130412128681,0.3376804042894 1.8203061723839,6.0314183494653 1.8203061723839,7.0789684481597 0,2.1197480761854 0.4434351306319,5.6982759054195 1.0112812068799,7.6857371722877 0.5419628683946,1.8968700393811 0,4.8996910488071 0,6.8767122067837 0,7.6250303482095 -0.9010705816632,17.914814869323 3.0338436206399,24.473005206495 0.7833536210072,1.3055893683454 0.2544640844146,2.8837952223025 1.4157936896319,4.0451248275199 3.6778545208875,3.6778545208875 12.1674024379499,1.4899381094461 13.5511681721915,-4.0451248275199"
       id="path4550"
       inkscape:connector-curvature="0"
       transform="matrix(0.2645833333333333,0,0,0.2645833333333333,32.07338712242297,-27.57312794168429)" />
    <path
       style="opacity:1;vector-effect:none;fill:none;fill-opacity:1;stroke:#000000;stroke-width:5;stroke-linecap:round;stroke-linejoin:round;stroke-miterlimit:4;stroke-dasharray:none;stroke-dashoffset:0;stroke-opacity:0.9882352941;paint-order:normal"
       d="m 141.7816252045702,179.0306216907868 c 5.9374910079469,-1.8168489964543 12.405629685413,-0.6203685164235 18.4053179652152,-1.8203061723839"
       id="path4552"
       inkscape:connector-curvature="0"
       transform="matrix(0.2645833333333333,0,0,0.2645833333333333,32.07338712242297,-27.57312794168429)" />
  </g>
</svg>
