<?xml version="1.0" encoding="UTF-8" standalone="no"?>
<!-- Created with Inkscape (http://www.inkscape.org/) -->

<svg
   xmlns:dc="http://purl.org/dc/elements/1.1/"
   xmlns:cc="http://creativecommons.org/ns#"
   xmlns:rdf="http://www.w3.org/1999/02/22-rdf-syntax-ns#"
   xmlns:svg="http://www.w3.org/2000/svg"
   xmlns="http://www.w3.org/2000/svg"
   xmlns:sodipodi="http://sodipodi.sourceforge.net/DTD/sodipodi-0.dtd"
   xmlns:inkscape="http://www.inkscape.org/namespaces/inkscape"
   width="500"
   height="450"
   viewBox="0 0 132.2916604223573 119.0624975204957"
   version="1.1"
   id="svg8"
   inkscape:version="0.92.1 r15371"
   sodipodi:docname="move-tutorial.svg">
  <defs
     id="defs2" />
  <sodipodi:namedview
     id="base"
     pagecolor="#ffffff"
     bordercolor="#666666"
     borderopacity="1.0"
     inkscape:pageopacity="0.0"
     inkscape:pageshadow="2"
     inkscape:zoom="0.6180279003874605"
     inkscape:cx="510.5826219652943"
     inkscape:cy="-67.10511686310383"
     inkscape:document-units="mm"
     inkscape:current-layer="layer2"
     showgrid="false"
     inkscape:snap-global="false"
     inkscape:window-width="1920"
     inkscape:window-height="1027"
     inkscape:window-x="-8"
     inkscape:window-y="-8"
     inkscape:window-maximized="1"
     fit-margin-top="0"
     fit-margin-left="0"
     fit-margin-right="0"
     fit-margin-bottom="0"
     units="px" />
  <metadata
     id="metadata5">
    <rdf:RDF>
      <cc:Work
         rdf:about="">
        <dc:format>image/svg+xml</dc:format>
        <dc:type
           rdf:resource="http://purl.org/dc/dcmitype/StillImage" />
        <dc:title></dc:title>
      </cc:Work>
    </rdf:RDF>
  </metadata>
  <g
     inkscape:label="Layer 1"
     inkscape:groupmode="layer"
     id="layer1"
     style="display:inline;opacity:1"
     transform="translate(-42.16797743963581,80.45578162849356)">
    <path
       style="opacity:1;vector-effect:none;fill:#cccccc;fill-opacity:1;stroke:#000000;stroke-width:2.5;stroke-linecap:round;stroke-linejoin:round;stroke-miterlimit:4;stroke-dasharray:none;stroke-dashoffset:0;stroke-opacity:1;paint-order:normal"
       d="m 154.7500001633035,45.51968390284151 c -1.679590523001,-1.98850349592021 -1.3690670913391,-4.61906709476807 -3.0000000031658,-6.25000000659566 -0.5851315877374,-0.5851315877378 -4.8283306686163,0 -5.7500000060678,0 -6.9596710479772,0 -22.3277643707152,-2.05741188645471 -28.5000000300753,0 -3.3513929470565,1.11713098235282 -7.841785691532,5.09178568862831 -10.5000000110804,7.75000000817841 -1.0414245099802,1.04142450998074 -7.19013610106256,6.86972782030102 -6.5000000068593,8.25000000870614 0.6228120067884,1.24562401357707 1.6947485150124,3.86684911201496 2.750000002902,4.50000000474869 7.8023231912024,4.68139391472164 32.9435892308624,8.90320541134699 41.7500000440577,4.5000000047487 6.9772453308935,-3.48862266544733 8.2066675560288,-12.57667020274585 9.7500000102889,-18.75000001978628 z"
       id="path4507"
       inkscape:connector-curvature="0"
       transform="matrix(0.5291666666666666,0,0,0.5291666666666666,8.34252813942534,-52.17236667097685)" />
    <path
       style="opacity:1;vector-effect:none;fill:#999999;fill-opacity:1;stroke:#000000;stroke-width:2.5;stroke-linecap:round;stroke-linejoin:round;stroke-miterlimit:4;stroke-dasharray:none;stroke-dashoffset:0;stroke-opacity:1;paint-order:normal"
       d="m 143.000000150904,95.51968395560516 c 2.2763368482667,-2.00311416822797 10.3247979866786,-8.63369197101019 13.0000000137186,-14.25000001503783 1.7265869227779,-3.62478942715211 0,-13.29067499182702 0,-17.25000001820331 0,-2.93875634106323 0.076807265603,-21.673192757348 -2.0000000021106,-23.75000002506293 -0.5366648476994,-0.53666484769974 -4.5538970009935,7.80389700442403 -8.5000000089698,11.75000001239937 -0.9971065308995,0.99710653089938 -2.750000002902,6.43994953868469 -2.750000002902,7.50000000791488 0,1.35746386849292 1.464257072974,3.92871464700193 1.0000000010553,6.25000000659541 -1.0873336285411,5.4366681427057 -2.2500000023744,11.43643643110319 -2.2500000023744,17.00000001793957 0,2.28507079221252 -1.4612091283332,12.75000001345484 1.5000000015829,12.75000001345484 z"
       id="path4503"
       inkscape:connector-curvature="0"
       transform="matrix(0.5291666666666666,0,0,0.5291666666666666,8.34252813942534,-52.17236667097685)"
       sodipodi:nodetypes="csssssssc" />
    <path
       style="opacity:1;vector-effect:none;fill:#ffffff;fill-opacity:1;stroke:#000000;stroke-width:2.5;stroke-linecap:round;stroke-linejoin:round;stroke-miterlimit:4;stroke-dasharray:none;stroke-dashoffset:0;stroke-opacity:1;paint-order:normal"
       d="m 106.1798777577416,53.98017928802028 c 4.4600025328043,-1.39391721661991 9.9054120871251,-0.8172386277256 14.7627043104333,-0.8172386277256 3.4255617459917,0 12.6307294600415,-0.29950374848954 14.7627043104332,-0.81723862772583 7.9053765965721,-1.91976429590204 11.1690910554889,2.35846552898488 9.8418028736221,10.21548284657115 -0.2062449665992,1.22088804554551 -2.2814178952364,32.84925291789431 -2.5303294002331,33.09816442289093 -5.0349011566487,5.03490115664837 -37.0652068914819,6.51232536993066 -41.6791700140105,-0.4086193138628 -4.47957972324792,-6.71936958487231 -3.45358448146175,-35.25694889480087 -0.078613517056,-40.86193138628505 0.890611775891,-1.47908336493127 3.550979599291,-0.69300649804086 4.920901436811,-0.4086193138628 z"
       id="path4485"
       inkscape:connector-curvature="0"
       transform="matrix(0.5291666666666666,0,0,0.5291666666666666,8.34252813942534,-52.17236667097685)"
       sodipodi:nodetypes="cssssssc" />
    <g
       id="g4501"
       transform="matrix(-2.449212707644754e-16,-2,2,-2.449212707644754e-16,33.39232936779457,53.35629811137808)">
      <path
         sodipodi:nodetypes="csc"
         transform="scale(0.2645833333333333)"
         inkscape:connector-curvature="0"
         id="path4491"
         d="m 115.2860577059734,71.07616626233539 c 0.5838179466566,-3.24607274695518 3.9749467978637,-11.05510304025256 8.379187151562,-11.12409328741863 3.3987590789111,-0.0532398802247 7.075359459947,9.52892211069683 7.9457809195846,10.97962454342608"
         style="opacity:1;vector-effect:none;fill:none;fill-opacity:1;stroke:#000000;stroke-width:2.5;stroke-linecap:round;stroke-linejoin:round;stroke-miterlimit:4;stroke-dasharray:none;stroke-dashoffset:0;stroke-opacity:1;paint-order:normal" />
      <path
         transform="matrix(0.2469546971899902,0,0,0.2280263899005453,2.292932299321249,2.75443018798893)"
         inkscape:connector-curvature="0"
         id="path4497"
         d="m 122.7984323935806,57.92951055902268 c 2.0592476886167,10.7367796568594 1.4446874399245,22.40562693154674 1.4446874399245,33.66121735024012"
         style="opacity:1;vector-effect:none;fill:none;fill-opacity:1;stroke:#000000;stroke-width:2.7875883579;stroke-linecap:round;stroke-linejoin:round;stroke-miterlimit:4;stroke-dasharray:none;stroke-dashoffset:0;stroke-opacity:1;paint-order:normal" />
    </g>
    <path
       transform="matrix(0.5291666666666666,0,0,0.5291666666666666,44.08963329623078,-52.17236667097685)"
       inkscape:connector-curvature="0"
       id="path4513"
       d="m 154.7500001633035,45.51968390284151 c -1.679590523001,-1.98850349592021 -1.3690670913391,-4.61906709476807 -3.0000000031658,-6.25000000659566 -0.5851315877374,-0.5851315877378 -4.8283306686163,0 -5.7500000060678,0 -6.9596710479772,0 -22.3277643707152,-2.05741188645471 -28.5000000300753,0 -3.3513929470565,1.11713098235282 -7.841785691532,5.09178568862831 -10.5000000110804,7.75000000817841 -1.0414245099802,1.04142450998074 -7.19013610106258,6.86972782030102 -6.5000000068593,8.25000000870614 0.6228120067884,1.24562401357707 1.6947485150124,3.86684911201496 2.750000002902,4.50000000474869 7.8023231912024,4.68139391472164 32.9435892308624,8.90320541134699 41.7500000440577,4.5000000047487 6.9772453308935,-3.48862266544733 8.2066675560288,-12.57667020274585 9.7500000102889,-18.75000001978628 z"
       style="opacity:1;vector-effect:none;fill:#cccccc;fill-opacity:1;stroke:#000000;stroke-width:2.5;stroke-linecap:round;stroke-linejoin:round;stroke-miterlimit:4;stroke-dasharray:none;stroke-dashoffset:0;stroke-opacity:1;paint-order:normal" />
    <path
       sodipodi:nodetypes="csssssssc"
       transform="matrix(0.5291666666666666,0,0,0.5291666666666666,44.08963329623078,-52.17236667097685)"
       inkscape:connector-curvature="0"
       id="path4515"
       d="m 143.000000150904,95.51968395560516 c 2.2763368482667,-2.00311416822797 10.3247979866786,-8.63369197101019 13.0000000137186,-14.25000001503783 1.7265869227779,-3.62478942715211 0,-13.29067499182702 0,-17.25000001820331 0,-2.93875634106323 0.076807265603,-21.673192757348 -2.0000000021106,-23.75000002506293 -0.5366648476994,-0.53666484769974 -4.5538970009935,7.80389700442403 -8.5000000089698,11.75000001239937 -0.9971065308995,0.99710653089938 -2.750000002902,6.43994953868469 -2.750000002902,7.50000000791488 0,1.35746386849292 1.464257072974,3.92871464700193 1.0000000010553,6.25000000659541 -1.0873336285411,5.4366681427057 -2.2500000023744,11.43643643110319 -2.2500000023744,17.00000001793957 0,2.28507079221252 -1.4612091283332,12.75000001345484 1.5000000015829,12.75000001345484 z"
       style="opacity:1;vector-effect:none;fill:#999999;fill-opacity:1;stroke:#000000;stroke-width:2.5;stroke-linecap:round;stroke-linejoin:round;stroke-miterlimit:4;stroke-dasharray:none;stroke-dashoffset:0;stroke-opacity:1;paint-order:normal" />
    <path
       sodipodi:nodetypes="cssssssc"
       transform="matrix(0.5291666666666666,0,0,0.5291666666666666,44.08963329623078,-52.17236667097685)"
       inkscape:connector-curvature="0"
       id="path4517"
       d="m 106.1798777577416,53.98017928802028 c 4.4600025328043,-1.39391721661991 9.9054120871251,-0.8172386277256 14.7627043104333,-0.8172386277256 3.4255617459917,0 12.6307294600415,-0.29950374848954 14.7627043104332,-0.81723862772583 7.9053765965721,-1.91976429590204 11.1690910554889,2.35846552898488 9.8418028736221,10.21548284657115 -0.2062449665992,1.22088804554551 -2.2814178952364,32.84925291789431 -2.5303294002331,33.09816442289093 -5.0349011566487,5.03490115664837 -37.0652068914819,6.51232536993066 -41.6791700140105,-0.4086193138628 -4.47957972324792,-6.71936958487231 -3.45358448146175,-35.25694889480087 -0.078613517056,-40.86193138628505 0.890611775891,-1.47908336493127 3.550979599291,-0.69300649804086 4.920901436811,-0.4086193138628 z"
       style="opacity:1;vector-effect:none;fill:#ffffff;fill-opacity:1;stroke:#000000;stroke-width:2.5;stroke-linecap:round;stroke-linejoin:round;stroke-miterlimit:4;stroke-dasharray:none;stroke-dashoffset:0;stroke-opacity:1;paint-order:normal" />
    <g
       transform="matrix(-2,2.449212707644754e-16,-2.449212707644754e-16,-2,173.9660819176211,27.53323882792892)"
       id="g4523">
      <path
         style="opacity:1;vector-effect:none;fill:none;fill-opacity:1;stroke:#000000;stroke-width:2.5;stroke-linecap:round;stroke-linejoin:round;stroke-miterlimit:4;stroke-dasharray:none;stroke-dashoffset:0;stroke-opacity:1;paint-order:normal"
         d="m 115.2860577059734,71.07616626233539 c 0.5838179466566,-3.24607274695518 3.9749467978637,-11.05510304025256 8.379187151562,-11.12409328741863 3.3987590789111,-0.0532398802247 7.075359459947,9.52892211069683 7.9457809195846,10.97962454342608"
         id="path4519"
         inkscape:connector-curvature="0"
         transform="scale(0.2645833333333333)"
         sodipodi:nodetypes="csc" />
      <path
         style="opacity:1;vector-effect:none;fill:none;fill-opacity:1;stroke:#000000;stroke-width:2.7874128819;stroke-linecap:round;stroke-linejoin:round;stroke-miterlimit:4;stroke-dasharray:none;stroke-dashoffset:0;stroke-opacity:1;paint-order:normal"
         d="m 122.7984323935806,57.92951055902268 c 2.0592476886167,10.7367796568594 1.4446874399245,22.40562693154674 1.4446874399245,33.66121735024012"
         id="path4521"
         inkscape:connector-curvature="0"
         transform="matrix(0.2469546971899902,0,0,0.2280263899005453,2.292932299321249,2.75443018798893)" />
    </g>
    <path
       style="opacity:1;vector-effect:none;fill:#cccccc;fill-opacity:1;stroke:#000000;stroke-width:2.5;stroke-linecap:round;stroke-linejoin:round;stroke-miterlimit:4;stroke-dasharray:none;stroke-dashoffset:0;stroke-opacity:1;paint-order:normal"
       d="m 154.7500001633035,45.51968390284151 c -1.679590523001,-1.98850349592021 -1.3690670913391,-4.61906709476807 -3.0000000031658,-6.25000000659566 -0.5851315877374,-0.5851315877378 -4.8283306686163,0 -5.7500000060678,0 -6.9596710479772,0 -22.3277643707152,-2.05741188645471 -28.5000000300753,0 -3.3513929470565,1.11713098235282 -7.841785691532,5.09178568862831 -10.5000000110804,7.75000000817841 -1.0414245099802,1.04142450998074 -7.19013610106259,6.86972782030102 -6.5000000068593,8.25000000870614 0.6228120067884,1.24562401357707 1.6947485150124,3.86684911201496 2.750000002902,4.50000000474869 7.8023231912024,4.68139391472164 32.9435892308624,8.90320541134699 41.7500000440577,4.5000000047487 6.9772453308935,-3.48862266544733 8.2066675560288,-12.57667020274585 9.7500000102889,-18.75000001978628 z"
       id="path4558"
       inkscape:connector-curvature="0"
       transform="matrix(0.5291666666666666,0,0,0.5291666666666666,80.69295654062437,-52.17236667097685)" />
    <path
       style="opacity:1;vector-effect:none;fill:#999999;fill-opacity:1;stroke:#000000;stroke-width:2.5;stroke-linecap:round;stroke-linejoin:round;stroke-miterlimit:4;stroke-dasharray:none;stroke-dashoffset:0;stroke-opacity:1;paint-order:normal"
       d="m 143.000000150904,95.51968395560516 c 2.2763368482667,-2.00311416822797 10.3247979866786,-8.63369197101019 13.0000000137186,-14.25000001503783 1.7265869227779,-3.62478942715211 0,-13.29067499182702 0,-17.25000001820331 0,-2.93875634106323 0.076807265603,-21.673192757348 -2.0000000021106,-23.75000002506293 -0.5366648476994,-0.53666484769974 -4.5538970009935,7.80389700442403 -8.5000000089698,11.75000001239937 -0.9971065308995,0.99710653089938 -2.750000002902,6.43994953868469 -2.750000002902,7.50000000791488 0,1.35746386849292 1.464257072974,3.92871464700193 1.0000000010553,6.25000000659541 -1.0873336285411,5.4366681427057 -2.2500000023744,11.43643643110319 -2.2500000023744,17.00000001793957 0,2.28507079221252 -1.4612091283332,12.75000001345484 1.5000000015829,12.75000001345484 z"
       id="path4560"
       inkscape:connector-curvature="0"
       transform="matrix(0.5291666666666666,0,0,0.5291666666666666,80.69295654062437,-52.17236667097685)"
       sodipodi:nodetypes="csssssssc" />
    <path
       style="opacity:1;vector-effect:none;fill:#ffffff;fill-opacity:1;stroke:#000000;stroke-width:2.5;stroke-linecap:round;stroke-linejoin:round;stroke-miterlimit:4;stroke-dasharray:none;stroke-dashoffset:0;stroke-opacity:1;paint-order:normal"
       d="m 106.1798777577416,53.98017928802028 c 4.4600025328043,-1.39391721661991 9.9054120871251,-0.8172386277256 14.7627043104333,-0.8172386277256 3.4255617459917,0 12.6307294600415,-0.29950374848954 14.7627043104332,-0.81723862772583 7.9053765965721,-1.91976429590204 11.1690910554889,2.35846552898488 9.8418028736221,10.21548284657115 -0.2062449665992,1.22088804554551 -2.2814178952364,32.84925291789431 -2.5303294002331,33.09816442289093 -5.0349011566487,5.03490115664837 -37.0652068914819,6.51232536993066 -41.6791700140105,-0.4086193138628 -4.47957972324792,-6.71936958487231 -3.45358448146175,-35.25694889480087 -0.078613517056,-40.86193138628505 0.890611775891,-1.47908336493127 3.550979599291,-0.69300649804086 4.920901436811,-0.4086193138628 z"
       id="path4562"
       inkscape:connector-curvature="0"
       transform="matrix(0.5291666666666666,0,0,0.5291666666666666,80.69295654062437,-52.17236667097685)"
       sodipodi:nodetypes="cssssssc" />
    <g
       id="g4568"
       transform="matrix(2.449212707644754e-16,2,-2,2.449212707644754e-16,184.7463458785656,-77.29340856509216)">
      <path
         sodipodi:nodetypes="csc"
         transform="scale(0.2645833333333333)"
         inkscape:connector-curvature="0"
         id="path4564"
         d="m 115.2860577059734,71.07616626233539 c 0.5838179466566,-3.24607274695518 3.9749467978637,-11.05510304025256 8.379187151562,-11.12409328741863 3.3987590789111,-0.0532398802247 7.075359459947,9.52892211069683 7.9457809195846,10.97962454342608"
         style="opacity:1;vector-effect:none;fill:none;fill-opacity:1;stroke:#000000;stroke-width:2.5;stroke-linecap:round;stroke-linejoin:round;stroke-miterlimit:4;stroke-dasharray:none;stroke-dashoffset:0;stroke-opacity:1;paint-order:normal" />
      <path
         transform="matrix(0.2469546971899902,0,0,0.2280263899005453,2.292932299321249,2.75443018798893)"
         inkscape:connector-curvature="0"
         id="path4566"
         d="m 122.7984323935806,57.92951055902268 c 2.0592476886167,10.7367796568594 1.4446874399245,22.40562693154674 1.4446874399245,33.66121735024012"
         style="opacity:1;vector-effect:none;fill:none;fill-opacity:1;stroke:#000000;stroke-width:2.7874128819;stroke-linecap:round;stroke-linejoin:round;stroke-miterlimit:4;stroke-dasharray:none;stroke-dashoffset:0;stroke-opacity:1;paint-order:normal" />
    </g>
    <path
       style="opacity:1;vector-effect:none;fill:#cccccc;fill-opacity:1;stroke:#000000;stroke-width:2.5;stroke-linecap:round;stroke-linejoin:round;stroke-miterlimit:4;stroke-dasharray:none;stroke-dashoffset:0;stroke-opacity:1;paint-order:normal"
       d="m 154.7500001633035,45.51968390284151 c -1.679590523001,-1.98850349592021 -1.3690670913391,-4.61906709476807 -3.0000000031658,-6.25000000659566 -0.5851315877374,-0.5851315877378 -4.8283306686163,0 -5.7500000060678,0 -6.9596710479772,0 -22.3277643707152,-2.05741188645471 -28.5000000300753,0 -3.3513929470565,1.11713098235282 -7.841785691532,5.09178568862831 -10.5000000110804,7.75000000817841 -1.0414245099802,1.04142450998074 -7.19013610106262,6.86972782030102 -6.5000000068593,8.25000000870614 0.6228120067884,1.24562401357707 1.6947485150124,3.86684911201496 2.750000002902,4.50000000474869 7.8023231912024,4.68139391472164 32.9435892308624,8.90320541134699 41.7500000440577,4.5000000047487 6.9772453308935,-3.48862266544733 8.2066675560288,-12.57667020274585 9.7500000102889,-18.75000001978628 z"
       id="path4602"
       inkscape:connector-curvature="0"
       transform="matrix(0.5291666666666666,0,0,0.5291666666666666,44.08963329623078,-90.91623513434092)" />
    <path
       style="opacity:1;vector-effect:none;fill:#999999;fill-opacity:1;stroke:#000000;stroke-width:2.5;stroke-linecap:round;stroke-linejoin:round;stroke-miterlimit:4;stroke-dasharray:none;stroke-dashoffset:0;stroke-opacity:1;paint-order:normal"
       d="m 143.000000150904,95.51968395560516 c 2.2763368482667,-2.00311416822797 10.3247979866786,-8.63369197101019 13.0000000137186,-14.25000001503783 1.7265869227779,-3.62478942715211 0,-13.29067499182702 0,-17.25000001820331 0,-2.93875634106323 0.076807265603,-21.673192757348 -2.0000000021106,-23.75000002506293 -0.5366648476994,-0.53666484769974 -4.5538970009935,7.80389700442403 -8.5000000089698,11.75000001239937 -0.9971065308995,0.99710653089938 -2.750000002902,6.43994953868469 -2.750000002902,7.50000000791488 0,1.35746386849292 1.464257072974,3.92871464700193 1.0000000010553,6.25000000659541 -1.0873336285411,5.4366681427057 -2.2500000023744,11.43643643110319 -2.2500000023744,17.00000001793957 0,2.28507079221252 -1.4612091283332,12.75000001345484 1.5000000015829,12.75000001345484 z"
       id="path4604"
       inkscape:connector-curvature="0"
       transform="matrix(0.5291666666666666,0,0,0.5291666666666666,44.08963329623078,-90.91623513434092)"
       sodipodi:nodetypes="csssssssc" />
    <path
       style="opacity:1;vector-effect:none;fill:#ffffff;fill-opacity:1;stroke:#000000;stroke-width:2.5;stroke-linecap:round;stroke-linejoin:round;stroke-miterlimit:4;stroke-dasharray:none;stroke-dashoffset:0;stroke-opacity:1;paint-order:normal"
       d="m 106.1798777577416,53.98017928802028 c 4.4600025328043,-1.39391721661991 9.9054120871251,-0.8172386277256 14.7627043104333,-0.8172386277256 3.4255617459917,0 12.6307294600415,-0.29950374848954 14.7627043104332,-0.81723862772583 7.9053765965721,-1.91976429590204 11.1690910554889,2.35846552898488 9.8418028736221,10.21548284657115 -0.2062449665992,1.22088804554551 -2.2814178952364,32.84925291789431 -2.5303294002331,33.09816442289093 -5.0349011566487,5.03490115664837 -37.0652068914819,6.51232536993066 -41.6791700140105,-0.4086193138628 -4.47957972324792,-6.71936958487231 -3.45358448146175,-35.25694889480087 -0.078613517056,-40.86193138628505 0.890611775891,-1.47908336493127 3.550979599291,-0.69300649804086 4.920901436811,-0.4086193138628 z"
       id="path4606"
       inkscape:connector-curvature="0"
       transform="matrix(0.5291666666666666,0,0,0.5291666666666666,44.08963329623078,-90.91623513434092)"
       sodipodi:nodetypes="cssssssc" />
    <g
       id="g4612"
       transform="matrix(-2,-2.449212707644754e-16,-2.449212707644754e-16,2,173.9660819176211,-90.19739011533147)">
      <path
         sodipodi:nodetypes="csc"
         transform="scale(0.2645833333333333)"
         inkscape:connector-curvature="0"
         id="path4608"
         d="m 115.2860577059734,71.07616626233539 c 0.5838179466566,-3.24607274695518 3.9749467978637,-11.05510304025256 8.379187151562,-11.12409328741863 3.3987590789111,-0.0532398802247 7.075359459947,9.52892211069683 7.9457809195846,10.97962454342608"
         style="opacity:1;vector-effect:none;fill:none;fill-opacity:1;stroke:#000000;stroke-width:2.5;stroke-linecap:round;stroke-linejoin:round;stroke-miterlimit:4;stroke-dasharray:none;stroke-dashoffset:0;stroke-opacity:1;paint-order:normal" />
      <path
         transform="matrix(0.2469546971899902,0,0,0.2280263899005453,2.292932299321249,2.75443018798893)"
         inkscape:connector-curvature="0"
         id="path4610"
         d="m 122.7984323935806,57.92951055902268 c 2.0592476886167,10.7367796568594 1.4446874399245,22.40562693154674 1.4446874399245,33.66121735024012"
         style="opacity:1;vector-effect:none;fill:none;fill-opacity:1;stroke:#000000;stroke-width:2.7874128819;stroke-linecap:round;stroke-linejoin:round;stroke-miterlimit:4;stroke-dasharray:none;stroke-dashoffset:0;stroke-opacity:1;paint-order:normal" />
    </g>
    <path
       style="opacity:1;vector-effect:none;fill:none;fill-opacity:1;stroke:#000000;stroke-width:5;stroke-linecap:round;stroke-linejoin:round;stroke-miterlimit:4;stroke-dasharray:none;stroke-dashoffset:0;stroke-opacity:0.9882352941;paint-order:normal"
       d="m 116.1296088772734,243.9955307283699 c 6.1434811777733,-16.2868306945513 -15.1263406255569,-55.8099721861766 -1.1441340776086,-69.7921787341249 7.0896528069553,-7.0896528069554 17.6639138440165,34.394186687175 22.3106145133678,29.7474860178237 7.9924778780908,-7.9924778780907 15.2773532396846,-33.1237359813057 24.0268156297807,-36.040223444671 7.3245942737805,-2.4415314245935 8.6947028056301,67.0419598426925 10.2972066984774,76.6569831997765"
       id="path4646"
       inkscape:connector-curvature="0"
       transform="matrix(0.2645833333333333,0,0,0.2645833333333333,53.75189779771424,-36.56341785661632)" />
    <path
       style="opacity:1;vector-effect:none;fill:none;fill-opacity:1;stroke:#000000;stroke-width:5;stroke-linecap:round;stroke-linejoin:round;stroke-miterlimit:4;stroke-dasharray:none;stroke-dashoffset:0;stroke-opacity:0.9882352941;paint-order:normal"
       d="m 224.2502792112865,190.7932961195698 c -6.8659814024348,0.3505333967044 -14.0520613729391,-1.0366499303966 -20.5944133969548,1.1441340776086 -9.3123983596535,3.1041327865511 -14.3016759701076,6.3737106778891 -14.3016759701076,16.0178770865204 0,41.1759142918602 61.0101391966931,25.155432293741 43.477094949127,-1.1441340776086 -3.9629910944374,-5.9444866416562 -2.4040640143263,-11.0763238323299 -8.5810055820646,-16.0178770865204 z"
       id="path4650"
       inkscape:connector-curvature="0"
       transform="matrix(0.2645833333333333,0,0,0.2645833333333333,53.75189779771424,-36.56341785661632)" />
    <path
       style="opacity:1;vector-effect:none;fill:none;fill-opacity:1;stroke:#000000;stroke-width:5;stroke-linecap:round;stroke-linejoin:round;stroke-miterlimit:4;stroke-dasharray:none;stroke-dashoffset:0;stroke-opacity:0.9882352941;paint-order:normal"
       d="m 245.9888266858501,191.9374301971784 c 1.2654400621166,13.5201072390438 4.8469876872738,25.9823038379076 9.1530726208688,38.9005586386925 7.2135557980886,21.6406673942657 15.1275921413759,-31.8122764459947 17.7340782029334,-38.3284915998882"
       id="path4652"
       inkscape:connector-curvature="0"
       transform="matrix(0.2645833333333333,0,0,0.2645833333333333,53.75189779771424,-36.56341785661632)" />
    <path
       style="opacity:1;vector-effect:none;fill:none;fill-opacity:1;stroke:#000000;stroke-width:4.3123221397;stroke-linecap:round;stroke-linejoin:round;stroke-miterlimit:4;stroke-dasharray:none;stroke-dashoffset:0;stroke-opacity:0.9882352941;paint-order:normal"
       d="m 288.8938545961727,213.6759776717419 c 10.5255692327749,-2.0499517691239 24.7440190349227,0.7855323750375 34.3240223282583,-4.0044692716301 7.2856503188167,-3.6428251594084 -25.3162571528154,-12.3675136855557 -34.3240223282583,1.1441340776086 -12.9676570216095,19.4514855324141 26.1948668062466,32.6879658643461 36.6122904834754,25.7430167461936"
       id="path4654"
       inkscape:connector-curvature="0"
       transform="matrix(0.2663505003628682,0,0,0.3533369222103457,53.21129226964857,-57.76562537683051)" />
  </g>
  <g
     inkscape:groupmode="layer"
     id="layer2"
     inkscape:label="2"
     style="display:inline;opacity:1"
     transform="translate(-42.16797743963581,80.45578162849356)">
    <path
       style="opacity:1;vector-effect:none;fill:#999999;fill-opacity:1;stroke:#000000;stroke-width:2.5;stroke-linecap:round;stroke-linejoin:round;stroke-miterlimit:4;stroke-dasharray:none;stroke-dashoffset:0;stroke-opacity:1;paint-order:normal"
       d="m 156.2500001648866,39.01968389598074 c -1.4640936665625,10.69267132139702 3.6966646379048,33.16000613298182 0.7500000007915,42.00000004432148 -0.8269850294872,2.48095508846157 -4.6153532376814,6.05469306713917 -6.4393398347357,7.87867966419482 -2.0639025490375,2.06390254903886 -4.2975776713591,1.23629626995694 -9.5909902682106,-0.52817459566131 -1.8481052378215,-0.6160350792743 -4.3887923101216,0.64212776534036 -4.9696699192145,-1.10050506193808 -3.5545729529758,-10.66371885892653 -5.0341524532135,-28.46584758213733 3.2500000034297,-36.75000003877882 1.8765933462899,-1.8765933462894 1.896750272572,-5.42256270865009 4.0000000042211,-7.00000000738693 4.0371229673773,-3.02784222553305 7.6864107162588,-3.17160268038404 13.0000000137185,-4.50000000475115 z"
       id="path4539"
       inkscape:connector-curvature="0"
       transform="matrix(0.5291666666666666,0,0,0.5291666666666666,8.34252813942534,-52.17236667097685)"
       sodipodi:nodetypes="cssssssc" />
    <path
       style="opacity:1;vector-effect:none;fill:#cccccc;fill-opacity:1;stroke:#000000;stroke-width:2.5;stroke-linecap:round;stroke-linejoin:round;stroke-miterlimit:4;stroke-dasharray:none;stroke-dashoffset:0;stroke-opacity:1;paint-order:normal"
       d="m 106.7803301987124,47.20902373256286 c 4.9681397780865,-9.58272616511681 16.4274472107351,-8.68933983710986 31.2196699469155,-8.68933983710986 1.9738073407142,0 19.2073903269725,-1.12217092129481 18.2500000192587,1.75000000184673 -0.661276162262,1.98382848678625 -3.8500004884823,2.70000097168804 -4.7500000050125,4.5000000047487 -1.2853847863446,2.57076957268941 -4.1061815778352,8.42809079564427 -6.7500000071232,9.75000001028911 -11.4039788848551,-1.35535055475043 -28.1313507683325,-2.534627254415 -37.9696699540385,-7.31066017977468 z"
       id="path4537"
       inkscape:connector-curvature="0"
       transform="matrix(0.5291666666666666,0,0,0.5291666666666666,8.34252813942534,-52.17236667097685)"
       sodipodi:nodetypes="cssscc" />
    <g
       id="g4570"
       transform="matrix(2,0,0,2,12.17784586285775,-56.19477306384496)">
      <path
         transform="scale(0.2645833333333333)"
         inkscape:connector-curvature="0"
         id="path4535"
         d="m 101.0000001065827,52.26968390996308 c 9.2012961100007,0.0972713789556 18.0257055491244,-1.50000000158298 27.2500000287562,-1.50000000158298 2.4922719904721,0 14.768074733453,-0.84788792409199 16.0000000168844,1.00000000105525 1.0779410864386,1.6169116296578 1.1573462592656,3.5646925198498 2.0000000021106,5.25000000554018 0.9719665216507,1.94393304330196 -1.2500000013191,4.34480414354653 -1.2500000013191,6.25000000659566 0,1.86055926665494 -1.7975332006834,32.06417250470326 -1.8535533926426,32.23223308058112 -0.095032489158,0.28509746747388 -1.9651943672065,3.05214083456306 -2.3964466118423,3.26776695688092 -3.8526844356105,1.92634221780577 -35.9023701306442,3.81508660885427 -39.7500000419472,1.25000000131926 -6.06916969581157,-4.04611313053925 -3.57670364552416,-44.17329640486813 0,-47.75000005038942 z"
         style="opacity:1;vector-effect:none;fill:#ffffff;fill-opacity:1;stroke:#000000;stroke-width:2.5;stroke-linecap:round;stroke-linejoin:round;stroke-miterlimit:4;stroke-dasharray:none;stroke-dashoffset:0;stroke-opacity:1;paint-order:normal"
         sodipodi:nodetypes="csssssssc" />
      <g
         id="g5170"
         transform="rotate(-90.00000000000002,32.41145838463783,19.91217677399668)">
        <path
           style="opacity:1;vector-effect:none;fill:none;fill-opacity:1;stroke:#000000;stroke-width:2.5;stroke-linecap:round;stroke-linejoin:round;stroke-miterlimit:4;stroke-dasharray:none;stroke-dashoffset:0;stroke-opacity:1;paint-order:normal"
           d="m 113.8750001802539,72.89468337790822 c 0.561158837177,-2.48714849063458 6.6325144052258,-14.74624282597756 9.8750000156313,-13.12500002077558 1.4296476444723,4.43479079755365 5.149176754844,8.33171107691054 7.3750000116739,12.00000001899479"
           id="path4543"
           inkscape:connector-curvature="0"
           transform="scale(0.2645833333333333)"
           sodipodi:nodetypes="ccc" />
        <path
           style="opacity:1;vector-effect:none;fill:#ffffff;fill-opacity:1;stroke:#000000;stroke-width:2.5;stroke-linecap:round;stroke-linejoin:round;stroke-miterlimit:4;stroke-dasharray:none;stroke-dashoffset:0;stroke-opacity:1;paint-order:normal"
           d="m 122.8750001945001,59.76968335713264 c 0.2276158367376,10.01155441656419 -2.1982152614312,21.33213900195914 0.2500000003957,31.125000049268"
           id="path4545"
           inkscape:connector-curvature="0"
           transform="scale(0.2645833333333333)" />
      </g>
    </g>
    <path
       sodipodi:nodetypes="cssssssc"
       transform="matrix(0.5291666666666666,0,0,0.5291666666666666,44.08963329623078,-52.17236667097685)"
       inkscape:connector-curvature="0"
       id="path4536"
       d="m 156.2500001648866,39.01968389598074 c -1.4640936665625,10.69267132139702 3.6966646379048,33.16000613298182 0.7500000007915,42.00000004432148 -0.8269850294872,2.48095508846157 -4.6153532376814,6.05469306713917 -6.4393398347357,7.87867966419482 -2.0639025490375,2.06390254903886 -4.2975776713591,1.23629626995694 -9.5909902682106,-0.52817459566131 -1.8481052378215,-0.6160350792743 -4.3887923101216,0.64212776534036 -4.9696699192145,-1.10050506193808 -3.5545729529758,-10.66371885892653 -5.0341524532135,-28.46584758213731 3.2500000034297,-36.7500000387788 1.8765933462899,-1.8765933462894 1.896750272572,-5.42256270865009 4.0000000042211,-7.00000000738693 4.0371229673773,-3.02784222553305 7.6864107162588,-3.17160268038404 13.0000000137185,-4.50000000475117 z"
       style="opacity:1;vector-effect:none;fill:#999999;fill-opacity:1;stroke:#000000;stroke-width:2.5;stroke-linecap:round;stroke-linejoin:round;stroke-miterlimit:4;stroke-dasharray:none;stroke-dashoffset:0;stroke-opacity:1;paint-order:normal" />
    <path
       sodipodi:nodetypes="cssscc"
       transform="matrix(0.5291666666666666,0,0,0.5291666666666666,44.08963329623078,-52.17236667097685)"
       inkscape:connector-curvature="0"
       id="path4538"
       d="m 106.7803301987124,47.20902373256286 c 4.9681397780865,-9.58272616511681 16.4274472107351,-8.68933983710986 31.2196699469155,-8.68933983710986 1.9738073407142,0 19.2073903269725,-1.12217092129481 18.2500000192587,1.75000000184673 -0.661276162262,1.98382848678625 -3.8500004884823,2.70000097168804 -4.7500000050125,4.5000000047487 -1.2853847863446,2.57076957268941 -4.1061815778352,8.42809079564427 -6.7500000071232,9.75000001028911 -11.4039788848551,-1.35535055475043 -28.1313507683325,-2.534627254415 -37.9696699540385,-7.31066017977468 z"
       style="opacity:1;vector-effect:none;fill:#cccccc;fill-opacity:1;stroke:#000000;stroke-width:2.5;stroke-linecap:round;stroke-linejoin:round;stroke-miterlimit:4;stroke-dasharray:none;stroke-dashoffset:0;stroke-opacity:1;paint-order:normal" />
    <g
       transform="matrix(2,0,0,2,47.92495101966319,-56.19477306384497)"
       id="g4548">
      <path
         sodipodi:nodetypes="csssssssc"
         style="opacity:1;vector-effect:none;fill:#ffffff;fill-opacity:1;stroke:#000000;stroke-width:2.5;stroke-linecap:round;stroke-linejoin:round;stroke-miterlimit:4;stroke-dasharray:none;stroke-dashoffset:0;stroke-opacity:1;paint-order:normal"
         d="m 101.0000001065827,52.26968390996308 c 9.2012961100007,0.0972713789556 18.0257055491244,-1.50000000158298 27.2500000287562,-1.50000000158298 2.4922719904721,0 14.768074733453,-0.84788792409199 16.0000000168844,1.00000000105525 1.0779410864386,1.6169116296578 1.1573462592656,3.5646925198498 2.0000000021106,5.25000000554018 0.9719665216507,1.94393304330196 -1.2500000013191,4.34480414354653 -1.2500000013191,6.25000000659566 0,1.86055926665494 -1.7975332006834,32.06417250470326 -1.8535533926426,32.23223308058112 -0.095032489158,0.28509746747388 -1.9651943672065,3.05214083456306 -2.3964466118423,3.26776695688092 -3.8526844356105,1.92634221780577 -35.9023701306442,3.81508660885427 -39.7500000419472,1.25000000131926 -6.06916969581158,-4.04611313053925 -3.57670364552418,-44.17329640486813 0,-47.75000005038942 z"
         id="path4540"
         inkscape:connector-curvature="0"
         transform="scale(0.2645833333333333)" />
      <g
         transform="rotate(180,32.41145838463784,19.91217677399674)"
         id="g4546">
        <path
           sodipodi:nodetypes="ccc"
           transform="scale(0.2645833333333333)"
           inkscape:connector-curvature="0"
           id="path4542"
           d="m 113.8750001802539,72.89468337790822 c 0.561158837177,-2.48714849063458 6.6325144052258,-14.74624282597756 9.8750000156313,-13.12500002077558 1.4296476444723,4.43479079755365 5.149176754844,8.33171107691054 7.3750000116739,12.00000001899479"
           style="opacity:1;vector-effect:none;fill:none;fill-opacity:1;stroke:#000000;stroke-width:2.5;stroke-linecap:round;stroke-linejoin:round;stroke-miterlimit:4;stroke-dasharray:none;stroke-dashoffset:0;stroke-opacity:1;paint-order:normal" />
        <path
           transform="scale(0.2645833333333333)"
           inkscape:connector-curvature="0"
           id="path4544"
           d="m 122.8750001945001,59.76968335713264 c 0.2276158367376,10.01155441656419 -2.1982152614312,21.33213900195914 0.2500000003957,31.125000049268"
           style="opacity:1;vector-effect:none;fill:#ffffff;fill-opacity:1;stroke:#000000;stroke-width:2.5;stroke-linecap:round;stroke-linejoin:round;stroke-miterlimit:4;stroke-dasharray:none;stroke-dashoffset:0;stroke-opacity:1;paint-order:normal" />
      </g>
    </g>
    <path
       style="opacity:1;vector-effect:none;fill:#999999;fill-opacity:1;stroke:#000000;stroke-width:2.5;stroke-linecap:round;stroke-linejoin:round;stroke-miterlimit:4;stroke-dasharray:none;stroke-dashoffset:0;stroke-opacity:1;paint-order:normal"
       d="m 156.2500001648866,39.01968389598074 c -1.4640936665625,10.69267132139702 3.6966646379048,33.16000613298182 0.7500000007915,42.00000004432148 -0.8269850294872,2.48095508846157 -4.6153532376814,6.05469306713917 -6.4393398347357,7.87867966419482 -2.0639025490375,2.06390254903886 -4.2975776713591,1.23629626995694 -9.5909902682106,-0.52817459566131 -1.8481052378215,-0.6160350792743 -4.3887923101216,0.64212776534036 -4.9696699192145,-1.10050506193808 -3.5545729529758,-10.66371885892653 -5.0341524532135,-28.46584758213729 3.2500000034297,-36.75000003877879 1.8765933462899,-1.8765933462894 1.896750272572,-5.42256270865008 4.0000000042211,-7.00000000738693 4.0371229673773,-3.02784222553305 7.6864107162588,-3.17160268038403 13.0000000137185,-4.50000000475119 z"
       id="path4580"
       inkscape:connector-curvature="0"
       transform="matrix(0.5291666666666666,0,0,0.5291666666666666,80.69295654062437,-52.17236667097685)"
       sodipodi:nodetypes="cssssssc" />
    <path
       style="opacity:1;vector-effect:none;fill:#cccccc;fill-opacity:1;stroke:#000000;stroke-width:2.5;stroke-linecap:round;stroke-linejoin:round;stroke-miterlimit:4;stroke-dasharray:none;stroke-dashoffset:0;stroke-opacity:1;paint-order:normal"
       d="m 106.7803301987124,47.20902373256286 c 4.9681397780865,-9.58272616511681 16.4274472107351,-8.68933983710986 31.2196699469155,-8.68933983710986 1.9738073407142,0 19.2073903269725,-1.12217092129481 18.2500000192587,1.75000000184673 -0.661276162262,1.98382848678625 -3.8500004884823,2.70000097168804 -4.7500000050125,4.5000000047487 -1.2853847863446,2.57076957268941 -4.1061815778352,8.42809079564427 -6.7500000071232,9.75000001028911 -11.4039788848551,-1.35535055475043 -28.1313507683325,-2.534627254415 -37.9696699540385,-7.31066017977468 z"
       id="path4582"
       inkscape:connector-curvature="0"
       transform="matrix(0.5291666666666666,0,0,0.5291666666666666,80.69295654062437,-52.17236667097685)"
       sodipodi:nodetypes="cssscc" />
    <g
       id="g4592"
       transform="matrix(2,0,0,2,84.52827426405676,-56.19477306384497)">
      <path
         transform="scale(0.2645833333333333)"
         inkscape:connector-curvature="0"
         id="path4584"
         d="m 101.0000001065827,52.26968390996308 c 9.2012961100007,0.0972713789556 18.0257055491244,-1.50000000158298 27.2500000287562,-1.50000000158298 2.4922719904721,0 14.768074733453,-0.84788792409199 16.0000000168844,1.00000000105525 1.0779410864386,1.6169116296578 1.1573462592656,3.5646925198498 2.0000000021106,5.25000000554018 0.9719665216507,1.94393304330196 -1.2500000013191,4.34480414354653 -1.2500000013191,6.25000000659566 0,1.86055926665494 -1.7975332006834,32.06417250470326 -1.8535533926426,32.23223308058112 -0.095032489158,0.28509746747388 -1.9651943672065,3.05214083456306 -2.3964466118423,3.26776695688092 -3.8526844356105,1.92634221780577 -35.9023701306442,3.81508660885427 -39.7500000419472,1.25000000131926 -6.06916969581161,-4.04611313053925 -3.57670364552419,-44.17329640486813 0,-47.75000005038942 z"
         style="opacity:1;vector-effect:none;fill:#ffffff;fill-opacity:1;stroke:#000000;stroke-width:2.5;stroke-linecap:round;stroke-linejoin:round;stroke-miterlimit:4;stroke-dasharray:none;stroke-dashoffset:0;stroke-opacity:1;paint-order:normal"
         sodipodi:nodetypes="csssssssc" />
      <g
         id="g4590"
         transform="rotate(90,32.41145838463824,19.91217677399722)">
        <path
           style="opacity:1;vector-effect:none;fill:none;fill-opacity:1;stroke:#000000;stroke-width:2.5;stroke-linecap:round;stroke-linejoin:round;stroke-miterlimit:4;stroke-dasharray:none;stroke-dashoffset:0;stroke-opacity:1;paint-order:normal"
           d="m 113.8750001802539,72.89468337790822 c 0.561158837177,-2.48714849063458 6.6325144052258,-14.74624282597756 9.8750000156313,-13.12500002077558 1.4296476444723,4.43479079755365 5.149176754844,8.33171107691054 7.3750000116739,12.00000001899479"
           id="path4586"
           inkscape:connector-curvature="0"
           transform="scale(0.2645833333333333)"
           sodipodi:nodetypes="ccc" />
        <path
           style="opacity:1;vector-effect:none;fill:#ffffff;fill-opacity:1;stroke:#000000;stroke-width:2.5;stroke-linecap:round;stroke-linejoin:round;stroke-miterlimit:4;stroke-dasharray:none;stroke-dashoffset:0;stroke-opacity:1;paint-order:normal"
           d="m 122.8750001945001,59.76968335713264 c 0.2276158367376,10.01155441656419 -2.1982152614312,21.33213900195914 0.2500000003957,31.125000049268"
           id="path4588"
           inkscape:connector-curvature="0"
           transform="scale(0.2645833333333333)" />
      </g>
    </g>
    <path
       style="opacity:1;vector-effect:none;fill:#999999;fill-opacity:1;stroke:#000000;stroke-width:2.5;stroke-linecap:round;stroke-linejoin:round;stroke-miterlimit:4;stroke-dasharray:none;stroke-dashoffset:0;stroke-opacity:1;paint-order:normal"
       d="m 156.2500001648866,39.01968389598074 c -1.4640936665625,10.69267132139702 3.6966646379048,33.16000613298182 0.7500000007915,42.00000004432148 -0.8269850294872,2.48095508846157 -4.6153532376814,6.05469306713917 -6.4393398347357,7.87867966419482 -2.0639025490375,2.06390254903886 -4.2975776713591,1.23629626995694 -9.5909902682106,-0.52817459566131 -1.8481052378215,-0.6160350792743 -4.3887923101216,0.64212776534036 -4.9696699192145,-1.10050506193808 -3.5545729529758,-10.66371885892653 -5.0341524532135,-28.46584758213727 3.2500000034297,-36.75000003877877 1.8765933462899,-1.8765933462894 1.896750272572,-5.42256270865008 4.0000000042211,-7.00000000738693 4.0371229673773,-3.02784222553305 7.6864107162588,-3.17160268038403 13.0000000137185,-4.5000000047512 z"
       id="path4624"
       inkscape:connector-curvature="0"
       transform="matrix(0.5291666666666666,0,0,0.5291666666666666,44.08963329623078,-90.91623513434092)"
       sodipodi:nodetypes="cssssssc" />
    <path
       style="opacity:1;vector-effect:none;fill:#cccccc;fill-opacity:1;stroke:#000000;stroke-width:2.5;stroke-linecap:round;stroke-linejoin:round;stroke-miterlimit:4;stroke-dasharray:none;stroke-dashoffset:0;stroke-opacity:1;paint-order:normal"
       d="m 106.7803301987124,47.20902373256286 c 4.9681397780865,-9.58272616511681 16.4274472107351,-8.68933983710986 31.2196699469155,-8.68933983710986 1.9738073407142,0 19.2073903269725,-1.12217092129481 18.2500000192587,1.75000000184673 -0.661276162262,1.98382848678625 -3.8500004884823,2.70000097168804 -4.7500000050125,4.5000000047487 -1.2853847863446,2.57076957268941 -4.1061815778352,8.42809079564427 -6.7500000071232,9.75000001028911 -11.4039788848551,-1.35535055475043 -28.1313507683325,-2.534627254415 -37.9696699540385,-7.31066017977468 z"
       id="path4626"
       inkscape:connector-curvature="0"
       transform="matrix(0.5291666666666666,0,0,0.5291666666666666,44.08963329623078,-90.91623513434092)"
       sodipodi:nodetypes="cssscc" />
    <g
       id="g4636"
       transform="matrix(2,0,0,2,47.92495101966319,-94.93864152720902)">
      <path
         transform="scale(0.2645833333333333)"
         inkscape:connector-curvature="0"
         id="path4628"
         d="m 101.0000001065827,52.26968390996308 c 9.2012961100007,0.0972713789556 18.0257055491244,-1.50000000158298 27.2500000287562,-1.50000000158298 2.4922719904721,0 14.768074733453,-0.84788792409199 16.0000000168844,1.00000000105525 1.0779410864386,1.6169116296578 1.1573462592656,3.5646925198498 2.0000000021106,5.25000000554018 0.9719665216507,1.94393304330196 -1.2500000013191,4.34480414354653 -1.2500000013191,6.25000000659566 0,1.86055926665494 -1.7975332006834,32.06417250470326 -1.8535533926426,32.23223308058112 -0.095032489158,0.28509746747388 -1.9651943672065,3.05214083456306 -2.3964466118423,3.26776695688092 -3.8526844356105,1.92634221780577 -35.9023701306442,3.81508660885427 -39.7500000419472,1.25000000131926 -6.06916969581164,-4.04611313053925 -3.57670364552422,-44.17329640486813 0,-47.75000005038942 z"
         style="opacity:1;vector-effect:none;fill:#ffffff;fill-opacity:1;stroke:#000000;stroke-width:2.5;stroke-linecap:round;stroke-linejoin:round;stroke-miterlimit:4;stroke-dasharray:none;stroke-dashoffset:0;stroke-opacity:1;paint-order:normal"
         sodipodi:nodetypes="csssssssc" />
      <g
         id="g4634"
         transform="matrix(-1,-1.224606353822377e-16,-1.224606353822377e-16,1,64.82291676927566,-0.0070601225737477)">
        <path
           style="opacity:1;vector-effect:none;fill:none;fill-opacity:1;stroke:#000000;stroke-width:2.5;stroke-linecap:round;stroke-linejoin:round;stroke-miterlimit:4;stroke-dasharray:none;stroke-dashoffset:0;stroke-opacity:1;paint-order:normal"
           d="m 113.8750001802539,72.89468337790822 c 0.561158837177,-2.48714849063458 6.6325144052258,-14.74624282597756 9.8750000156313,-13.12500002077558 1.4296476444723,4.43479079755365 5.149176754844,8.33171107691054 7.3750000116739,12.00000001899479"
           id="path4630"
           inkscape:connector-curvature="0"
           transform="scale(0.2645833333333333)"
           sodipodi:nodetypes="ccc" />
        <path
           style="opacity:1;vector-effect:none;fill:#ffffff;fill-opacity:1;stroke:#000000;stroke-width:2.5;stroke-linecap:round;stroke-linejoin:round;stroke-miterlimit:4;stroke-dasharray:none;stroke-dashoffset:0;stroke-opacity:1;paint-order:normal"
           d="m 122.8750001945001,59.76968335713264 c 0.2276158367376,10.01155441656419 -2.1982152614312,21.33213900195914 0.2500000003957,31.125000049268"
           id="path4632"
           inkscape:connector-curvature="0"
           transform="scale(0.2645833333333333)" />
      </g>
    </g>
    <path
       style="opacity:1;vector-effect:none;fill:none;fill-opacity:1;stroke:#000000;stroke-width:5;stroke-linecap:round;stroke-linejoin:round;stroke-miterlimit:4;stroke-dasharray:none;stroke-dashoffset:0;stroke-opacity:0.9882352941;paint-order:normal"
       d="m 161.8049930154191,245.1684126222302 c 3.1256230967989,-5.666181311864 -5.6450520600508,-82.0979112598364 4.449637307924,-72.0032218918615 3.4820910745048,3.4820910745048 19.1168684386519,28.550621512944 21.0346490920045,27.9113612951598 0.3343133231404,-0.1114377743801 18.2631355624093,-35.8814632495814 20.630136609466,-31.1474611554682 3.5057748486675,7.0115496973347 -3.5057748486675,19.2817616676708 0,26.2933113650056 7.9982385722077,15.9964771444154 3.0228249467017,35.6706799031836 9.3037870983866,51.3730852823956"
       id="path4656"
       inkscape:connector-curvature="0"
       transform="matrix(0.2645833333333333,0,0,0.2645833333333333,41.49178607233953,-36.56341785661631)" />
    <path
       style="opacity:1;vector-effect:none;fill:none;fill-opacity:1;stroke:#000000;stroke-width:5;stroke-linecap:round;stroke-linejoin:round;stroke-miterlimit:4;stroke-dasharray:none;stroke-dashoffset:0;stroke-opacity:0.9882352941;paint-order:normal"
       d="m 266.9782384754415,190.9637399620648 c -22.3410004262536,-4.8447849126028 -39.1160167416355,14.1382217444853 -26.6978238475441,32.7655110856223 0.8816649250337,1.3224973875505 1.9879595501959,4.3032655262456 3.6406123428469,4.8541497904626 17.969655754046,5.9898852513487 44.1394693461272,-3.5453948439952 32.7655110856224,-26.2933113650056 -1.7811678864462,-3.5623357728925 -7.1167679236099,-8.0869349394352 -9.7082995809252,-11.3263495110793 z"
       id="path4658"
       inkscape:connector-curvature="0"
       transform="matrix(0.2645833333333333,0,0,0.2645833333333333,41.49178607233953,-36.56341785661631)" />
    <path
       style="opacity:1;vector-effect:none;fill:none;fill-opacity:1;stroke:#000000;stroke-width:5;stroke-linecap:round;stroke-linejoin:round;stroke-miterlimit:4;stroke-dasharray:none;stroke-dashoffset:0;stroke-opacity:0.9882352941;paint-order:normal"
       d="m 292.0580123928315,193.7953273398346 c -2.6146651275104,12.3212710379236 6.1317673371179,18.3953020113541 9.3037870983866,27.9113612951598 0.3423415900836,1.0270247702506 3.4460225590554,16.3750890853337 6.0676872380781,13.7534244063106 10.7893187213472,-10.7893187213481 3.1507928231428,-29.7917453125764 10.5173245460023,-42.0692981840089"
       id="path4660"
       inkscape:connector-curvature="0"
       transform="matrix(0.2645833333333333,0,0,0.2645833333333333,41.49178607233953,-36.56341785661631)" />
    <path
       style="opacity:1;vector-effect:none;fill:none;fill-opacity:1;stroke:#000000;stroke-width:5;stroke-linecap:round;stroke-linejoin:round;stroke-miterlimit:4;stroke-dasharray:none;stroke-dashoffset:0;stroke-opacity:0.9882352941;paint-order:normal"
       d="m 332.9137731292248,205.5261893334525 c 13.2102417019468,0.9286511674454 27.8040389079113,-0.099063365097 39.6422232887777,-4.0451248253855 2.8179289519955,-0.9393096506652 -0.7757390081957,-9.2705011415051 -1.6180499301542,-10.1128120634637 -10.9120825558921,-10.9120825558924 -35.6479748430203,2.2769443108327 -38.0241733586235,14.1579368888492 -4.6129858090614,23.0649290453079 20.79264752414,35.8557040835533 39.6422232887777,28.3158737776983"
       id="path4662"
       inkscape:connector-curvature="0"
       transform="matrix(0.2645833333333333,0,0,0.2645833333333333,41.49178607233953,-36.56341785661631)" />
  </g>
</svg>
