<?xml version="1.0" encoding="UTF-8" standalone="no"?>
<!-- Created with Inkscape (http://www.inkscape.org/) -->

<svg
   xmlns:dc="http://purl.org/dc/elements/1.1/"
   xmlns:cc="http://creativecommons.org/ns#"
   xmlns:rdf="http://www.w3.org/1999/02/22-rdf-syntax-ns#"
   xmlns:svg="http://www.w3.org/2000/svg"
   xmlns="http://www.w3.org/2000/svg"
   xmlns:sodipodi="http://sodipodi.sourceforge.net/DTD/sodipodi-0.dtd"
   xmlns:inkscape="http://www.inkscape.org/namespaces/inkscape"
   width="248"
   height="248"
   viewBox="0 0 65.61666356948923 65.61666530018427"
   version="1.1"
   id="svg8"
   inkscape:version="0.92.1 r15371"
   sodipodi:docname="reset-tutorial.svg">
  <defs
     id="defs2" />
  <sodipodi:namedview
     id="base"
     pagecolor="#ffffff"
     bordercolor="#666666"
     borderopacity="1.0"
     inkscape:pageopacity="0.0"
     inkscape:pageshadow="2"
     inkscape:zoom="0.7639169709115964"
     inkscape:cx="-223.7983286072265"
     inkscape:cy="2.588477118549918"
     inkscape:document-units="mm"
     inkscape:current-layer="layer2"
     showgrid="false"
     inkscape:snap-global="false"
     inkscape:window-width="1920"
     inkscape:window-height="1027"
     inkscape:window-x="-8"
     inkscape:window-y="-8"
     inkscape:window-maximized="1"
     fit-margin-top="0"
     fit-margin-left="0"
     fit-margin-right="0"
     fit-margin-bottom="0"
     units="px" />
  <metadata
     id="metadata5">
    <rdf:RDF>
      <cc:Work
         rdf:about="">
        <dc:format>image/svg+xml</dc:format>
        <dc:type
           rdf:resource="http://purl.org/dc/dcmitype/StillImage" />
        <dc:title></dc:title>
      </cc:Work>
    </rdf:RDF>
  </metadata>
  <g
     inkscape:label="Layer 1"
     inkscape:groupmode="layer"
     id="layer1"
     style="display:inline;opacity:1"
     transform="translate(-23.93931528604367,27.57312794168429)">
    <path
       style="opacity:1;vector-effect:none;fill:#cccccc;fill-opacity:1;stroke:#000000;stroke-width:2.5;stroke-linecap:round;stroke-linejoin:round;stroke-miterlimit:4;stroke-dasharray:none;stroke-dashoffset:0;stroke-opacity:1;paint-order:normal"
       d="m 154.7500001633035,45.51968390284151 c -1.679590523001,-1.98850349592021 -1.3690670913391,-4.61906709476807 -3.0000000031658,-6.25000000659566 -0.5851315877374,-0.5851315877378 -4.8283306686163,0 -5.7500000060678,0 -6.9596710479772,0 -22.3277643707152,-2.05741188645471 -28.5000000300753,0 -3.3513929470565,1.11713098235282 -7.841785691532,5.09178568862831 -10.5000000110804,7.75000000817841 -1.0414245099802,1.04142450998074 -7.19013610106262,6.86972782030102 -6.5000000068593,8.25000000870614 0.6228120067884,1.24562401357707 1.6947485150124,3.86684911201496 2.750000002902,4.50000000474869 7.8023231912024,4.68139391472164 32.9435892308624,8.90320541134699 41.7500000440577,4.5000000047487 6.9772453308935,-3.48862266544733 8.2066675560288,-12.57667020274585 9.7500000102889,-18.75000001978628 z"
       id="path4507"
       inkscape:connector-curvature="0"
       transform="matrix(0.5291666666666666,0,0,0.5291666666666666,-8.031658355890822,-40.31843394486504)" />
    <path
       style="opacity:1;vector-effect:none;fill:#999999;fill-opacity:1;stroke:#000000;stroke-width:2.5;stroke-linecap:round;stroke-linejoin:round;stroke-miterlimit:4;stroke-dasharray:none;stroke-dashoffset:0;stroke-opacity:1;paint-order:normal"
       d="m 143.000000150904,95.51968395560516 c 2.2763368482667,-2.00311416822797 10.3247979866786,-8.63369197101019 13.0000000137186,-14.25000001503783 1.7265869227779,-3.62478942715211 0,-13.29067499182702 0,-17.25000001820331 0,-2.93875634106323 0.076807265603,-21.673192757348 -2.0000000021106,-23.75000002506293 -0.5366648476994,-0.53666484769974 -4.5538970009935,7.80389700442403 -8.5000000089698,11.75000001239937 -0.9971065308995,0.99710653089938 -2.750000002902,6.43994953868469 -2.750000002902,7.50000000791488 0,1.35746386849292 1.464257072974,3.92871464700193 1.0000000010553,6.25000000659541 -1.0873336285411,5.4366681427057 -2.2500000023744,11.43643643110319 -2.2500000023744,17.00000001793957 0,2.28507079221252 -1.4612091283332,12.75000001345484 1.5000000015829,12.75000001345484 z"
       id="path4503"
       inkscape:connector-curvature="0"
       transform="matrix(0.5291666666666666,0,0,0.5291666666666666,-8.031658355890822,-40.31843394486504)"
       sodipodi:nodetypes="csssssssc" />
    <path
       style="opacity:1;vector-effect:none;fill:#ffffff;fill-opacity:1;stroke:#000000;stroke-width:2.5;stroke-linecap:round;stroke-linejoin:round;stroke-miterlimit:4;stroke-dasharray:none;stroke-dashoffset:0;stroke-opacity:1;paint-order:normal"
       d="m 106.1798777577416,53.98017928802028 c 4.4600025328043,-1.39391721661991 9.9054120871251,-0.8172386277256 14.7627043104333,-0.8172386277256 3.4255617459917,0 12.6307294600415,-0.29950374848954 14.7627043104332,-0.81723862772583 7.9053765965721,-1.91976429590204 11.1690910554889,2.35846552898488 9.8418028736221,10.21548284657115 -0.2062449665992,1.22088804554551 -2.2814178952364,32.84925291789431 -2.5303294002331,33.09816442289093 -5.0349011566487,5.03490115664837 -37.0652068914819,6.51232536993066 -41.6791700140105,-0.4086193138628 -4.47957972324792,-6.71936958487231 -3.45358448146175,-35.25694889480087 -0.078613517056,-40.86193138628505 0.890611775891,-1.47908336493127 3.550979599291,-0.69300649804086 4.920901436811,-0.4086193138628 z"
       id="path4485"
       inkscape:connector-curvature="0"
       transform="matrix(0.5291666666666666,0,0,0.5291666666666666,-8.031658355890822,-40.31843394486504)"
       sodipodi:nodetypes="cssssssc" />
    <path
       style="opacity:1;vector-effect:none;fill:none;fill-opacity:1;stroke:#000000;stroke-width:2.5;stroke-linecap:round;stroke-linejoin:round;stroke-miterlimit:4;stroke-dasharray:none;stroke-dashoffset:0;stroke-opacity:1;paint-order:normal"
       d="m 10.71958079292755,118.5390814828482 c -1.118660113811469,-7.2904175195358 -9.228752591039388,-25.926316152255 0,-30.54069244777469 1.7823799607522,-0.89118998037611 7.92976454178152,-2.95030136440415 9.3037871032956,-0.20225624137599 2.33708119006386,4.67416238012771 1.79948725617705,7.514709305222 -1.01128120687996,11.7308619998075 -0.91298181438013,1.36947272157028 -4.04512482751982,4.47748875192077 -4.04512482751982,2.83158737926388 0,-0.1866006925253 1.72463184493273,0.1544190776504 1.82030617238392,0.202256241376 4.53041731753797,2.265208658769 5.02617713624368,10.3964089589272 6.06768724127972,14.5624493790714"
       id="path5254"
       inkscape:connector-curvature="0"
       transform="matrix(0.5291666666666666,0,0,0.5291666666666666,33.58651679580619,-31.0611408650869)" />
    <path
       style="opacity:1;vector-effect:none;fill:none;fill-opacity:1;stroke:#000000;stroke-width:2.5;stroke-linecap:round;stroke-linejoin:round;stroke-miterlimit:4;stroke-dasharray:none;stroke-dashoffset:0;stroke-opacity:1;paint-order:normal"
       d="m 29.52941124089475,108.6285256554247 c 2.73151792920434,0.1162253143999 5.43354096782873,0.00684438733 7.88799341366367,-0.606768724128 1.04565265225849,-0.2614131630646 2.53689369384927,-3.6232309914691 2.02256241375991,-4.6518935516478 -1.54727874610979,-3.0945574922196 -10.05091312548195,3.9501070613565 -8.69701837916764,10.7195807929275 0.8518821202153,4.2594106010766 8.00403668911588,4.3120407933387 10.51732455155157,2.4270748965119"
       id="path5256"
       inkscape:connector-curvature="0"
       transform="matrix(0.5291666666666666,0,0,0.5291666666666666,33.58651679580619,-31.0611408650869)" />
    <path
       style="opacity:1;vector-effect:none;fill:none;fill-opacity:1;stroke:#000000;stroke-width:2.5;stroke-linecap:round;stroke-linejoin:round;stroke-miterlimit:4;stroke-dasharray:none;stroke-dashoffset:0;stroke-opacity:1;paint-order:normal"
       d="m 55.21595389564566,101.751813448641 c -4.77150223360779,-1.6134663692498 -10.5539657965135,2.7583048893399 -7.88799341366367,8.0902496550396 1.93125739313076,3.8625147862615 6.71442945185859,-2.2671809507085 8.69701837916763,5.6631747585278 1.35303534981605,5.4121413992642 -5.46091851715177,8.8236939135695 -5.46091851715177,3.8428685861438"
       id="path5258"
       inkscape:connector-curvature="0"
       transform="matrix(0.5291666666666666,0,0,0.5291666666666666,33.58651679580619,-31.0611408650869)" />
    <path
       style="opacity:1;vector-effect:none;fill:none;fill-opacity:1;stroke:#000000;stroke-width:2.5;stroke-linecap:round;stroke-linejoin:round;stroke-miterlimit:4;stroke-dasharray:none;stroke-dashoffset:0;stroke-opacity:1;paint-order:normal"
       d="m 61.28364113692541,110.0443193450566 c 1.94061418263884,-0.040285813956 4.92622313994374,-0.07207334692 6.26994348265573,-1.4157936896319 1.63032186012184,-1.6303218601219 5.24800266973537,-11.92778843816336 -1.21353744825595,-8.69701837916763 -6.12448561692926,3.06224280846463 -4.21219535911997,13.43978781779134 0.20225624137598,16.38275555145523 1.18524220268053,0.7901614684537 5.22448728052433,0.606768724128 6.87671220678372,0.606768724128"
       id="path5260"
       inkscape:connector-curvature="0"
       transform="matrix(0.5291666666666666,0,0,0.5291666666666666,33.58651679580619,-31.0611408650869)" />
    <path
       style="opacity:1;vector-effect:none;fill:none;fill-opacity:1;stroke:#000000;stroke-width:2.5;stroke-linecap:round;stroke-linejoin:round;stroke-miterlimit:4;stroke-dasharray:none;stroke-dashoffset:0;stroke-opacity:1;paint-order:normal"
       d="m 81.91377775727653,84.35777669030568 c 1.90214332882519,7.65968135095562 -3.38045470597028,28.89389114285572 1.01128120687996,34.38356103391851"
       id="path5262"
       inkscape:connector-curvature="0"
       transform="matrix(0.5291666666666666,0,0,0.5291666666666666,33.58651679580619,-31.0611408650869)" />
    <path
       style="opacity:1;vector-effect:none;fill:none;fill-opacity:1;stroke:#000000;stroke-width:2.5;stroke-linecap:round;stroke-linejoin:round;stroke-miterlimit:4;stroke-dasharray:none;stroke-dashoffset:0;stroke-opacity:1;paint-order:normal"
       d="m 76.45285924012476,100.942788483137 c 4.33390634453825,-0.7897487959484 9.11325095836725,0.2498902776081 13.34891193081542,-0.809024965504"
       id="path5264"
       inkscape:connector-curvature="0"
       transform="matrix(0.5291666666666666,0,0,0.5291666666666666,33.58651679580619,-31.0611408650869)" />
    <g
       id="g5278"
       transform="matrix(2,0,0,2,-20.7137494399689,-36.92937942274214)">
      <path
         transform="matrix(0.2645833333333333,0,0,0.2645833333333333,23.93931528604367,5.235205391649047)"
         inkscape:connector-curvature="0"
         id="path5266"
         d="m 46.51893551647803,39.0523786220836 c -1.47715790463832,1.11828445788855 -5.21911926060911,-0.84856798067063 -6.47219972403171,0.40451248275199 -1.705923737138,1.70592373713798 0.347270198516,20.60151547823314 2.42707489651188,21.64141782723108 1.42847223795235,0.71423611897617 3.7420977606433,-0.40451248275199 5.0564060343998,-0.40451248275199"
         style="opacity:1;vector-effect:none;fill:none;fill-opacity:1;stroke:#000000;stroke-width:2.5;stroke-linecap:round;stroke-linejoin:round;stroke-miterlimit:4;stroke-dasharray:none;stroke-dashoffset:0;stroke-opacity:1;paint-order:normal" />
      <path
         transform="matrix(0.2645833333333333,0,0,0.2645833333333333,23.93931528604367,5.235205391649047)"
         inkscape:connector-curvature="0"
         id="path5268"
         d="m 38.02417337868639,49.97421565638713 c 2.89154229835912,0.25647252099573 6.68203438871594,0.64418860307989 9.30378710329562,-0.40451248275198"
         style="opacity:1;vector-effect:none;fill:none;fill-opacity:1;stroke:#000000;stroke-width:2.5;stroke-linecap:round;stroke-linejoin:round;stroke-miterlimit:4;stroke-dasharray:none;stroke-dashoffset:0;stroke-opacity:1;paint-order:normal" />
      <path
         transform="matrix(0.2645833333333333,0,0,0.2645833333333333,23.93931528604367,5.235205391649047)"
         inkscape:connector-curvature="0"
         id="path5270"
         d="m 57.23851630940558,46.73811579437127 c -1.34648794315207,-3.76806081394879 -4.24738106889581,-1.06177258208452 -4.24738106889581,2.02256241375991 0,2.34485853421416 8.15132596343779,3.39630711117521 6.26994348265573,10.92183703430354 -0.82339069522855,3.29356278091428 -5.88893446937241,1.11478074183908 -6.87671220678371,-0.20225624137599"
         style="opacity:1;vector-effect:none;fill:none;fill-opacity:1;stroke:#000000;stroke-width:2.5;stroke-linecap:round;stroke-linejoin:round;stroke-miterlimit:4;stroke-dasharray:none;stroke-dashoffset:0;stroke-opacity:1;paint-order:normal" />
      <path
         transform="matrix(0.2645833333333333,0,0,0.2645833333333333,23.93931528604367,5.235205391649047)"
         inkscape:connector-curvature="0"
         id="path5272"
         d="m 68.96937830921308,44.71555338061136 c -9.92777781607786,-3.70292824456424 -2.698126154036,23.39705779053523 2.4270748965119,13.14665568943944"
         style="opacity:1;vector-effect:none;fill:none;fill-opacity:1;stroke:#000000;stroke-width:2.5;stroke-linecap:round;stroke-linejoin:round;stroke-miterlimit:4;stroke-dasharray:none;stroke-dashoffset:0;stroke-opacity:1;paint-order:normal" />
    </g>
  </g>
  <g
     inkscape:groupmode="layer"
     id="layer2"
     inkscape:label="2"
     style="display:inline;opacity:1"
     transform="translate(-23.93931528604367,27.57312794168429)">
    <path
       style="opacity:1;vector-effect:none;fill:#000000;fill-opacity:0;stroke:#000000;stroke-width:2.5;stroke-linecap:round;stroke-linejoin:round;stroke-miterlimit:4;stroke-dasharray:none;stroke-dashoffset:0;stroke-opacity:1;paint-order:normal"
       d="m 156.2500001648866,39.01968389598074 c -1.4640936665625,10.69267132139702 3.6966646379048,33.16000613298182 0.7500000007915,42.00000004432148 -0.8269850294872,2.48095508846157 -4.6153532376814,6.05469306713917 -6.4393398347357,7.87867966419482 -2.0639025490375,2.06390254903886 -4.2975776713591,1.23629626995694 -9.5909902682106,-0.52817459566131 -1.8481052378215,-0.6160350792743 -4.3887923101216,0.64212776534036 -4.9696699192145,-1.10050506193808 -3.5545729529758,-10.66371885892653 -5.0341524532135,-28.46584758213843 3.2500000034297,-36.75000003877985 1.8765933462899,-1.8765933462894 1.896750272572,-5.42256270865008 4.0000000042211,-7.00000000738693 4.0371229673773,-3.02784222553305 7.6864107162588,-3.17160268038403 13.0000000137185,-4.50000000475012 z"
       id="path4539"
       inkscape:connector-curvature="0"
       transform="matrix(0.5291666666666666,0,0,0.5291666666666666,-8.031658355890822,-40.31843394486504)"
       sodipodi:nodetypes="cssssssc" />
    <path
       style="opacity:1;vector-effect:none;fill:#cccccc;fill-opacity:1;stroke:#000000;stroke-width:2.5;stroke-linecap:round;stroke-linejoin:round;stroke-miterlimit:4;stroke-dasharray:none;stroke-dashoffset:0;stroke-opacity:1;paint-order:normal"
       d="m 106.7803301987124,47.20902373256286 c 4.9681397780865,-9.58272616511681 16.4274472107351,-8.68933983710986 31.2196699469155,-8.68933983710986 1.9738073407142,0 19.2073903269725,-1.12217092129481 18.2500000192587,1.75000000184673 -0.661276162262,1.98382848678625 -3.8500004884823,2.70000097168804 -4.7500000050125,4.5000000047487 -1.2853847863446,2.57076957268941 -4.1061815778352,8.42809079564427 -6.7500000071232,9.75000001028911 -11.4039788848551,-1.35535055475043 -28.1313507683325,-2.534627254415 -37.9696699540385,-7.31066017977468 z"
       id="path4537"
       inkscape:connector-curvature="0"
       transform="matrix(0.5291666666666666,0,0,0.5291666666666666,-8.031658355890822,-40.31843394486504)"
       sodipodi:nodetypes="cssscc" />
    <g
       id="g4570"
       transform="matrix(2,0,0,2,-4.196340632458405,-44.34084033773315)">
      <path
         transform="scale(0.2645833333333333)"
         inkscape:connector-curvature="0"
         id="path4535"
         d="m 101.0000001065827,52.26968390996308 c 9.2012961100007,0.0972713789556 18.0257055491244,-1.50000000158298 27.2500000287562,-1.50000000158298 2.4922719904721,0 14.768074733453,-0.84788792409199 16.0000000168844,1.00000000105525 1.0779410864386,1.6169116296578 1.1573462592656,3.5646925198498 2.0000000021106,5.25000000554018 0.9719665216507,1.94393304330196 -1.2500000013191,4.34480414354653 -1.2500000013191,6.25000000659566 0,1.86055926665494 -1.7975332006834,32.06417250470326 -1.8535533926426,32.23223308058112 -0.095032489158,0.28509746747388 -1.9651943672065,3.05214083456306 -2.3964466118423,3.26776695688092 -3.8526844356105,1.92634221780577 -35.9023701306442,3.81508660885427 -39.7500000419472,1.25000000131926 -6.06916969581039,-4.04611313053925 -3.57670364552298,-44.17329640486813 0,-47.75000005038942 z"
         style="opacity:1;vector-effect:none;fill:#ffffff;fill-opacity:1;stroke:#000000;stroke-width:2.5;stroke-linecap:round;stroke-linejoin:round;stroke-miterlimit:4;stroke-dasharray:none;stroke-dashoffset:0;stroke-opacity:1;paint-order:normal"
         sodipodi:nodetypes="csssssssc" />
      <path
         style="opacity:1;vector-effect:none;fill:none;fill-opacity:1;stroke:#000000;stroke-width:2.5;stroke-linecap:round;stroke-linejoin:round;stroke-miterlimit:4;stroke-dasharray:none;stroke-dashoffset:0;stroke-opacity:1;paint-order:normal"
         d="m 24.87751768924695,109.2352943795526 c 2.44143725659546,-2.7819974401858 -2.53743238440281,-28.20551630474787 -1.61804993100794,-29.12489875814275 3.38208977696976,-3.38208977696976 15.97824306870333,-3.22454857282472 15.97824306870333,5.66317475852775 0,4.29620155172906 -10.92183703430354,7.25447923009833 -10.92183703430354,7.48348093091171 0,0.0205342323843 1.34240337960742,-0.0244634366748 1.41579368963194,0 1.38561653987689,0.46187217995896 2.66843221599782,1.3179005916723 3.84286858614384,2.02256241375991 4.92905255033355,2.95743153020013 5.46091851715177,10.13731416074448 5.46091851715177,15.37147434457538"
         id="path5296"
         inkscape:connector-curvature="0"
         transform="matrix(0.2645833333333333,0,0,0.2645833333333333,14.87790642432747,8.833908588083092)" />
      <path
         style="opacity:1;vector-effect:none;fill:none;fill-opacity:1;stroke:#000000;stroke-width:2.5;stroke-linecap:round;stroke-linejoin:round;stroke-miterlimit:4;stroke-dasharray:none;stroke-dashoffset:0;stroke-opacity:1;paint-order:normal"
         d="m 44.69862934409411,100.740532241761 c 2.66018820731603,-0.4903647715657 8.99676909453743,0.7115304915101 10.92183703430354,-1.21353744825598 2.65920665101784,-2.65920665101784 0.68091337198632,-9.03747506516079 -4.04512482751982,-6.6744559654077 -8.9881100859038,4.49405504295187 -9.41359469051983,19.64630731027728 6.06768724127974,15.77598682732737"
         id="path5298"
         inkscape:connector-curvature="0"
         transform="matrix(0.2645833333333333,0,0,0.2645833333333333,14.87790642432747,8.833908588083092)" />
      <path
         style="opacity:1;vector-effect:none;fill:none;fill-opacity:1;stroke:#000000;stroke-width:2.5;stroke-linecap:round;stroke-linejoin:round;stroke-miterlimit:4;stroke-dasharray:none;stroke-dashoffset:0;stroke-opacity:1;paint-order:normal"
         d="m 70.38517199884502,92.65028258672133 c -3.49162881689304,-0.82411101694105 -12.85317987443195,0.99146411276696 -10.31506831017556,6.06768724127974 1.42922743288584,2.85845486577172 7.39410261887478,-2.89746607399857 11.12409327567951,8.29250589641562 1.85167934365937,5.5550380309781 -7.71059170697013,5.3520755455557 -9.70829958604757,2.0225624137599"
         id="path5300"
         inkscape:connector-curvature="0"
         transform="matrix(0.2645833333333333,0,0,0.2645833333333333,14.87790642432747,8.833908588083092)" />
      <path
         style="opacity:1;vector-effect:none;fill:none;fill-opacity:1;stroke:#000000;stroke-width:2.5;stroke-linecap:round;stroke-linejoin:round;stroke-miterlimit:4;stroke-dasharray:none;stroke-dashoffset:0;stroke-opacity:1;paint-order:normal"
         d="m 74.83480930911683,101.751813448641 c 3.35111412384684,-0.8731661556489 7.74085246049934,-0.1286857647939 10.71958079292753,-1.618049931008 3.58802815486644,-1.7940140774332 -0.0288110315742,-9.56385841460552 -4.44963731027181,-8.09024965503966 -7.3312914356992,2.44376381189976 -5.45139344639247,12.74690574206716 0.60676872412799,15.77598682732736 1.33011131874525,0.6650556593726 4.68852680936021,0 6.26994348265573,0"
         id="path5302"
         inkscape:connector-curvature="0"
         transform="matrix(0.2645833333333333,0,0,0.2645833333333333,14.87790642432747,8.833908588083092)" />
      <path
         style="opacity:1;vector-effect:none;fill:none;fill-opacity:1;stroke:#000000;stroke-width:2.5;stroke-linecap:round;stroke-linejoin:round;stroke-miterlimit:4;stroke-dasharray:none;stroke-dashoffset:0;stroke-opacity:1;paint-order:normal"
         d="m 97.48750834322787,77.07655200076999 c 0.2503825042467,3.14980842432119 -3.76251671965885,28.8810900083608 -3.23609986201586,29.9339237236467 1.00869414268146,2.0173882853629 3.76483973725166,1.618049931008 5.66317475852775,1.618049931008"
         id="path5304"
         inkscape:connector-curvature="0"
         transform="matrix(0.2645833333333333,0,0,0.2645833333333333,14.87790642432747,8.833908588083092)" />
      <path
         style="opacity:1;vector-effect:none;fill:none;fill-opacity:1;stroke:#000000;stroke-width:2.5;stroke-linecap:round;stroke-linejoin:round;stroke-miterlimit:4;stroke-dasharray:none;stroke-dashoffset:0;stroke-opacity:1;paint-order:normal"
         d="m 89.80177117094018,92.24577010396933 c 4.15547424450223,0.25677159802132 8.29490380286967,-0.20225624137599 12.33763072393552,-0.20225624137599"
         id="path5306"
         inkscape:connector-curvature="0"
         transform="matrix(0.2645833333333333,0,0,0.2645833333333333,14.87790642432747,8.833908588083092)" />
    </g>
    <g
       transform="matrix(2,0,0,2,-0.5574137563687031,-48.7289580412531)"
       style="display:inline;opacity:1"
       id="g5312">
      <path
         transform="matrix(0.2645833333333333,0,0,0.2645833333333333,14.87790642432747,8.833908588083092)"
         inkscape:connector-curvature="0"
         id="path5286"
         d="m 50.055865948199,38.90502788806171 c -0.55899783994734,2.86255668928516 -6.16117099619496,-0.12011611473393 -7.15083799259986,1.85921787807595 -0.9141779703588,1.8283559407177 0.70772609264201,6.69971459318991 1.28715083866798,8.43798883126783 1.25867618443757,3.77602855331275 -1.07356594448808,9.00817537947962 0.71508379925998,12.58547486697576 0.31270159646923,0.62540319293847 4.49544033470153,0.14301675985201 5.2916201145239,0.14301675985201"
         style="opacity:1;vector-effect:none;fill:none;fill-opacity:1;stroke:#000000;stroke-width:2.5;stroke-linecap:round;stroke-linejoin:round;stroke-miterlimit:4;stroke-dasharray:none;stroke-dashoffset:0;stroke-opacity:1;paint-order:normal" />
      <path
         transform="matrix(0.2645833333333333,0,0,0.2645833333333333,14.87790642432747,8.833908588083092)"
         inkscape:connector-curvature="0"
         id="path5288"
         d="m 39.47262571915121,49.63128487696149 c 3.64497657954306,-1.20812935267391 8.23565094566576,1.817370061025 11.87039106771576,0"
         style="opacity:1;vector-effect:none;fill:none;fill-opacity:1;stroke:#000000;stroke-width:2.5;stroke-linecap:round;stroke-linejoin:round;stroke-miterlimit:4;stroke-dasharray:none;stroke-dashoffset:0;stroke-opacity:1;paint-order:normal" />
      <path
         transform="matrix(0.2645833333333333,0,0,0.2645833333333333,14.87790642432747,8.833908588083092)"
         inkscape:connector-curvature="0"
         id="path5290"
         d="m 60.49608941739479,47.62905023903353 c -0.17503949468577,-1.12443477591082 -0.54305117365385,-1.97321877217385 -1.28715083866797,-2.71731843718794 -2.47858915909892,-2.47858915909886 -4.64209252530744,5.05026903960659 -3.43240223644794,6.86480447289586 1.71525193290725,2.57287789936092 8.60008735742426,3.66119045723857 6.86480447289587,8.86703911082382 -1.21261633254926,3.63784899764775 -7.17530313322293,2.76247463454769 -8.00893855171184,-0.57206703940799"
         style="opacity:1;vector-effect:none;fill:none;fill-opacity:1;stroke:#000000;stroke-width:2.5;stroke-linecap:round;stroke-linejoin:round;stroke-miterlimit:4;stroke-dasharray:none;stroke-dashoffset:0;stroke-opacity:1;paint-order:normal" />
      <path
         transform="matrix(0.2645833333333333,0,0,0.2645833333333333,14.87790642432747,8.833908588083092)"
         inkscape:connector-curvature="0"
         id="path5292"
         d="m 72.50949724496254,44.91173180184559 c -0.77782268470429,-0.39615075753678 -2.4766562533929,-1.04994003093553 -3.43240223644794,-0.57206703940799 -0.50059861895103,0.25029930947553 -4.8962344809962,17.16201118223965 2.00223463792797,17.16201118223965 2.60338170029671,0 2.58189833807948,-0.87329388059905 3.57541899629993,-2.86033519703993"
         style="opacity:1;vector-effect:none;fill:none;fill-opacity:1;stroke:#000000;stroke-width:2.5;stroke-linecap:round;stroke-linejoin:round;stroke-miterlimit:4;stroke-dasharray:none;stroke-dashoffset:0;stroke-opacity:1;paint-order:normal" />
    </g>
  </g>
</svg>
