<?xml version="1.0" encoding="UTF-8" standalone="no"?>
<!-- Created with Inkscape (http://www.inkscape.org/) -->

<svg
   xmlns:dc="http://purl.org/dc/elements/1.1/"
   xmlns:cc="http://creativecommons.org/ns#"
   xmlns:rdf="http://www.w3.org/1999/02/22-rdf-syntax-ns#"
   xmlns:svg="http://www.w3.org/2000/svg"
   xmlns="http://www.w3.org/2000/svg"
   xmlns:sodipodi="http://sodipodi.sourceforge.net/DTD/sodipodi-0.dtd"
   xmlns:inkscape="http://www.inkscape.org/namespaces/inkscape"
   width="248"
   height="248"
   viewBox="0 0 65.61666356948923 65.61666530018427"
   version="1.1"
   id="svg8"
   inkscape:version="0.92.1 r15371"
   sodipodi:docname="reset-tutorial.svg"
   inkscape:export-filename="D:\deving-games\qeqe\art\tutorials\reset-tutorial.png"
   inkscape:export-xdpi="96"
   inkscape:export-ydpi="96">
  <defs
     id="defs2" />
  <sodipodi:namedview
     id="base"
     pagecolor="#ffffff"
     bordercolor="#666666"
     borderopacity="1.0"
     inkscape:pageopacity="0.0"
     inkscape:pageshadow="2"
     inkscape:zoom="0.6676813375853249"
     inkscape:cx="191.9295992758461"
     inkscape:cy="16.72800735537874"
     inkscape:document-units="mm"
     inkscape:current-layer="layer2"
     showgrid="false"
     inkscape:snap-global="false"
     inkscape:window-width="1920"
     inkscape:window-height="1027"
     inkscape:window-x="-8"
     inkscape:window-y="-8"
     inkscape:window-maximized="1"
     fit-margin-top="0"
     fit-margin-left="0"
     fit-margin-right="0"
     fit-margin-bottom="0"
     units="px" />
  <metadata
     id="metadata5">
    <rdf:RDF>
      <cc:Work
         rdf:about="">
        <dc:format>image/svg+xml</dc:format>
        <dc:type
           rdf:resource="http://purl.org/dc/dcmitype/StillImage" />
        <dc:title></dc:title>
      </cc:Work>
    </rdf:RDF>
  </metadata>
  <g
     inkscape:label="Layer 1"
     inkscape:groupmode="layer"
     id="layer1"
     style="display:inline;opacity:1"
     transform="translate(-23.93931528604367,27.57312794168429)">
    <path
       style="opacity:1;vector-effect:none;fill:#cccccc;fill-opacity:1;stroke:#000000;stroke-width:2.5;stroke-linecap:round;stroke-linejoin:round;stroke-miterlimit:4;stroke-dasharray:none;stroke-dashoffset:0;stroke-opacity:1;paint-order:normal"
       d="m 154.7500001633035,45.51968390284151 c -1.679590523001,-1.98850349592021 -1.3690670913391,-4.61906709476807 -3.0000000031658,-6.25000000659566 -0.5851315877374,-0.5851315877378 -4.8283306686163,0 -5.7500000060678,0 -6.9596710479772,0 -22.3277643707152,-2.05741188645471 -28.5000000300753,0 -3.3513929470565,1.11713098235282 -7.841785691532,5.09178568862831 -10.5000000110804,7.75000000817841 -1.0414245099802,1.04142450998074 -7.19013610106262,6.86972782030102 -6.5000000068593,8.25000000870614 0.6228120067884,1.24562401357707 1.6947485150124,3.86684911201496 2.750000002902,4.50000000474869 7.8023231912024,4.68139391472164 32.9435892308624,8.90320541134699 41.7500000440577,4.5000000047487 6.9772453308935,-3.48862266544733 8.2066675560288,-12.57667020274585 9.7500000102889,-18.75000001978628 z"
       id="path4507"
       inkscape:connector-curvature="0"
       transform="matrix(0.5291666666666666,0,0,0.5291666666666666,-8.031658355890822,-40.31843394486504)" />
    <path
       style="opacity:1;vector-effect:none;fill:#999999;fill-opacity:1;stroke:#000000;stroke-width:2.5;stroke-linecap:round;stroke-linejoin:round;stroke-miterlimit:4;stroke-dasharray:none;stroke-dashoffset:0;stroke-opacity:1;paint-order:normal"
       d="m 143.000000150904,95.51968395560516 c 2.2763368482667,-2.00311416822797 10.3247979866786,-8.63369197101019 13.0000000137186,-14.25000001503783 1.7265869227779,-3.62478942715211 0,-13.29067499182702 0,-17.25000001820331 0,-2.93875634106323 0.076807265603,-21.673192757348 -2.0000000021106,-23.75000002506293 -0.5366648476994,-0.53666484769974 -4.5538970009935,7.80389700442403 -8.5000000089698,11.75000001239937 -0.9971065308995,0.99710653089938 -2.750000002902,6.43994953868469 -2.750000002902,7.50000000791488 0,1.35746386849292 1.464257072974,3.92871464700193 1.0000000010553,6.25000000659541 -1.0873336285411,5.4366681427057 -2.2500000023744,11.43643643110319 -2.2500000023744,17.00000001793957 0,2.28507079221252 -1.4612091283332,12.75000001345484 1.5000000015829,12.75000001345484 z"
       id="path4503"
       inkscape:connector-curvature="0"
       transform="matrix(0.5291666666666666,0,0,0.5291666666666666,-8.031658355890822,-40.31843394486504)"
       sodipodi:nodetypes="csssssssc" />
    <path
       style="opacity:1;vector-effect:none;fill:#ffffff;fill-opacity:1;stroke:#000000;stroke-width:2.5;stroke-linecap:round;stroke-linejoin:round;stroke-miterlimit:4;stroke-dasharray:none;stroke-dashoffset:0;stroke-opacity:1;paint-order:normal"
       d="m 106.1798777577416,53.98017928802028 c 4.4600025328043,-1.39391721661991 9.9054120871251,-0.8172386277256 14.7627043104333,-0.8172386277256 3.4255617459917,0 12.6307294600415,-0.29950374848954 14.7627043104332,-0.81723862772583 7.9053765965721,-1.91976429590204 11.1690910554889,2.35846552898488 9.8418028736221,10.21548284657115 -0.2062449665992,1.22088804554551 -2.2814178952364,32.84925291789431 -2.5303294002331,33.09816442289093 -5.0349011566487,5.03490115664837 -37.0652068914819,6.51232536993066 -41.6791700140105,-0.4086193138628 -4.47957972324792,-6.71936958487231 -3.45358448146175,-35.25694889480087 -0.078613517056,-40.86193138628505 0.890611775891,-1.47908336493127 3.550979599291,-0.69300649804086 4.920901436811,-0.4086193138628 z"
       id="path4485"
       inkscape:connector-curvature="0"
       transform="matrix(0.5291666666666666,0,0,0.5291666666666666,-8.031658355890822,-40.31843394486504)"
       sodipodi:nodetypes="cssssssc" />
    <path
       style="opacity:1;vector-effect:none;fill:none;fill-opacity:1;stroke:#000000;stroke-width:2.5;stroke-linecap:round;stroke-linejoin:round;stroke-miterlimit:4;stroke-dasharray:none;stroke-dashoffset:0;stroke-opacity:1;paint-order:normal"
       d="m 10.71958079292755,118.5390814828482 c -1.118660113811469,-7.2904175195358 -9.228752591039388,-25.926316152255 0,-30.54069244777469 1.7823799607522,-0.89118998037611 7.92976454178152,-2.95030136440415 9.3037871032956,-0.20225624137599 2.33708119006386,4.67416238012771 1.79948725617705,7.514709305222 -1.01128120687996,11.7308619998075 -0.91298181438013,1.36947272157028 -4.04512482751982,4.47748875192077 -4.04512482751982,2.83158737926388 0,-0.1866006925253 1.72463184493273,0.1544190776504 1.82030617238392,0.202256241376 4.53041731753797,2.265208658769 5.02617713624368,10.3964089589272 6.06768724127972,14.5624493790714"
       id="path5254"
       inkscape:connector-curvature="0"
       transform="matrix(0.5291666666666666,0,0,0.5291666666666666,33.58651679580619,-31.0611408650869)" />
    <path
       style="opacity:1;vector-effect:none;fill:none;fill-opacity:1;stroke:#000000;stroke-width:2.5;stroke-linecap:round;stroke-linejoin:round;stroke-miterlimit:4;stroke-dasharray:none;stroke-dashoffset:0;stroke-opacity:1;paint-order:normal"
       d="m 29.52941124089475,108.6285256554247 c 2.73151792920434,0.1162253143999 5.43354096782873,0.00684438733 7.88799341366367,-0.606768724128 1.04565265225849,-0.2614131630646 2.53689369384927,-3.6232309914691 2.02256241375991,-4.6518935516478 -1.54727874610979,-3.0945574922196 -10.05091312548195,3.9501070613565 -8.69701837916764,10.7195807929275 0.8518821202153,4.2594106010766 8.00403668911588,4.3120407933387 10.51732455155157,2.4270748965119"
       id="path5256"
       inkscape:connector-curvature="0"
       transform="matrix(0.5291666666666666,0,0,0.5291666666666666,33.58651679580619,-31.0611408650869)" />
    <path
       style="opacity:1;vector-effect:none;fill:none;fill-opacity:1;stroke:#000000;stroke-width:2.5;stroke-linecap:round;stroke-linejoin:round;stroke-miterlimit:4;stroke-dasharray:none;stroke-dashoffset:0;stroke-opacity:1;paint-order:normal"
       d="m 55.21595389564566,101.751813448641 c -4.77150223360779,-1.6134663692498 -10.5539657965135,2.7583048893399 -7.88799341366367,8.0902496550396 1.93125739313076,3.8625147862615 6.71442945185859,-2.2671809507085 8.69701837916763,5.6631747585278 1.35303534981605,5.4121413992642 -5.46091851715177,8.8236939135695 -5.46091851715177,3.8428685861438"
       id="path5258"
       inkscape:connector-curvature="0"
       transform="matrix(0.5291666666666666,0,0,0.5291666666666666,33.58651679580619,-31.0611408650869)" />
    <path
       style="opacity:1;vector-effect:none;fill:none;fill-opacity:1;stroke:#000000;stroke-width:2.5;stroke-linecap:round;stroke-linejoin:round;stroke-miterlimit:4;stroke-dasharray:none;stroke-dashoffset:0;stroke-opacity:1;paint-order:normal"
       d="m 61.28364113692541,110.0443193450566 c 1.94061418263884,-0.040285813956 4.92622313994374,-0.07207334692 6.26994348265573,-1.4157936896319 1.63032186012184,-1.6303218601219 5.24800266973537,-11.92778843816336 -1.21353744825595,-8.69701837916763 -6.12448561692926,3.06224280846463 -4.21219535911997,13.43978781779134 0.20225624137598,16.38275555145523 1.18524220268053,0.7901614684537 5.22448728052433,0.606768724128 6.87671220678372,0.606768724128"
       id="path5260"
       inkscape:connector-curvature="0"
       transform="matrix(0.5291666666666666,0,0,0.5291666666666666,33.58651679580619,-31.0611408650869)" />
    <path
       style="opacity:1;vector-effect:none;fill:none;fill-opacity:1;stroke:#000000;stroke-width:2.5;stroke-linecap:round;stroke-linejoin:round;stroke-miterlimit:4;stroke-dasharray:none;stroke-dashoffset:0;stroke-opacity:1;paint-order:normal"
       d="m 81.91377775727653,84.35777669030568 c 1.90214332882519,7.65968135095562 -3.38045470597028,28.89389114285572 1.01128120687996,34.38356103391851"
       id="path5262"
       inkscape:connector-curvature="0"
       transform="matrix(0.5291666666666666,0,0,0.5291666666666666,33.58651679580619,-31.0611408650869)" />
    <path
       style="opacity:1;vector-effect:none;fill:none;fill-opacity:1;stroke:#000000;stroke-width:2.5;stroke-linecap:round;stroke-linejoin:round;stroke-miterlimit:4;stroke-dasharray:none;stroke-dashoffset:0;stroke-opacity:1;paint-order:normal"
       d="m 76.45285924012476,100.942788483137 c 4.33390634453825,-0.7897487959484 9.11325095836725,0.2498902776081 13.34891193081542,-0.809024965504"
       id="path5264"
       inkscape:connector-curvature="0"
       transform="matrix(0.5291666666666666,0,0,0.5291666666666666,33.58651679580619,-31.0611408650869)" />
    <g
       id="g7053"
       style="display:inline;opacity:1"
       transform="matrix(2,0,0,2,-4.323943144060995,-45.32920960485191)">
      <path
         style="opacity:1;vector-effect:none;fill:none;fill-opacity:1;stroke:#000000;stroke-width:5;stroke-linecap:round;stroke-linejoin:round;stroke-miterlimit:4;stroke-dasharray:none;stroke-dashoffset:0;stroke-opacity:0.9882352941;paint-order:normal"
         d="m 111.7295951729558,72.99226917221855 c -6.5173668045548,-0.72593167003923 -15.66756711419927,1.76012500529693 -11.6495312502608,9.79619673317383 1.0057601069764,2.01152021395283 9.1784022359392,3.83902558379998 11.6495312502608,7.54571910528256 0.7254295845994,1.08814437689925 0.6619051846739,3.81225148527136 0.6619051846739,5.1628604404565 0,8.31980994971056 -5.1543230367339,11.78475808843656 -13.10572265654355,9.13429154849996"
         id="path7055"
         inkscape:connector-curvature="0"
         transform="matrix(0.1322916666666666,0,0,0.1322916666666666,12.24836452120619,10.57791504978441)" />
      <path
         style="opacity:1;vector-effect:none;fill:none;fill-opacity:1;stroke:#000000;stroke-width:5;stroke-linecap:round;stroke-linejoin:round;stroke-miterlimit:4;stroke-dasharray:none;stroke-dashoffset:0;stroke-opacity:0.9882352941;paint-order:normal"
         d="m 117.8191228719557,75.24274680010984 c -1.6443520195459,5.4369673018367 1.5855197537624,20.87004169708038 6.2219087359348,23.9609676851955 0.3490049933377,0.23266999555845 1.5577897845472,0 1.9857155540217,0 5.7693280829026,0 8.0888749297012,-17.17545560982273 6.2219087359348,-21.84287109423901"
         id="path7057"
         inkscape:connector-curvature="0"
         transform="matrix(0.1322916666666666,0,0,0.1322916666666666,12.24836452120619,10.57791504978441)" />
      <path
         style="opacity:1;vector-effect:none;fill:none;fill-opacity:1;stroke:#000000;stroke-width:5;stroke-linecap:round;stroke-linejoin:round;stroke-miterlimit:4;stroke-dasharray:none;stroke-dashoffset:0;stroke-opacity:0.9882352941;paint-order:normal"
         d="m 143.8981871481078,129.3865909064356 c -2.3473735217796,-7.5326730167129 -7.5444846831098,-46.20180483835421 -1.5885724432174,-50.17241299828234 3.2384162698513,-2.1589441799008 10.0860165380721,-4.05369668292012 12.5761985088042,0.92666725854347 2.2213161246632,4.44263224932581 2.6330580621042,13.39961008359595 0.3971431108044,17.87143998619554 -0.7692254693697,1.53845093873943 -4.493433020903,0.7912773276569 -5.8247656251304,1.32381036934783 -1.6544763083309,0.66179052333231 -4.117919548876,0.43186518718413 -5.5600035512608,-0.52952414773914"
         id="path7061"
         inkscape:connector-curvature="0"
         transform="matrix(0.1322916666666666,0,0,0.1322916666666666,12.24836452120619,10.57791504978441)" />
      <path
         style="opacity:1;vector-effect:none;fill:none;fill-opacity:1;stroke:#000000;stroke-width:5;stroke-linecap:round;stroke-linejoin:round;stroke-miterlimit:4;stroke-dasharray:none;stroke-dashoffset:0;stroke-opacity:0.9882352941;paint-order:normal"
         d="m 163.4905806144554,101.851335224001 c -0.4643213252447,-2.13410581664904 0.5294809822889,-4.63350895451839 0,-6.7514328836739 -0.7592664667417,-3.03706586696701 -1.5627333627252,-12.23073355898447 -0.1323810369347,-15.09143821056513 0.9998503627605,-1.99970072552084 9.8106170950889,-3.20858338996403 10.5904829547825,2.2504776278913"
         id="path7063"
         inkscape:connector-curvature="0"
         transform="matrix(0.1322916666666666,0,0,0.1322916666666666,12.24836452120619,10.57791504978441)" />
    </g>
  </g>
  <g
     inkscape:groupmode="layer"
     id="layer2"
     inkscape:label="2"
     style="display:inline;opacity:1"
     transform="translate(-23.93931528604367,27.57312794168429)">
    <path
       style="opacity:1;vector-effect:none;fill:#000000;fill-opacity:0;stroke:#000000;stroke-width:2.5;stroke-linecap:round;stroke-linejoin:round;stroke-miterlimit:4;stroke-dasharray:none;stroke-dashoffset:0;stroke-opacity:1;paint-order:normal"
       d="m 156.2500001648866,39.01968389598074 c -1.4640936665625,10.69267132139702 3.6966646379048,33.16000613298182 0.7500000007915,42.00000004432148 -0.8269850294872,2.48095508846157 -4.6153532376814,6.05469306713917 -6.4393398347357,7.87867966419482 -2.0639025490375,2.06390254903886 -4.2975776713591,1.23629626995694 -9.5909902682106,-0.52817459566131 -1.8481052378215,-0.6160350792743 -4.3887923101216,0.64212776534036 -4.9696699192145,-1.10050506193808 -3.5545729529758,-10.66371885892653 -5.0341524532135,-28.46584758213806 3.2500000034297,-36.75000003877951 1.8765933462899,-1.87659334628939 1.896750272572,-5.42256270865007 4.0000000042211,-7.00000000738693 4.0371229673773,-3.02784222553305 7.6864107162588,-3.17160268038402 13.0000000137185,-4.50000000475046 z"
       id="path4539"
       inkscape:connector-curvature="0"
       transform="matrix(0.5291666666666666,0,0,0.5291666666666666,-8.031658355890822,-40.31843394486504)"
       sodipodi:nodetypes="cssssssc" />
    <path
       style="opacity:1;vector-effect:none;fill:#cccccc;fill-opacity:1;stroke:#000000;stroke-width:2.5;stroke-linecap:round;stroke-linejoin:round;stroke-miterlimit:4;stroke-dasharray:none;stroke-dashoffset:0;stroke-opacity:1;paint-order:normal"
       d="m 106.7803301987124,47.20902373256286 c 4.9681397780865,-9.58272616511681 16.4274472107351,-8.68933983710986 31.2196699469155,-8.68933983710986 1.9738073407142,0 19.2073903269725,-1.12217092129481 18.2500000192587,1.75000000184673 -0.661276162262,1.98382848678625 -3.8500004884823,2.70000097168804 -4.7500000050125,4.5000000047487 -1.2853847863446,2.57076957268941 -4.1061815778352,8.42809079564427 -6.7500000071232,9.75000001028911 -11.4039788848551,-1.35535055475043 -28.1313507683325,-2.534627254415 -37.9696699540385,-7.31066017977468 z"
       id="path4537"
       inkscape:connector-curvature="0"
       transform="matrix(0.5291666666666666,0,0,0.5291666666666666,-8.031658355890822,-40.31843394486504)"
       sodipodi:nodetypes="cssscc" />
    <g
       id="g4570"
       transform="matrix(2,0,0,2,-4.196340632458405,-44.34084033773315)">
      <path
         transform="scale(0.2645833333333333)"
         inkscape:connector-curvature="0"
         id="path4535"
         d="m 101.0000001065827,52.26968390996308 c 9.2012961100007,0.0972713789556 18.0257055491244,-1.50000000158298 27.2500000287562,-1.50000000158298 2.4922719904721,0 14.768074733453,-0.84788792409199 16.0000000168844,1.00000000105525 1.0779410864386,1.6169116296578 1.1573462592656,3.5646925198498 2.0000000021106,5.25000000554018 0.9719665216507,1.94393304330196 -1.2500000013191,4.34480414354653 -1.2500000013191,6.25000000659566 0,1.86055926665494 -1.7975332006834,32.06417250470326 -1.8535533926426,32.23223308058112 -0.095032489158,0.28509746747388 -1.9651943672065,3.05214083456306 -2.3964466118423,3.26776695688092 -3.8526844356105,1.92634221780577 -35.9023701306442,3.81508660885427 -39.7500000419472,1.25000000131926 -6.06916969581077,-4.04611313053925 -3.57670364552337,-44.17329640486813 0,-47.75000005038942 z"
         style="opacity:1;vector-effect:none;fill:#ffffff;fill-opacity:1;stroke:#000000;stroke-width:2.5;stroke-linecap:round;stroke-linejoin:round;stroke-miterlimit:4;stroke-dasharray:none;stroke-dashoffset:0;stroke-opacity:1;paint-order:normal"
         sodipodi:nodetypes="csssssssc" />
      <path
         style="opacity:1;vector-effect:none;fill:none;fill-opacity:1;stroke:#000000;stroke-width:2.5;stroke-linecap:round;stroke-linejoin:round;stroke-miterlimit:4;stroke-dasharray:none;stroke-dashoffset:0;stroke-opacity:1;paint-order:normal"
         d="m 24.87751768924695,109.2352943795526 c 2.44143725659546,-2.7819974401858 -2.53743238440281,-28.20551630474787 -1.61804993100794,-29.12489875814275 3.38208977696976,-3.38208977696976 15.97824306870333,-3.22454857282472 15.97824306870333,5.66317475852775 0,4.29620155172906 -10.92183703430354,7.25447923009833 -10.92183703430354,7.48348093091171 0,0.0205342323843 1.34240337960742,-0.0244634366748 1.41579368963194,0 1.38561653987689,0.46187217995896 2.66843221599782,1.3179005916723 3.84286858614384,2.02256241375991 4.92905255033355,2.95743153020013 5.46091851715177,10.13731416074448 5.46091851715177,15.37147434457538"
         id="path5296"
         inkscape:connector-curvature="0"
         transform="matrix(0.2645833333333333,0,0,0.2645833333333333,14.87790642432747,8.833908588083092)" />
      <path
         style="opacity:1;vector-effect:none;fill:none;fill-opacity:1;stroke:#000000;stroke-width:2.5;stroke-linecap:round;stroke-linejoin:round;stroke-miterlimit:4;stroke-dasharray:none;stroke-dashoffset:0;stroke-opacity:1;paint-order:normal"
         d="m 44.69862934409411,100.740532241761 c 2.66018820731603,-0.4903647715657 8.99676909453743,0.7115304915101 10.92183703430354,-1.21353744825598 2.65920665101784,-2.65920665101784 0.68091337198632,-9.03747506516079 -4.04512482751982,-6.6744559654077 -8.9881100859038,4.49405504295187 -9.41359469051983,19.64630731027728 6.06768724127974,15.77598682732737"
         id="path5298"
         inkscape:connector-curvature="0"
         transform="matrix(0.2645833333333333,0,0,0.2645833333333333,14.87790642432747,8.833908588083092)" />
      <path
         style="opacity:1;vector-effect:none;fill:none;fill-opacity:1;stroke:#000000;stroke-width:2.5;stroke-linecap:round;stroke-linejoin:round;stroke-miterlimit:4;stroke-dasharray:none;stroke-dashoffset:0;stroke-opacity:1;paint-order:normal"
         d="m 70.38517199884502,92.65028258672133 c -3.49162881689304,-0.82411101694105 -12.85317987443195,0.99146411276696 -10.31506831017556,6.06768724127974 1.42922743288584,2.85845486577172 7.39410261887478,-2.89746607399857 11.12409327567951,8.29250589641562 1.85167934365937,5.5550380309781 -7.71059170697013,5.3520755455557 -9.70829958604757,2.0225624137599"
         id="path5300"
         inkscape:connector-curvature="0"
         transform="matrix(0.2645833333333333,0,0,0.2645833333333333,14.87790642432747,8.833908588083092)" />
      <path
         style="opacity:1;vector-effect:none;fill:none;fill-opacity:1;stroke:#000000;stroke-width:2.5;stroke-linecap:round;stroke-linejoin:round;stroke-miterlimit:4;stroke-dasharray:none;stroke-dashoffset:0;stroke-opacity:1;paint-order:normal"
         d="m 74.83480930911683,101.751813448641 c 3.35111412384684,-0.8731661556489 7.74085246049934,-0.1286857647939 10.71958079292753,-1.618049931008 3.58802815486644,-1.7940140774332 -0.0288110315742,-9.56385841460552 -4.44963731027181,-8.09024965503966 -7.3312914356992,2.44376381189976 -5.45139344639247,12.74690574206716 0.60676872412799,15.77598682732736 1.33011131874525,0.6650556593726 4.68852680936021,0 6.26994348265573,0"
         id="path5302"
         inkscape:connector-curvature="0"
         transform="matrix(0.2645833333333333,0,0,0.2645833333333333,14.87790642432747,8.833908588083092)" />
      <path
         style="opacity:1;vector-effect:none;fill:none;fill-opacity:1;stroke:#000000;stroke-width:2.5;stroke-linecap:round;stroke-linejoin:round;stroke-miterlimit:4;stroke-dasharray:none;stroke-dashoffset:0;stroke-opacity:1;paint-order:normal"
         d="m 97.48750834322787,77.07655200076999 c 0.2503825042467,3.14980842432119 -3.76251671965885,28.8810900083608 -3.23609986201586,29.9339237236467 1.00869414268146,2.0173882853629 3.76483973725166,1.618049931008 5.66317475852775,1.618049931008"
         id="path5304"
         inkscape:connector-curvature="0"
         transform="matrix(0.2645833333333333,0,0,0.2645833333333333,14.87790642432747,8.833908588083092)" />
      <path
         style="opacity:1;vector-effect:none;fill:none;fill-opacity:1;stroke:#000000;stroke-width:2.5;stroke-linecap:round;stroke-linejoin:round;stroke-miterlimit:4;stroke-dasharray:none;stroke-dashoffset:0;stroke-opacity:1;paint-order:normal"
         d="m 89.80177117094018,92.24577010396933 c 4.15547424450223,0.25677159802132 8.29490380286967,-0.20225624137599 12.33763072393552,-0.20225624137599"
         id="path5306"
         inkscape:connector-curvature="0"
         transform="matrix(0.2645833333333333,0,0,0.2645833333333333,14.87790642432747,8.833908588083092)" />
    </g>
    <g
       transform="matrix(2,0,0,2,-0.557413756368703,-48.7289580412531)"
       style="display:inline;opacity:1"
       id="g5312">
      <path
         style="opacity:1;vector-effect:none;fill:none;fill-opacity:1;stroke:#000000;stroke-width:5;stroke-linecap:round;stroke-linejoin:round;stroke-miterlimit:4;stroke-dasharray:none;stroke-dashoffset:0;stroke-opacity:0.9882352941;paint-order:normal"
         d="m 109.8952389196725,73.51556614457459 c -5.3664604432987,-7.01087521043718 -12.65791997606843,-0.15631825567715 -10.29682817816358,6.92695713803725 1.33158034894808,3.99474104684404 18.89185088932578,2.56957814744024 11.98176369822669,19.84479612518785 -2.7028317285894,6.7570793214733 -8.1755259420856,9.9998188131506 -13.479484160505,3.3698710401263"
         id="path7035"
         inkscape:connector-curvature="0"
         transform="matrix(0.1322916666666666,0,0,0.1322916666666666,12.24836452120619,10.57791504978441)" />
      <path
         style="opacity:1;vector-effect:none;fill:none;fill-opacity:1;stroke:#000000;stroke-width:5;stroke-linecap:round;stroke-linejoin:round;stroke-miterlimit:4;stroke-dasharray:none;stroke-dashoffset:0;stroke-opacity:0.9882352941;paint-order:normal"
         d="m 118.3199165199881,73.70278120235937 c 0.581606889594,7.82400426070021 -3.7788843947009,28.08225866771872 7.6758173691764,28.08225866771872 1.7476119901853,0 3.5004890061003,-0.00871189118 4.493161386835,-1.4977204622784 4.9985702599579,-7.49785538993675 1.3105054044935,-18.11323632159703 1.3105054044935,-26.21010808987076"
         id="path7037"
         inkscape:connector-curvature="0"
         transform="matrix(0.1322916666666666,0,0,0.1322916666666666,12.24836452120619,10.57791504978441)" />
      <path
         style="opacity:1;vector-effect:none;fill:none;fill-opacity:1;stroke:#000000;stroke-width:5;stroke-linecap:round;stroke-linejoin:round;stroke-miterlimit:4;stroke-dasharray:none;stroke-dashoffset:0;stroke-opacity:0.9882352941;paint-order:normal"
         d="m 143.2195192053653,124.0636317464682 c -2.2135357217443,-6.7891603309436 -4.8524433877501,-47.3957058488611 -2.8082258667719,-51.4841408908176 2.223336318767,-4.44667263753402 12.1707564460824,0.001777690071 14.2283443916442,2.05936563563272 0.8112486636858,0.8112486636858 0.850466354961,2.84022024648979 1.1232903467087,3.93151621348062 3.2601108420968,13.04044336838768 -7.1368288438943,20.94542982382441 -15.3516347383529,12.73062392936581"
         id="path7039"
         inkscape:connector-curvature="0"
         transform="matrix(0.1322916666666666,0,0,0.1322916666666666,12.24836452120619,11.3209248103678)" />
      <path
         style="opacity:1;vector-effect:none;fill:none;fill-opacity:1;stroke:#000000;stroke-width:5;stroke-linecap:round;stroke-linejoin:round;stroke-miterlimit:4;stroke-dasharray:none;stroke-dashoffset:0;stroke-opacity:0.9882352941;paint-order:normal"
         d="m 163.0643153305531,96.16858813653431 c 0.035950917915,-6.47217957678004 -3.3179983581749,-17.95684704137469 0.5616451733544,-23.77631233866847 4.0751208047199,-6.11268120707959 8.98632277367,0.42503785652829 8.98632277367,5.42923667575893"
         id="path7043"
         inkscape:connector-curvature="0"
         transform="matrix(0.1322916666666666,0,0,0.1322916666666666,12.24836452120619,11.3209248103678)" />
    </g>
  </g>
</svg>
