<?xml version="1.0" encoding="UTF-8" standalone="no"?>
<!-- Created with Inkscape (http://www.inkscape.org/) -->

<svg
   xmlns:dc="http://purl.org/dc/elements/1.1/"
   xmlns:cc="http://creativecommons.org/ns#"
   xmlns:rdf="http://www.w3.org/1999/02/22-rdf-syntax-ns#"
   xmlns:svg="http://www.w3.org/2000/svg"
   xmlns="http://www.w3.org/2000/svg"
   xmlns:sodipodi="http://sodipodi.sourceforge.net/DTD/sodipodi-0.dtd"
   xmlns:inkscape="http://www.inkscape.org/namespaces/inkscape"
   width="248"
   height="248"
   viewBox="0 0 65.61666356948923 65.61666530018427"
   version="1.1"
   id="svg8"
   inkscape:version="0.92.1 r15371"
   sodipodi:docname="smell-tutorial.svg">
  <defs
     id="defs2" />
  <sodipodi:namedview
     id="base"
     pagecolor="#ffffff"
     bordercolor="#666666"
     borderopacity="1.0"
     inkscape:pageopacity="0.0"
     inkscape:pageshadow="2"
     inkscape:zoom="1.236055800122731"
     inkscape:cx="-74.07982815272749"
     inkscape:cy="43.97775687705155"
     inkscape:document-units="mm"
     inkscape:current-layer="layer1"
     showgrid="false"
     inkscape:snap-global="false"
     inkscape:window-width="1920"
     inkscape:window-height="1027"
     inkscape:window-x="-8"
     inkscape:window-y="-8"
     inkscape:window-maximized="1"
     fit-margin-top="0"
     fit-margin-left="0"
     fit-margin-right="0"
     fit-margin-bottom="0"
     units="px" />
  <metadata
     id="metadata5">
    <rdf:RDF>
      <cc:Work
         rdf:about="">
        <dc:format>image/svg+xml</dc:format>
        <dc:type
           rdf:resource="http://purl.org/dc/dcmitype/StillImage" />
        <dc:title></dc:title>
      </cc:Work>
    </rdf:RDF>
  </metadata>
  <g
     inkscape:label="Layer 1"
     inkscape:groupmode="layer"
     id="layer1"
     style="display:inline;opacity:1"
     transform="translate(-23.93931528604367,27.57312794168429)">
    <path
       style="opacity:1;vector-effect:none;fill:#cccccc;fill-opacity:1;stroke:#000000;stroke-width:2.5;stroke-linecap:round;stroke-linejoin:round;stroke-miterlimit:4;stroke-dasharray:none;stroke-dashoffset:0;stroke-opacity:1;paint-order:normal"
       d="m 154.7500001633035,45.51968390284151 c -1.679590523001,-1.98850349592021 -1.3690670913391,-4.61906709476807 -3.0000000031658,-6.25000000659566 -0.5851315877374,-0.5851315877378 -4.8283306686163,0 -5.7500000060678,0 -6.9596710479772,0 -22.3277643707152,-2.05741188645471 -28.5000000300753,0 -3.3513929470565,1.11713098235282 -7.841785691532,5.09178568862831 -10.5000000110804,7.75000000817841 -1.0414245099802,1.04142450998074 -7.19013610106239,6.86972782030102 -6.5000000068593,8.25000000870614 0.6228120067884,1.24562401357707 1.6947485150124,3.86684911201496 2.750000002902,4.50000000474869 7.8023231912024,4.68139391472164 32.9435892308624,8.90320541134699 41.7500000440577,4.5000000047487 6.9772453308935,-3.48862266544733 8.2066675560288,-12.57667020274585 9.7500000102889,-18.75000001978628 z"
       id="path4507"
       inkscape:connector-curvature="0"
       transform="matrix(0.5291666666666666,0,0,0.5291666666666666,-8.223812206563533,-42.18791698671049)" />
    <path
       style="opacity:1;vector-effect:none;fill:#999999;fill-opacity:1;stroke:#000000;stroke-width:2.5;stroke-linecap:round;stroke-linejoin:round;stroke-miterlimit:4;stroke-dasharray:none;stroke-dashoffset:0;stroke-opacity:1;paint-order:normal"
       d="m 143.000000150904,95.51968395560516 c 2.2763368482667,-2.00311416822797 10.3247979866786,-8.63369197101019 13.0000000137186,-14.25000001503783 1.7265869227779,-3.62478942715211 0,-13.29067499182702 0,-17.25000001820331 0,-2.93875634106323 0.076807265603,-21.673192757348 -2.0000000021106,-23.75000002506293 -0.5366648476994,-0.53666484769974 -4.5538970009935,7.80389700442403 -8.5000000089698,11.75000001239937 -0.9971065308995,0.99710653089938 -2.750000002902,6.43994953868469 -2.750000002902,7.50000000791488 0,1.35746386849292 1.464257072974,3.92871464700193 1.0000000010553,6.25000000659541 -1.0873336285411,5.4366681427057 -2.2500000023744,11.43643643110319 -2.2500000023744,17.00000001793957 0,2.28507079221252 -1.4612091283332,12.75000001345484 1.5000000015829,12.75000001345484 z"
       id="path4503"
       inkscape:connector-curvature="0"
       transform="matrix(0.5291666666666666,0,0,0.5291666666666666,-8.223812206563533,-42.18791698671049)"
       sodipodi:nodetypes="csssssssc" />
    <path
       style="opacity:1;vector-effect:none;fill:#ffffff;fill-opacity:1;stroke:#000000;stroke-width:2.5;stroke-linecap:round;stroke-linejoin:round;stroke-miterlimit:4;stroke-dasharray:none;stroke-dashoffset:0;stroke-opacity:1;paint-order:normal"
       d="m 106.1798777577416,53.98017928802028 c 4.4600025328043,-1.39391721661991 9.9054120871251,-0.8172386277256 14.7627043104333,-0.8172386277256 3.4255617459917,0 12.6307294600415,-0.29950374848954 14.7627043104332,-0.81723862772583 7.9053765965721,-1.91976429590204 11.1690910554889,2.35846552898488 9.8418028736221,10.21548284657115 -0.2062449665992,1.22088804554551 -2.2814178952364,32.84925291789431 -2.5303294002331,33.09816442289093 -5.0349011566487,5.03490115664837 -37.0652068914819,6.51232536993066 -41.6791700140105,-0.4086193138628 -4.47957972324792,-6.71936958487231 -3.45358448146175,-35.25694889480087 -0.078613517056,-40.86193138628505 0.890611775891,-1.47908336493127 3.550979599291,-0.69300649804086 4.920901436811,-0.4086193138628 z"
       id="path4485"
       inkscape:connector-curvature="0"
       transform="matrix(0.5291666666666666,0,0,0.5291666666666666,-8.223812206563533,-42.18791698671049)"
       sodipodi:nodetypes="cssssssc" />
    <path
       style="opacity:1;vector-effect:none;fill:none;fill-opacity:1;stroke:#000000;stroke-width:2.5;stroke-linecap:round;stroke-linejoin:round;stroke-miterlimit:4;stroke-dasharray:none;stroke-dashoffset:0;stroke-opacity:1;paint-order:normal"
       d="m 65.40737734603385,39.67751623227525 c -7.05649576813641,-4.8026014689444 -12.76643468030932,-1.1616271325421 -10.78337842731907,5.30330086589465 1.35863863919694,4.07591591759069 14.14213564238569,-2.09229723728564 14.14213564238569,12.19759199155765 0,2.10093029659291 0.43783256566132,4.33513821364386 -1.06066017317892,5.8336309524841 -4.38016789775943,4.38016789775949 -17.67766955298212,3.07498507384042 -17.67766955298212,-4.41941738824552"
       id="path4572"
       inkscape:connector-curvature="0"
       transform="matrix(0.5291666666666666,0,0,0.5291666666666666,24.05769767947371,-28.54250620341238)"
       sodipodi:nodetypes="ccssc" />
    <path
       style="opacity:1;vector-effect:none;fill:none;fill-opacity:1;stroke:#000000;stroke-width:2.5;stroke-linecap:round;stroke-linejoin:round;stroke-miterlimit:4;stroke-dasharray:none;stroke-dashoffset:0;stroke-opacity:1;paint-order:normal"
       d="m 29.0000000306029,80.74999995435945 c -0.14942745132724,-0.63455953024416 -1.53221020856042,-0.0940700690804 -2.00000000211054,-0.25000000026381 -7.95855265735294,-2.65285088578432 -9.07740529577438,8.22419824661368 -6.00000000633164,9.25000000976125 8.49788131537477,2.83262710512494 19.19315404161418,8.61369196636947 14.00000001477383,19.00000002005021 -3.50533539606745,7.0106707921349 -16.67614835795741,8.6192583072979 -18.50000001952256,-0.5000000005276"
       id="path4574"
       inkscape:connector-curvature="0"
       transform="matrix(0.5291666666666666,0,0,0.5291666666666666,25.36731836552381,-28.54250620341238)" />
    <path
       style="opacity:1;vector-effect:none;fill:none;fill-opacity:1;stroke:#000000;stroke-width:2.5;stroke-linecap:round;stroke-linejoin:round;stroke-miterlimit:4;stroke-dasharray:none;stroke-dashoffset:0;stroke-opacity:1;paint-order:normal"
       d="m 40.50000004273854,109.7499999849624 c -0.59414428765298,-4.9915717026445 0.63794019236208,-9.163820584737 2.00000000211054,-13.25000001398239 0.2360837755004,-0.70825132650121 3.78511878352731,-2.46488122306816 4.25000000448491,-2.00000000211055 2.70895650142638,2.70895650142637 0.75000000079146,8.83041443264123 0.75000000079146,8.75000000923365 0,-21.62190380575767 14.66701684465624,-4.54254207774002 9.25000000976127,9.0000000094975"
       id="path4576"
       inkscape:connector-curvature="0"
       transform="matrix(0.5291666666666666,0,0,0.5291666666666666,25.36731836552381,-28.54250620341238)" />
    <path
       style="opacity:1;vector-effect:none;fill:none;fill-opacity:1;stroke:#000000;stroke-width:2.5;stroke-linecap:round;stroke-linejoin:round;stroke-miterlimit:4;stroke-dasharray:none;stroke-dashoffset:0;stroke-opacity:1;paint-order:normal"
       d="m 63.00000006648217,102.7499999775755 c 4.20021818147701,0.6139948300934 5.3010613142859,-0.5510613092734 7.50000000791452,-2.75000000290206 4.47940487131115,-4.47940487131123 -2.69603403974429,-8.33094895344246 -7.75000000817835,-0.75000000079143 -1.02505002042693,1.53757503064038 -2.83042973607791,9.08914054340939 -2.00000000211054,10.75000001134418 1.79761986122896,3.5952397224579 9.68897128050052,2.3110287321628 12.00000001266326,0"
       id="path4578"
       inkscape:connector-curvature="0"
       transform="matrix(0.5291666666666666,0,0,0.5291666666666666,25.36731836552381,-28.54250620341238)" />
    <path
       style="opacity:1;vector-effect:none;fill:none;fill-opacity:1;stroke:#000000;stroke-width:2.5;stroke-linecap:round;stroke-linejoin:round;stroke-miterlimit:4;stroke-dasharray:none;stroke-dashoffset:0;stroke-opacity:1;paint-order:normal"
       d="m 81.00000008547705,78.24999995172126 c 1.9150543811803,6.19374041237282 -11.32597554947094,33.58480492793734 -1.7500000018467,35.50000003746223"
       id="path4580"
       inkscape:connector-curvature="0"
       transform="matrix(0.5291666666666666,0,0,0.5291666666666666,25.36731836552381,-28.54250620341238)" />
    <path
       style="opacity:1;vector-effect:none;fill:none;fill-opacity:1;stroke:#000000;stroke-width:2.5;stroke-linecap:round;stroke-linejoin:round;stroke-miterlimit:4;stroke-dasharray:none;stroke-dashoffset:0;stroke-opacity:1;paint-order:normal"
       d="m 89.75000009471071,77.24999995066599 c 0.65346662398562,7.17898649791654 -9.75093254472232,37.00000003904511 3.00000000316581,37.00000003904511"
       id="path4582"
       inkscape:connector-curvature="0"
       transform="matrix(0.5291666666666666,0,0,0.5291666666666666,25.36731836552381,-28.54250620341238)" />
  </g>
  <g
     inkscape:groupmode="layer"
     id="layer2"
     inkscape:label="2"
     style="display:inline;opacity:1"
     transform="translate(-23.93931528604367,27.57312794168429)">
    <path
       style="opacity:1;vector-effect:none;fill:#999999;fill-opacity:1;stroke:#000000;stroke-width:2.5;stroke-linecap:round;stroke-linejoin:round;stroke-miterlimit:4;stroke-dasharray:none;stroke-dashoffset:0;stroke-opacity:1;paint-order:normal"
       d="m 156.2500001648866,39.01968389598074 c -1.4640936665625,10.69267132139702 3.6966646379048,33.16000613298182 0.7500000007915,42.00000004432148 -0.8269850294872,2.48095508846157 -4.6153532376814,6.05469306713917 -6.4393398347357,7.87867966419482 -2.0639025490375,2.06390254903886 -4.2975776713591,1.23629626995694 -9.5909902682106,-0.52817459566131 -1.8481052378215,-0.6160350792743 -4.3887923101216,0.64212776534036 -4.9696699192145,-1.10050506193808 -3.5545729529758,-10.66371885892653 -5.0341524532135,-28.46584758213901 3.2500000034297,-36.75000003878039 1.8765933462899,-1.8765933462894 1.896750272572,-5.42256270865008 4.0000000042211,-7.00000000738693 4.0371229673773,-3.02784222553305 7.6864107162588,-3.17160268038403 13.0000000137185,-4.50000000474958 z"
       id="path4539"
       inkscape:connector-curvature="0"
       transform="matrix(0.5291666666666666,0,0,0.5291666666666666,-8.223812206563533,-42.18791698671049)"
       sodipodi:nodetypes="cssssssc" />
    <path
       style="opacity:1;vector-effect:none;fill:#cccccc;fill-opacity:1;stroke:#000000;stroke-width:2.5;stroke-linecap:round;stroke-linejoin:round;stroke-miterlimit:4;stroke-dasharray:none;stroke-dashoffset:0;stroke-opacity:1;paint-order:normal"
       d="m 106.7803301987124,47.20902373256286 c 4.9681397780865,-9.58272616511681 16.4274472107351,-8.68933983710986 31.2196699469155,-8.68933983710986 1.9738073407142,0 19.2073903269725,-1.12217092129481 18.2500000192587,1.75000000184673 -0.661276162262,1.98382848678625 -3.8500004884823,2.70000097168804 -4.7500000050125,4.5000000047487 -1.2853847863446,2.57076957268941 -4.1061815778352,8.42809079564427 -6.7500000071232,9.75000001028911 -11.4039788848551,-1.35535055475043 -28.1313507683325,-2.534627254415 -37.9696699540385,-7.31066017977468 z"
       id="path4537"
       inkscape:connector-curvature="0"
       transform="matrix(0.5291666666666666,0,0,0.5291666666666666,-8.223812206563533,-42.18791698671049)"
       sodipodi:nodetypes="cssscc" />
    <g
       id="g4570"
       transform="matrix(2,0,0,2,-4.388494483131126,-46.21032337957859)">
      <path
         transform="scale(0.2645833333333333)"
         inkscape:connector-curvature="0"
         id="path4535"
         d="m 101.0000001065827,52.26968390996308 c 9.2012961100007,0.0972713789556 18.0257055491244,-1.50000000158298 27.2500000287562,-1.50000000158298 2.4922719904721,0 14.768074733453,-0.84788792409199 16.0000000168844,1.00000000105525 1.0779410864386,1.6169116296578 1.1573462592656,3.5646925198498 2.0000000021106,5.25000000554018 0.9719665216507,1.94393304330196 -1.2500000013191,4.34480414354653 -1.2500000013191,6.25000000659566 0,1.86055926665494 -1.7975332006834,32.06417250470326 -1.8535533926426,32.23223308058112 -0.095032489158,0.28509746747388 -1.9651943672065,3.05214083456306 -2.3964466118423,3.26776695688092 -3.8526844356105,1.92634221780577 -35.9023701306442,3.81508660885427 -39.7500000419472,1.25000000131926 -6.06916969580978,-4.04611313053925 -3.57670364552236,-44.17329640486813 0,-47.75000005038942 z"
         style="opacity:1;vector-effect:none;fill:#ffffff;fill-opacity:1;stroke:#000000;stroke-width:2.5;stroke-linecap:round;stroke-linejoin:round;stroke-miterlimit:4;stroke-dasharray:none;stroke-dashoffset:0;stroke-opacity:1;paint-order:normal"
         sodipodi:nodetypes="csssssssc" />
      <path
         style="opacity:1;vector-effect:none;fill:none;fill-opacity:1;stroke:#000000;stroke-width:2.5;stroke-linecap:round;stroke-linejoin:round;stroke-miterlimit:4;stroke-dasharray:none;stroke-dashoffset:0;stroke-opacity:1;paint-order:normal"
         d="m 63.62500010071257,40.2499998674314 c -2.75110422203438,-6.78762630806015 -14.94218667722849,-4.57655996797324 -12.25000001939062,3.50000000554017 1.16082644872035,3.48247934616105 6.52729476164896,2.93486317219017 8.50000001345472,4.25000000672737 1.08836735196457,0.72557823464305 2.50369528518289,1.12684764239358 3.75000000593592,1.75000000277009 5.52911112972775,2.76455556486388 5.37538016312193,8.49923970422714 3.00000000474871,13.25000002097355 -3.94682523956496,7.8936504791298 -18.12500002869021,1.50058439471874 -18.12500002869021,-6.37500001009104"
         id="path4584"
         inkscape:connector-curvature="0"
         transform="matrix(0.2645833333333333,0,0,0.2645833333333333,16.99457309434463,6.254221083999691)" />
      <path
         style="opacity:1;vector-effect:none;fill:none;fill-opacity:1;stroke:#000000;stroke-width:2.5;stroke-linecap:round;stroke-linejoin:round;stroke-miterlimit:4;stroke-dasharray:none;stroke-dashoffset:0;stroke-opacity:1;paint-order:normal"
         d="m 31.11269841324856,80.68970959519376 c -0.50668614543518,-2.2946318198255 -2.39065989162652,-2.12132034635788 -4.24264069271571,-2.12132034635788 -1.3263916699403,0 -3.45440802207063,-0.39411633532252 -4.59619408377535,0.17677669552984 -1.9963403397891,0.99817016989455 -4.34922817220522,8.73224729700152 -2.4748737374175,10.60660173178928 5.93156026761714,5.93156026761726 13.12937759816416,3.65528923298986 16.97056277086284,13.25825216473659 0.44099489780357,1.1024872445089 0.96265417129927,3.0244391322365 0.35355339105965,4.2426406927157 -4.48030208513546,8.9606041702711 -18.21429009231208,11.2885467029466 -21.03642676804876,0"
         id="path4586"
         inkscape:connector-curvature="0"
         transform="matrix(0.2645833333333333,0,0,0.2645833333333333,14.87790642432747,8.833908588083092)" />
      <path
         style="opacity:1;vector-effect:none;fill:none;fill-opacity:1;stroke:#000000;stroke-width:2.5;stroke-linecap:round;stroke-linejoin:round;stroke-miterlimit:4;stroke-dasharray:none;stroke-dashoffset:0;stroke-opacity:1;paint-order:normal"
         d="m 41.01219336291858,110.2114177486739 c -4.02616209463558,-2.8665052469606 2.09682188171275,-20.88414853716391 6.01040764801392,-16.97056277086281 0.48129432531776,0.48129432531773 0.90998118086437,8.30850468990161 0.88388347764911,8.30850468990161 -0.72886898781711,0 0.42725244581305,-1.399776860923 0.53033008658947,-2.12132034635786 0.34327028465551,-2.40289199258851 0.0540632021194,-5.33033246695435 2.12132034635786,-6.36396103907359 5.4310381483634,-2.71551907418174 8.89632346383714,15.26459513640235 7.07106782119286,18.91510642169095"
         id="path4588"
         inkscape:connector-curvature="0"
         transform="matrix(0.2645833333333333,0,0,0.2645833333333333,14.87790642432747,8.833908588083092)" />
      <path
         style="opacity:1;vector-effect:none;fill:none;fill-opacity:1;stroke:#000000;stroke-width:2.5;stroke-linecap:round;stroke-linejoin:round;stroke-miterlimit:4;stroke-dasharray:none;stroke-dashoffset:0;stroke-opacity:1;paint-order:normal"
         d="m 61.34151334884803,102.256466449832 c 3.59782358652837,0.9089396871564 6.54264894983094,-0.7666694190384 9.54594155861034,-1.7677669552982 3.09638662327266,-1.03212887442427 2.62425883289769,-9.29197823120417 -5.48007756142447,-3.88908730165612 -3.33499551839695,2.22333034559793 -5.19327427761555,12.58947114994412 -1.23743686870874,15.55634920662432 1.54705814745557,1.1602936105917 7.00299459232346,-1.4413894309037 8.3085046899016,-1.7677669552982"
         id="path4590"
         inkscape:connector-curvature="0"
         transform="matrix(0.2645833333333333,0,0,0.2645833333333333,14.87790642432747,8.833908588083092)" />
      <path
         style="opacity:1;vector-effect:none;fill:none;fill-opacity:1;stroke:#000000;stroke-width:2.5;stroke-linecap:round;stroke-linejoin:round;stroke-miterlimit:4;stroke-dasharray:none;stroke-dashoffset:0;stroke-opacity:1;paint-order:normal"
         d="m 80.43339646606871,78.03805916224644 c 3.15087948468097,10.9290439141874 -6.22541025628392,24.63405963595456 -2.47487373741748,35.88566919255377 0.31665321557706,0.9499596467312 3.0885997236344,1.0606601731789 3.88908730165606,1.0606601731789"
         id="path4592"
         inkscape:connector-curvature="0"
         transform="matrix(0.2645833333333333,0,0,0.2645833333333333,14.87790642432747,8.833908588083092)" />
      <path
         style="opacity:1;vector-effect:none;fill:none;fill-opacity:1;stroke:#000000;stroke-width:2.5;stroke-linecap:round;stroke-linejoin:round;stroke-miterlimit:4;stroke-dasharray:none;stroke-dashoffset:0;stroke-opacity:1;paint-order:normal"
         d="m 91.57032828444748,77.15417568459733 c -2.21890523921256,3.3837714172644 0.0448210113705,8.32840784563474 -1.06066017317893,12.19759199155767 -2.70738449984505,9.47584574945748 -3.57236679577035,13.3613630899187 0.88388347764909,22.2738636367575 0.71825403802339,1.4365080760468 1.14244774023533,3.1819805195368 2.82842712847716,3.1819805195368"
         id="path4594"
         inkscape:connector-curvature="0"
         transform="matrix(0.2645833333333333,0,0,0.2645833333333333,14.87790642432747,8.833908588083092)" />
    </g>
  </g>
</svg>
