<?xml version="1.0" encoding="UTF-8" standalone="no"?>
<!-- Created with Inkscape (http://www.inkscape.org/) -->

<svg
   xmlns:dc="http://purl.org/dc/elements/1.1/"
   xmlns:cc="http://creativecommons.org/ns#"
   xmlns:rdf="http://www.w3.org/1999/02/22-rdf-syntax-ns#"
   xmlns:svg="http://www.w3.org/2000/svg"
   xmlns="http://www.w3.org/2000/svg"
   xmlns:sodipodi="http://sodipodi.sourceforge.net/DTD/sodipodi-0.dtd"
   xmlns:inkscape="http://www.inkscape.org/namespaces/inkscape"
   width="450"
   height="250"
   viewBox="0 0 119.0624943801216 66.14583195583091"
   version="1.1"
   id="svg8"
   inkscape:version="0.92.1 r15371"
   sodipodi:docname="smell-tutorial.svg">
  <defs
     id="defs2" />
  <sodipodi:namedview
     id="base"
     pagecolor="#ffffff"
     bordercolor="#666666"
     borderopacity="1.0"
     inkscape:pageopacity="0.0"
     inkscape:pageshadow="2"
     inkscape:zoom="1.527833941017047"
     inkscape:cx="217.750302120439"
     inkscape:cy="150.8192489417406"
     inkscape:document-units="mm"
     inkscape:current-layer="layer1"
     showgrid="false"
     inkscape:snap-global="false"
     inkscape:window-width="1920"
     inkscape:window-height="1027"
     inkscape:window-x="-8"
     inkscape:window-y="-8"
     inkscape:window-maximized="1"
     fit-margin-top="0"
     fit-margin-left="0"
     fit-margin-right="0"
     fit-margin-bottom="0"
     units="px" />
  <metadata
     id="metadata5">
    <rdf:RDF>
      <cc:Work
         rdf:about="">
        <dc:format>image/svg+xml</dc:format>
        <dc:type
           rdf:resource="http://purl.org/dc/dcmitype/StillImage" />
        <dc:title></dc:title>
      </cc:Work>
    </rdf:RDF>
  </metadata>
  <g
     inkscape:label="Layer 1"
     inkscape:groupmode="layer"
     id="layer1"
     style="display:inline;opacity:1"
     transform="translate(-43.15410787994282,33.18091127212722)">
    <path
       style="opacity:1;vector-effect:none;fill:#cccccc;fill-opacity:1;stroke:#000000;stroke-width:2.5;stroke-linecap:round;stroke-linejoin:round;stroke-miterlimit:4;stroke-dasharray:none;stroke-dashoffset:0;stroke-opacity:1;paint-order:normal"
       d="m 296.9447729604137,45.51968390284253 c -1.679590523001,-1.98850349592021 -1.369067091339,-4.61906709476807 -3.0000000031658,-6.25000000659565 -0.5851315877374,-0.58513158773781 -4.8283306686163,0 -5.7500000060678,0 -6.9596710479772,0 -164.5225371678254,-2.05741188645574 -170.6947728271855,-1.03e-12 -3.3513929470565,1.11713098235282 -7.841785691532,5.09178568862831 -10.5000000110804,7.75000000817841 -1.0414245099802,1.04142450998075 -7.19013610106241,6.86972782030103 -6.5000000068593,8.25000000870614 0.6228120067884,1.24562401357707 1.6947485150124,3.86684911201496 2.750000002902,4.50000000474869 7.8023231912024,4.68139391472164 175.1383620279726,8.90320541134801 183.9447728411679,4.50000000474972 6.9772453308935,-3.48862266544734 8.2066675560288,-12.57667020274585 9.7500000102889,-18.75000001978628 z"
       id="path4507"
       inkscape:connector-curvature="0"
       transform="matrix(0.5291666666666666,0,0,0.5291666666666666,-2.162671386179483,-46.17095238296286)"
       sodipodi:nodetypes="csssssssc" />
    <path
       style="opacity:1;vector-effect:none;fill:#999999;fill-opacity:1;stroke:#000000;stroke-width:2.5;stroke-linecap:round;stroke-linejoin:round;stroke-miterlimit:4;stroke-dasharray:none;stroke-dashoffset:0;stroke-opacity:1;paint-order:normal"
       d="m 285.1947729480142,95.51968395560618 c 2.2763368482667,-2.00311416822797 10.3247979866786,-8.63369197101021 13.0000000137186,-14.25000001503783 1.7265869227779,-3.62478942715212 0,-13.29067499182703 0,-17.25000001820332 0,-2.93875634106323 0.076807265603,-21.67319275734799 -2.0000000021106,-23.7500000250629 -0.5366648476994,-0.53666484769974 -4.5538970009935,7.80389700442403 -8.5000000089698,11.75000001239936 -0.9971065308995,0.99710653089938 -2.750000002902,6.43994953868468 -2.750000002902,7.50000000791487 0,1.35746386849293 1.464257072974,3.92871464700194 1.0000000010553,6.25000000659541 -1.0873336285411,5.4366681427057 -2.2500000023743,11.43643643110319 -2.2500000023743,17.00000001793957 0,2.28507079221251 -1.4612091283332,12.75000001345484 1.5000000015828,12.75000001345484 z"
       id="path4503"
       inkscape:connector-curvature="0"
       transform="matrix(0.5291666666666666,0,0,0.5291666666666666,-2.162671386179483,-46.17095238296286)"
       sodipodi:nodetypes="csssssssc" />
    <path
       style="opacity:1;vector-effect:none;fill:#ffffff;fill-opacity:1;stroke:#000000;stroke-width:2.5;stroke-linecap:round;stroke-linejoin:round;stroke-miterlimit:4;stroke-dasharray:none;stroke-dashoffset:0;stroke-opacity:1;paint-order:normal"
       d="m 106.1798777577416,53.98017928802028 c 4.4600025328043,-1.39391721661991 9.9054120871251,-0.8172386277256 14.7627043104333,-0.8172386277256 3.4255617459917,0 154.8255022571517,-0.29950374848852 156.9574771075434,-0.8172386277248 7.9053765965721,-1.91976429590204 11.1690910554889,2.35846552898488 9.8418028736221,10.21548284657115 -0.2062449665992,1.2208880455455 -2.2814178952364,32.84925291789431 -2.5303294002331,33.09816442289093 -5.0349011566487,5.03490115664835 -179.2599796885921,6.51232536992964 -183.8739428111207,-0.40861931386382 -4.47957972324792,-6.71936958487231 -3.45358448146175,-35.25694889480087 -0.078613517056,-40.86193138628505 0.890611775891,-1.47908336493127 3.550979599291,-0.69300649804086 4.920901436811,-0.4086193138628 z"
       id="path4485"
       inkscape:connector-curvature="0"
       transform="matrix(0.5291666666666666,0,0,0.5291666666666666,-2.162671386179483,-46.17095238296286)"
       sodipodi:nodetypes="cssssssc" />
    <path
       style="opacity:1;vector-effect:none;fill:none;fill-opacity:1;stroke:#000000;stroke-width:2.5;stroke-linecap:round;stroke-linejoin:round;stroke-miterlimit:4;stroke-dasharray:none;stroke-dashoffset:0;stroke-opacity:1;paint-order:normal"
       d="m 29.0000000306029,80.74999995435945 c -0.14942745132724,-0.63455953024416 -1.53221020856042,-0.0940700690804 -2.00000000211054,-0.25000000026381 -7.95855265735294,-2.65285088578432 -9.07740529577438,8.22419824661368 -6.00000000633164,9.25000000976125 8.49788131537477,2.83262710512494 19.19315404161418,8.61369196636947 14.00000001477383,19.00000002005021 -3.50533539606745,7.0106707921349 -16.67614835795741,8.6192583072979 -18.50000001952256,-0.5000000005276"
       id="path4574"
       inkscape:connector-curvature="0"
       transform="matrix(0.5291666666666666,0,0,0.5291666666666666,73.51009402457424,-32.52554159966476)" />
    <path
       style="opacity:1;vector-effect:none;fill:none;fill-opacity:1;stroke:#000000;stroke-width:2.5;stroke-linecap:round;stroke-linejoin:round;stroke-miterlimit:4;stroke-dasharray:none;stroke-dashoffset:0;stroke-opacity:1;paint-order:normal"
       d="m 40.50000004273854,109.7499999849624 c -0.59414428765298,-4.9915717026445 0.63794019236208,-9.163820584737 2.00000000211054,-13.25000001398239 0.2360837755004,-0.70825132650121 3.78511878352731,-2.46488122306816 4.25000000448491,-2.00000000211055 2.70895650142638,2.70895650142637 0.75000000079146,8.83041443264123 0.75000000079146,8.75000000923365 0,-21.62190380575767 14.66701684465624,-4.54254207774002 9.25000000976127,9.0000000094975"
       id="path4576"
       inkscape:connector-curvature="0"
       transform="matrix(0.5291666666666666,0,0,0.5291666666666666,73.51009402457424,-32.52554159966476)" />
    <path
       style="opacity:1;vector-effect:none;fill:none;fill-opacity:1;stroke:#000000;stroke-width:2.5;stroke-linecap:round;stroke-linejoin:round;stroke-miterlimit:4;stroke-dasharray:none;stroke-dashoffset:0;stroke-opacity:1;paint-order:normal"
       d="m 63.00000006648217,102.7499999775755 c 4.20021818147701,0.6139948300934 5.3010613142859,-0.5510613092734 7.50000000791452,-2.75000000290206 4.47940487131115,-4.47940487131123 -2.69603403974429,-8.33094895344246 -7.75000000817835,-0.75000000079143 -1.02505002042693,1.53757503064038 -2.83042973607791,9.08914054340939 -2.00000000211054,10.75000001134418 1.79761986122896,3.5952397224579 9.68897128050052,2.3110287321628 12.00000001266326,0"
       id="path4578"
       inkscape:connector-curvature="0"
       transform="matrix(0.5291666666666666,0,0,0.5291666666666666,73.51009402457424,-32.52554159966476)" />
    <path
       style="opacity:1;vector-effect:none;fill:none;fill-opacity:1;stroke:#000000;stroke-width:2.5;stroke-linecap:round;stroke-linejoin:round;stroke-miterlimit:4;stroke-dasharray:none;stroke-dashoffset:0;stroke-opacity:1;paint-order:normal"
       d="m 81.00000008547705,78.24999995172126 c 1.9150543811803,6.19374041237282 -11.32597554947094,33.58480492793734 -1.7500000018467,35.50000003746223"
       id="path4580"
       inkscape:connector-curvature="0"
       transform="matrix(0.5291666666666666,0,0,0.5291666666666666,73.51009402457424,-32.52554159966476)" />
    <path
       style="opacity:1;vector-effect:none;fill:none;fill-opacity:1;stroke:#000000;stroke-width:2.5;stroke-linecap:round;stroke-linejoin:round;stroke-miterlimit:4;stroke-dasharray:none;stroke-dashoffset:0;stroke-opacity:1;paint-order:normal"
       d="m 89.75000009471071,77.24999995066599 c 0.65346662398562,7.17898649791654 -9.75093254472232,37.00000003904511 3.00000000316581,37.00000003904511"
       id="path4582"
       inkscape:connector-curvature="0"
       transform="matrix(0.5291666666666666,0,0,0.5291666666666666,73.51009402457424,-32.52554159966476)" />
    <g
       style="display:inline;opacity:1"
       id="g7698"
       transform="translate(3.63668449095119,0.4329386323574625)">
      <path
         style="opacity:1;vector-effect:none;fill:none;fill-opacity:1;stroke:#000000;stroke-width:5;stroke-linecap:round;stroke-linejoin:round;stroke-miterlimit:4;stroke-dasharray:none;stroke-dashoffset:0;stroke-opacity:0.9882352941;paint-order:normal"
         d="m 219.2646669138372,55.57071023084143 c -9.7834861318135,-9.36917444171095 -26.1880343663992,7.19255671600519 -17.3448169349752,16.03577414742985 11.0190603832165,11.01906038321754 22.25372738827,-5.3657197188692 22.25372738827,19.96290251006576 0,13.57680014845046 -19.6376814476094,8.83093972985566 -23.5627701758153,-0.98178209065892"
         id="path7700"
         inkscape:connector-curvature="0"
         transform="matrix(0.2645833333333333,0,0,0.2645833333333333,23.93931528604367,-27.57312794168429)" />
      <path
         style="opacity:1;vector-effect:none;fill:none;fill-opacity:1;stroke:#000000;stroke-width:5;stroke-linecap:round;stroke-linejoin:round;stroke-miterlimit:4;stroke-dasharray:none;stroke-dashoffset:0;stroke-opacity:0.9882352941;paint-order:normal"
         d="m 235.300441061267,112.5140714890618 c -0.1400298632265,-7.9905395380187 -9.2165496386518,-52.81580913960518 7.8542567252718,-47.12554035163066 8.0521611214474,2.68405370714912 11.893748236497,25.52633435713328 -2.2908248782043,25.52633435713328"
         id="path7702"
         inkscape:connector-curvature="0"
         transform="matrix(0.2645833333333333,0,0,0.2645833333333333,23.93931528604367,-27.57312794168429)" />
      <path
         style="opacity:1;vector-effect:none;fill:none;fill-opacity:1;stroke:#000000;stroke-width:5;stroke-linecap:round;stroke-linejoin:round;stroke-miterlimit:4;stroke-dasharray:none;stroke-dashoffset:0;stroke-opacity:0.9882352941;paint-order:normal"
         d="m 272.2808998094216,64.40674904677217 c -8.2110729027631,-0.66259083937913 -15.6170546117997,19.07257925815011 -9.4905602097033,25.19907366024697 7.1404793942016,7.14047939420223 12.9706761407502,-17.13730797279159 13.4176885723392,-16.69029554120252 0.8288056170057,0.82880561700551 -0.2100912454229,14.69239429165653 1.6363034844318,19.3083811162931"
         id="path7704"
         inkscape:connector-curvature="0"
         transform="matrix(0.2645833333333333,0,0,0.2645833333333333,23.93931528604367,-27.57312794168429)" />
      <path
         style="opacity:1;vector-effect:none;fill:none;fill-opacity:1;stroke:#000000;stroke-width:5;stroke-linecap:round;stroke-linejoin:round;stroke-miterlimit:4;stroke-dasharray:none;stroke-dashoffset:0;stroke-opacity:0.9882352941;paint-order:normal"
         d="m 298.7890162572139,62.44318486545424 c -10.3459947052653,-5.85179428119494 -15.8210256074592,19.90664643160795 -9.1632995128171,23.235509478929 3.5579989742082,1.77899948710409 8.4644832848559,-0.48350857296475 11.4541243910214,-0.98178209065895"
         id="path7706"
         inkscape:connector-curvature="0"
         transform="matrix(0.2645833333333333,0,0,0.2645833333333333,23.93931528604367,-27.57312794168429)" />
      <path
         style="opacity:1;vector-effect:none;fill:none;fill-opacity:1;stroke:#000000;stroke-width:5;stroke-linecap:round;stroke-linejoin:round;stroke-miterlimit:4;stroke-dasharray:none;stroke-dashoffset:0;stroke-opacity:0.9882352941;paint-order:normal"
         d="m 313.8430083139848,79.13348040665674 c 4.7886854055989,-1.07684939352744 13.8409592356425,-1.17380202349247 16.3630348443162,-6.21795324084012 5.1354348069526,-10.2708696139056 -13.6836521258405,-8.43709348567887 -17.9993383287478,-1.96356418131796 -7.9044536528962,11.85668047934422 7.5889846020469,24.61231344966225 17.9993383287478,17.6720776318615"
         id="path7708"
         inkscape:connector-curvature="0"
         transform="matrix(0.2645833333333333,0,0,0.2645833333333333,23.93931528604367,-27.57312794168429)" />
    </g>
  </g>
  <g
     inkscape:groupmode="layer"
     id="layer2"
     inkscape:label="2"
     style="display:inline;opacity:1"
     transform="translate(-43.15410787994282,33.18091127212722)">
    <path
       style="opacity:1;vector-effect:none;fill:#999999;fill-opacity:1;stroke:#000000;stroke-width:2.5;stroke-linecap:round;stroke-linejoin:round;stroke-miterlimit:4;stroke-dasharray:none;stroke-dashoffset:0;stroke-opacity:1;paint-order:normal"
       d="m 298.4447729619968,39.01968389598176 c -1.4640936665625,10.69267132139704 3.6966646379048,33.16000613298184 0.7500000007915,42.0000000443215 -0.8269850294872,2.48095508846157 -4.6153532376814,6.05469306713917 -6.4393398347357,7.87867966419482 -2.0639025490375,2.06390254903886 -4.297577671359,1.23629626995694 -9.5909902682106,-0.52817459566131 -1.8481052378215,-0.6160350792743 -4.3887923101215,0.64212776534036 -4.9696699192144,-1.10050506193808 -3.5545729529758,-10.66371885892653 -5.0341524532135,-28.465847582139 3.2500000034297,-36.7500000387804 1.8765933462899,-1.87659334628938 1.8967502725719,-5.42256270865007 4.000000004221,-7.00000000738691 4.0371229673773,-3.02784222553304 7.6864107162589,-3.17160268038404 13.0000000137185,-4.50000000474962 z"
       id="path4539"
       inkscape:connector-curvature="0"
       transform="matrix(0.5291666666666666,0,0,0.5291666666666666,-2.162671386179483,-46.17095238296286)"
       sodipodi:nodetypes="cssssssc" />
    <path
       style="opacity:1;vector-effect:none;fill:#cccccc;fill-opacity:1;stroke:#000000;stroke-width:2.5;stroke-linecap:round;stroke-linejoin:round;stroke-miterlimit:4;stroke-dasharray:none;stroke-dashoffset:0;stroke-opacity:1;paint-order:normal"
       d="m 106.7803301987124,47.20902373256286 c 4.9681397780865,-9.58272616511681 158.6222200078453,-8.68933983710884 173.4144427440257,-8.68933983710884 1.9738073407142,0 19.2073903269725,-1.12217092129481 18.2500000192587,1.75000000184673 -0.661276162262,1.98382848678625 -3.8500004884823,2.70000097168805 -4.7500000050125,4.5000000047487 -1.2853847863446,2.57076957268942 -4.1061815778352,8.42809079564427 -6.7500000071232,9.75000001028912 C 275.540794065006,53.16433335758814 116.6186493844184,51.98505665792254 106.7803301987124,47.20902373256286 Z"
       id="path4537"
       inkscape:connector-curvature="0"
       transform="matrix(0.5291666666666666,0,0,0.5291666666666666,-2.162671386179483,-46.17095238296286)"
       sodipodi:nodetypes="cssscc" />
    <path
       sodipodi:nodetypes="csssssssc"
       style="opacity:1;vector-effect:none;fill:#ffffff;fill-opacity:1;stroke:#000000;stroke-width:2.5;stroke-linecap:round;stroke-linejoin:round;stroke-miterlimit:4;stroke-dasharray:none;stroke-dashoffset:0;stroke-opacity:1;paint-order:normal"
       d="m 101.0000001065827,52.26968390996308 c 9.2012961100007,0.0972713789556 18.0257055491244,-1.50000000158298 27.2500000287562,-1.50000000158298 2.4922719904721,0 156.9628475305632,-0.84788792409096 158.1947728139946,1.00000000105625 1.0779410864386,1.6169116296578 1.1573462592656,3.5646925198498 2.0000000021106,5.25000000554018 0.9719665216507,1.94393304330197 -1.2500000013191,4.34480414354652 -1.2500000013191,6.25000000659565 0,1.86055926665495 -1.7975332006834,32.06417250470327 -1.8535533926426,32.23223308058113 -0.095032489158,0.28509746747388 -1.9651943672065,3.05214083456308 -2.3964466118423,3.26776695688092 -3.8526844356105,1.92634221780577 -178.0971429277544,3.81508660885328 -181.9447728390574,1.25000000131827 -6.06916969581145,-4.04611313053927 -3.57670364552405,-44.17329640486815 0,-47.75000005038942 z"
       id="path4535"
       inkscape:connector-curvature="0"
       transform="matrix(0.5291666666666666,0,0,0.5291666666666666,1.672646337252928,-50.19335877583098)" />
    <path
       transform="matrix(0.5291666666666666,0,0,0.5291666666666666,73.51009402457424,-32.52554159966477)"
       inkscape:connector-curvature="0"
       id="path4586"
       d="m 31.11269841324856,80.68970959519376 c -0.50668614543518,-2.2946318198255 -2.39065989162652,-2.12132034635788 -4.24264069271571,-2.12132034635788 -1.3263916699403,0 -3.45440802207063,-0.39411633532252 -4.59619408377535,0.17677669552984 -1.9963403397891,0.99817016989455 -4.34922817220522,8.73224729700152 -2.4748737374175,10.60660173178928 5.93156026761714,5.93156026761726 13.12937759816416,3.65528923298986 16.97056277086284,13.25825216473659 0.44099489780357,1.1024872445089 0.96265417129927,3.0244391322365 0.35355339105965,4.2426406927157 -4.48030208513546,8.9606041702711 -18.21429009231208,11.2885467029466 -21.03642676804876,0"
       style="opacity:1;vector-effect:none;fill:none;fill-opacity:1;stroke:#000000;stroke-width:2.5;stroke-linecap:round;stroke-linejoin:round;stroke-miterlimit:4;stroke-dasharray:none;stroke-dashoffset:0;stroke-opacity:1;paint-order:normal" />
    <path
       transform="matrix(0.5291666666666666,0,0,0.5291666666666666,73.51009402457424,-32.52554159966477)"
       inkscape:connector-curvature="0"
       id="path4588"
       d="m 41.01219336291858,110.2114177486739 c -4.02616209463558,-2.8665052469606 2.09682188171275,-20.88414853716391 6.01040764801392,-16.97056277086281 0.48129432531776,0.48129432531773 0.90998118086437,8.30850468990161 0.88388347764911,8.30850468990161 -0.72886898781711,0 0.42725244581305,-1.399776860923 0.53033008658947,-2.12132034635786 0.34327028465551,-2.40289199258851 0.0540632021194,-5.33033246695435 2.12132034635786,-6.36396103907359 5.4310381483634,-2.71551907418174 8.89632346383714,15.26459513640235 7.07106782119286,18.91510642169095"
       style="opacity:1;vector-effect:none;fill:none;fill-opacity:1;stroke:#000000;stroke-width:2.5;stroke-linecap:round;stroke-linejoin:round;stroke-miterlimit:4;stroke-dasharray:none;stroke-dashoffset:0;stroke-opacity:1;paint-order:normal" />
    <path
       transform="matrix(0.5291666666666666,0,0,0.5291666666666666,73.51009402457424,-32.52554159966477)"
       inkscape:connector-curvature="0"
       id="path4590"
       d="m 61.34151334884803,102.256466449832 c 3.59782358652837,0.9089396871564 6.54264894983094,-0.7666694190384 9.54594155861034,-1.7677669552982 3.09638662327266,-1.03212887442427 2.62425883289769,-9.29197823120417 -5.48007756142447,-3.88908730165612 -3.33499551839695,2.22333034559793 -5.19327427761555,12.58947114994412 -1.23743686870874,15.55634920662432 1.54705814745557,1.1602936105917 7.00299459232346,-1.4413894309037 8.3085046899016,-1.7677669552982"
       style="opacity:1;vector-effect:none;fill:none;fill-opacity:1;stroke:#000000;stroke-width:2.5;stroke-linecap:round;stroke-linejoin:round;stroke-miterlimit:4;stroke-dasharray:none;stroke-dashoffset:0;stroke-opacity:1;paint-order:normal" />
    <path
       transform="matrix(0.5291666666666666,0,0,0.5291666666666666,73.51009402457424,-32.52554159966477)"
       inkscape:connector-curvature="0"
       id="path4592"
       d="m 80.43339646606871,78.03805916224644 c 3.15087948468097,10.9290439141874 -6.22541025628392,24.63405963595456 -2.47487373741748,35.88566919255377 0.31665321557706,0.9499596467312 3.0885997236344,1.0606601731789 3.88908730165606,1.0606601731789"
       style="opacity:1;vector-effect:none;fill:none;fill-opacity:1;stroke:#000000;stroke-width:2.5;stroke-linecap:round;stroke-linejoin:round;stroke-miterlimit:4;stroke-dasharray:none;stroke-dashoffset:0;stroke-opacity:1;paint-order:normal" />
    <path
       transform="matrix(0.5291666666666666,0,0,0.5291666666666666,73.51009402457424,-32.52554159966477)"
       inkscape:connector-curvature="0"
       id="path4594"
       d="m 91.57032828444748,77.15417568459733 c -2.21890523921256,3.3837714172644 0.0448210113705,8.32840784563474 -1.06066017317893,12.19759199155767 -2.70738449984505,9.47584574945748 -3.57236679577035,13.3613630899187 0.88388347764909,22.2738636367575 0.71825403802339,1.4365080760468 1.14244774023533,3.1819805195368 2.82842712847716,3.1819805195368"
       style="opacity:1;vector-effect:none;fill:none;fill-opacity:1;stroke:#000000;stroke-width:2.5;stroke-linecap:round;stroke-linejoin:round;stroke-miterlimit:4;stroke-dasharray:none;stroke-dashoffset:0;stroke-opacity:1;paint-order:normal" />
    <g
       id="g7686"
       transform="translate(6.061140820384061,-3.983035396252376)">
      <path
         transform="matrix(0.2645833333333333,0,0,0.2645833333333333,23.93931528604367,-27.57312794168429)"
         inkscape:connector-curvature="0"
         id="path7669"
         d="m 218.2828848231781,56.22523162461421 c -1.0754435101835,-3.34868202514047 0.1337098373289,-6.87247463461283 -4.5816497564086,-6.87247463461283 -11.8291146935851,0 -19.1831201244106,6.46847522460513 -12.7631671785666,19.30838111629309 4.666407384498,9.33281476899613 18.7194608108328,0.19680326493729 22.9082487820427,12.76316717856666 0.5861015711219,1.75830471336573 1.6121611083005,6.59349868998868 0.6545213937726,8.50877811904442 -5.5728691289951,11.14573825799005 -21.9264666913837,12.67979232632625 -21.9264666913837,-2.61808557509059"
         style="opacity:1;vector-effect:none;fill:none;fill-opacity:1;stroke:#000000;stroke-width:5;stroke-linecap:round;stroke-linejoin:round;stroke-miterlimit:4;stroke-dasharray:none;stroke-dashoffset:0;stroke-opacity:0.9882352941;paint-order:normal" />
      <path
         transform="matrix(0.2645833333333333,0,0,0.2645833333333333,23.93931528604367,-27.57312794168429)"
         inkscape:connector-curvature="0"
         id="path7671"
         d="m 239.5548301207891,110.8777680046303 c -1.6528908213417,-3.4541122906351 -2.262479290571,-41.055498742125 -1.9635641813179,-41.23484780767686 1.8870967620361,-1.13225805722165 4.7369127053736,-1.63630348443164 7.1997353314991,-1.63630348443164 3.7869246853518,0 5.6781017757892,3.55928179066733 6.8724746346128,6.54521393772649 2.7422031282924,6.85550782073138 -2.8016336886894,23.05196136532996 -10.7996029972487,15.05399205677091"
         style="opacity:1;vector-effect:none;fill:none;fill-opacity:1;stroke:#000000;stroke-width:5;stroke-linecap:round;stroke-linejoin:round;stroke-miterlimit:4;stroke-dasharray:none;stroke-dashoffset:0;stroke-opacity:0.9882352941;paint-order:normal" />
      <path
         transform="matrix(0.2645833333333333,0,0,0.2645833333333333,23.93931528604367,-27.57312794168429)"
         inkscape:connector-curvature="0"
         id="path7673"
         d="M 280.1351565346933,66.69757392497655 C 263.4390230731685,54.7800599560583 248.722760812612,77.50180810123103 261.8085575090591,90.58760479767818 c 6.2754557934846,6.27545579348455 12.0215879148602,-4.97499754037995 13.090427875453,-8.18151742215811 1.4474927320527,-4.34247819615743 0,-10.73078055213078 0,-10.47234230036234 0,6.23702818837577 2.9134127772574,11.91704481647771 3.9271283626359,17.99933832874782"
         style="opacity:1;vector-effect:none;fill:none;fill-opacity:1;stroke:#000000;stroke-width:5;stroke-linecap:round;stroke-linejoin:round;stroke-miterlimit:4;stroke-dasharray:none;stroke-dashoffset:0;stroke-opacity:0.9882352941;paint-order:normal" />
      <path
         transform="matrix(0.2645833333333333,0,0,0.2645833333333333,23.93931528604367,-27.57312794168429)"
         inkscape:connector-curvature="0"
         id="path7675"
         d="m 300.7525804385317,64.7340097436586 c -19.5289409570534,-6.41336138878396 -18.5512011037738,23.56277017581532 -0.6545213937726,23.56277017581532"
         style="opacity:1;vector-effect:none;fill:none;fill-opacity:1;stroke:#000000;stroke-width:5;stroke-linecap:round;stroke-linejoin:round;stroke-miterlimit:4;stroke-dasharray:none;stroke-dashoffset:0;stroke-opacity:0.9882352941;paint-order:normal" />
      <path
         transform="matrix(0.2645833333333333,0,0,0.2645833333333333,23.93931528604367,-27.57312794168429)"
         inkscape:connector-curvature="0"
         id="path7679"
         d="m 315.1520511015299,79.13348040665684 c 2.8942003950633,-1.15820662062886 10.927008492989,1.38149249295077 12.4359064816804,-1.63630348443161 5.6550025423679,-11.31000508473491 -8.6337195827319,-12.31096501799306 -14.7267313598846,-6.21795324084016 -10.2336903897598,10.23369038975974 6.9096139276105,20.59885425733944 16.0357741474299,16.03577414742989"
         style="opacity:1;vector-effect:none;fill:none;fill-opacity:1;stroke:#000000;stroke-width:5;stroke-linecap:round;stroke-linejoin:round;stroke-miterlimit:4;stroke-dasharray:none;stroke-dashoffset:0;stroke-opacity:0.9882352941;paint-order:normal" />
    </g>
  </g>
</svg>
