<?xml version="1.0" encoding="UTF-8" standalone="no"?>
<!-- Created with Inkscape (http://www.inkscape.org/) -->

<svg
   xmlns:dc="http://purl.org/dc/elements/1.1/"
   xmlns:cc="http://creativecommons.org/ns#"
   xmlns:rdf="http://www.w3.org/1999/02/22-rdf-syntax-ns#"
   xmlns:svg="http://www.w3.org/2000/svg"
   xmlns="http://www.w3.org/2000/svg"
   xmlns:sodipodi="http://sodipodi.sourceforge.net/DTD/sodipodi-0.dtd"
   xmlns:inkscape="http://www.inkscape.org/namespaces/inkscape"
   width="248"
   height="248"
   viewBox="0 0 65.61666356948923 65.61666530018427"
   version="1.1"
   id="svg8"
   inkscape:version="0.92.1 r15371"
   sodipodi:docname="undo-tutorial.svg">
  <defs
     id="defs2" />
  <sodipodi:namedview
     id="base"
     pagecolor="#ffffff"
     bordercolor="#666666"
     borderopacity="1.0"
     inkscape:pageopacity="0.0"
     inkscape:pageshadow="2"
     inkscape:zoom="2.160683479870224"
     inkscape:cx="66.3699341504265"
     inkscape:cy="166.2910205894706"
     inkscape:document-units="mm"
     inkscape:current-layer="layer1"
     showgrid="false"
     inkscape:snap-global="false"
     inkscape:window-width="1920"
     inkscape:window-height="1027"
     inkscape:window-x="-8"
     inkscape:window-y="-8"
     inkscape:window-maximized="1"
     fit-margin-top="0"
     fit-margin-left="0"
     fit-margin-right="0"
     fit-margin-bottom="0"
     units="px" />
  <metadata
     id="metadata5">
    <rdf:RDF>
      <cc:Work
         rdf:about="">
        <dc:format>image/svg+xml</dc:format>
        <dc:type
           rdf:resource="http://purl.org/dc/dcmitype/StillImage" />
        <dc:title></dc:title>
      </cc:Work>
    </rdf:RDF>
  </metadata>
  <g
     inkscape:label="Layer 1"
     inkscape:groupmode="layer"
     id="layer1"
     style="display:inline;opacity:1"
     transform="translate(-15.57927335916401,14.80046678541108)">
    <path
       style="opacity:1;vector-effect:none;fill:#cccccc;fill-opacity:1;stroke:#000000;stroke-width:2.5;stroke-linecap:round;stroke-linejoin:round;stroke-miterlimit:4;stroke-dasharray:none;stroke-dashoffset:0;stroke-opacity:1;paint-order:normal"
       d="m 154.7500001633035,45.51968390284151 c -1.679590523001,-1.98850349592021 -1.3690670913391,-4.61906709476807 -3.0000000031658,-6.25000000659566 -0.5851315877374,-0.5851315877378 -4.8283306686163,0 -5.7500000060678,0 -6.9596710479772,0 -22.3277643707152,-2.05741188645471 -28.5000000300753,0 -3.3513929470565,1.11713098235282 -7.841785691532,5.09178568862831 -10.5000000110804,7.75000000817841 -1.0414245099802,1.04142450998074 -7.19013610106255,6.86972782030102 -6.5000000068593,8.25000000870614 0.6228120067884,1.24562401357707 1.6947485150124,3.86684911201496 2.750000002902,4.50000000474869 7.8023231912024,4.68139391472164 32.9435892308624,8.90320541134699 41.7500000440577,4.5000000047487 6.9772453308935,-3.48862266544733 8.2066675560288,-12.57667020274585 9.7500000102889,-18.75000001978628 z"
       id="path4507"
       inkscape:connector-curvature="0"
       transform="matrix(0.5291666666666666,0,0,0.5291666666666666,-17.9391793171354,-28.16279050166846)" />
    <path
       style="opacity:1;vector-effect:none;fill:#999999;fill-opacity:1;stroke:#000000;stroke-width:2.5;stroke-linecap:round;stroke-linejoin:round;stroke-miterlimit:4;stroke-dasharray:none;stroke-dashoffset:0;stroke-opacity:1;paint-order:normal"
       d="m 143.000000150904,95.51968395560516 c 2.2763368482667,-2.00311416822797 10.3247979866786,-8.63369197101019 13.0000000137186,-14.25000001503783 1.7265869227779,-3.62478942715211 0,-13.29067499182702 0,-17.25000001820331 0,-2.93875634106323 0.076807265603,-21.673192757348 -2.0000000021106,-23.75000002506293 -0.5366648476994,-0.53666484769974 -4.5538970009935,7.80389700442403 -8.5000000089698,11.75000001239937 -0.9971065308995,0.99710653089938 -2.750000002902,6.43994953868469 -2.750000002902,7.50000000791488 0,1.35746386849292 1.464257072974,3.92871464700193 1.0000000010553,6.25000000659541 -1.0873336285411,5.4366681427057 -2.2500000023744,11.43643643110319 -2.2500000023744,17.00000001793957 0,2.28507079221252 -1.4612091283332,12.75000001345484 1.5000000015829,12.75000001345484 z"
       id="path4503"
       inkscape:connector-curvature="0"
       transform="matrix(0.5291666666666666,0,0,0.5291666666666666,-17.9391793171354,-28.16279050166846)"
       sodipodi:nodetypes="csssssssc" />
    <path
       style="opacity:1;vector-effect:none;fill:#ffffff;fill-opacity:1;stroke:#000000;stroke-width:2.5;stroke-linecap:round;stroke-linejoin:round;stroke-miterlimit:4;stroke-dasharray:none;stroke-dashoffset:0;stroke-opacity:1;paint-order:normal"
       d="m 106.1798777577416,53.98017928802028 c 4.4600025328043,-1.39391721661991 9.9054120871251,-0.8172386277256 14.7627043104333,-0.8172386277256 3.4255617459917,0 12.6307294600415,-0.29950374848954 14.7627043104332,-0.81723862772583 7.9053765965721,-1.91976429590204 11.1690910554889,2.35846552898488 9.8418028736221,10.21548284657115 -0.2062449665992,1.22088804554551 -2.2814178952364,32.84925291789431 -2.5303294002331,33.09816442289093 -5.0349011566487,5.03490115664837 -37.0652068914819,6.51232536993066 -41.6791700140105,-0.4086193138628 -4.47957972324792,-6.71936958487231 -3.45358448146175,-35.25694889480087 -0.078613517056,-40.86193138628505 0.890611775891,-1.47908336493127 3.550979599291,-0.69300649804086 4.920901436811,-0.4086193138628 z"
       id="path4485"
       inkscape:connector-curvature="0"
       transform="matrix(0.5291666666666666,0,0,0.5291666666666666,-17.9391793171354,-28.16279050166846)"
       sodipodi:nodetypes="cssssssc" />
    <path
       style="opacity:1;vector-effect:none;fill:none;fill-opacity:1;stroke:#000000;stroke-width:2.5;stroke-linecap:round;stroke-linejoin:round;stroke-miterlimit:4;stroke-dasharray:none;stroke-dashoffset:0;stroke-opacity:1;paint-order:normal"
       d="m 43.08057941308618,56.85092786317084 c 0,-1.14611870113063 0,-2.29223740226124 0,-3.43835610339185 0,-0.57441300949219 -1.17117473948561,-5.70553746729809 -1.01128120687996,-5.86543099990375 3.30184661095825,-3.30184661095824 13.13905867853457,5.46851552805664 9.91055582742358,8.69701837916763 -1.13040224234272,1.13040224234272 -10.22546058488869,3.92223363499064 -8.89927462054362,0.60676872412797 z"
       id="path5218"
       inkscape:connector-curvature="0"
       transform="matrix(0.5291666666666666,0,0,0.5291666666666666,15.65195125495194,-14.51737971837037)" />
    <path
       style="opacity:1;vector-effect:none;fill:none;fill-opacity:1;stroke:#000000;stroke-width:2.5;stroke-linecap:round;stroke-linejoin:round;stroke-miterlimit:4;stroke-dasharray:none;stroke-dashoffset:0;stroke-opacity:1;paint-order:normal"
       d="m 56.83400382665359,54.42385296665894 c 0.41267843931509,-0.36879223444334 3.95594765307938,0.53522392954672 4.04512482751983,0 2.07971896959011,-12.48206580036924 -13.89628523664262,2.40082055977267 0.40451248275199,3.84286858614384"
       id="path5220"
       inkscape:connector-curvature="0"
       transform="matrix(0.5291666666666666,0,0,0.5291666666666666,15.65195125495194,-14.51737971837037)"
       sodipodi:nodetypes="csc" />
    <path
       style="opacity:1;vector-effect:none;fill:none;fill-opacity:1;stroke:#000000;stroke-width:2.5;stroke-linecap:round;stroke-linejoin:round;stroke-miterlimit:4;stroke-dasharray:none;stroke-dashoffset:0;stroke-opacity:1;paint-order:normal"
       d="m 64.72199724031726,44.31104089785937 c 0.71591452573752,3.85606416530561 -1.51455782295321,13.95568065494341 3.43835610339184,13.95568065494341"
       id="path5222"
       inkscape:connector-curvature="0"
       transform="matrix(0.5291666666666666,0,0,0.5291666666666666,15.65195125495194,-14.51737971837037)" />
    <path
       style="opacity:1;vector-effect:none;fill:none;fill-opacity:1;stroke:#000000;stroke-width:2.5;stroke-linecap:round;stroke-linejoin:round;stroke-miterlimit:4;stroke-dasharray:none;stroke-dashoffset:0;stroke-opacity:1;paint-order:normal"
       d="m 18.00080548246324,82.73972675929775 c -4.27843247238955,8.16068039112447 -0.97548031181252,30.54069244777474 9.91055582742358,30.54069244777474 0.34952125559319,0 2.38903167666645,0.2402994612214 2.62933113788788,0 2.14148604535577,-2.1414860453558 3.62334326965116,-3.7996958983521 4.85414979302381,-6.8767122067837 0.55591759998208,-1.3897939999553 4.22368394067353,-17.41773388655761 3.23609986201587,-18.40531796521529 -1.02595973384125,-1.02595973384122 -1.01128120687995,-3.88403734379031 -1.01128120687995,-5.46091851715178"
       id="path5242"
       inkscape:connector-curvature="0"
       transform="matrix(0.5291666666666666,0,0,0.5291666666666666,15.65195125495194,-14.51737971837037)" />
    <path
       style="opacity:1;vector-effect:none;fill:none;fill-opacity:1;stroke:#000000;stroke-width:2.5;stroke-linecap:round;stroke-linejoin:round;stroke-miterlimit:4;stroke-dasharray:none;stroke-dashoffset:0;stroke-opacity:1;paint-order:normal"
       d="m 43.28283565446217,114.4939566553284 c -0.28622904034873,-2.3436218814926 -3.58808705128163,-11.3788748105417 -1.61804993100793,-13.3489119308154 2.45796265907232,-2.45796265907234 10.29981376906937,-3.2564392501575 12.74214320668747,0 2.76199966023398,3.6826662136453 1.01128120687994,8.3710153521961 1.01128120687994,12.5398869653114"
       id="path5244"
       inkscape:connector-curvature="0"
       transform="matrix(0.5291666666666666,0,0,0.5291666666666666,15.65195125495194,-14.51737971837037)" />
    <path
       style="opacity:1;vector-effect:none;fill:none;fill-opacity:1;stroke:#000000;stroke-width:2.5;stroke-linecap:round;stroke-linejoin:round;stroke-miterlimit:4;stroke-dasharray:none;stroke-dashoffset:0;stroke-opacity:1;paint-order:normal"
       d="m 72.40773441260492,78.8968581731539 c -0.076297966958,6.02637544062034 1.82030617238394,11.59269191331346 1.82030617238394,17.59629299971125 0,0.63488695292145 0.94073028476637,7.07896844815974 0.60676872412797,7.07896844815974 -0.67755002314138,0 0.10075334060413,-1.4165432497997 -0.20225624137599,-2.0225624137599 -0.5980140022683,-1.1960280045366 -1.3517100804649,-3.81082678156037 -2.62933113788789,-4.44963731027185 C 61.2756873202137,91.73615259217351 61.4858973783014,102.6759653114918 61.4858973783014,110.6510880691846 c 0,1.8709402212183 1.15173252642167,3.1742949401816 2.42707489651189,4.4496373102718 6.23052951953869,6.2305295195386 12.0108703708271,-1.9290584495824 13.34891193081544,-7.2812246895357"
       id="path5248"
       inkscape:connector-curvature="0"
       transform="matrix(0.5291666666666666,0,0,0.5291666666666666,15.65195125495194,-14.51737971837037)" />
    <path
       style="opacity:1;vector-effect:none;fill:none;fill-opacity:1;stroke:#000000;stroke-width:2.5;stroke-linecap:round;stroke-linejoin:round;stroke-miterlimit:4;stroke-dasharray:none;stroke-dashoffset:0;stroke-opacity:1;paint-order:normal"
       d="m 93.03787103295606,88.80741400057749 c -3.55178744529813,-0.58501918387324 -6.77494366827932,3.84030691487824 -7.4834809309117,6.67445596540772 -2.28643869202787,9.14575476811149 1.20041678117859,18.40531796521519 11.73086199980752,18.40531796521519 1.38106379063862,0 4.25956979690382,0.190067513368 5.25866227577582,-0.8090249655039 8.0569864678954,-8.0569864678955 3.9430516503839,-27.30459258575891 -9.70829958604763,-27.30459258575891"
       id="path5250"
       inkscape:connector-curvature="0"
       transform="matrix(0.5291666666666666,0,0,0.5291666666666666,15.65195125495194,-14.51737971837037)" />
  </g>
  <g
     inkscape:groupmode="layer"
     id="layer2"
     inkscape:label="2"
     style="display:inline;opacity:1"
     transform="translate(-15.57927335916401,14.80046678541108)">
    <path
       style="opacity:1;vector-effect:none;fill:#999999;fill-opacity:1;stroke:#000000;stroke-width:2.5;stroke-linecap:round;stroke-linejoin:round;stroke-miterlimit:4;stroke-dasharray:none;stroke-dashoffset:0;stroke-opacity:1;paint-order:normal"
       d="m 156.2500001648866,39.01968389598074 c -1.4640936665625,10.69267132139702 3.6966646379048,33.16000613298182 0.7500000007915,42.00000004432148 -0.8269850294872,2.48095508846157 -4.6153532376814,6.05469306713917 -6.4393398347357,7.87867966419482 -2.0639025490375,2.06390254903886 -4.2975776713591,1.23629626995694 -9.5909902682106,-0.52817459566131 -1.8481052378215,-0.6160350792743 -4.3887923101216,0.64212776534036 -4.9696699192145,-1.10050506193808 -3.5545729529758,-10.66371885892653 -5.0341524532135,-28.46584758213856 3.2500000034297,-36.75000003877998 1.8765933462899,-1.8765933462894 1.896750272572,-5.42256270865008 4.0000000042211,-7.00000000738693 4.0371229673773,-3.02784222553305 7.6864107162588,-3.17160268038403 13.0000000137185,-4.50000000474999 z"
       id="path4539"
       inkscape:connector-curvature="0"
       transform="matrix(0.5291666666666666,0,0,0.5291666666666666,-17.9391793171354,-28.16279050166846)"
       sodipodi:nodetypes="cssssssc" />
    <path
       style="opacity:1;vector-effect:none;fill:#cccccc;fill-opacity:1;stroke:#000000;stroke-width:2.5;stroke-linecap:round;stroke-linejoin:round;stroke-miterlimit:4;stroke-dasharray:none;stroke-dashoffset:0;stroke-opacity:1;paint-order:normal"
       d="m 106.7803301987124,47.20902373256286 c 4.9681397780865,-9.58272616511681 16.4274472107351,-8.68933983710986 31.2196699469155,-8.68933983710986 1.9738073407142,0 19.2073903269725,-1.12217092129481 18.2500000192587,1.75000000184673 -0.661276162262,1.98382848678625 -3.8500004884823,2.70000097168804 -4.7500000050125,4.5000000047487 -1.2853847863446,2.57076957268941 -4.1061815778352,8.42809079564427 -6.7500000071232,9.75000001028911 -11.4039788848551,-1.35535055475043 -28.1313507683325,-2.534627254415 -37.9696699540385,-7.31066017977468 z"
       id="path4537"
       inkscape:connector-curvature="0"
       transform="matrix(0.5291666666666666,0,0,0.5291666666666666,-17.9391793171354,-28.16279050166846)"
       sodipodi:nodetypes="cssscc" />
    <g
       id="g4570"
       transform="matrix(2,0,0,2,-14.10386159370299,-32.18519689453654)">
      <path
         transform="scale(0.2645833333333333)"
         inkscape:connector-curvature="0"
         id="path4535"
         d="m 101.0000001065827,52.26968390996308 c 9.2012961100007,0.0972713789556 18.0257055491244,-1.50000000158298 27.2500000287562,-1.50000000158298 2.4922719904721,0 14.768074733453,-0.84788792409199 16.0000000168844,1.00000000105525 1.0779410864386,1.6169116296578 1.1573462592656,3.5646925198498 2.0000000021106,5.25000000554018 0.9719665216507,1.94393304330196 -1.2500000013191,4.34480414354653 -1.2500000013191,6.25000000659566 0,1.86055926665494 -1.7975332006834,32.06417250470326 -1.8535533926426,32.23223308058112 -0.095032489158,0.28509746747388 -1.9651943672065,3.05214083456306 -2.3964466118423,3.26776695688092 -3.8526844356105,1.92634221780577 -35.9023701306442,3.81508660885427 -39.7500000419472,1.25000000131926 -6.06916969581023,-4.04611313053925 -3.57670364552283,-44.17329640486813 0,-47.75000005038942 z"
         style="opacity:1;vector-effect:none;fill:#ffffff;fill-opacity:1;stroke:#000000;stroke-width:2.5;stroke-linecap:round;stroke-linejoin:round;stroke-miterlimit:4;stroke-dasharray:none;stroke-dashoffset:0;stroke-opacity:1;paint-order:normal"
         sodipodi:nodetypes="csssssssc" />
      <path
         style="opacity:1;vector-effect:none;fill:none;fill-opacity:1;stroke:#000000;stroke-width:2.5;stroke-linecap:round;stroke-linejoin:round;stroke-miterlimit:4;stroke-dasharray:none;stroke-dashoffset:0;stroke-opacity:1;paint-order:normal"
         d="m 48.54149793023795,51.39000934601907 c -0.42565694937395,-2.87936477031229 0,-5.58866818266182 0,-8.49476213779164 0,-1.7456632391156 0.54690509905636,-5.1162696594714 -0.60676872412798,-6.26994348265573 -0.98646669918915,-0.98646669918915 3.16341079034256,-1.41579368963194 3.84286858614384,-1.41579368963194 3.4595123504626,0 7.42440776056474,11.18316644602646 5.25866227577578,13.34891193081543 -1.10080655706505,1.10080655706504 -7.47594492241221,6.9068562407816 -8.49476213779164,2.83158737926388 z"
         id="path5208"
         inkscape:connector-curvature="0"
         transform="matrix(0.2645833333333333,0,0,0.2645833333333333,14.87790642432747,8.833908588083092)" />
      <path
         style="opacity:1;vector-effect:none;fill:none;fill-opacity:1;stroke:#000000;stroke-width:2.5;stroke-linecap:round;stroke-linejoin:round;stroke-miterlimit:4;stroke-dasharray:none;stroke-dashoffset:0;stroke-opacity:1;paint-order:normal"
         d="m 61.89040986105338,45.72683458749131 c 1.5622171268591,-0.25919955517825 3.68006387903713,0.48591483630534 5.05640603439979,-0.20225624137599 2.02273348210262,-1.01136674105132 -1.83391094822851,-4.03152005167526 -3.43835610339186,-2.4270748965119 -2.50521511852749,2.50521511852749 -3.8149473491916,10.15639581990552 2.02256241375992,8.69701837916764"
         id="path5210"
         inkscape:connector-curvature="0"
         transform="matrix(0.2645833333333333,0,0,0.2645833333333333,14.87790642432747,8.833908588083092)" />
      <path
         style="opacity:1;vector-effect:none;fill:none;fill-opacity:1;stroke:#000000;stroke-width:2.5;stroke-linecap:round;stroke-linejoin:round;stroke-miterlimit:4;stroke-dasharray:none;stroke-dashoffset:0;stroke-opacity:1;paint-order:normal"
         d="m 71.19419696434897,32.17566641529989 c 5.16151850702137,2.83965746965593 -2.96060804616774,19.5360361864012 3.84286858614385,21.2369053444791"
         id="path5212"
         inkscape:connector-curvature="0"
         transform="matrix(0.2645833333333333,0,0,0.2645833333333333,14.87790642432747,8.833908588083092)" />
    </g>
    <path
       style="opacity:1;vector-effect:none;fill:none;fill-opacity:1;stroke:#000000;stroke-width:2.5;stroke-linecap:round;stroke-linejoin:round;stroke-miterlimit:4;stroke-dasharray:none;stroke-dashoffset:0;stroke-opacity:1;paint-order:normal"
       d="m 12.33763072393548,83.9532642075537 c -1.26906072480573,8.37201613278504 -3.427841372608418,30.74294868915069 9.50604334467159,30.74294868915069 1.29563093309702,0 3.55017597354119,0.2926926126027 4.44963731027182,-0.606768724128 5.10609242038724,-5.1060924203872 4.24738106889581,-23.36984253548365 4.24738106889581,-30.94520493052688"
       id="path5224"
       inkscape:connector-curvature="0"
       transform="matrix(0.5291666666666666,0,0,0.5291666666666666,18.43466004254995,-14.51737971837037)" />
    <path
       style="opacity:1;vector-effect:none;fill:none;fill-opacity:1;stroke:#000000;stroke-width:2.5;stroke-linecap:round;stroke-linejoin:round;stroke-miterlimit:4;stroke-dasharray:none;stroke-dashoffset:0;stroke-opacity:1;paint-order:normal"
       d="m 37.61966089593441,114.2917004139524 c -0.88170120411011,-2.6746943535024 -2.91300677684664,-9.747717032258 -1.41579368963194,-12.7421432066874 1.9115078189615,-3.82301563792305 9.25402007950051,-3.690379368563 11.93311824118349,-1.01128120688 2.04657626181163,2.0465762618116 1.21353744825595,10.3737056410274 1.21353744825595,13.3489119308154"
       id="path5226"
       inkscape:connector-curvature="0"
       transform="matrix(0.5291666666666666,0,0,0.5291666666666666,18.43466004254995,-14.51737971837037)" />
    <path
       style="opacity:1;vector-effect:none;fill:none;fill-opacity:1;stroke:#000000;stroke-width:2.5;stroke-linecap:round;stroke-linejoin:round;stroke-miterlimit:4;stroke-dasharray:none;stroke-dashoffset:0;stroke-opacity:1;paint-order:normal"
       d="m 66.94681589545317,79.09911441452989 c -1.68407186094493,2.38153368793965 2.16540151617527,23.1166286558237 1.61804993100793,23.66398024099101 -0.37984028978899,0.379840289789 -0.88048692504329,-1.8917681319232 -1.01128120687996,-2.0225624137599 -1.387595931723,-1.38759593172303 -4.72724183966979,-4.00745068350885 -7.07896844815971,-2.83158737926391 -3.90140134219481,1.95070067109742 -6.10590896534216,11.8757856550899 -3.64061234476785,15.57373058595141 4.73627478008125,7.1044121701218 15.78316279806464,3.6119084618185 17.59629299971122,-3.6406123447679"
       id="path5236"
       inkscape:connector-curvature="0"
       transform="matrix(0.5291666666666666,0,0,0.5291666666666666,18.43466004254995,-14.51737971837037)" />
    <path
       style="opacity:1;vector-effect:none;fill:none;fill-opacity:1;stroke:#000000;stroke-width:2.5;stroke-linecap:round;stroke-linejoin:round;stroke-miterlimit:4;stroke-dasharray:none;stroke-dashoffset:0;stroke-opacity:1;paint-order:normal"
       d="m 90.61079613644416,92.85253882809732 c -5.37063685422909,-0.0573505576205 -5.37236170964935,8.82384674143017 -4.6518935516478,13.14665568943947 0.880093663178,5.280561979068 10.55541326964371,9.1836146235615 15.16921810319934,6.8767122067837 1.8477649673539,-0.923882483677 2.7356447284663,-3.2464708017968 3.6406123447679,-5.0564060343998 6.5755866260953,-13.151173252191 -8.17529379020488,-24.5618692676508 -13.55116817219148,-17.39403675833544"
       id="path5240"
       inkscape:connector-curvature="0"
       transform="matrix(0.5291666666666666,0,0,0.5291666666666666,15.00978768858318,-14.51737971837037)" />
  </g>
</svg>
