<?xml version="1.0" encoding="UTF-8" standalone="no"?>
<!-- Created with Inkscape (http://www.inkscape.org/) -->

<svg
   xmlns:dc="http://purl.org/dc/elements/1.1/"
   xmlns:cc="http://creativecommons.org/ns#"
   xmlns:rdf="http://www.w3.org/1999/02/22-rdf-syntax-ns#"
   xmlns:svg="http://www.w3.org/2000/svg"
   xmlns="http://www.w3.org/2000/svg"
   xmlns:sodipodi="http://sodipodi.sourceforge.net/DTD/sodipodi-0.dtd"
   xmlns:inkscape="http://www.inkscape.org/namespaces/inkscape"
   width="280"
   height="140"
   viewBox="0 0 74.08333162872884 37.04166771335369"
   version="1.1"
   id="svg8"
   inkscape:version="0.92.1 r15371"
   sodipodi:docname="border.svg"
   inkscape:export-filename="D:\deving-games\qeqe\art\border.png"
   inkscape:export-xdpi="96"
   inkscape:export-ydpi="96">
  <defs
     id="defs2" />
  <sodipodi:namedview
     id="base"
     pagecolor="#ffffff"
     bordercolor="#666666"
     borderopacity="1.0"
     inkscape:pageopacity="0.0"
     inkscape:pageshadow="2"
     inkscape:zoom="1.999999998944727"
     inkscape:cx="59.49141038292794"
     inkscape:cy="93.49878747499166"
     inkscape:document-units="mm"
     inkscape:current-layer="layer2"
     showgrid="false"
     units="px"
     inkscape:window-width="1920"
     inkscape:window-height="1027"
     inkscape:window-x="-8"
     inkscape:window-y="-8"
     inkscape:window-maximized="1"
     inkscape:snap-global="false" />
  <metadata
     id="metadata5">
    <rdf:RDF>
      <cc:Work
         rdf:about="">
        <dc:format>image/svg+xml</dc:format>
        <dc:type
           rdf:resource="http://purl.org/dc/dcmitype/StillImage" />
        <dc:title></dc:title>
      </cc:Work>
    </rdf:RDF>
  </metadata>
  <g
     inkscape:label="Layer 1"
     inkscape:groupmode="layer"
     id="layer1"
     transform="translate(0,-259.9583165486654)">
    <path
       style="opacity:1;vector-effect:none;fill:#fefefe;fill-opacity:1;stroke:#000000;stroke-width:11.5124130249;stroke-linecap:round;stroke-linejoin:round;stroke-miterlimit:4;stroke-dasharray:none;stroke-dashoffset:0;stroke-opacity:1;paint-order:normal"
       d="M 4.334062317486625,4.199380718752423 C 8.889386661719658,1.399503567759524 21.65678709668124,8.546967526990924 24.55968646575754,5.644068157914635 c 1.92821864463443,-1.928218644634431 9.69261177959697,-3.427831183707699 13.00218695245988,-2.60043739049198 2.41837885455168,0.604594713637909 4.46777694229221,1.630143018310094 6.35662473231373,2.88937487832442 3.07579459841813,2.05052973227876 14.17187680422207,-0.577874975664885 17.91412424561137,-0.577874975664885 17.87947359485069,0 33.5561894724087,0 51.14193534634219,0 1.9276208367665,0 22.565300424012,-2.283323529577985 23.1149990265953,-1.733624926994651 3.0956418401084,3.095641840108414 0.2068948634131,17.789272006617661 -1.4446874391622,21.092436611768231 -2.0230307100054,4.04606142001085 0.1652523581741,38.18131562239805 2.0225624148271,41.89593573570403 2.7153532858207,5.43070657164135 -2.600437390492,14.33149145533136 -2.600437390492,19.9366866604385 0,12.6573625644053 1.1557499513298,26.8410465683209 1.1557499513298,38.4286858817147 0,1.327933891433 2.326407328834,6.9195922818042 0.8668124634973,8.3791871471408 -1.2941700770043,1.2941700770043 -39.33573618179449,5.903099582274 -42.4738107113691,4.3340623174867 -2.71822979646227,-1.3591148982312 -8.46692579063519,-2.3617996137441 -12.13537448896254,-1.4446874391622 -2.21811070372708,0.5545276759317 -8.51945246066076,3.0848021571435 -10.97962453763279,1.4446874391622 -2.14610968509501,-1.4307397900634 -6.73423120464842,-2.341056230827 -9.24599961063809,-3.1783123661569 -3.69024498948474,-1.2300816631616 -12.54646146396056,-0.3723314881659 -15.60262434295187,1.1557499513298 -3.48856953976949,1.7442847698847 -9.32971225140036,-2.1251748383622 -12.42431197679499,-0.5778749756649 -2.46598653122322,1.2329932656116 -3.14756712893535,1.7336249269946 -6.0676872444813,1.7336249269946 -5.7036300450395,0 -22.497721327299441,3.5460553012513 -25.426498929254847,-2.3114999026595 -3.067323637329948,-6.1346472746599 4.622999805319074,-33.115550504134 4.622999805319074,-41.6069982478716 0,-8.74855537053696 -0.133120804709346,-15.5799284645381 -3.756187341821745,-22.8260615387629 C -0.5147232219854003,63.84680671959437 3.389919311321359,33.69138916050079 5.200874780983951,26.44756728185042 7.079822296541073,18.93177721962193 2.668833145423751,10.86029740700391 4.334062317486625,4.199380718752423 Z"
       id="path4485"
       inkscape:connector-curvature="0"
       transform="matrix(0.2298448423485371,0,0,0.2298039549891327,2.404400147937493,262.4135407334679)" />
  </g>
  <g
     inkscape:groupmode="layer"
     id="layer2"
     inkscape:label="Layer 2">
    <path
       style="opacity:1;vector-effect:none;fill:#fefefe;fill-opacity:1;stroke:#000000;stroke-width:10;stroke-linecap:round;stroke-linejoin:round;stroke-miterlimit:4;stroke-dasharray:none;stroke-dashoffset:0;stroke-opacity:1;paint-order:normal"
       d="m 13.25000001398236,12.99999986598041 c 1.81958624304218,-1.18421516202002 4.16318783185325,-1.08159391487137 6.00000000633163,-2.00000000211054 1.79146602142378,-0.89573301071186 25.03733821537824,2.67816545558698 30.75000003244964,1.2500000013191 3.03790371707359,-0.75947592926842 5.90475521652931,-1.50000000158291 9.25000000976126,-1.50000000158291 12.53008179123735,0 32.89398825809318,-1.616862191685723 44.2500000466958,3.25000000342962 4.9074875396148,2.10320894554917 12.8267393812211,-1.5000000015829 18.0000000189949,-1.5000000015829 1.2730024925933,0 8.3089007649218,-0.94109924483955 9.2500000097613,0 1.5293570708435,1.52935707084362 -2.3823066180883,20.9115330999385 -2.750000002902,22.75000002400745 -0.6207931346907,3.10396567345323 -0.8647864613153,6.72957292790692 -2.2500000023744,9.50000001002509 -0.9182504452553,1.83650089051062 0,6.45183347161797 0,8.50000000896981 0,14.22205421806191 5.4082372488868,48.51264418642468 -2.2500000023744,60.00000006331637 -2.1999795055393,3.299969258309 3.1964239544969,11.0535760605407 1.0000000010553,13.2500000139823 -3.67843803769,3.6784380376901 -12.3594874607165,0.027371861947 -17.2500000182034,1.2500000013191 -11.83910814890774,2.9597770372269 -24.76809621753489,1.9463807637745 -37.00000003904529,-0.5000000005276 -5.92213638942478,-1.184427277885 -11.38188017127627,1.5000000015829 -16.75000001767577,1.5000000015829 -5.63612121825344,0 -13.11095012215676,-0.95561995768 -18.00000001899489,1.0000000010553 -2.64284323955946,1.0571372958237 -21.20897575685987,2.1865364005894 -22.00000002321599,1.0000000010552 C 9.166465244339557,124.249697835379 15.08035176342083,117.2410552185043 12.7500000134546,110.2499999686057 9.1519319095026,99.4557956567493 9.225601908273516,81.62199044570539 11.50000001213563,70.24999992639475 13.07898257775442,62.35508709830076 6.954128193164264,46.34174352951347 10.25000001081654,39.74999989420896 12.93355913819623,34.38288163944962 16.52661985303585,19.55323954408737 13.25000001398236,12.99999986598041 Z"
       id="path4488"
       inkscape:connector-curvature="0"
       transform="matrix(0.2645833333333333,0,0,0.2645833333333333,37.04166666666666,0)" />
  </g>
</svg>
