<?xml version="1.0" encoding="UTF-8" standalone="no"?>
<!-- Created with Inkscape (http://www.inkscape.org/) -->

<svg
   xmlns:dc="http://purl.org/dc/elements/1.1/"
   xmlns:cc="http://creativecommons.org/ns#"
   xmlns:rdf="http://www.w3.org/1999/02/22-rdf-syntax-ns#"
   xmlns:svg="http://www.w3.org/2000/svg"
   xmlns="http://www.w3.org/2000/svg"
   xmlns:sodipodi="http://sodipodi.sourceforge.net/DTD/sodipodi-0.dtd"
   xmlns:inkscape="http://www.inkscape.org/namespaces/inkscape"
   width="100"
   height="100"
   viewBox="0 0 26.45833347375454 26.45833313737083"
   version="1.1"
   id="svg8"
   inkscape:version="0.92.1 r15371"
   sodipodi:docname="close.svg">
  <defs
     id="defs2" />
  <sodipodi:namedview
     id="base"
     pagecolor="#ffffff"
     bordercolor="#666666"
     borderopacity="1.0"
     inkscape:pageopacity="0.0"
     inkscape:pageshadow="2"
     inkscape:zoom="3.460956234865276"
     inkscape:cx="10.30649572056748"
     inkscape:cy="76.55875764426908"
     inkscape:document-units="mm"
     inkscape:current-layer="layer1"
     showgrid="false"
     inkscape:snap-global="false"
     fit-margin-top="0"
     fit-margin-left="0"
     fit-margin-right="0"
     fit-margin-bottom="0"
     units="px"
     inkscape:window-width="1920"
     inkscape:window-height="1027"
     inkscape:window-x="-8"
     inkscape:window-y="-8"
     inkscape:window-maximized="1" />
  <metadata
     id="metadata5">
    <rdf:RDF>
      <cc:Work
         rdf:about="">
        <dc:format>image/svg+xml</dc:format>
        <dc:type
           rdf:resource="http://purl.org/dc/dcmitype/StillImage" />
        <dc:title></dc:title>
      </cc:Work>
    </rdf:RDF>
  </metadata>
  <g
     inkscape:label="Layer 1"
     inkscape:groupmode="layer"
     id="layer1"
     transform="translate(-14.40308253710394,-1.931317711937623)"
     style="display:inline">
    <path
       style="opacity:1;vector-effect:none;fill:#ffaaaa;fill-opacity:1;stroke:#000000;stroke-width:2.5;stroke-linecap:round;stroke-linejoin:round;stroke-miterlimit:4;stroke-dasharray:none;stroke-dashoffset:0;stroke-opacity:1;paint-order:normal"
       d="m 99.49880297810291,23.12942051129676 c -4.30188389455557,-0.19731323222982 -9.44122336171493,-1.21153156293144 -13.6887470216281,0.20430965703917 -9.40082869121008,3.13360956373595 -22.160729711624,13.25265539902262 -24.7214685017463,23.49561055951086 -1.64889974005662,6.59559896022597 -1.43016759927459,13.92346789783688 -1.43016759927459,20.83958501800111 0,8.27154101908718 0.35070380743101,17.62371769162041 5.92498005413754,24.31284918766778 10.11012586480189,12.13215103776142 43.46800239665333,17.72903896682291 57.61532328506164,11.44134079419682 3.710707954622,-1.6492035353877 10.5571262811287,-2.930693085766 12.667198736432,-7.15083799637301 7.5151984518685,-15.03039690373839 8.6685017402665,-47.66744307431667 -5.7206703970983,-59.65841985545397 -1.5078426279212,-1.25653552326753 -2.7371195777321,-3.44019672858417 -4.494812454863,-4.49481245486277 -5.0153923923532,-3.0092354354124 -10.5916180349983,-4.93014608491967 -14.9146049638634,-8.17238628156907 -1.5009601510267,-1.12572011327006 -9.1191897750474,-3.65930046883886 -11.23703113715749,-2.24740622743161 -0.78823841100649,0.5254922740046 -1.98044839118782,1.43016759927469 0,1.43016759927469 z"
       id="path4485"
       inkscape:connector-curvature="0"
       transform="matrix(0.2645833333333333,0,0,0.2645833333333333,1.297366321514549,-1.946049482271821)" />
    <g
       style="display:inline"
       id="g4522">
      <path
         transform="matrix(0.2645833333333333,0,0,0.2645833333333333,1.297366321514549,-1.946049482271821)"
         inkscape:connector-curvature="0"
         id="path4494"
         d="m 79.68076624529804,41.10867033074851 c 5.78182849895005,2.99903635932992 8.36074723173924,8.65923736386299 11.84996010827507,13.89305667866734 2.30704178266926,3.46056267400423 7.27883809295155,7.53927159349064 10.62410216603979,10.21548285196126 1.2055908365838,0.96447266926701 2.3623177564071,3.70308722761841 3.0646448555884,5.10774142598075 2.227408277371,4.45481655474123 9.7130876553114,11.70091733847039 14.0973663357065,13.89305667866732"
         style="opacity:1;vector-effect:none;fill:none;fill-opacity:1;stroke:#000000;stroke-width:2.5;stroke-linecap:round;stroke-linejoin:round;stroke-miterlimit:4;stroke-dasharray:none;stroke-dashoffset:0;stroke-opacity:1;paint-order:normal" />
      <path
         transform="matrix(0.2645833333333333,0,0,0.2645833333333333,1.297366321514549,-1.946049482271821)"
         inkscape:connector-curvature="0"
         id="path4502"
         d="m 118.4996010827509,42.33452827298403 c -2.8414751955367,1.18259178827134 -3.8737342364298,4.34774035374949 -5.5163607400591,6.53790902525521 -2.9795974384157,3.97279658455455 -6.0070295660977,7.43719716537135 -9.6025538808436,11.03272148011819 -1.546393235294,1.54639323529456 -2.2909400819552,5.19480913502795 -3.2689545126276,7.15083799637273 -1.3199808374774,2.63996167495497 -3.8036975658386,5.43817482215307 -5.92498005413754,7.55945731045154 -2.21768967516812,2.21768967516755 -2.97181611383937,7.16949016991383 -4.29050279782375,9.80686353788268"
         style="opacity:1;vector-effect:none;fill:none;fill-opacity:1;stroke:#000000;stroke-width:2.5;stroke-linecap:round;stroke-linejoin:round;stroke-miterlimit:4;stroke-dasharray:none;stroke-dashoffset:0;stroke-opacity:1;paint-order:normal" />
    </g>
  </g>
  <g
     inkscape:groupmode="layer"
     id="layer2"
     inkscape:label="Layer 2"
     transform="translate(-14.40308253710394,-1.931317711937623)"
     style="display:inline">
    <path
       style="opacity:1;vector-effect:none;fill:#ffaaaa;fill-opacity:1;stroke:#000000;stroke-width:2.5;stroke-linecap:round;stroke-linejoin:round;stroke-miterlimit:4;stroke-dasharray:none;stroke-dashoffset:0;stroke-opacity:1;paint-order:normal"
       d="m 104.6065444040836,21.90356256906125 c -11.72998692570445,-0.16660252301335 -22.61358995190852,2.11286040919026 -32.68954512627615,7.15083799637296 -2.35636413792527,1.17818206896231 -3.27970316419207,4.00016128961148 -4.6991221119022,6.12928971117685 -1.0741658575627,1.61124878634428 -3.42102868838023,2.78198197661982 -4.69912211190219,4.69912211190217 -5.27615375823216,7.91423063734624 -9.53561520903826,27.9199907009481 -4.69912211190219,37.59297689521758 4.65062072175694,9.30124144351136 9.03612686428323,13.7119979989061 18.3878691335303,18.38786913353033 1.35082437509908,0.67541218754971 0.91327586044248,2.39757967209404 2.65602554150995,3.26895451262749 8.69333245041074,4.34666622520437 20.6002409362364,4.69912211190228 30.23782924180547,4.69912211190228 5.1191491759718,0 11.1203982685176,0.583703374984 15.9361532490596,-1.0215482851962 3.1990753899556,-1.0663584633183 11.2611667974362,-2.7284325223461 12.4628890793927,-6.33359936821603 0.6880864141848,-2.06425924255447 1.8805667412911,-4.45762210957578 2.4517158844707,-6.74221868229435 0.7634543811367,-3.05381752454673 0.032550823268,-6.21066676934744 1.2258579422354,-9.19393456676515 1.4034891711845,-3.50872292796116 -1.4866245076805,-8.78978890443254 0,-12.25857942235352 1.1397047512963,-2.65931108635779 1.3597730645922,-9.06689339141524 0.6129289711177,-12.05426976531356 -1.1262623478058,-4.50504939122288 -2.9033368571773,-8.03974605557685 -5.3120510830199,-12.05426976531431 -0.5224023582443,-0.87067059707374 -0.7540543774631,-2.27338661264843 -1.6344772563138,-2.86033519854913 -1.368515524675,-0.91234368311688 -2.126986822062,-3.25677812806132 -3.6775738267061,-4.29050279782383 -4.7089140202516,-3.13927601350019 -8.5004469636568,-7.83801758252059 -13.4844373645889,-10.82841182307918 -0.915449355075,-0.54926961304499 -15.5800608513765,-7.62949319897781 -13.0758180505104,-4.29050279782439 z"
       id="path4492"
       inkscape:connector-curvature="0"
       transform="matrix(0.2645833333333333,0,0,0.2645833333333333,1.297366321514549,-1.946049482271821)" />
    <path
       style="opacity:1;vector-effect:none;fill:none;fill-opacity:1;stroke:#000000;stroke-width:2.5;stroke-linecap:round;stroke-linejoin:round;stroke-miterlimit:4;stroke-dasharray:none;stroke-dashoffset:0;stroke-opacity:1;paint-order:normal"
       d="m 80.08938555937649,41.72159930186627 c 7.44403724285371,5.38437044234433 10.56299575057912,14.81769773800965 17.77494016241262,20.22665604688336 3.06580244283148,2.29935183212296 6.58435500617959,3.53519214423249 8.98962490972599,6.74221868229436 3.7452022567234,4.99360300896475 7.5116557440906,9.35044265744318 11.8499601082751,13.68874702162816"
       id="path4487"
       inkscape:connector-curvature="0"
       transform="matrix(0.2645833333333333,0,0,0.2645833333333333,1.297366321514549,-1.946049482271822)" />
    <path
       style="opacity:1;vector-effect:none;fill:none;fill-opacity:1;stroke:#000000;stroke-width:2.5;stroke-linecap:round;stroke-linejoin:round;stroke-miterlimit:4;stroke-dasharray:none;stroke-dashoffset:0;stroke-opacity:1;paint-order:normal"
       d="M 116.8651238264371,43.35607655818012 C 107.8391840349756,57.85442646615161 97.50755699878459,70.62986941928807 90.30486841133776,85.03524659418212"
       id="path4489"
       inkscape:connector-curvature="0"
       transform="matrix(0.2645833333333333,0,0,0.2645833333333333,1.297366321514549,-1.946049482271822)" />
  </g>
</svg>
