<?xml version="1.0" encoding="UTF-8" standalone="no"?>
<!-- Created with Inkscape (http://www.inkscape.org/) -->

<svg
   xmlns:dc="http://purl.org/dc/elements/1.1/"
   xmlns:cc="http://creativecommons.org/ns#"
   xmlns:rdf="http://www.w3.org/1999/02/22-rdf-syntax-ns#"
   xmlns:svg="http://www.w3.org/2000/svg"
   xmlns="http://www.w3.org/2000/svg"
   xmlns:sodipodi="http://sodipodi.sourceforge.net/DTD/sodipodi-0.dtd"
   xmlns:inkscape="http://www.inkscape.org/namespaces/inkscape"
   width="64.82291412353516mm"
   height="64.82291412353516mm"
   viewBox="0 0 64.82291412353516 64.82291412353516"
   version="1.1"
   id="svg5158"
   inkscape:version="0.92.1 r15371"
   sodipodi:docname="crack2.svg">
  <defs
     id="defs5152" />
  <sodipodi:namedview
     id="base"
     pagecolor="#923131"
     bordercolor="#666666"
     borderopacity="1.0"
     inkscape:pageopacity="0"
     inkscape:pageshadow="2"
     inkscape:zoom="0.999999999999999"
     inkscape:cx="175.0695977621154"
     inkscape:cy="106.3948891201004"
     inkscape:document-units="mm"
     inkscape:current-layer="layer1"
     showgrid="false"
     inkscape:snap-global="false"
     fit-margin-top="0"
     fit-margin-left="0"
     fit-margin-right="0"
     fit-margin-bottom="0"
     inkscape:window-width="1920"
     inkscape:window-height="1027"
     inkscape:window-x="-8"
     inkscape:window-y="-8"
     inkscape:window-maximized="1" />
  <metadata
     id="metadata5155">
    <rdf:RDF>
      <cc:Work
         rdf:about="">
        <dc:format>image/svg+xml</dc:format>
        <dc:type
           rdf:resource="http://purl.org/dc/dcmitype/StillImage" />
        <dc:title></dc:title>
      </cc:Work>
    </rdf:RDF>
  </metadata>
  <g
     inkscape:label="Layer 1"
     inkscape:groupmode="layer"
     id="layer1"
     style="display:inline"
     transform="translate(-33.53799630885875,-104.1475733240224)">
    <rect
       transform="matrix(0.2645833333333333,0,0,0.2645833333333333,28.90778797552541,99.51736499068906)"
       style="opacity:1;vector-effect:none;fill:#ffffff;fill-opacity:1;stroke:#ffffff;stroke-width:5;stroke-linecap:round;stroke-linejoin:round;stroke-miterlimit:4;stroke-dasharray:none;stroke-dashoffset:0;stroke-opacity:1;paint-order:normal"
       id="rect4493"
       width="240"
       height="240"
       x="20"
       y="20" />
  </g>
  <g
     inkscape:groupmode="layer"
     id="layer5"
     inkscape:label="Layer 5"
     style="display:inline;opacity:1"
     transform="translate(-33.53799630885875,-104.1475733240224)">
    <path
       transform="scale(0.2645833333333333)"
       style="opacity:1;vector-effect:none;fill:none;fill-opacity:1;stroke:#000000;stroke-width:5;stroke-linecap:round;stroke-linejoin:round;stroke-miterlimit:4;stroke-dasharray:none;stroke-dashoffset:0;stroke-opacity:0.9882352941;paint-order:normal"
       d="m 372.2917205893692,493.5482026761341 c -9.5296400026992,1.349937416732 -19.4146442144218,1.0606601726193 -29.3449314424668,1.0606601726193"
       id="path5983"
       inkscape:connector-curvature="0" />
    <path
       transform="scale(0.2645833333333333)"
       style="opacity:1;vector-effect:none;fill:none;fill-opacity:1;stroke:#000000;stroke-width:5;stroke-linecap:round;stroke-linejoin:round;stroke-miterlimit:4;stroke-dasharray:none;stroke-dashoffset:0;stroke-opacity:0.9882352941;paint-order:normal"
       d="m 354.6140510457145,426.0195050193729 c 7.5633287930176,-5.2464034547953 16.9705627619086,-23.3439209645255 16.9705627619086,-32.1733585694517"
       id="path5985"
       inkscape:connector-curvature="0" />
    <path
       transform="scale(0.2645833333333333)"
       style="opacity:1;vector-effect:none;fill:none;fill-opacity:1;stroke:#000000;stroke-width:5;stroke-linecap:round;stroke-linejoin:round;stroke-miterlimit:4;stroke-dasharray:none;stroke-dashoffset:0;stroke-opacity:0.9882352941;paint-order:normal"
       d="m 273.2967711449026,392.0783794955557 c -3.7755831968412,6.9974485310313 -11.0335324737262,8.9122121284877 -15.9099025892893,13.7885822440508 -0.6146924941943,0.6146924941943 -1.5278350497183,4.0595195289429 -2.1213203452386,4.9497474722233"
       id="path5987"
       inkscape:connector-curvature="0" />
    <path
       transform="scale(0.2645833333333333)"
       style="opacity:1;vector-effect:none;fill:none;fill-opacity:1;stroke:#000000;stroke-width:5;stroke-linecap:round;stroke-linejoin:round;stroke-miterlimit:4;stroke-dasharray:none;stroke-dashoffset:0;stroke-opacity:0.9882352941;paint-order:normal"
       d="m 125.1579003690757,414.3522431205607 c 8.7332823184208,2.6467065424293 26.0489692138921,-3.5925247640895 33.9411255238171,0.3535533908732 3.2712368059398,1.6356184029697 4.170296208557,5.137220078192 7.0710678174619,7.0710678174618 1.6023045631695,1.0682030421129 3.6895877111701,1.399064968161 5.3033008630965,2.4748737361116"
       id="path5989"
       inkscape:connector-curvature="0" />
    <path
       transform="scale(0.2645833333333333)"
       style="opacity:1;vector-effect:none;fill:none;fill-opacity:1;stroke:#000000;stroke-width:5;stroke-linecap:round;stroke-linejoin:round;stroke-miterlimit:4;stroke-dasharray:none;stroke-dashoffset:0;stroke-opacity:0.9882352941;paint-order:normal"
       d="m 124.8043469782026,560.0162401602758 c 3.7895513770449,-6.0378450219656 12.5106685565781,-7.0987409360548 16.2634559801624,-12.7279220714314 3.4162244838949,-5.1243367258428 7.2588508162635,-10.3883824327382 13.7885822440507,-12.0208152896854"
       id="path5991"
       inkscape:connector-curvature="0" />
    <path
       transform="scale(0.2645833333333333)"
       style="opacity:1;vector-effect:none;fill:none;fill-opacity:1;stroke:#000000;stroke-width:5;stroke-linecap:round;stroke-linejoin:round;stroke-miterlimit:4;stroke-dasharray:none;stroke-dashoffset:0;stroke-opacity:0.9882352941;paint-order:normal"
       d="m 147.0782106032076,638.15153954323 c -0.9333483286582,-10.5111636435583 0.3340704167932,-14.9967946509875 5.6568542539695,-22.9809704067515 4.5409015758929,-6.8113523638385 0.7708889431015,-7.0305160907601 8.8388347718274,-13.0814754623043"
       id="path5993"
       inkscape:connector-curvature="0" />
    <path
       transform="scale(0.2645833333333333)"
       style="opacity:1;vector-effect:none;fill:none;fill-opacity:1;stroke:#000000;stroke-width:5;stroke-linecap:round;stroke-linejoin:round;stroke-miterlimit:4;stroke-dasharray:none;stroke-dashoffset:0;stroke-opacity:0.9882352941;paint-order:normal"
       d="M 318.9051585675318,638.15153954323 C 308.7241401009427,625.7861261193659 296.9020894781234,614.9975454360037 283.9033728710954,606.3317343646514"
       id="path5995"
       inkscape:connector-curvature="0" />
    <path
       transform="scale(0.2645833333333333)"
       style="opacity:1;vector-effect:none;fill:none;fill-opacity:1;stroke:#000000;stroke-width:5;stroke-linecap:round;stroke-linejoin:round;stroke-miterlimit:4;stroke-dasharray:none;stroke-dashoffset:0;stroke-opacity:0.9882352941;paint-order:normal"
       d="m 373.3523807619885,586.5327444757581 c -5.5951062359609,-2.3811863804358 -18.3828731122327,2.4755081405008 -22.6274170158781,1.060660172619 -1.812522294025,-0.604174098008 -1.3400663598579,-8.6905403645578 -2.1213203452386,-10.2530483353196 -3.1415266934336,-6.2830533868681 -6.115701780936,-14.1233001436268 -10.6066017261928,-20.8596500615125"
       id="path5997"
       inkscape:connector-curvature="0" />
  </g>
  <g
     inkscape:groupmode="layer"
     id="layer6"
     inkscape:label="Layer 6"
     style="display:inline"
     transform="translate(-33.53799630885875,-104.1475733240224)">
    <path
       style="opacity:1;vector-effect:none;fill:none;fill-opacity:1;stroke:#000000;stroke-width:5;stroke-linecap:round;stroke-linejoin:round;stroke-miterlimit:4;stroke-dasharray:none;stroke-dashoffset:0;stroke-opacity:0.9882352941;paint-order:normal"
       d="m 372.9988273711154,391.7248261046827 c -3.6055511235296,17.1274006681374 -10.1581992459635,34.5361316855058 -28.9913780515938,39.2444263869136 -3.58572194153,0.8964304853826 -21.2329849077484,4.9695289275858 -22.6274170158781,6.3639610357157 -2.7136640470428,2.7136640470432 -1.0606601726193,13.9062237707963 -1.0606601726193,17.6776695436548"
       id="path6056"
       inkscape:connector-curvature="0"
       transform="scale(0.2645833333333333)" />
    <path
       style="opacity:1;vector-effect:none;fill:none;fill-opacity:1;stroke:#000000;stroke-width:5;stroke-linecap:round;stroke-linejoin:round;stroke-miterlimit:4;stroke-dasharray:none;stroke-dashoffset:0;stroke-opacity:0.9882352941;paint-order:normal"
       d="m 373.3523807619885,492.8410958943879 c -7.077737804081,5.4044285919721 -48.1684081173118,1.4993605220628 -52.6794552400912,6.0104076448426 -1.57699772013,1.5769977201302 -0.572439985364,3.5103104095945 -1.7677669543655,5.3033008630964"
       id="path6058"
       inkscape:connector-curvature="0"
       transform="scale(0.2645833333333333)" />
    <path
       style="opacity:1;vector-effect:none;fill:none;fill-opacity:1;stroke:#000000;stroke-width:5;stroke-linecap:round;stroke-linejoin:round;stroke-miterlimit:4;stroke-dasharray:none;stroke-dashoffset:0;stroke-opacity:0.9882352941;paint-order:normal"
       d="m 374.0594875437347,584.7649775213925 c -3.2990538471275,2.5582078531768 -8.1796713682307,0.1003741922557 -12.0208152896852,1.0606601726194 -3.2581137135422,0.8145284283855 -10.6066511848551,3.1819640316372 -13.7885822440507,2.1213203452382 -1.7018175180377,-0.5672725060125 -0.876209768915,-3.7046368958995 -1.7677669543655,-4.5961940813498 -7.5606470982606,-7.5606470982582 -14.0632259577648,-47.1804203404398 -27.9307178789745,-19.4454364980203 -1.2273511230838,2.454702246167 -4.4549897742495,3.9602320762756 -5.6568542539696,6.3639610357154"
       id="path6060"
       inkscape:connector-curvature="0"
       transform="scale(0.2645833333333333)" />
    <path
       style="opacity:1;vector-effect:none;fill:none;fill-opacity:1;stroke:#000000;stroke-width:5;stroke-linecap:round;stroke-linejoin:round;stroke-miterlimit:4;stroke-dasharray:none;stroke-dashoffset:0;stroke-opacity:0.9882352941;paint-order:normal"
       d="m 314.6625178770547,637.0908793706106 c -7.2228325894286,-4.0479006777283 -10.3624494515079,-14.1968361930177 -18.0312229345279,-18.0312229345278 -8.7846053768036,-4.3923026884021 -50.2371581292887,-21.9854634847501 -53.7401154127104,-28.991378051594 -3.3288728393191,-6.6577456786385 1.3949374552222,-16.411318513193 4.5961940813503,-21.2132034523855"
       id="path6062"
       inkscape:connector-curvature="0"
       transform="scale(0.2645833333333333)" />
    <path
       style="opacity:1;vector-effect:none;fill:none;fill-opacity:1;stroke:#000000;stroke-width:5;stroke-linecap:round;stroke-linejoin:round;stroke-miterlimit:4;stroke-dasharray:none;stroke-dashoffset:0;stroke-opacity:0.9882352941;paint-order:normal"
       d="m 146.3711038214614,636.7373259797376 c 1.4344834385632,-3.9911586776693 -0.6531395207575,-8.7011504249087 0.3535533908731,-12.7279220714314 0.8978462027441,-3.5913848109766 4.0714350665492,-5.3144430061138 5.6568542539695,-8.4852813809547 6.2024633513137,-12.4049267026262 7.1598445373625,-11.0489318369657 16.2634559801624,-20.1525432797664 0.6278415366669,-0.6278415366669 26.0472786911486,2.1213203452387 30.0520382242131,2.1213203452387"
       id="path6064"
       inkscape:connector-curvature="0"
       transform="scale(0.2645833333333333)" />
    <path
       style="opacity:1;vector-effect:none;fill:none;fill-opacity:1;stroke:#000000;stroke-width:5;stroke-linecap:round;stroke-linejoin:round;stroke-miterlimit:4;stroke-dasharray:none;stroke-dashoffset:0;stroke-opacity:0.9882352941;paint-order:normal"
       d="m 125.5114537599488,558.6020265967836 c 7.5164583907638,-5.173350789476 13.7915332791151,-10.8442713434852 20.8596500615126,-15.5563491984166 1.7764230796073,-1.1842820530711 4.0849210110407,-4.5363912576322 5.3033008630964,-6.3639610357153 3.241915074387,-4.8628726115803 14.7240264465175,-13.674413533691 21.5667568432589,-10.2530483353198 4.3332969247833,2.1666484623918 6.8807224556402,6.785549774729 9.1923881627004,10.2530483353198"
       id="path6066"
       inkscape:connector-curvature="0"
       transform="scale(0.2645833333333333)" />
    <path
       style="opacity:1;vector-effect:none;fill:none;fill-opacity:1;stroke:#000000;stroke-width:5;stroke-linecap:round;stroke-linejoin:round;stroke-miterlimit:4;stroke-dasharray:none;stroke-dashoffset:0;stroke-opacity:0.9882352941;paint-order:normal"
       d="m 124.0972401964564,413.6451363388146 c 7.3424308660663,1.8997276667325 15.9851083224302,-1.4838004779249 23.3345237976243,0.3535533908731 6.558893223794,1.6397233059481 44.4771743400637,19.8699372194104 47.0226009861216,23.6880771884974 3.5034988215519,5.2552482323277 0.3535533908731,16.0507680776089 0.3535533908731,21.9203102341319"
       id="path6068"
       inkscape:connector-curvature="0"
       transform="scale(0.2645833333333333)" />
    <path
       style="opacity:1;vector-effect:none;fill:none;fill-opacity:1;stroke:#000000;stroke-width:5;stroke-linecap:round;stroke-linejoin:round;stroke-miterlimit:4;stroke-dasharray:none;stroke-dashoffset:0;stroke-opacity:0.9882352941;paint-order:normal"
       d="m 273.6503245357757,392.0783794955557 c -6.3550868655759,3.8610715775781 -7.6623008127223,10.3748541532213 -10.6066017261928,16.2634559801625 -1.3165330693033,2.6330661386064 -6.7510418318412,5.3368282683487 -8.8388347718275,7.424621208335 -2.8989359375158,2.8989359375162 -9.409551370716,18.8998757665902 -10.6066017261927,23.6880771884973"
       id="path6070"
       inkscape:connector-curvature="0"
       transform="scale(0.2645833333333333)" />
  </g>
  <g
     inkscape:groupmode="layer"
     id="layer2"
     inkscape:label="Layer 2"
     style="display:inline;opacity:1"
     transform="translate(-33.53799630885875,-104.1475733240224)">
    <path
       style="opacity:1;vector-effect:none;fill:none;fill-opacity:1;stroke:#000000;stroke-width:5;stroke-linecap:round;stroke-linejoin:round;stroke-miterlimit:4;stroke-dasharray:none;stroke-dashoffset:0;stroke-opacity:0.9882352941;paint-order:normal"
       d="m 357.704609747825,422.7130898784398 c -6.2961261081689,9.1782315988281 -29.2638586940405,5.9410946303232 -33.5167485708786,14.4468743839994 -1.6599865483075,3.3199730966151 1.0305587179589,17.9558546470794 -4.0451248275198,19.6477491622392 -7.0813793871499,2.3604597957169 -26.5067092310057,-7.587914315233 -32.3609986201586,-1.73362492608 -3.4119063858457,3.4119063858456 -13.0258368750067,26.9421361424606 -15.0247493593594,32.9388735955185"
       id="path5720"
       inkscape:connector-curvature="0"
       transform="scale(0.2645833333333333)" />
    <path
       style="opacity:1;vector-effect:none;fill:none;fill-opacity:1;stroke:#000000;stroke-width:5;stroke-linecap:round;stroke-linejoin:round;stroke-miterlimit:4;stroke-dasharray:none;stroke-dashoffset:0;stroke-opacity:0.9882352941;paint-order:normal"
       d="m 347.3028601913455,573.538458447393 c -22.4806774804107,-35.2250284870979 -9.6953224323429,-21.2744505290501 -36.4061234476785,-3.4672498521596 -1.3792921884171,0.9195281256111 -17.1312160809326,-12.3217953803063 -20.2256241375992,-13.8689994086394"
       id="path5722"
       inkscape:connector-curvature="0"
       transform="scale(0.2645833333333333)" />
    <path
       style="opacity:1;vector-effect:none;fill:none;fill-opacity:1;stroke:#000000;stroke-width:5;stroke-linecap:round;stroke-linejoin:round;stroke-miterlimit:4;stroke-dasharray:none;stroke-dashoffset:0;stroke-opacity:0.9882352941;paint-order:normal"
       d="m 150.8253685689537,619.1905815008315 c -1.6380591375261,-4.8334140459274 2.5134035082715,-7.3963295052154 5.2008747782398,-10.9796245318396 2.7820415270319,-3.7093887027095 4.6557851900015,-9.8566599682413 7.5123746796796,-12.7132494579196 1.3083161315547,-1.3083161315546 39.6095323795868,7.1983406245711 43.3406231519982,3.46724985216 6.6326463291913,-6.6326463291906 4.573843066759,-20.151889033418 9.2459996057596,-27.1601238419188"
       id="path5724"
       inkscape:connector-curvature="0"
       transform="scale(0.2645833333333333)" />
    <path
       style="opacity:1;vector-effect:none;fill:none;fill-opacity:1;stroke:#000000;stroke-width:5;stroke-linecap:round;stroke-linejoin:round;stroke-miterlimit:4;stroke-dasharray:none;stroke-dashoffset:0;stroke-opacity:0.9882352941;paint-order:normal"
       d="m 151.4032435443137,416.35646514948 c 5.525195843852,1.7162648363839 9.6417381995002,4.8868255320402 14.4468743839993,8.0902496550396 8.7338685129911,5.8225790086607 20.6725657086614,6.6545857763346 28.8937487679988,12.1353744825596 4.9630328709345,3.3086885806229 -7.3827041132814,33.198214728315 -4.0451248275198,39.8733732998383 4.6922929659973,9.3845859319947 17.9301478014336,16.7824096333506 23.692873989759,25.4264989158389"
       id="path5726"
       inkscape:connector-curvature="0"
       transform="scale(0.2645833333333333)" />
    <path
       style="opacity:1;vector-effect:none;fill:none;fill-opacity:1;stroke:#000000;stroke-width:5;stroke-linecap:round;stroke-linejoin:round;stroke-miterlimit:4;stroke-dasharray:none;stroke-dashoffset:0;stroke-opacity:0.9882352941;paint-order:normal"
       d="m 249.6419893555095,522.1075856403555 c -2.8806904651074,2.6670749963806 -3.3933071355399,7.3891368186464 -5.2008747782397,10.4017495564793 -8.5294431039631,14.2157385066052 10.8045138663681,27.5103451728618 7.5123746796796,34.0946235462385 -0.7908275452193,1.5816550904391 -4.7289072572339,1.4734723137824 -5.2008747782397,2.8893748768003 -1.420530570466,4.2615917113977 -8.0918596031677,16.178352712575 -4.6229998028798,20.8034991129591 1.4198675393221,1.8931567190962 27.5470214057456,9.0541235140879 31.7831236447986,10.9796245318395 10.0442732840674,4.5655787654849 20.0880974215193,11.7776736368396 28.8937487679989,16.1804993100793"
       id="path5728"
       inkscape:connector-curvature="0"
       transform="scale(0.2645833333333333)" />
    <path
       style="opacity:1;vector-effect:none;fill:none;fill-opacity:1;stroke:#000000;stroke-width:5;stroke-linecap:round;stroke-linejoin:round;stroke-miterlimit:4;stroke-dasharray:none;stroke-dashoffset:0;stroke-opacity:0.9882352941;paint-order:normal"
       d="m 264.6667387148689,400.1759658394007 c -6.4277584089313,1.1055858342189 -7.8663426911778,11.1804791817755 -10.4017495564796,16.7583742854393 -1.9902716852399,4.3785977075278 -15.0247493593593,27.3552601776722 -15.0247493593593,30.0494987187187 0,11.2694676728365 30.9239936589768,6.0600047640609 8.6681246303996,28.3158737926389"
       id="path5732"
       inkscape:connector-curvature="0"
       transform="scale(0.2645833333333333)" />
    <path
       style="opacity:1;vector-effect:none;fill:none;fill-opacity:1;stroke:#000000;stroke-width:5;stroke-linecap:round;stroke-linejoin:round;stroke-miterlimit:4;stroke-dasharray:none;stroke-dashoffset:0;stroke-opacity:0.9882352941;paint-order:normal"
       d="m 143.890868864634,541.7553348025948 c 3.2498519900649,-4.1587669347573 6.7947727043026,-7.0339733627617 10.9796245318395,-9.8238745811198 26.9988378321768,-17.9992252214513 21.1795504204004,13.0526428625798 38.7176233491184,8.6681246303998 3.4461926629947,-0.8615481657489 13.4461485747195,-14.8133239423995 18.4919992115192,-17.3362492607996"
       id="path5734"
       inkscape:connector-curvature="0"
       transform="scale(0.2645833333333333)" />
    <path
       style="opacity:1;vector-effect:none;fill:none;fill-opacity:1;stroke:#000000;stroke-width:5;stroke-linecap:round;stroke-linejoin:round;stroke-miterlimit:4;stroke-dasharray:none;stroke-dashoffset:0;stroke-opacity:0.9882352941;paint-order:normal"
       d="m 361.1718595999849,494.3695868230767 c -6.7418747125331,-2e-13 -13.4837494250662,0 -20.2256241375992,0 -3.5420482119698,0 -11.3142044249697,-1.566334979515 -14.4468743839994,0 -14.3411036952522,7.1705518476268 1.1746376195681,23.6928739897591 -27.7379988172788,23.6928739897591"
       id="path5736"
       inkscape:connector-curvature="0"
       transform="scale(0.2645833333333333)" />
    <path
       transform="scale(0.2645833333333333)"
       style="opacity:1;vector-effect:none;fill:none;fill-opacity:1;stroke:#000000;stroke-width:5;stroke-linecap:round;stroke-linejoin:round;stroke-miterlimit:4;stroke-dasharray:none;stroke-dashoffset:0;stroke-opacity:0.9882352941;paint-order:normal"
       d="m 372.2917205893692,493.5482026761341 c -9.5296400026992,1.349937416732 -19.4146442144218,1.0606601726193 -29.3449314424668,1.0606601726193"
       id="path5983-5"
       inkscape:connector-curvature="0" />
    <path
       transform="scale(0.2645833333333333)"
       style="opacity:1;vector-effect:none;fill:none;fill-opacity:1;stroke:#000000;stroke-width:5;stroke-linecap:round;stroke-linejoin:round;stroke-miterlimit:4;stroke-dasharray:none;stroke-dashoffset:0;stroke-opacity:0.9882352941;paint-order:normal"
       d="m 354.6140510457145,426.0195050193729 c 7.5633287930176,-5.2464034547953 16.9705627619086,-23.3439209645255 16.9705627619086,-32.1733585694517"
       id="path5985-8"
       inkscape:connector-curvature="0" />
    <path
       transform="scale(0.2645833333333333)"
       style="opacity:1;vector-effect:none;fill:none;fill-opacity:1;stroke:#000000;stroke-width:5;stroke-linecap:round;stroke-linejoin:round;stroke-miterlimit:4;stroke-dasharray:none;stroke-dashoffset:0;stroke-opacity:0.9882352941;paint-order:normal"
       d="m 273.2967711449026,392.0783794955557 c -3.7755831968412,6.9974485310313 -11.0335324737262,8.9122121284877 -15.9099025892893,13.7885822440508 -0.6146924941943,0.6146924941943 -1.5278350497183,4.0595195289429 -2.1213203452386,4.9497474722233"
       id="path5987-6"
       inkscape:connector-curvature="0" />
    <path
       transform="scale(0.2645833333333333)"
       style="opacity:1;vector-effect:none;fill:none;fill-opacity:1;stroke:#000000;stroke-width:5;stroke-linecap:round;stroke-linejoin:round;stroke-miterlimit:4;stroke-dasharray:none;stroke-dashoffset:0;stroke-opacity:0.9882352941;paint-order:normal"
       d="m 125.1579003690757,414.3522431205607 c 8.7332823184208,2.6467065424293 26.0489692138921,-3.5925247640895 33.9411255238171,0.3535533908732 3.2712368059398,1.6356184029697 4.170296208557,5.137220078192 7.0710678174619,7.0710678174618 1.6023045631695,1.0682030421129 3.6895877111701,1.399064968161 5.3033008630965,2.4748737361116"
       id="path5989-4"
       inkscape:connector-curvature="0" />
    <path
       transform="scale(0.2645833333333333)"
       style="opacity:1;vector-effect:none;fill:none;fill-opacity:1;stroke:#000000;stroke-width:5;stroke-linecap:round;stroke-linejoin:round;stroke-miterlimit:4;stroke-dasharray:none;stroke-dashoffset:0;stroke-opacity:0.9882352941;paint-order:normal"
       d="m 124.8043469782026,560.0162401602758 c 3.7895513770449,-6.0378450219656 12.5106685565781,-7.0987409360548 16.2634559801624,-12.7279220714314 3.4162244838949,-5.1243367258428 7.2588508162635,-10.3883824327382 13.7885822440507,-12.0208152896854"
       id="path5991-8"
       inkscape:connector-curvature="0" />
    <path
       transform="scale(0.2645833333333333)"
       style="opacity:1;vector-effect:none;fill:none;fill-opacity:1;stroke:#000000;stroke-width:5;stroke-linecap:round;stroke-linejoin:round;stroke-miterlimit:4;stroke-dasharray:none;stroke-dashoffset:0;stroke-opacity:0.9882352941;paint-order:normal"
       d="m 147.0782106032076,638.15153954323 c -0.9333483286582,-10.5111636435583 0.3340704167932,-14.9967946509875 5.6568542539695,-22.9809704067515 4.5409015758929,-6.8113523638385 0.7708889431015,-7.0305160907601 8.8388347718274,-13.0814754623043"
       id="path5993-0"
       inkscape:connector-curvature="0" />
    <path
       transform="scale(0.2645833333333333)"
       style="opacity:1;vector-effect:none;fill:none;fill-opacity:1;stroke:#000000;stroke-width:5;stroke-linecap:round;stroke-linejoin:round;stroke-miterlimit:4;stroke-dasharray:none;stroke-dashoffset:0;stroke-opacity:0.9882352941;paint-order:normal"
       d="M 318.9051585675318,638.15153954323 C 308.7241401009427,625.7861261193659 296.9020894781234,614.9975454360037 283.9033728710954,606.3317343646514"
       id="path5995-4"
       inkscape:connector-curvature="0" />
    <path
       transform="scale(0.2645833333333333)"
       style="opacity:1;vector-effect:none;fill:none;fill-opacity:1;stroke:#000000;stroke-width:5;stroke-linecap:round;stroke-linejoin:round;stroke-miterlimit:4;stroke-dasharray:none;stroke-dashoffset:0;stroke-opacity:0.9882352941;paint-order:normal"
       d="m 373.3523807619885,586.5327444757581 c -5.5951062359609,-2.3811863804358 -18.3828731122327,2.4755081405008 -22.6274170158781,1.060660172619 -1.812522294025,-0.604174098008 -1.3400663598579,-8.6905403645578 -2.1213203452386,-10.2530483353196 -3.1415266934336,-6.2830533868681 -6.115701780936,-14.1233001436268 -10.6066017261928,-20.8596500615125"
       id="path5997-9"
       inkscape:connector-curvature="0" />
  </g>
  <g
     inkscape:groupmode="layer"
     id="layer4"
     inkscape:label="Layer 4"
     style="display:inline"
     transform="translate(-33.53799630885875,-104.1475733240224)">
    <path
       style="opacity:1;vector-effect:none;fill:none;fill-opacity:1;stroke:#000000;stroke-width:5;stroke-linecap:round;stroke-linejoin:round;stroke-miterlimit:4;stroke-dasharray:none;stroke-dashoffset:0;stroke-opacity:0.9882352941;paint-order:normal"
       d="m 208.0000001097484,492.0196847066957 c 0.6965867419732,-9.0367624811645 2.8742005212806,-17.66560070234 8.0000000042211,-24.5000000129271"
       id="path5860"
       inkscape:connector-curvature="0"
       transform="scale(0.2645833333333333)" />
    <path
       style="opacity:1;vector-effect:none;fill:none;fill-opacity:1;stroke:#000000;stroke-width:5;stroke-linecap:round;stroke-linejoin:round;stroke-miterlimit:4;stroke-dasharray:none;stroke-dashoffset:0;stroke-opacity:0.9882352941;paint-order:normal"
       d="m 239.0000001261051,486.5196847037937 c -0.212501456314,6.3113402948482 6.1813891012019,7.6813891019932 10.0000000052764,11.5000000060678"
       id="path5862"
       inkscape:connector-curvature="0"
       transform="scale(0.2645833333333333)" />
    <path
       style="opacity:1;vector-effect:none;fill:none;fill-opacity:1;stroke:#000000;stroke-width:5;stroke-linecap:round;stroke-linejoin:round;stroke-miterlimit:4;stroke-dasharray:none;stroke-dashoffset:0;stroke-opacity:0.9882352941;paint-order:normal"
       d="m 276.5000001458915,471.0196846956153 c -3.4400253414528,-0.061520176719 -6.8584429753489,-0.2146107430457 -10.0000000052764,-1.0000000005276"
       id="path5864"
       inkscape:connector-curvature="0"
       transform="scale(0.2645833333333333)" />
    <path
       style="opacity:1;vector-effect:none;fill:none;fill-opacity:1;stroke:#000000;stroke-width:5;stroke-linecap:round;stroke-linejoin:round;stroke-miterlimit:4;stroke-dasharray:none;stroke-dashoffset:0;stroke-opacity:0.9882352941;paint-order:normal"
       d="m 286.5000001511678,454.5196846869093 c -0.2909048960032,-4.4924388857253 -7.4321114244855,-6.1214076169394 -11.000000005804,-8.5000000044849"
       id="path5866"
       inkscape:connector-curvature="0"
       transform="scale(0.2645833333333333)" />
    <path
       style="opacity:1;vector-effect:none;fill:none;fill-opacity:1;stroke:#000000;stroke-width:5;stroke-linecap:round;stroke-linejoin:round;stroke-miterlimit:4;stroke-dasharray:none;stroke-dashoffset:0;stroke-opacity:0.9882352941;paint-order:normal"
       d="m 324.0000001709542,433.5196846758289 c -4.1674542704748,-6.8186263561128 -5.500000002902,-12.3682451169416 -5.500000002902,-21.5000000113441"
       id="path5868"
       inkscape:connector-curvature="0"
       transform="scale(0.2645833333333333)" />
    <path
       style="opacity:1;vector-effect:none;fill:none;fill-opacity:1;stroke:#000000;stroke-width:5;stroke-linecap:round;stroke-linejoin:round;stroke-miterlimit:4;stroke-dasharray:none;stroke-dashoffset:0;stroke-opacity:0.9882352941;paint-order:normal"
       d="m 320.0000001688437,423.5196846705526 c -5.3333333361474,-6e-14 -10.6666666722948,0 -16.0000000084423,0"
       id="path5870"
       inkscape:connector-curvature="0"
       transform="scale(0.2645833333333333)" />
    <path
       style="opacity:1;vector-effect:none;fill:none;fill-opacity:1;stroke:#000000;stroke-width:5;stroke-linecap:round;stroke-linejoin:round;stroke-miterlimit:4;stroke-dasharray:none;stroke-dashoffset:0;stroke-opacity:0.9882352941;paint-order:normal"
       d="m 321.7335856945166,456.7786500253322 c -0.3304742792629,8.8042489189946 0.443948298815,14.1421356349238 9.5459415535736,14.1421356349238 1.2869085512218,0 4.4911428086985,0.5828557226355 5.6568542539695,0 2.8365693948084,-1.4182846974041 3.1900950857027,-4.4837526629557 4.9497474722234,-5.6568542539695"
       id="path5872"
       inkscape:connector-curvature="0"
       transform="scale(0.2645833333333333)" />
    <path
       style="opacity:1;vector-effect:none;fill:none;fill-opacity:1;stroke:#000000;stroke-width:5;stroke-linecap:round;stroke-linejoin:round;stroke-miterlimit:4;stroke-dasharray:none;stroke-dashoffset:0;stroke-opacity:0.9882352941;paint-order:normal"
       d="m 341.5325755834099,471.6278924420022 c -0.6947102093333,3.0417136986677 0.8826341224097,5.1202773937943 1.4142135634925,7.7781745992082"
       id="path5874"
       inkscape:connector-curvature="0"
       transform="scale(0.2645833333333333)" />
    <path
       style="opacity:1;vector-effect:none;fill:none;fill-opacity:1;stroke:#000000;stroke-width:5;stroke-linecap:round;stroke-linejoin:round;stroke-miterlimit:4;stroke-dasharray:none;stroke-dashoffset:0;stroke-opacity:0.9882352941;paint-order:normal"
       d="m 329.1582069028516,487.5377950312915 c -3.7093792678676,2.4729195119117 -4.999922384759,1.8530005759164 -4.2426406904771,7.7781745992081 -0.1756024944856,-6.1854541773157 -4.6234632821659,-3.5491685091387 -8.1317279900812,-5.3033008630964 -0.7489665683426,-0.3744832841714 -6.1130833936273,-4.4935183325656 -6.7175144265888,-3.8890872996041 -1.2340868421174,1.2340868421176 -1.4142135634924,4.0598169919749 -1.4142135634924,5.6568542539695"
       id="path5876"
       inkscape:connector-curvature="0"
       transform="scale(0.2645833333333333)" />
    <path
       style="opacity:1;vector-effect:none;fill:none;fill-opacity:1;stroke:#000000;stroke-width:5;stroke-linecap:round;stroke-linejoin:round;stroke-miterlimit:4;stroke-dasharray:none;stroke-dashoffset:0;stroke-opacity:0.9882352941;paint-order:normal"
       d="m 275.4180914901411,471.6278924420022 c 4.7608672339058,5.9445191153998 12.4229772201434,5.7666039609964 19.4454364980203,4.5961940813502"
       id="path5878"
       inkscape:connector-curvature="0"
       transform="scale(0.2645833333333333)" />
    <path
       style="opacity:1;vector-effect:none;fill:none;fill-opacity:1;stroke:#000000;stroke-width:5;stroke-linecap:round;stroke-linejoin:round;stroke-miterlimit:4;stroke-dasharray:none;stroke-dashoffset:0;stroke-opacity:0.9882352941;paint-order:normal"
       d="m 322.4406924762628,497.7908433666113 c 1.4401982954761,3.4661976366754 4.6453499699346,5.2182203251948 7.424621208335,7.0710678174619"
       id="path5880"
       inkscape:connector-curvature="0"
       transform="scale(0.2645833333333333)" />
    <path
       style="opacity:1;vector-effect:none;fill:none;fill-opacity:1;stroke:#000000;stroke-width:5;stroke-linecap:round;stroke-linejoin:round;stroke-miterlimit:4;stroke-dasharray:none;stroke-dashoffset:0;stroke-opacity:0.9882352941;paint-order:normal"
       d="m 331.9866340298364,551.1774053884486 c -4.9167682363842,-2.072810086004 -1.6666640468263,-9.040733801392 -3.8890872996041,-12.3743686805583"
       id="path5882"
       inkscape:connector-curvature="0"
       transform="scale(0.2645833333333333)" />
    <path
       style="opacity:1;vector-effect:none;fill:none;fill-opacity:1;stroke:#000000;stroke-width:5;stroke-linecap:round;stroke-linejoin:round;stroke-miterlimit:4;stroke-dasharray:none;stroke-dashoffset:0;stroke-opacity:0.9882352941;paint-order:normal"
       d="m 310.4198771865775,571.329948668215 c 2.1302678338422,5.104137218568 4.1417883935932,10.1023402417728 5.3033008630965,15.9099025892892"
       id="path5884"
       inkscape:connector-curvature="0"
       transform="scale(0.2645833333333333)" />
    <path
       style="opacity:1;vector-effect:none;fill:none;fill-opacity:1;stroke:#000000;stroke-width:5;stroke-linecap:round;stroke-linejoin:round;stroke-miterlimit:4;stroke-dasharray:none;stroke-dashoffset:0;stroke-opacity:0.9882352941;paint-order:normal"
       d="m 290.6208872976843,607.7459479281435 c 2.2187935049564,-6.7608067212401 7.5968270536217,-10.0142988413047 12.7279220714314,-13.4350288531774"
       id="path5886"
       inkscape:connector-curvature="0"
       transform="scale(0.2645833333333333)" />
    <path
       style="opacity:1;vector-effect:none;fill:none;fill-opacity:1;stroke:#000000;stroke-width:5;stroke-linecap:round;stroke-linejoin:round;stroke-miterlimit:4;stroke-dasharray:none;stroke-dashoffset:0;stroke-opacity:0.9882352941;paint-order:normal"
       d="m 297.6919551151461,639.2121997158492 c -1.1749168955036,-3.5500613495817 0.7443547615692,-5.452292782388 1.4142135634924,-8.1317279900811"
       id="path5890"
       inkscape:connector-curvature="0"
       transform="scale(0.2645833333333333)" />
    <path
       style="opacity:1;vector-effect:none;fill:none;fill-opacity:1;stroke:#000000;stroke-width:5;stroke-linecap:round;stroke-linejoin:round;stroke-miterlimit:4;stroke-dasharray:none;stroke-dashoffset:0;stroke-opacity:0.9882352941;paint-order:normal"
       d="m 275.4180914901411,640.6264132793417 c -1.2189210428321,-7.6333244864998 -4.0483845028483,-13.4117228635876 -8.8388347718273,-19.7989898888934"
       id="path5892"
       inkscape:connector-curvature="0"
       transform="scale(0.2645833333333333)" />
    <path
       style="opacity:1;vector-effect:none;fill:none;fill-opacity:1;stroke:#000000;stroke-width:5;stroke-linecap:round;stroke-linejoin:round;stroke-miterlimit:4;stroke-dasharray:none;stroke-dashoffset:0;stroke-opacity:0.9882352941;paint-order:normal"
       d="m 206.1216268790145,599.6142199380625 c 4.3451020095573,3.0665559399971 7.3069512045206,7.3657862064274 11.6672618988121,9.5459415535737"
       id="path5894"
       inkscape:connector-curvature="0"
       transform="scale(0.2645833333333333)" />
    <path
       style="opacity:1;vector-effect:none;fill:none;fill-opacity:1;stroke:#000000;stroke-width:5;stroke-linecap:round;stroke-linejoin:round;stroke-miterlimit:4;stroke-dasharray:none;stroke-dashoffset:0;stroke-opacity:0.9882352941;paint-order:normal"
       d="m 253.1442278651362,593.9573656840931 c 0.106840624156,3.6068584494652 0.1142413608095,7.3212091559698 -0.7071067817462,10.6066017261928"
       id="path5896"
       inkscape:connector-curvature="0"
       transform="scale(0.2645833333333333)" />
    <path
       style="opacity:1;vector-effect:none;fill:none;fill-opacity:1;stroke:#000000;stroke-width:5;stroke-linecap:round;stroke-linejoin:round;stroke-miterlimit:4;stroke-dasharray:none;stroke-dashoffset:0;stroke-opacity:0.9882352941;paint-order:normal"
       d="m 231.5774710218773,608.0995013190165 c 2.3209894072075,-0.4736765990275 4.2646379450348,-1.0606601726191 6.7175144265889,-1.0606601726191"
       id="path5898"
       inkscape:connector-curvature="0"
       transform="scale(0.2645833333333333)" />
    <path
       style="opacity:1;vector-effect:none;fill:none;fill-opacity:1;stroke:#000000;stroke-width:5;stroke-linecap:round;stroke-linejoin:round;stroke-miterlimit:4;stroke-dasharray:none;stroke-dashoffset:0;stroke-opacity:0.9882352941;paint-order:normal"
       d="m 208.9500540059993,590.4218317753618 c -0.8475071004455,-4.6732119350778 -7.3762058803459,-11.9723999616957 -10.960155117066,-15.5563491984161"
       id="path5902"
       inkscape:connector-curvature="0"
       transform="scale(0.2645833333333333)" />
    <path
       style="opacity:1;vector-effect:none;fill:none;fill-opacity:1;stroke:#000000;stroke-width:5;stroke-linecap:round;stroke-linejoin:round;stroke-miterlimit:4;stroke-dasharray:none;stroke-dashoffset:0;stroke-opacity:0.9882352941;paint-order:normal"
       d="m 241.476965966324,537.3888231443977 c -2.7735747350179,-2.4483936567218 -7.040223789381,-1.6293531386873 -9.8994949444467,-3.5355339087308"
       id="path5904"
       inkscape:connector-curvature="0"
       transform="scale(0.2645833333333333)" />
    <path
       style="opacity:1;vector-effect:none;fill:none;fill-opacity:1;stroke:#000000;stroke-width:5;stroke-linecap:round;stroke-linejoin:round;stroke-miterlimit:4;stroke-dasharray:none;stroke-dashoffset:0;stroke-opacity:0.9882352941;paint-order:normal"
       d="m 202.2325395794104,534.913949408286 c 1.3671649352439,8.2401190641524 3.5990823099804,11.6672618988122 12.7279220714315,11.6672618988122"
       id="path5906"
       inkscape:connector-curvature="0"
       transform="scale(0.2645833333333333)" />
    <path
       style="opacity:1;vector-effect:none;fill:none;fill-opacity:1;stroke:#000000;stroke-width:5;stroke-linecap:round;stroke-linejoin:round;stroke-miterlimit:4;stroke-dasharray:none;stroke-dashoffset:0;stroke-opacity:0.9882352941;paint-order:normal"
       d="m 220.2637625139383,517.2362798646314 c -5.1382834001005,-3.4255222667333 -4.8833992419744,-9.5295656026457 -5.6568542539695,-15.5563491984162 3.9696931232917,1.126312219573 8.2527911478182,0.7071067817462 12.3743686805583,0.7071067817462"
       id="path5908"
       inkscape:connector-curvature="0"
       transform="scale(0.2645833333333333)" />
    <path
       style="opacity:1;vector-effect:none;fill:none;fill-opacity:1;stroke:#000000;stroke-width:5;stroke-linecap:round;stroke-linejoin:round;stroke-miterlimit:4;stroke-dasharray:none;stroke-dashoffset:0;stroke-opacity:0.9882352941;paint-order:normal"
       d="m 195.1614717619486,486.1235814677991 c -0.8302785660287,6.8272365608094 1.9806837210875,16.6511876118252 -1.7677669543655,22.273863625005"
       id="path5910"
       inkscape:connector-curvature="0"
       transform="scale(0.2645833333333333)" />
    <path
       style="opacity:1;vector-effect:none;fill:none;fill-opacity:1;stroke:#000000;stroke-width:5;stroke-linecap:round;stroke-linejoin:round;stroke-miterlimit:4;stroke-dasharray:none;stroke-dashoffset:0;stroke-opacity:0.9882352941;paint-order:normal"
       d="m 196.929238716314,500.2657171027229 c 2.7887341306493,2.5367197345979 6.2327750765702,5.8392171991337 7.0710678174619,9.1923881627004"
       id="path5912"
       inkscape:connector-curvature="0"
       transform="scale(0.2645833333333333)" />
    <path
       style="opacity:1;vector-effect:none;fill:none;fill-opacity:1;stroke:#000000;stroke-width:5;stroke-linecap:round;stroke-linejoin:round;stroke-miterlimit:4;stroke-dasharray:none;stroke-dashoffset:0;stroke-opacity:0.9882352941;paint-order:normal"
       d="m 169.7056276190857,527.842881590824 c -2.6161036746365,-4.2496334166284 0.2261341319866,-13.1664216348953 -3.889087299604,-15.9099025892892"
       id="path5916"
       inkscape:connector-curvature="0"
       transform="scale(0.2645833333333333)" />
    <path
       style="opacity:1;vector-effect:none;fill:none;fill-opacity:1;stroke:#000000;stroke-width:5;stroke-linecap:round;stroke-linejoin:round;stroke-miterlimit:4;stroke-dasharray:none;stroke-dashoffset:0;stroke-opacity:0.9882352941;paint-order:normal"
       d="m 152.7350648571771,534.20684262654 c -0.9567263931345,-5.6551595391203 -10.5787172330278,-5.4661353119503 -15.2027958075431,-7.7781745992081"
       id="path5918"
       inkscape:connector-curvature="0"
       transform="scale(0.2645833333333333)" />
    <path
       style="opacity:1;vector-effect:none;fill:none;fill-opacity:1;stroke:#000000;stroke-width:5;stroke-linecap:round;stroke-linejoin:round;stroke-miterlimit:4;stroke-dasharray:none;stroke-dashoffset:0;stroke-opacity:0.9882352941;paint-order:normal"
       d="m 187.7368505536136,539.8636968805094 c -2.8176071872907,4.8181262204818 -4.9985320913391,9.9320180238575 -9.1923881627005,12.7279220714313"
       id="path5920"
       inkscape:connector-curvature="0"
       transform="scale(0.2645833333333333)" />
    <path
       style="opacity:1;vector-effect:none;fill:none;fill-opacity:1;stroke:#000000;stroke-width:5;stroke-linecap:round;stroke-linejoin:round;stroke-miterlimit:4;stroke-dasharray:none;stroke-dashoffset:0;stroke-opacity:0.9882352941;paint-order:normal"
       d="m 161.2203462381314,599.2606665471895 c -0.7923822787725,4.7594943915451 3.6386850685502,11.0117306969754 7.7781745992081,13.0814754623044"
       id="path5922"
       inkscape:connector-curvature="0"
       transform="scale(0.2645833333333333)" />
    <path
       style="opacity:1;vector-effect:none;fill:none;fill-opacity:1;stroke:#000000;stroke-width:5;stroke-linecap:round;stroke-linejoin:round;stroke-miterlimit:4;stroke-dasharray:none;stroke-dashoffset:0;stroke-opacity:0.9882352941;paint-order:normal"
       d="m 170.766287791705,595.3715792475851 c -0.8314944443756,-8.6942143607009 -2.2488731452015,-9.7792183967382 6.7175144265888,-12.0208152896854"
       id="path5924"
       inkscape:connector-curvature="0"
       transform="scale(0.2645833333333333)" />
    <path
       style="opacity:1;vector-effect:none;fill:none;fill-opacity:1;stroke:#000000;stroke-width:5;stroke-linecap:round;stroke-linejoin:round;stroke-miterlimit:4;stroke-dasharray:none;stroke-dashoffset:0;stroke-opacity:0.9882352941;paint-order:normal"
       d="m 126.218560541695,571.6835020590881 c 5.4279805923757,2.2052529232095 10.8847319927014,2.9674922602387 16.2634559801624,5.6568542539694"
       id="path5926"
       inkscape:connector-curvature="0"
       transform="scale(0.2645833333333333)" />
    <path
       style="opacity:1;vector-effect:none;fill:none;fill-opacity:1;stroke:#000000;stroke-width:5;stroke-linecap:round;stroke-linejoin:round;stroke-miterlimit:4;stroke-dasharray:none;stroke-dashoffset:0;stroke-opacity:0.9882352941;paint-order:normal"
       d="m 125.1579003690757,605.2710741920318 c 4.2426406904771,-1e-13 8.4852813809543,0 12.7279220714314,0"
       id="path5928"
       inkscape:connector-curvature="0"
       transform="scale(0.2645833333333333)" />
    <path
       style="opacity:1;vector-effect:none;fill:none;fill-opacity:1;stroke:#000000;stroke-width:5;stroke-linecap:round;stroke-linejoin:round;stroke-miterlimit:4;stroke-dasharray:none;stroke-dashoffset:0;stroke-opacity:0.9882352941;paint-order:normal"
       d="m 196.5756853254409,436.9796601364388 c 7.7989303121365,-0.288733312631 19.4454364980203,-0.5598432649462 19.4454364980203,-10.2530483353197"
       id="path5930"
       inkscape:connector-curvature="0"
       transform="scale(0.2645833333333333)" />
    <path
       style="opacity:1;vector-effect:none;fill:none;fill-opacity:1;stroke:#000000;stroke-width:5;stroke-linecap:round;stroke-linejoin:round;stroke-miterlimit:4;stroke-dasharray:none;stroke-dashoffset:0;stroke-opacity:0.9882352941;paint-order:normal"
       d="m 214.9604616508419,433.4441262277079 c -0.5766791846958,1.3374371161863 -0.2844528767883,2.1213203452386 1.0606601726193,2.1213203452386 7.637129851346,0 5.6568542539695,5.5000966239021 5.6568542539695,12.0208152896853"
       id="path5932"
       inkscape:connector-curvature="0"
       transform="scale(0.2645833333333333)" />
    <path
       style="opacity:1;vector-effect:none;fill:none;fill-opacity:1;stroke:#000000;stroke-width:5;stroke-linecap:round;stroke-linejoin:round;stroke-miterlimit:4;stroke-dasharray:none;stroke-dashoffset:0;stroke-opacity:0.9882352941;paint-order:normal"
       d="m 225.9206167679078,392.0783794955557 c -1.6665929954957,7.0297086568312 -0.7327818107007,10.1218969905527 -8.1317279900812,13.0814754623046"
       id="path5934"
       inkscape:connector-curvature="0"
       transform="scale(0.2645833333333333)" />
    <path
       style="opacity:1;vector-effect:none;fill:none;fill-opacity:1;stroke:#000000;stroke-width:5;stroke-linecap:round;stroke-linejoin:round;stroke-miterlimit:4;stroke-dasharray:none;stroke-dashoffset:0;stroke-opacity:0.9882352941;paint-order:normal"
       d="m 124.4507935873295,467.7388051423982 c 4.7404941670534,-0.4605717389728 6.8221650404866,-7.2586860236846 10.2530483353198,-9.5459415535736"
       id="path5936"
       inkscape:connector-curvature="0"
       transform="scale(0.2645833333333333)" />
    <path
       style="opacity:1;vector-effect:none;fill:none;fill-opacity:1;stroke:#000000;stroke-width:5;stroke-linecap:round;stroke-linejoin:round;stroke-miterlimit:4;stroke-dasharray:none;stroke-dashoffset:0;stroke-opacity:0.9882352941;paint-order:normal"
       d="m 170.0591810099588,427.0801651919923 c -2.9885429272063,4.6539919099872 -2.536699749283,10.3457873550763 -5.3033008630964,14.4956890257968"
       id="path5938"
       inkscape:connector-curvature="0"
       transform="scale(0.2645833333333333)" />
    <path
       style="opacity:1;vector-effect:none;fill:none;fill-opacity:1;stroke:#000000;stroke-width:5;stroke-linecap:round;stroke-linejoin:round;stroke-miterlimit:4;stroke-dasharray:none;stroke-dashoffset:0;stroke-opacity:0.9882352941;paint-order:normal"
       d="m 371.5846138076231,462.7890576701748 c -8.9428466558501,5.029897579153 -6.5570113695845,-0.4902043220584 -14.495689025797,-2.4748737361116"
       id="path5940"
       inkscape:connector-curvature="0"
       transform="scale(0.2645833333333333)" />
    <path
       style="opacity:1;vector-effect:none;fill:none;fill-opacity:1;stroke:#000000;stroke-width:5;stroke-linecap:round;stroke-linejoin:round;stroke-miterlimit:4;stroke-dasharray:none;stroke-dashoffset:0;stroke-opacity:0.9882352941;paint-order:normal"
       d="m 341.5325755834099,585.8256376940114 c 1.1867418718168,-4.7469674872658 4.5909571228816,-8.3711980075966 7.0710678174619,-12.7279220714313 4.1485423178227,-2.9227464799969 8.7777846135426,-3.8890872996037 14.1421356349238,-3.8890872996037"
       id="path5942"
       inkscape:connector-curvature="0"
       transform="scale(0.2645833333333333)" />
    <path
       style="opacity:1;vector-effect:none;fill:none;fill-opacity:1;stroke:#000000;stroke-width:5;stroke-linecap:round;stroke-linejoin:round;stroke-miterlimit:4;stroke-dasharray:none;stroke-dashoffset:0;stroke-opacity:0.9882352941;paint-order:normal"
       d="m 323.8549060397552,495.6695230213727 c -6.739579225849,0.4044114981306 -6.1702313510234,8.7710228148044 -7.424621208335,13.7885822440506"
       id="path5944"
       inkscape:connector-curvature="0"
       transform="scale(0.2645833333333333)" />
    <path
       transform="scale(0.2645833333333333)"
       style="display:inline;opacity:1;vector-effect:none;fill:none;fill-opacity:1;stroke:#000000;stroke-width:5;stroke-linecap:round;stroke-linejoin:round;stroke-miterlimit:4;stroke-dasharray:none;stroke-dashoffset:0;stroke-opacity:0.9882352941;paint-order:normal"
       d="m 357.704609747825,422.7130898784398 c -6.2961261081689,9.1782315988281 -29.2638586940405,5.9410946303232 -33.5167485708786,14.4468743839994 -1.6599865483075,3.3199730966151 1.0305587179589,17.9558546470794 -4.0451248275198,19.6477491622392 -7.0813793871499,2.3604597957169 -26.5067092310057,-7.587914315233 -32.3609986201586,-1.73362492608 -3.4119063858457,3.4119063858456 -13.0258368750067,26.9421361424606 -15.0247493593594,32.9388735955185"
       id="path5720-5"
       inkscape:connector-curvature="0" />
    <path
       transform="scale(0.2645833333333333)"
       style="display:inline;opacity:1;vector-effect:none;fill:none;fill-opacity:1;stroke:#000000;stroke-width:5;stroke-linecap:round;stroke-linejoin:round;stroke-miterlimit:4;stroke-dasharray:none;stroke-dashoffset:0;stroke-opacity:0.9882352941;paint-order:normal"
       d="m 347.3028601913455,573.538458447393 c -22.4806774804107,-35.2250284870979 -9.6953224323429,-21.2744505290501 -36.4061234476785,-3.4672498521596 -1.3792921884171,0.9195281256111 -17.1312160809326,-12.3217953803063 -20.2256241375992,-13.8689994086394"
       id="path5722-5"
       inkscape:connector-curvature="0" />
    <path
       transform="scale(0.2645833333333333)"
       style="display:inline;opacity:1;vector-effect:none;fill:none;fill-opacity:1;stroke:#000000;stroke-width:5;stroke-linecap:round;stroke-linejoin:round;stroke-miterlimit:4;stroke-dasharray:none;stroke-dashoffset:0;stroke-opacity:0.9882352941;paint-order:normal"
       d="m 150.8253685689537,619.1905815008315 c -1.6380591375261,-4.8334140459274 2.5134035082715,-7.3963295052154 5.2008747782398,-10.9796245318396 2.7820415270319,-3.7093887027095 4.6557851900015,-9.8566599682413 7.5123746796796,-12.7132494579196 1.3083161315547,-1.3083161315546 39.6095323795868,7.1983406245711 43.3406231519982,3.46724985216 6.6326463291913,-6.6326463291906 4.573843066759,-20.151889033418 9.2459996057596,-27.1601238419188"
       id="path5724-1"
       inkscape:connector-curvature="0" />
    <path
       transform="scale(0.2645833333333333)"
       style="display:inline;opacity:1;vector-effect:none;fill:none;fill-opacity:1;stroke:#000000;stroke-width:5;stroke-linecap:round;stroke-linejoin:round;stroke-miterlimit:4;stroke-dasharray:none;stroke-dashoffset:0;stroke-opacity:0.9882352941;paint-order:normal"
       d="m 151.4032435443137,416.35646514948 c 5.525195843852,1.7162648363839 9.6417381995002,4.8868255320402 14.4468743839993,8.0902496550396 8.7338685129911,5.8225790086607 20.6725657086614,6.6545857763346 28.8937487679988,12.1353744825596 4.9630328709345,3.3086885806229 -7.3827041132814,33.198214728315 -4.0451248275198,39.8733732998383 4.6922929659973,9.3845859319947 17.9301478014336,16.7824096333506 23.692873989759,25.4264989158389"
       id="path5726-4"
       inkscape:connector-curvature="0" />
    <path
       transform="scale(0.2645833333333333)"
       style="display:inline;opacity:1;vector-effect:none;fill:none;fill-opacity:1;stroke:#000000;stroke-width:5;stroke-linecap:round;stroke-linejoin:round;stroke-miterlimit:4;stroke-dasharray:none;stroke-dashoffset:0;stroke-opacity:0.9882352941;paint-order:normal"
       d="m 249.6419893555095,522.1075856403555 c -2.8806904651074,2.6670749963806 -3.3933071355399,7.3891368186464 -5.2008747782397,10.4017495564793 -8.5294431039631,14.2157385066052 10.8045138663681,27.5103451728618 7.5123746796796,34.0946235462385 -0.7908275452193,1.5816550904391 -4.7289072572339,1.4734723137824 -5.2008747782397,2.8893748768003 -1.420530570466,4.2615917113977 -8.0918596031677,16.178352712575 -4.6229998028798,20.8034991129591 1.4198675393221,1.8931567190962 27.5470214057456,9.0541235140879 31.7831236447986,10.9796245318395 10.0442732840674,4.5655787654849 20.0880974215193,11.7776736368396 28.8937487679989,16.1804993100793"
       id="path5728-9"
       inkscape:connector-curvature="0" />
    <path
       transform="scale(0.2645833333333333)"
       style="display:inline;opacity:1;vector-effect:none;fill:none;fill-opacity:1;stroke:#000000;stroke-width:5;stroke-linecap:round;stroke-linejoin:round;stroke-miterlimit:4;stroke-dasharray:none;stroke-dashoffset:0;stroke-opacity:0.9882352941;paint-order:normal"
       d="m 264.6667387148689,400.1759658394007 c -6.4277584089313,1.1055858342189 -7.8663426911778,11.1804791817755 -10.4017495564796,16.7583742854393 -1.9902716852399,4.3785977075278 -15.0247493593593,27.3552601776722 -15.0247493593593,30.0494987187187 0,11.2694676728365 30.9239936589768,6.0600047640609 8.6681246303996,28.3158737926389"
       id="path5732-57"
       inkscape:connector-curvature="0" />
    <path
       transform="scale(0.2645833333333333)"
       style="display:inline;opacity:1;vector-effect:none;fill:none;fill-opacity:1;stroke:#000000;stroke-width:5;stroke-linecap:round;stroke-linejoin:round;stroke-miterlimit:4;stroke-dasharray:none;stroke-dashoffset:0;stroke-opacity:0.9882352941;paint-order:normal"
       d="m 143.890868864634,541.7553348025948 c 3.2498519900649,-4.1587669347573 6.7947727043026,-7.0339733627617 10.9796245318395,-9.8238745811198 26.9988378321768,-17.9992252214513 21.1795504204004,13.0526428625798 38.7176233491184,8.6681246303998 3.4461926629947,-0.8615481657489 13.4461485747195,-14.8133239423995 18.4919992115192,-17.3362492607996"
       id="path5734-8"
       inkscape:connector-curvature="0" />
    <path
       transform="scale(0.2645833333333333)"
       style="display:inline;opacity:1;vector-effect:none;fill:none;fill-opacity:1;stroke:#000000;stroke-width:5;stroke-linecap:round;stroke-linejoin:round;stroke-miterlimit:4;stroke-dasharray:none;stroke-dashoffset:0;stroke-opacity:0.9882352941;paint-order:normal"
       d="m 361.1718595999849,494.3695868230767 c -6.7418747125331,-2e-13 -13.4837494250662,0 -20.2256241375992,0 -3.5420482119698,0 -11.3142044249697,-1.566334979515 -14.4468743839994,0 -14.3411036952522,7.1705518476268 1.1746376195681,23.6928739897591 -27.7379988172788,23.6928739897591"
       id="path5736-8"
       inkscape:connector-curvature="0" />
  </g>
  <g
     inkscape:groupmode="layer"
     id="layer3"
     inkscape:label="Layer 3"
     style="display:inline;opacity:1"
     transform="translate(-33.53799630885875,-104.1475733240224)">
    <path
       transform="scale(0.2645833333333333)"
       style="opacity:1;vector-effect:none;fill:none;fill-opacity:1;stroke:#000000;stroke-width:5;stroke-linecap:round;stroke-linejoin:round;stroke-miterlimit:4;stroke-dasharray:none;stroke-dashoffset:0;stroke-opacity:0.9882352941;paint-order:normal"
       d="m 357.704609747825,422.7130898784398 c -6.2961261081689,9.1782315988281 -29.2638586940405,5.9410946303232 -33.5167485708786,14.4468743839994 -1.6599865483075,3.3199730966151 1.0305587179589,17.9558546470794 -4.0451248275198,19.6477491622392 -7.0813793871499,2.3604597957169 -26.5067092310057,-7.587914315233 -32.3609986201586,-1.73362492608 -3.4119063858457,3.4119063858456 -13.0258368750067,26.9421361424606 -15.0247493593594,32.9388735955185"
       id="path5720-9"
       inkscape:connector-curvature="0" />
    <path
       transform="scale(0.2645833333333333)"
       style="opacity:1;vector-effect:none;fill:none;fill-opacity:1;stroke:#000000;stroke-width:5;stroke-linecap:round;stroke-linejoin:round;stroke-miterlimit:4;stroke-dasharray:none;stroke-dashoffset:0;stroke-opacity:0.9882352941;paint-order:normal"
       d="m 347.3028601913455,573.538458447393 c -22.4806774804107,-35.2250284870979 -9.6953224323429,-21.2744505290501 -36.4061234476785,-3.4672498521596 -1.3792921884171,0.9195281256111 -17.1312160809326,-12.3217953803063 -20.2256241375992,-13.8689994086394"
       id="path5722-4"
       inkscape:connector-curvature="0" />
    <path
       transform="scale(0.2645833333333333)"
       style="opacity:1;vector-effect:none;fill:none;fill-opacity:1;stroke:#000000;stroke-width:5;stroke-linecap:round;stroke-linejoin:round;stroke-miterlimit:4;stroke-dasharray:none;stroke-dashoffset:0;stroke-opacity:0.9882352941;paint-order:normal"
       d="m 150.8253685689537,619.1905815008315 c -1.6380591375261,-4.8334140459274 2.5134035082715,-7.3963295052154 5.2008747782398,-10.9796245318396 2.7820415270319,-3.7093887027095 4.6557851900015,-9.8566599682413 7.5123746796796,-12.7132494579196 1.3083161315547,-1.3083161315546 39.6095323795868,7.1983406245711 43.3406231519982,3.46724985216 6.6326463291913,-6.6326463291906 4.573843066759,-20.151889033418 9.2459996057596,-27.1601238419188"
       id="path5724-4"
       inkscape:connector-curvature="0" />
    <path
       transform="scale(0.2645833333333333)"
       style="opacity:1;vector-effect:none;fill:none;fill-opacity:1;stroke:#000000;stroke-width:5;stroke-linecap:round;stroke-linejoin:round;stroke-miterlimit:4;stroke-dasharray:none;stroke-dashoffset:0;stroke-opacity:0.9882352941;paint-order:normal"
       d="m 151.4032435443137,416.35646514948 c 5.525195843852,1.7162648363839 9.6417381995002,4.8868255320402 14.4468743839993,8.0902496550396 8.7338685129911,5.8225790086607 20.6725657086614,6.6545857763346 28.8937487679988,12.1353744825596 4.9630328709345,3.3086885806229 -7.3827041132814,33.198214728315 -4.0451248275198,39.8733732998383 4.6922929659973,9.3845859319947 17.9301478014336,16.7824096333506 23.692873989759,25.4264989158389"
       id="path5726-9"
       inkscape:connector-curvature="0" />
    <path
       transform="scale(0.2645833333333333)"
       style="opacity:1;vector-effect:none;fill:none;fill-opacity:1;stroke:#000000;stroke-width:5;stroke-linecap:round;stroke-linejoin:round;stroke-miterlimit:4;stroke-dasharray:none;stroke-dashoffset:0;stroke-opacity:0.9882352941;paint-order:normal"
       d="m 249.6419893555095,522.1075856403555 c -2.8806904651074,2.6670749963806 -3.3933071355399,7.3891368186464 -5.2008747782397,10.4017495564793 -8.5294431039631,14.2157385066052 10.8045138663681,27.5103451728618 7.5123746796796,34.0946235462385 -0.7908275452193,1.5816550904391 -4.7289072572339,1.4734723137824 -5.2008747782397,2.8893748768003 -1.420530570466,4.2615917113977 -8.0918596031677,16.178352712575 -4.6229998028798,20.8034991129591 1.4198675393221,1.8931567190962 27.5470214057456,9.0541235140879 31.7831236447986,10.9796245318395 10.0442732840674,4.5655787654849 20.0880974215193,11.7776736368396 28.8937487679989,16.1804993100793"
       id="path5728-3"
       inkscape:connector-curvature="0" />
    <path
       transform="scale(0.2645833333333333)"
       style="opacity:1;vector-effect:none;fill:none;fill-opacity:1;stroke:#000000;stroke-width:5;stroke-linecap:round;stroke-linejoin:round;stroke-miterlimit:4;stroke-dasharray:none;stroke-dashoffset:0;stroke-opacity:0.9882352941;paint-order:normal"
       d="m 264.6667387148689,400.1759658394007 c -6.4277584089313,1.1055858342189 -7.8663426911778,11.1804791817755 -10.4017495564796,16.7583742854393 -1.9902716852399,4.3785977075278 -15.0247493593593,27.3552601776722 -15.0247493593593,30.0494987187187 0,11.2694676728365 30.9239936589768,6.0600047640609 8.6681246303996,28.3158737926389"
       id="path5732-5"
       inkscape:connector-curvature="0" />
    <path
       transform="scale(0.2645833333333333)"
       style="opacity:1;vector-effect:none;fill:none;fill-opacity:1;stroke:#000000;stroke-width:5;stroke-linecap:round;stroke-linejoin:round;stroke-miterlimit:4;stroke-dasharray:none;stroke-dashoffset:0;stroke-opacity:0.9882352941;paint-order:normal"
       d="m 143.890868864634,541.7553348025948 c 3.2498519900649,-4.1587669347573 6.7947727043026,-7.0339733627617 10.9796245318395,-9.8238745811198 26.9988378321768,-17.9992252214513 21.1795504204004,13.0526428625798 38.7176233491184,8.6681246303998 3.4461926629947,-0.8615481657489 13.4461485747195,-14.8133239423995 18.4919992115192,-17.3362492607996"
       id="path5734-3"
       inkscape:connector-curvature="0" />
    <path
       transform="scale(0.2645833333333333)"
       style="opacity:1;vector-effect:none;fill:none;fill-opacity:1;stroke:#000000;stroke-width:5;stroke-linecap:round;stroke-linejoin:round;stroke-miterlimit:4;stroke-dasharray:none;stroke-dashoffset:0;stroke-opacity:0.9882352941;paint-order:normal"
       d="m 361.1718595999849,494.3695868230767 c -6.7418747125331,-2e-13 -13.4837494250662,0 -20.2256241375992,0 -3.5420482119698,0 -11.3142044249697,-1.566334979515 -14.4468743839994,0 -14.3411036952522,7.1705518476268 1.1746376195681,23.6928739897591 -27.7379988172788,23.6928739897591"
       id="path5736-4"
       inkscape:connector-curvature="0" />
    <path
       style="opacity:1;vector-effect:none;fill:none;fill-opacity:1;stroke:#000000;stroke-width:5;stroke-linecap:round;stroke-linejoin:round;stroke-miterlimit:4;stroke-dasharray:none;stroke-dashoffset:0;stroke-opacity:0.9882352941;paint-order:normal"
       d="m 326.0782124625535,434.4047604943327 c -0.9529243935552,-1.3801481787608 -2.0314408603445,-1.8874639497436 -2.8603351970399,-3.2689545109028 -1.0368085915645,-1.7280143192739 -0.6479021760076,-5.6360021682206 -2.4517158831771,-6.5379090218056 -10.8525283179834,-5.4262641589924 -26.6305195437753,9.0469235053956 -31.0550678535766,-13.0758180436112"
       id="path5775"
       inkscape:connector-curvature="0"
       transform="scale(0.2645833333333333)" />
    <path
       style="opacity:1;vector-effect:none;fill:none;fill-opacity:1;stroke:#000000;stroke-width:5;stroke-linecap:round;stroke-linejoin:round;stroke-miterlimit:4;stroke-dasharray:none;stroke-dashoffset:0;stroke-opacity:0.9882352941;paint-order:normal"
       d="m 321.5834000100622,456.8788227567894 c 2.1986196051193,2.4112469677835 3.5264748177258,13.000268540091 6.1292897079427,14.3016759851997 3.0209587853059,1.5104793926533 10.1472247332525,-2.111354682633 12.6671987297483,0.4086193138628 1.4944173900648,1.4944173900649 0.5636572157271,11.6528730817537 1.2258579415885,14.3016759851998"
       id="path5777"
       inkscape:connector-curvature="0"
       transform="scale(0.2645833333333333)" />
    <path
       style="opacity:1;vector-effect:none;fill:none;fill-opacity:1;stroke:#000000;stroke-width:5;stroke-linecap:round;stroke-linejoin:round;stroke-miterlimit:4;stroke-dasharray:none;stroke-dashoffset:0;stroke-opacity:0.9882352941;paint-order:normal"
       d="m 287.2593776455829,453.6098682458866 c 0.9111245759127,-4.0841225284815 -7.5589729784647,-4.1876214750968 -9.3982442188456,-6.9465283356684 -6.0245388914259,-9.0368083371399 6.8240781102394,-21.0357765051518 -17.1620111822396,-11.4413407881598"
       id="path5779"
       inkscape:connector-curvature="0"
       transform="scale(0.2645833333333333)" />
    <path
       style="opacity:1;vector-effect:none;fill:none;fill-opacity:1;stroke:#000000;stroke-width:5;stroke-linecap:round;stroke-linejoin:round;stroke-miterlimit:4;stroke-dasharray:none;stroke-dashoffset:0;stroke-opacity:0.9882352941;paint-order:normal"
       d="m 281.538707251503,474.0408339390291 c 1.5093758240632,0.8617420840759 3.1930757946625,0.981521374204 4.9034317663541,1.2258579415885 2.3298072751871,0.332829610741 6.9444280751875,-0.2053597871718 8.9896249049827,0.8172386277257 3.4427633254564,1.721381662728 -3.1038770214068,14.1799050730165 -0.4086193138628,15.5275339267883 2.4781075094893,1.2390537547445 7.4282927150684,1.9089068699839 9.8068635327084,2.8603351970399"
       id="path5781"
       inkscape:connector-curvature="0"
       transform="scale(0.2645833333333333)" />
    <path
       style="opacity:1;vector-effect:none;fill:none;fill-opacity:1;stroke:#000000;stroke-width:5;stroke-linecap:round;stroke-linejoin:round;stroke-miterlimit:4;stroke-dasharray:none;stroke-dashoffset:0;stroke-opacity:0.9882352941;paint-order:normal"
       d="m 303.6041502000969,493.6545610044458 c 3.1998630760529,-0.7999657690131 9.1659575181016,-9.2806891434331 12.6671987297484,-6.9465283356684 1.7370938479773,1.1580625653183 3.8753166671297,7.3551476495313 6.1292897079425,7.3551476495313 0.5615935305748,0 1.0896515036343,-0.2724128759087 1.6344772554515,-0.4086193138629 1.6374771382472,-9.5342057545671 8.6010234776705,-12.3881132249892 17.5706304961026,-9.3982442188456"
       id="path5783"
       inkscape:connector-curvature="0"
       transform="scale(0.2645833333333333)" />
    <path
       style="opacity:1;vector-effect:none;fill:none;fill-opacity:1;stroke:#000000;stroke-width:5;stroke-linecap:round;stroke-linejoin:round;stroke-miterlimit:4;stroke-dasharray:none;stroke-dashoffset:0;stroke-opacity:0.9882352941;paint-order:normal"
       d="m 297.0662411782913,517.7631005223538 c -7.0572838205604,0.5491643105205 -8.3856390092208,10.4287355785342 -12.6671987297484,14.7102952990623 -1.4622443597129,1.4622443597134 -10.8673296602213,0 -13.0758180436111,0"
       id="path5785"
       inkscape:connector-curvature="0"
       transform="scale(0.2645833333333333)" />
    <path
       style="opacity:1;vector-effect:none;fill:none;fill-opacity:1;stroke:#000000;stroke-width:5;stroke-linecap:round;stroke-linejoin:round;stroke-miterlimit:4;stroke-dasharray:none;stroke-dashoffset:0;stroke-opacity:0.9882352941;paint-order:normal"
       d="m 290.1197128426228,554.5388387700103 c 2.4659759459346,-12.8234959382729 -18.1124660570404,-9.5314604659209 -18.796488437691,-10.2154828465714 -1.9160143957387,-1.9160143957389 -0.8172386277258,-9.4560414583193 -0.8172386277258,-12.2585794158856"
       id="path5787"
       inkscape:connector-curvature="0"
       transform="scale(0.2645833333333333)" />
    <path
       style="opacity:1;vector-effect:none;fill:none;fill-opacity:1;stroke:#000000;stroke-width:5;stroke-linecap:round;stroke-linejoin:round;stroke-miterlimit:4;stroke-dasharray:none;stroke-dashoffset:0;stroke-opacity:0.9882352941;paint-order:normal"
       d="m 330.164405601182,551.2698842591072 c -0.2470988239555,-22.1990446065189 -3.7109739255446,-9.692923828607 -10.6241021604341,-14.3016759851996 -1.4672477296717,-0.9781651531143 -0.4086193138628,-8.9042569409022 -0.4086193138628,-10.6241021604343"
       id="path5789"
       inkscape:connector-curvature="0"
       transform="scale(0.2645833333333333)" />
    <path
       style="opacity:1;vector-effect:none;fill:none;fill-opacity:1;stroke:#000000;stroke-width:5;stroke-linecap:round;stroke-linejoin:round;stroke-miterlimit:4;stroke-dasharray:none;stroke-dashoffset:0;stroke-opacity:0.9882352941;paint-order:normal"
       d="m 287.2593776455829,528.3872026827879 c 23.9382407468406,-4.4429686872686 14.9113950051366,11.099754709655 17.1620111822396,11.8499601020227 1.716578457382,0.5721928191269 2.9289622812537,-3.7715431666325 4.0861931386285,-4.4948124524914 3.8026010549941,-2.3766256593715 8.0427780012462,-5.547859359399 10.6241021604342,-8.9896249049831"
       id="path5791"
       inkscape:connector-curvature="0"
       transform="scale(0.2645833333333333)" />
    <path
       style="opacity:1;vector-effect:none;fill:none;fill-opacity:1;stroke:#000000;stroke-width:5;stroke-linecap:round;stroke-linejoin:round;stroke-miterlimit:4;stroke-dasharray:none;stroke-dashoffset:0;stroke-opacity:0.9882352941;paint-order:normal"
       d="m 323.2178772655136,496.5148962014857 c -1.356351413531,8.3756159618938 11.7728133039898,8.0180926811915 14.3016759851997,13.0758180436111 3.3209200006521,6.641840001304 -9.4607980865266,15.9361532406509 2.8603351970399,15.9361532406509 3.8137802627199,0 7.6275605254399,0 11.4413407881598,0"
       id="path5793"
       inkscape:connector-curvature="0"
       transform="scale(0.2645833333333333)" />
    <path
       style="opacity:1;vector-effect:none;fill:none;fill-opacity:1;stroke:#000000;stroke-width:5;stroke-linecap:round;stroke-linejoin:round;stroke-miterlimit:4;stroke-dasharray:none;stroke-dashoffset:0;stroke-opacity:0.9882352941;paint-order:normal"
       d="m 310.5506785357653,571.2922306383868 c -0.7419879879593,4.8669788834449 3.0070615500342,10.1003162386972 4.9034317663541,13.8930566713371 1.5082121987699,3.0164243975398 -4.740703176649,2.9434973314929 -5.7206703940799,4.9034317663539 -1.1714354913423,2.3428709826843 13.5083859484969,21.6687979302426 15.1189146129255,22.474062262457"
       id="path5795"
       inkscape:connector-curvature="0"
       transform="scale(0.2645833333333333)" />
    <path
       style="opacity:1;vector-effect:none;fill:none;fill-opacity:1;stroke:#000000;stroke-width:5;stroke-linecap:round;stroke-linejoin:round;stroke-miterlimit:4;stroke-dasharray:none;stroke-dashoffset:0;stroke-opacity:0.9882352941;paint-order:normal"
       d="m 347.7350360972845,574.9698044631527 c -20.5123837485351,27.156723930912 -2.1063726940628,7.6688527762701 12.6671987297483,29.829209911988 0.1998639673253,0.2997959509879 -6.1292897079427,19.3044381199379 -6.1292897079427,23.2913008901824"
       id="path5797"
       inkscape:connector-curvature="0"
       transform="scale(0.2645833333333333)" />
    <path
       style="opacity:1;vector-effect:none;fill:none;fill-opacity:1;stroke:#000000;stroke-width:5;stroke-linecap:round;stroke-linejoin:round;stroke-miterlimit:4;stroke-dasharray:none;stroke-dashoffset:0;stroke-opacity:0.9882352941;paint-order:normal"
       d="m 251.3008780256521,563.9370829888556 c 8.3458565293231,1.3230186156476 22.1351041802586,9.8068635327085 29.829209911988,9.8068635327085 0.4189641011462,0 0.9623059057763,-5.0617903045492 1.2258579415886,-5.7206703940799 1.5602739648036,-3.9006849120091 4.2195122380565,-6.2626088073712 7.3551476495311,-9.3982442188458"
       id="path5799"
       inkscape:connector-curvature="0"
       transform="scale(0.2645833333333333)" />
    <path
       style="opacity:1;vector-effect:none;fill:none;fill-opacity:1;stroke:#000000;stroke-width:5;stroke-linecap:round;stroke-linejoin:round;stroke-miterlimit:4;stroke-dasharray:none;stroke-dashoffset:0;stroke-opacity:0.9882352941;paint-order:normal"
       d="m 241.0853951790809,538.1940662154961 c -2.3298185887635,-1.3723426416501 -14.127984467403,-5.0771232841513 -16.7533918683768,-2.451715883177 -1.8085949807144,1.8085949807147 3.3848621697003,8.4650979323221 1.2258579415885,10.6241021604338 -2.0206169017371,2.0206169017372 -15.5699281856131,-1.4513647279319 -17.5706304961024,-2.4517158831769 -2.0729137767792,-1.0364568883897 -3.996500737116,-7.4249187041938 -5.3120510802171,-9.3982442188454"
       id="path5801"
       inkscape:connector-curvature="0"
       transform="scale(0.2645833333333333)" />
    <path
       style="opacity:1;vector-effect:none;fill:none;fill-opacity:1;stroke:#000000;stroke-width:5;stroke-linecap:round;stroke-linejoin:round;stroke-miterlimit:4;stroke-dasharray:none;stroke-dashoffset:0;stroke-opacity:0.9882352941;paint-order:normal"
       d="m 223.1061453691156,548.4095490620675 c 4.2716771687285,19.1482712746953 -21.6057707290484,15.0168088015598 -25.3343974594967,22.4740622624565 -1.7698386555767,3.5396773111537 13.2567468552863,17.4771071150775 14.3016759851997,21.6568236347312"
       id="path5803"
       inkscape:connector-curvature="0"
       transform="scale(0.2645833333333333)" />
    <path
       style="opacity:1;vector-effect:none;fill:none;fill-opacity:1;stroke:#000000;stroke-width:5;stroke-linecap:round;stroke-linejoin:round;stroke-miterlimit:4;stroke-dasharray:none;stroke-dashoffset:0;stroke-opacity:0.9882352941;paint-order:normal"
       d="m 213.70790115027,579.0559976017812 c 9.9863872872359,0.7627887040672 20.2743023132578,-0.2765042642945 29.829209911988,1.6344772554514"
       id="path5805"
       inkscape:connector-curvature="0"
       transform="scale(0.2645833333333333)" />
    <path
       style="opacity:1;vector-effect:none;fill:none;fill-opacity:1;stroke:#000000;stroke-width:5;stroke-linecap:round;stroke-linejoin:round;stroke-miterlimit:4;stroke-dasharray:none;stroke-dashoffset:0;stroke-opacity:0.9882352941;paint-order:normal"
       d="m 167.1252993699052,523.0751516025709 c 1.1075508207567,-6.0166628225062 -7.6208594017018,-11.7986096923904 -5.312051080217,-17.5706304961025 0.7954327463994,-1.9885818659985 2.7504069944764,-1.3752034972383 4.0861931386285,-2.0430965693144 12.9187936969706,-6.4593968484849 12.6256622851334,-13.281251889257 4.9034317663542,-26.1516360872223"
       id="path5807"
       inkscape:connector-curvature="0"
       transform="scale(0.2645833333333333)" />
    <path
       style="opacity:1;vector-effect:none;fill:none;fill-opacity:1;stroke:#000000;stroke-width:5;stroke-linecap:round;stroke-linejoin:round;stroke-miterlimit:4;stroke-dasharray:none;stroke-dashoffset:0;stroke-opacity:0.9882352941;paint-order:normal"
       d="m 187.1476457491849,541.4630207263991 c -2.7237994859085,2.7881261576251 -5.819958571961,5.0027199442351 -8.5810055911199,7.7637669633941 -20.0048307767378,20.0048307767386 11.7055343688041,11.4659986739532 5.7206703940799,29.4205905981252 -1.5502568579524,4.650770573857 -22.1671834102811,4.1378921030293 -13.484437357474,17.1620111822396"
       id="path5809"
       inkscape:connector-curvature="0"
       transform="scale(0.2645833333333333)" />
    <path
       style="opacity:1;vector-effect:none;fill:none;fill-opacity:1;stroke:#000000;stroke-width:5;stroke-linecap:round;stroke-linejoin:round;stroke-miterlimit:4;stroke-dasharray:none;stroke-dashoffset:0;stroke-opacity:0.9882352941;paint-order:normal"
       d="m 161.4046289758254,594.5835315285695 c 0.1651233619269,3.204371895323 2.6103682184489,14.3810021528358 5.7206703940798,15.9361532406507 2.5372680552859,1.2686340276431 12.6253180371122,-2.1268579545864 13.8930566713369,0.4086193138633 1.6905829630416,3.3811659260832 0,12.0512623780066 0,15.936153240651"
       id="path5811"
       inkscape:connector-curvature="0"
       transform="scale(0.2645833333333333)" />
    <path
       style="opacity:1;vector-effect:none;fill:none;fill-opacity:1;stroke:#000000;stroke-width:5;stroke-linecap:round;stroke-linejoin:round;stroke-miterlimit:4;stroke-dasharray:none;stroke-dashoffset:0;stroke-opacity:0.9882352941;paint-order:normal"
       d="m 207.5786114423273,599.0783439810608 c 0.057259518103,8.5068386613907 14.8143715717278,6.3374422532729 17.9792498099653,12.6671987297483 2.049517505665,4.0990350113302 -22.7101787987854,13.6858554799148 2.0430965693143,15.9361532406512 2.5419365354355,0.231085139585 4.8752420025879,0.6058815298527 7.3551476495313,1.2258579415883 3.8649590206861,0.9662397551715 7.5906474154659,1.7601370905561 11.4413407881597,2.8603351970403"
       id="path5813"
       inkscape:connector-curvature="0"
       transform="scale(0.2645833333333333)" />
    <path
       style="opacity:1;vector-effect:none;fill:none;fill-opacity:1;stroke:#000000;stroke-width:5;stroke-linecap:round;stroke-linejoin:round;stroke-miterlimit:4;stroke-dasharray:none;stroke-dashoffset:0;stroke-opacity:0.9882352941;paint-order:normal"
       d="m 226.3750998800184,611.3369233969463 c 1.8922073150124,-4.0877922208562 13.6193553969539,-6.879069315929 18.3878691238282,-4.4948124524914 1.5593000819652,0.7796500409827 1.5999692764087,4.3077567850813 3.6775738247656,3.2689545109025 2.7093663220644,-1.3546831610322 3.7946060534686,-14.3611855861484 4.4948124524913,-17.1620111822393"
       id="path5815"
       inkscape:connector-curvature="0"
       transform="scale(0.2645833333333333)" />
    <path
       style="opacity:1;vector-effect:none;fill:none;fill-opacity:1;stroke:#000000;stroke-width:5;stroke-linecap:round;stroke-linejoin:round;stroke-miterlimit:4;stroke-dasharray:none;stroke-dashoffset:0;stroke-opacity:0.9882352941;paint-order:normal"
       d="m 277.8611334267373,599.8955826087865 c 4.2565476273922,-8.3517108277322 1.2258579415886,-17.7705897445089 1.2258579415886,-26.1516360872223"
       id="path5817"
       inkscape:connector-curvature="0"
       transform="scale(0.2645833333333333)" />
    <path
       style="opacity:1;vector-effect:none;fill:none;fill-opacity:1;stroke:#000000;stroke-width:5;stroke-linecap:round;stroke-linejoin:round;stroke-miterlimit:4;stroke-dasharray:none;stroke-dashoffset:0;stroke-opacity:0.9882352941;paint-order:normal"
       d="m 306.0558660832739,588.4542418206267 c -4.2792021914169,7.5992846897351 -11.5552187268008,13.3035739208929 -15.1189146129254,20.4309656931423"
       id="path5819"
       inkscape:connector-curvature="0"
       transform="scale(0.2645833333333333)" />
    <path
       style="opacity:1;vector-effect:none;fill:none;fill-opacity:1;stroke:#000000;stroke-width:5;stroke-linecap:round;stroke-linejoin:round;stroke-miterlimit:4;stroke-dasharray:none;stroke-dashoffset:0;stroke-opacity:0.9882352941;paint-order:normal"
       d="m 196.1372706541675,484.6649360994632 c -3.4741032996239,8.385748530656 5.3730462451067,28.5423568055094 -1.6344772554514,35.5498803060675 -3.0202958190427,3.0202958190431 -12.5205666800249,3.5309417750425 -17.1620111822396,8.1723862772573"
       id="path5821"
       inkscape:connector-curvature="0"
       transform="scale(0.2645833333333333)" />
    <path
       style="opacity:1;vector-effect:none;fill:none;fill-opacity:1;stroke:#000000;stroke-width:5;stroke-linecap:round;stroke-linejoin:round;stroke-miterlimit:4;stroke-dasharray:none;stroke-dashoffset:0;stroke-opacity:0.9882352941;paint-order:normal"
       d="m 197.3631285957561,437.2650956913726 c 2.2172123528759,0.1769260628393 5.4793151936361,-0.055754704473 7.7637669633941,-0.8172386277257 28.4263262486947,-9.4754420828984 8.6462855808782,12.0869097538338 18.796488437691,17.1620111822397 3.6348619991647,1.8174309995821 15.2207416281809,-3.6008757501138 18.7964884376911,-4.4948124524913"
       id="path5823"
       inkscape:connector-curvature="0"
       transform="scale(0.2645833333333333)" />
    <path
       style="opacity:1;vector-effect:none;fill:none;fill-opacity:1;stroke:#000000;stroke-width:5;stroke-linecap:round;stroke-linejoin:round;stroke-miterlimit:4;stroke-dasharray:none;stroke-dashoffset:0;stroke-opacity:0.9882352941;paint-order:normal"
       d="m 223.1061453691156,454.0184875597495 c -6.7934312565757,11.5533557452721 -11.6163035620358,25.8005920150141 -14.3016759851998,39.2274541308335"
       id="path5825"
       inkscape:connector-curvature="0"
       transform="scale(0.2645833333333333)" />
    <path
       style="opacity:1;vector-effect:none;fill:none;fill-opacity:1;stroke:#000000;stroke-width:5;stroke-linecap:round;stroke-linejoin:round;stroke-miterlimit:4;stroke-dasharray:none;stroke-dashoffset:0;stroke-opacity:0.9882352941;paint-order:normal"
       d="m 170.394253880808,428.6840901002528 c -5.6539589333114,2.815513671935 -4.0651415587609,16.9471757353747 -8.5810055911198,19.205107751554 -3.0453430400026,1.5226715200011 -3.2915261120208,-8.1611004766978 -7.3551476495313,-6.1292897079427 -6.704953048902,3.3524765244506 -6.4813595677302,12.0612020178948 -12.2585794158854,15.5275339267882 -6.823422657883,4.0940535947301 -11.4358376030655,4.2132276014258 -15.5275339267883,11.032721474297"
       id="path5827"
       inkscape:connector-curvature="0"
       transform="scale(0.2645833333333333)" />
    <path
       style="opacity:1;vector-effect:none;fill:none;fill-opacity:1;stroke:#000000;stroke-width:5;stroke-linecap:round;stroke-linejoin:round;stroke-miterlimit:4;stroke-dasharray:none;stroke-dashoffset:0;stroke-opacity:0.9882352941;paint-order:normal"
       d="m 214.1165204641329,433.1789025527442 c 6.2801675975924,-6.9850325520776 -4.1205270258637,-18.7278206632207 -1.2258579415886,-24.517158831771 3.811404424048,-7.622808848096 15.1082572628964,-1.6771066555677 11.8499601020227,-14.7102952990626"
       id="path5829"
       inkscape:connector-curvature="0"
       transform="scale(0.2645833333333333)" />
    <path
       style="opacity:1;vector-effect:none;fill:none;fill-opacity:1;stroke:#000000;stroke-width:5;stroke-linecap:round;stroke-linejoin:round;stroke-miterlimit:4;stroke-dasharray:none;stroke-dashoffset:0;stroke-opacity:0.9882352941;paint-order:normal"
       d="m 340.3798884477532,469.9546408004005 c 6.8630098681396,-2.2760455075107 11.0745755886188,-12.6532473583078 19.6137270654168,-9.8068635327083 5.2145871321874,1.7381957107291 6.7751882224206,7.5264877627789 11.032721474297,3.2689545109028"
       id="path5831"
       inkscape:connector-curvature="0"
       transform="scale(0.2645833333333333)" />
    <path
       style="opacity:1;vector-effect:none;fill:none;fill-opacity:1;stroke:#000000;stroke-width:5;stroke-linecap:round;stroke-linejoin:round;stroke-miterlimit:4;stroke-dasharray:none;stroke-dashoffset:0;stroke-opacity:0.9882352941;paint-order:normal"
       d="m 255.7956904781435,464.6425897201835 c 10.335846693019,2.4998689943053 18.5955545347129,13.3805946520317 29.0119712842623,8.172386277257"
       id="path5833"
       inkscape:connector-curvature="0"
       transform="scale(0.2645833333333333)" />
    <path
       style="opacity:1;vector-effect:none;fill:none;fill-opacity:1;stroke:#000000;stroke-width:5;stroke-linecap:round;stroke-linejoin:round;stroke-miterlimit:4;stroke-dasharray:none;stroke-dashoffset:0;stroke-opacity:0.9882352941;paint-order:normal"
       d="m 250.8922587117893,519.397577777805 c 4.4533975242245,-9.9488817481467 16.2134237727368,-16.899313618685 20.4309656931425,-25.3343974594965 1.1237952148422,-2.2475904296846 0.2859642261102,-5.8226519885611 1.2258579415885,-8.172386277257"
       id="path5835"
       inkscape:connector-curvature="0"
       transform="scale(0.2645833333333333)" />
    <path
       style="opacity:1;vector-effect:none;fill:none;fill-opacity:1;stroke:#000000;stroke-width:5;stroke-linecap:round;stroke-linejoin:round;stroke-miterlimit:4;stroke-dasharray:none;stroke-dashoffset:0;stroke-opacity:0.9882352941;paint-order:normal"
       d="m 246.8060655731608,474.0408339390291 c -0.7715709583092,3.9114707131264 -4.8761190065757,7.3278348897528 -7.7637669633941,10.2154828465711 -5.1692175185403,5.1692175185403 13.8918378327253,15.9341218429652 17.5706304961025,22.0654429485939"
       id="path5837"
       inkscape:connector-curvature="0"
       transform="scale(0.2645833333333333)" />
    <path
       style="opacity:1;vector-effect:none;fill:none;fill-opacity:1;stroke:#000000;stroke-width:5;stroke-linecap:round;stroke-linejoin:round;stroke-miterlimit:4;stroke-dasharray:none;stroke-dashoffset:0;stroke-opacity:0.9882352941;paint-order:normal"
       d="m 237.8164406681781,486.7080326687774 c -3.6884388800703,9.7232725527164 -11.9531753994076,15.5275339267882 -22.0654429485938,15.5275339267882"
       id="path5839"
       inkscape:connector-curvature="0"
       transform="scale(0.2645833333333333)" />
    <path
       style="opacity:1;vector-effect:none;fill:none;fill-opacity:1;stroke:#000000;stroke-width:5;stroke-linecap:round;stroke-linejoin:round;stroke-miterlimit:4;stroke-dasharray:none;stroke-dashoffset:0;stroke-opacity:0.9882352941;paint-order:normal"
       d="m 211.256185267093,522.2579129748452 c -1.1904882523198,-7.7057094115937 -9.8514969192363,-13.5737041305296 -13.0758180436112,-20.0223463792796"
       id="path5841"
       inkscape:connector-curvature="0"
       transform="scale(0.2645833333333333)" />
    <path
       style="opacity:1;vector-effect:none;fill:none;fill-opacity:1;stroke:#000000;stroke-width:5;stroke-linecap:round;stroke-linejoin:round;stroke-miterlimit:4;stroke-dasharray:none;stroke-dashoffset:0;stroke-opacity:0.9882352941;paint-order:normal"
       d="m 214.1165204641329,501.8269472817028 c 0.7953255107111,0.2790982498742 -0.5026921718188,3.3321548809003 0,4.0861931386285 2.8976391501063,4.3464587251594 7.2392036054872,7.3855412403965 10.2154828465712,11.8499601020226 3.0554343097998,4.5831514647 2.9434585742267,10.3817296009446 5.312051080217,15.1189146129253"
       id="path5843"
       inkscape:connector-curvature="0"
       transform="scale(0.2645833333333333)" />
    <path
       style="opacity:1;vector-effect:none;fill:none;fill-opacity:1;stroke:#000000;stroke-width:5;stroke-linecap:round;stroke-linejoin:round;stroke-miterlimit:4;stroke-dasharray:none;stroke-dashoffset:0;stroke-opacity:0.9882352941;paint-order:normal"
       d="m 248.0319235147493,610.9283040830835 c 6.7177377405028,-0.7538378582083 10.045306930468,3.0192974622126 14.7102952990626,6.1292897079423 9.8744226564996,6.5829484376667 6.8821153981439,15.147766155005 12.2585794158855,24.1085395179083"
       id="path5845"
       inkscape:connector-curvature="0"
       transform="scale(0.2645833333333333)" />
    <path
       style="opacity:1;vector-effect:none;fill:none;fill-opacity:1;stroke:#000000;stroke-width:5;stroke-linecap:round;stroke-linejoin:round;stroke-miterlimit:4;stroke-dasharray:none;stroke-dashoffset:0;stroke-opacity:0.9882352941;paint-order:normal"
       d="m 302.7869115723711,618.2834517326148 c -1.1551410975906,7.1636972515424 -4.9034317663542,12.9813744261586 -4.9034317663542,20.4309656931423"
       id="path5847"
       inkscape:connector-curvature="0"
       transform="scale(0.2645833333333333)" />
    <path
       style="opacity:1;vector-effect:none;fill:none;fill-opacity:1;stroke:#000000;stroke-width:5;stroke-linecap:round;stroke-linejoin:round;stroke-miterlimit:4;stroke-dasharray:none;stroke-dashoffset:0;stroke-opacity:0.9882352941;paint-order:normal"
       d="m 348.5522747250102,574.9698044631527 c 8.2260079941441,-3.0492949379875 14.6664941190234,-7.3551476495313 23.2913008901824,-7.3551476495313"
       id="path5849"
       inkscape:connector-curvature="0"
       transform="scale(0.2645833333333333)" />
    <path
       style="opacity:1;vector-effect:none;fill:none;fill-opacity:1;stroke:#000000;stroke-width:5;stroke-linecap:round;stroke-linejoin:round;stroke-miterlimit:4;stroke-dasharray:none;stroke-dashoffset:0;stroke-opacity:0.9882352941;paint-order:normal"
       d="m 148.737430246077,532.4733958214161 c -8.2539712122653,-3.070725348986 -18.5173094464003,-6.6242025701866 -25.7430167733594,-11.4413407881599"
       id="path5851"
       inkscape:connector-curvature="0"
       transform="scale(0.2645833333333333)" />
    <path
       style="opacity:1;vector-effect:none;fill:none;fill-opacity:1;stroke:#000000;stroke-width:5;stroke-linecap:round;stroke-linejoin:round;stroke-miterlimit:4;stroke-dasharray:none;stroke-dashoffset:0;stroke-opacity:0.9882352941;paint-order:normal"
       d="m 169.9856345669452,561.8939864195415 c -6.1434078540907,2.6479672871758 -13.6674953067913,-3.4803480703721 -19.2051077515539,-1.6344772554513 -0.759284626002,0.253094875334 -1.3741768807441,7.5398040922906 -1.6344772554514,8.5810055911198 -2.7235559470791,10.8942237883165 -11.8932695226694,8.9607519578849 -19.2051077515539,4.0861931386285 -2.1068108112263,-1.4045405408176 -5.0794996294167,-0.7984107651464 -6.9465283356684,-2.0430965693145"
       id="path5853"
       inkscape:connector-curvature="0"
       transform="scale(0.2645833333333333)" />
    <path
       style="opacity:1;vector-effect:none;fill:none;fill-opacity:1;stroke:#000000;stroke-width:5;stroke-linecap:round;stroke-linejoin:round;stroke-miterlimit:4;stroke-dasharray:none;stroke-dashoffset:0;stroke-opacity:0.9882352941;paint-order:normal"
       d="m 153.2322426985684,612.9714006523977 c -7.6675541338536,-3.7174748770559 -17.0948676157194,-8.172386277257 -26.1516360872224,-8.172386277257"
       id="path5855"
       inkscape:connector-curvature="0"
       transform="scale(0.2645833333333333)" />
    <path
       style="opacity:1;vector-effect:none;fill:none;fill-opacity:1;stroke:#000000;stroke-width:5;stroke-linecap:round;stroke-linejoin:round;stroke-miterlimit:4;stroke-dasharray:none;stroke-dashoffset:0;stroke-opacity:0.9882352941;paint-order:normal"
       d="m 319.1316841268851,422.1461810784473 c 3.2271947313793,-1.5220971371961 -2.0104029945807,-20.8722785817388 -0.8172386277257,-22.065442948594 3.6866808555337,-3.6866808555341 5.312051080217,1.4342403679307 5.312051080217,-9.8068635327083"
       id="path5857"
       inkscape:connector-curvature="0"
       transform="scale(0.2645833333333333)" />
  </g>
</svg>
