<?xml version="1.0" encoding="UTF-8" standalone="no"?>
<!-- Created with Inkscape (http://www.inkscape.org/) -->

<svg
   xmlns:dc="http://purl.org/dc/elements/1.1/"
   xmlns:cc="http://creativecommons.org/ns#"
   xmlns:rdf="http://www.w3.org/1999/02/22-rdf-syntax-ns#"
   xmlns:svg="http://www.w3.org/2000/svg"
   xmlns="http://www.w3.org/2000/svg"
   xmlns:sodipodi="http://sodipodi.sourceforge.net/DTD/sodipodi-0.dtd"
   xmlns:inkscape="http://www.inkscape.org/namespaces/inkscape"
   width="140"
   height="140"
   viewBox="0 0 37.04166723860636 37.04166723860636"
   version="1.1"
   id="svg8"
   inkscape:version="0.92.1 r15371"
   sodipodi:docname="crack.svg">
  <defs
     id="defs2" />
  <sodipodi:namedview
     id="base"
     pagecolor="#ffffff"
     bordercolor="#666666"
     borderopacity="1.0"
     inkscape:pageopacity="0.0"
     inkscape:pageshadow="2"
     inkscape:zoom="5.656854242030468"
     inkscape:cx="32.900742970743"
     inkscape:cy="68.87600274302063"
     inkscape:document-units="mm"
     inkscape:current-layer="layer1"
     showgrid="false"
     units="px"
     inkscape:snap-global="false"
     inkscape:window-width="1920"
     inkscape:window-height="1027"
     inkscape:window-x="-8"
     inkscape:window-y="-8"
     inkscape:window-maximized="1" />
  <metadata
     id="metadata5">
    <rdf:RDF>
      <cc:Work
         rdf:about="">
        <dc:format>image/svg+xml</dc:format>
        <dc:type
           rdf:resource="http://purl.org/dc/dcmitype/StillImage" />
        <dc:title></dc:title>
      </cc:Work>
    </rdf:RDF>
  </metadata>
  <g
     inkscape:groupmode="layer"
     id="layer2"
     inkscape:label="crack0"
     style="display:inline;opacity:0.324">
    <path
       style="opacity:1;vector-effect:none;fill:none;fill-opacity:1;stroke:#505050;stroke-width:2;stroke-linecap:round;stroke-linejoin:round;stroke-miterlimit:4;stroke-dasharray:none;stroke-dashoffset:0;stroke-opacity:1;paint-order:normal"
       d="m 120.915259742398,19.43829364866164 c -0.5626515488572,5.34239593438018 0.9221026994191,11.38298725078852 -4.2426406927157,13.96535894685593 -2.0185033024929,1.00925165124643 -4.6518703634888,0.32327828710553 -6.8942911256631,0.8838834776491"
       id="path4538"
       inkscape:connector-curvature="0"
       transform="scale(0.2645833333333333)" />
    <path
       style="opacity:1;vector-effect:none;fill:none;fill-opacity:1;stroke:#505050;stroke-width:2;stroke-linecap:round;stroke-linejoin:round;stroke-miterlimit:4;stroke-dasharray:none;stroke-dashoffset:0;stroke-opacity:1;paint-order:normal"
       d="m 119.8545995692191,31.10555555362987 c -2.8591203745936,3.66806914853146 -2.4748737374175,5.75648132912838 -2.4748737374175,10.42982503625947"
       id="path4540"
       inkscape:connector-curvature="0"
       transform="scale(0.2645833333333333)" />
    <path
       style="opacity:1;vector-effect:none;fill:none;fill-opacity:1;stroke:#505050;stroke-width:2;stroke-linecap:round;stroke-linejoin:round;stroke-miterlimit:4;stroke-dasharray:none;stroke-dashoffset:0;stroke-opacity:1;paint-order:normal"
       d="m 52.14912518129739,19.9686237352511 c 1.10776342260087,-6.28858921659858 15.55392254673825,-2.87201463738805 20.32931998592949,-4.06586399718589 3.11383040185341,-0.77845760046336 5.82247001179329,-3.26478839695627 8.48528138543144,-4.59619408377537"
       id="path4542"
       inkscape:connector-curvature="0"
       transform="scale(0.2645833333333333)" />
    <path
       style="opacity:1;vector-effect:none;fill:none;fill-opacity:1;stroke:#505050;stroke-width:2;stroke-linecap:round;stroke-linejoin:round;stroke-miterlimit:4;stroke-dasharray:none;stroke-dashoffset:0;stroke-opacity:1;paint-order:normal"
       d="m 69.47324134321991,16.25631312912485 c 2.52310896170214,3.02792542967238 4.60347973221381,4.59983690799457 8.13172799437177,6.36396103907358"
       id="path4544"
       inkscape:connector-curvature="0"
       transform="scale(0.2645833333333333)" />
    <path
       style="opacity:1;vector-effect:none;fill:none;fill-opacity:1;stroke:#505050;stroke-width:2;stroke-linecap:round;stroke-linejoin:round;stroke-miterlimit:4;stroke-dasharray:none;stroke-dashoffset:0;stroke-opacity:1;paint-order:normal"
       d="m 23.51130050546628,13.07433260958806 c -1.44081200991294,4.69559505938424 -1.47351494041789,9.09392835158787 3.18198051953679,12.19759199155769 1.30275254037091,0.86850169358063 3.48485030884039,0.60573957860725 4.41941738824554,2.4748737374175 0.57585795565807,1.15171591131612 0.17677669552982,3.3005516275162 0.17677669552982,4.59619408377538"
       id="path4546"
       inkscape:connector-curvature="0"
       transform="scale(0.2645833333333333)" />
    <path
       style="opacity:1;vector-effect:none;fill:none;fill-opacity:1;stroke:#505050;stroke-width:2;stroke-linecap:round;stroke-linejoin:round;stroke-miterlimit:4;stroke-dasharray:none;stroke-dashoffset:0;stroke-opacity:1;paint-order:normal"
       d="m 30.93592171771879,27.21646825197379 c 3.5259850975161,-0.40619701331873 6.54173513919514,1.23743686870876 9.89949494967001,1.23743686870876"
       id="path4548"
       inkscape:connector-curvature="0"
       transform="scale(0.2645833333333333)" />
    <path
       style="opacity:1;vector-effect:none;fill:none;fill-opacity:1;stroke:#505050;stroke-width:2;stroke-linecap:round;stroke-linejoin:round;stroke-miterlimit:4;stroke-dasharray:none;stroke-dashoffset:0;stroke-opacity:1;paint-order:normal"
       d="m 44.01739718692559,74.06229256737653 c -0.23947499691863,2.63582164245491 0.66698387174602,4.96603252887174 1.23743686870875,7.24784451672268"
       id="path4554"
       inkscape:connector-curvature="0"
       transform="scale(0.2645833333333333)" />
    <path
       style="opacity:1;vector-effect:none;fill:none;fill-opacity:1;stroke:#505050;stroke-width:2;stroke-linecap:round;stroke-linejoin:round;stroke-miterlimit:4;stroke-dasharray:none;stroke-dashoffset:0;stroke-opacity:1;paint-order:normal"
       d="m 91.21677489338796,73.35518578525723 c -1.93556529444787,1.93653490410172 -7.48858861525839,-1.5270228567625 -9.19238816755072,0.17677669552981 C 81.226841377062,74.3295078295623 78.4888528152408,85.31130664202537 78.4888528152408,86.9669913410535"
       id="path4556"
       inkscape:connector-curvature="0"
       transform="scale(0.2645833333333333)" />
  </g>
  <g
     inkscape:groupmode="layer"
     id="layer3"
     inkscape:label="crack1"
     style="opacity:0.417">
    <path
       style="opacity:1;vector-effect:none;fill:none;fill-opacity:1;stroke:#505050;stroke-width:2;stroke-linecap:round;stroke-linejoin:round;stroke-miterlimit:4;stroke-dasharray:none;stroke-dashoffset:0;stroke-opacity:1;paint-order:normal"
       d="m 121.0920364379278,18.90796356207217 c -1.4769957376104,9.01488749237217 -0.8720865425761,11.48458674190192 -9.3691648630805,15.73312590215413 -1.6867326236148,0.8433663118074 -4.5606503992626,-0.60110354660367 -6.3639610390736,0 -1.1399783813292,0.37999279377641 -1.7908051442083,2.49791192632753 -2.4748737374175,3.18198051953679 -1.4120179401045,1.41201794010452 -7.8052098790438,1.76100813636532 -9.89949494967004,1.23743686870877 -0.65383002741589,-0.16345750685398 -2.76817908690468,-2.80702197155717 -3.18198051953678,-3.35875721506662"
       id="path4559"
       inkscape:connector-curvature="0"
       transform="scale(0.2645833333333333)" />
    <path
       style="opacity:1;vector-effect:none;fill:none;fill-opacity:1;stroke:#505050;stroke-width:2;stroke-linecap:round;stroke-linejoin:round;stroke-miterlimit:4;stroke-dasharray:none;stroke-dashoffset:0;stroke-opacity:1;paint-order:normal"
       d="m 103.060813493886,37.64629328823327 c 0.6166210324949,3.72254934693503 0.8559988919436,7.28519828372446 1.5909902597684,10.96015512284895"
       id="path4561"
       inkscape:connector-curvature="0"
       transform="scale(0.2645833333333333)" />
    <path
       style="opacity:1;vector-effect:none;fill:none;fill-opacity:1;stroke:#505050;stroke-width:2;stroke-linecap:round;stroke-linejoin:round;stroke-miterlimit:4;stroke-dasharray:none;stroke-dashoffset:0;stroke-opacity:1;paint-order:normal"
       d="m 120.3849296558085,26.68613816538432 c -3.6500093349056,5.66491850809409 -1.1136489698226,13.84157104796987 -5.6568542569542,18.38477633510147"
       id="path4563"
       inkscape:connector-curvature="0"
       transform="scale(0.2645833333333333)" />
    <path
       style="opacity:1;vector-effect:none;fill:none;fill-opacity:1;stroke:#505050;stroke-width:2;stroke-linecap:round;stroke-linejoin:round;stroke-miterlimit:4;stroke-dasharray:none;stroke-dashoffset:0;stroke-opacity:1;paint-order:normal"
       d="m 90.86322150232831,72.82485569866777 c -1.51209181452424,1.33697759059446 -3.52999999464444,0.88019420034779 -5.12652417036483,1.94454365082804 -1.2592855300734,0.83952368671561 -3.79011835749803,-1.15962911733699 -4.59619408377536,-0.35355339105965 -0.98161938321351,0.98161938321353 -0.1235641856133,3.27893845019186 -0.88388347764909,4.41941738824555 -6.27113179282411,9.406697689236 3.5258606075068,20.7785167020712 -6.01040764801394,27.93071789371179"
       id="path4565"
       inkscape:connector-curvature="0"
       transform="scale(0.2645833333333333)" />
    <path
       style="opacity:1;vector-effect:none;fill:none;fill-opacity:1;stroke:#505050;stroke-width:2;stroke-linecap:round;stroke-linejoin:round;stroke-miterlimit:4;stroke-dasharray:none;stroke-dashoffset:0;stroke-opacity:1;paint-order:normal"
       d="m 43.66384379586595,73.70873917631688 c -0.58855085664998,6.49751532989191 2.28102356687738,11.10278486835828 4.949747474835,16.44023268427341 0.84528049195626,1.69056098391249 2.91414696533667,2.90880994352588 3.53553391059644,4.7729707793052 0.68787879278248,2.06363637834735 -0.88388347764909,4.49112890230813 -0.88388347764909,6.54073773460341"
       id="path4567"
       inkscape:connector-curvature="0"
       transform="scale(0.2645833333333333)" />
    <path
       style="opacity:1;vector-effect:none;fill:none;fill-opacity:1;stroke:#505050;stroke-width:2;stroke-linecap:round;stroke-linejoin:round;stroke-miterlimit:4;stroke-dasharray:none;stroke-dashoffset:0;stroke-opacity:1;paint-order:normal"
       d="M 50.91168831258863,91.91673881588852 C 52.34041284580177,91.07918217240225 54.096895994212,90.3257485561201 55.86143578742364,90.3257485561201"
       id="path4569"
       inkscape:connector-curvature="0"
       transform="scale(0.2645833333333333)" />
    <path
       style="opacity:1;vector-effect:none;fill:none;fill-opacity:1;stroke:#505050;stroke-width:2;stroke-linecap:round;stroke-linejoin:round;stroke-miterlimit:4;stroke-dasharray:none;stroke-dashoffset:0;stroke-opacity:1;paint-order:normal"
       d="m 22.98097041887681,12.01367243640914 c -3.10112946276692,17.20083065759965 5.78719541862887,8.56918701325104 9.36916486308056,15.73312590215411 1.36770802684324,2.73541605368639 -2.32991239636799,5.94677693905328 -0.88388347764912,8.83883477649109 0.43405718483763,0.86811436967529 1.50962054209795,2.46083647722862 0.88388347764912,3.71231060612624 -1.17124071591089,2.34248143182167 -3.60675374274473,4.56185705254212 -4.77297077930519,6.89429112566305"
       id="path4571"
       inkscape:connector-curvature="0"
       transform="scale(0.2645833333333333)" />
    <path
       style="opacity:1;vector-effect:none;fill:none;fill-opacity:1;stroke:#505050;stroke-width:2;stroke-linecap:round;stroke-linejoin:round;stroke-miterlimit:4;stroke-dasharray:none;stroke-dashoffset:0;stroke-opacity:1;paint-order:normal"
       d="m 31.64302849983807,25.6254779922054 c 1.9800216615396,3.11364439959299 8.89441646226957,1.97233449371724 12.02081529602788,3.53553391059643"
       id="path4573"
       inkscape:connector-curvature="0"
       transform="scale(0.2645833333333333)" />
    <path
       style="opacity:1;vector-effect:none;fill:none;fill-opacity:1;stroke:#505050;stroke-width:2;stroke-linecap:round;stroke-linejoin:round;stroke-miterlimit:4;stroke-dasharray:none;stroke-dashoffset:0;stroke-opacity:1;paint-order:normal"
       d="m 51.44201839917811,19.79184703972129 c 4.5475760298304,-6.39541135729678 14.22281979410543,-1.32325715112522 20.85965007251893,-3.53553391059644 3.35963782277177,-1.11987927425729 6.28084293932592,-4.50885978561395 9.36916486308051,-5.12652417036482"
       id="path4575"
       inkscape:connector-curvature="0"
       transform="scale(0.2645833333333333)" />
    <path
       style="opacity:1;vector-effect:none;fill:none;fill-opacity:1;stroke:#505050;stroke-width:2;stroke-linecap:round;stroke-linejoin:round;stroke-miterlimit:4;stroke-dasharray:none;stroke-dashoffset:0;stroke-opacity:1;paint-order:normal"
       d="m 69.11968795216026,16.43308982465467 c 4.85234532157935,3.364522527871 11.50003401386614,11.31052557909935 18.38477633510145,9.01561147202091 3.54006548810943,-1.18002182936982 1.97220685640552,-7.82928457858896 6.01040764801394,-8.83883477649108"
       id="path4577"
       inkscape:connector-curvature="0"
       transform="scale(0.2645833333333333)" />
  </g>
  <g
     inkscape:groupmode="layer"
     id="layer4"
     inkscape:label="crack2"
     style="display:inline;opacity:0.1989999809">
    <path
       style="opacity:1;vector-effect:none;fill:none;fill-opacity:1;stroke:#505050;stroke-width:2;stroke-linecap:round;stroke-linejoin:round;stroke-miterlimit:4;stroke-dasharray:none;stroke-dashoffset:0;stroke-opacity:1;paint-order:normal"
       d="m 22.62741702781717,11.8368957408793 c -6.04153088328791,12.51068068329651 5.63943851058589,11.27887702117206 8.83883477649108,17.67766955298218 1.11594763075888,2.23189526151766 -1.04884586690547,5.85725956503106 0,7.95495129884196 1.16248399190295,2.32496798380585 5.5556074264158,1.17395497066589 6.89429112566305,3.1819805195368 4.47559351746768,6.71339027620163 -2.28417028915811,8.40385641403146 7.42462121225252,13.25825216473662"
       id="path4580"
       inkscape:connector-curvature="0"
       transform="scale(0.2645833333333333)" />
    <path
       style="opacity:1;vector-effect:none;fill:none;fill-opacity:1;stroke:#505050;stroke-width:2;stroke-linecap:round;stroke-linejoin:round;stroke-miterlimit:4;stroke-dasharray:none;stroke-dashoffset:0;stroke-opacity:1;paint-order:normal"
       d="M 31.99658189089771,37.11596320164381 C 31.34564138517743,40.83444491986674 29.12734845907463,43.75871669461202 27.753941198182,47.19223484684363"
       id="path4582"
       inkscape:connector-curvature="0"
       transform="scale(0.2645833333333333)" />
    <path
       style="opacity:1;vector-effect:none;fill:none;fill-opacity:1;stroke:#505050;stroke-width:2;stroke-linecap:round;stroke-linejoin:round;stroke-miterlimit:4;stroke-dasharray:none;stroke-dashoffset:0;stroke-opacity:1;paint-order:normal"
       d="m 29.52170815348021,26.15580807879486 c 4.72966032608858,-0.30669893303735 8.49931798274809,2.12132034635786 13.25825216473663,2.12132034635786"
       id="path4584"
       inkscape:connector-curvature="0"
       transform="scale(0.2645833333333333)" />
    <path
       style="opacity:1;vector-effect:none;fill:none;fill-opacity:1;stroke:#505050;stroke-width:2;stroke-linecap:round;stroke-linejoin:round;stroke-miterlimit:4;stroke-dasharray:none;stroke-dashoffset:0;stroke-opacity:1;paint-order:normal"
       d="M 40.65863997185898,49.84388527979097 C 38.00353934443542,51.75900114070828 28.89603963970076,57.88027484697273 33.41079545513629,62.3950306624083"
       id="path4586"
       inkscape:connector-curvature="0"
       transform="scale(0.2645833333333333)" />
    <path
       style="opacity:1;vector-effect:none;fill:none;fill-opacity:1;stroke:#505050;stroke-width:2;stroke-linecap:round;stroke-linejoin:round;stroke-miterlimit:4;stroke-dasharray:none;stroke-dashoffset:0;stroke-opacity:1;paint-order:normal"
       d="m 51.79557179023775,19.9686237352511 c 0.97526738283998,-8.97630606402433 14.34416505237549,0.0420904222033 18.9151064216909,-3.00520382400697 2.39672579034507,-1.59781719356336 8.34908411090863,-4.49824395065883 11.49048520943842,-5.12652417036483"
       id="path4590"
       inkscape:connector-curvature="0"
       transform="scale(0.2645833333333333)" />
    <path
       style="opacity:1;vector-effect:none;fill:none;fill-opacity:1;stroke:#505050;stroke-width:2;stroke-linecap:round;stroke-linejoin:round;stroke-miterlimit:4;stroke-dasharray:none;stroke-dashoffset:0;stroke-opacity:1;paint-order:normal"
       d="m 70.357124820869,16.43308982465467 c 2.09620911425577,1.68198489394517 2.49719439993116,4.44173805075913 4.24264069271571,6.18718434354376 1.85355410658707,1.85355410658713 10.43551116950556,4.23979762609271 13.25825216473665,2.82842712847714 2.43977772718507,-1.21988886359256 1.90557256372581,-7.58191236423112 6.18718434354373,-9.72271825414018 1.46844900032279,-0.73422450016142 7.5834613689577,-1.68834687694557 9.1923881675507,-0.88388347764911 2.2312364981523,1.11561824907605 2.2089529429787,4.2426406927157 5.4800775614245,4.2426406927157"
       id="path4592"
       inkscape:connector-curvature="0"
       transform="scale(0.2645833333333333)" />
    <path
       style="opacity:1;vector-effect:none;fill:none;fill-opacity:1;stroke:#505050;stroke-width:2;stroke-linecap:round;stroke-linejoin:round;stroke-miterlimit:4;stroke-dasharray:none;stroke-dashoffset:0;stroke-opacity:1;paint-order:normal"
       d="m 121.2688131334576,19.08474025760199 c 0.3952512809307,6.47297431859285 -2.3618680282367,13.88759909681584 -9.1923881675507,15.02601912003485 -2.2820506247612,0.38034177079355 -4.9985656180818,-0.38554302913036 -7.2478445167227,0.17677669552983 -1.4736417610017,0.36841044025041 -2.9786949009341,2.97869490093413 -4.0658639971859,4.06586399718588 -0.79981353459156,0.79981353459159 -2.43370575110326,0.44395919720341 -3.35875721506657,1.06066017317893 -4.85994648439029,3.23996432292674 -6.34178665829134,-6.72490589039387 -11.13693181837877,-5.12652417036481 -2.26517419315435,0.75505806438474 -1.62604425688313,2.86348112559197 -2.82842712847714,4.06586399718588 -0.80894110091589,0.80894110091583 -1.97852738728375,2.25725529218063 -2.29809704188769,3.53553391059644"
       id="path4594"
       inkscape:connector-curvature="0"
       transform="scale(0.2645833333333333)" />
    <path
       style="opacity:1;vector-effect:none;fill:none;fill-opacity:1;stroke:#505050;stroke-width:2;stroke-linecap:round;stroke-linejoin:round;stroke-miterlimit:4;stroke-dasharray:none;stroke-dashoffset:0;stroke-opacity:1;paint-order:normal"
       d="m 104.8285804491842,34.6410894642263 c -2.8067800910515,4.1091943956187 -1.9555750568816,11.64519909286106 0.1767766955299,15.90990259768395 1.1255730221532,2.25114604430638 -0.8026767284876,6.07725119996876 0,8.48528138543144 0.2970626771903,0.89118803157095 1.4349338002117,1.98598412277435 1.944543650828,3.00520382400697"
       id="path4596"
       inkscape:connector-curvature="0"
       transform="scale(0.2645833333333333)" />
    <path
       style="opacity:1;vector-effect:none;fill:none;fill-opacity:1;stroke:#505050;stroke-width:2;stroke-linecap:round;stroke-linejoin:round;stroke-miterlimit:4;stroke-dasharray:none;stroke-dashoffset:0;stroke-opacity:1;paint-order:normal"
       d="m 104.4750270581246,48.42967171555239 c 2.0793895846904,9.21413227328017 -6.39714953239654,3.34792298615099 -7.77817460331215,10.25304834072966"
       id="path4598"
       inkscape:connector-curvature="0"
       transform="scale(0.2645833333333333)" />
    <path
       style="opacity:1;vector-effect:none;fill:none;fill-opacity:1;stroke:#505050;stroke-width:2;stroke-linecap:round;stroke-linejoin:round;stroke-miterlimit:4;stroke-dasharray:none;stroke-dashoffset:0;stroke-opacity:1;paint-order:normal"
       d="m 90.15611472020903,72.47130230760812 c -1.8367888590185,0.83136137933984 -7.12876518550391,-1.35651619992754 -8.48528138543145,0 -2.15102286493928,2.15102286493928 -0.81279174831562,3.32225872259608 -1.7677669552982,6.18718434354375 -0.94658182467366,2.83974547402096 -1.0479064257612,6.6920069352978 -2.2980970418877,9.19238816755072 -2.1864004919686,4.37280098393711 2.17092983753524,11.76962436373208 -0.70710678211927,16.0866792932138 -1.21047697239446,1.8157154585916 -4.18817086938401,2.5427107862839 -5.12652417036483,4.4194173882455 -1.75454755393156,3.5090951078631 -4.20270417860347,7.0311313070806 -7.07106782119287,9.89949494967"
       id="path4602"
       inkscape:connector-curvature="0"
       transform="scale(0.2645833333333333)" />
    <path
       style="opacity:1;vector-effect:none;fill:none;fill-opacity:1;stroke:#505050;stroke-width:2;stroke-linecap:round;stroke-linejoin:round;stroke-miterlimit:4;stroke-dasharray:none;stroke-dashoffset:0;stroke-opacity:1;paint-order:normal"
       d="m 43.3102904048063,75.12295274055546 c 1.52788115766792,5.81812846521292 2.931006179514,11.34208992045235 5.48007756142448,16.44023268427341 0.47755136623203,0.95510273246407 2.4349313358383,1.37427116265934 3.18198051953678,2.12132034635786 1.41997668722749,1.41997668722752 -0.8838834776491,7.79219843469957 -0.8838834776491,9.54594155861037"
       id="path4604"
       inkscape:connector-curvature="0"
       transform="scale(0.2645833333333333)" />
    <path
       style="opacity:1;vector-effect:none;fill:none;fill-opacity:1;stroke:#505050;stroke-width:2;stroke-linecap:round;stroke-linejoin:round;stroke-miterlimit:4;stroke-dasharray:none;stroke-dashoffset:0;stroke-opacity:1;paint-order:normal"
       d="m 50.02780483493953,92.44706890247798 c 2.11664705581219,-3.53144558838321 7.68238283179349,0.0478958857593 10.60660173178929,-1.41421356423857 1.65872667599298,-0.82936333799651 2.26169711935903,-1.41421356423858 4.77297077930519,-1.41421356423858"
       id="path4606"
       inkscape:connector-curvature="0"
       transform="scale(0.2645833333333333)" />
    <path
       style="opacity:1;vector-effect:none;fill:none;fill-opacity:1;stroke:#505050;stroke-width:2;stroke-linecap:round;stroke-linejoin:round;stroke-miterlimit:4;stroke-dasharray:none;stroke-dashoffset:0;stroke-opacity:1;paint-order:normal"
       d="m 121.0920364379278,20.32217712631075 c -0.075014124659,2.61442299539824 0.2897574481125,5.31791199920631 -0.5303300865894,7.77817460331215 -0.6998903193758,2.09967095812723 -2.1105540561027,3.66924544510569 -2.6516504329474,5.83363095248412 -0.5664128667743,2.26565146709735 0.3272629932575,5.10386181710537 -0.5303300865894,7.24784451672269 -1.0046787042726,2.51169676068146 -3.5861124033019,4.26768191012913 -2.4748737374175,7.60139790778234 0.5700744344689,1.71022330340683 3.1929140740378,1.61285736877052 3.8890873016561,3.00520382400697 0.825220777028,1.65044155405598 0.2876768523831,16.46914250399882 -0.3535533910597,17.3241161619225"
       id="path4608"
       inkscape:connector-curvature="0"
       transform="scale(0.2645833333333333)" />
  </g>
  <g
     inkscape:groupmode="layer"
     id="layer5"
     inkscape:label="crack3"
     style="opacity:0.099">
    <path
       style="opacity:1;vector-effect:none;fill:none;fill-opacity:1;stroke:#505050;stroke-width:2;stroke-linecap:round;stroke-linejoin:round;stroke-miterlimit:4;stroke-dasharray:none;stroke-dashoffset:0;stroke-opacity:1;paint-order:normal"
       d="m 51.61879509470792,20.32217712631075 c 0.8880033390815,-7.09741041320407 11.84935011543144,-1.5338351995696 16.26345598874357,-3.00520382400697 3.6884519160147,-1.2294839720049 6.24770202421439,-3.30062770763695 9.54594155861038,-4.94974747483501 1.3469266277215,-0.67346331386078 3.26845155848248,-0.0432355194728 4.59619408377537,-0.70710678211928"
       id="path4611"
       inkscape:connector-curvature="0"
       transform="scale(0.2645833333333333)" />
    <path
       style="opacity:1;vector-effect:none;fill:none;fill-opacity:1;stroke:#505050;stroke-width:2;stroke-linecap:round;stroke-linejoin:round;stroke-miterlimit:4;stroke-dasharray:none;stroke-dashoffset:0;stroke-opacity:1;paint-order:normal"
       d="m 70.71067821192865,16.43308982465467 c 4.37441813860555,3.05685044698657 11.56607782687019,12.51334907390159 18.20799963957164,9.19238816755073 1.85098280969171,-0.9254914048459 2.30892373385873,-7.08189451316394 4.06586399718587,-8.83883477649108 1.42237925245075,-1.42237925245074 4.07249345045291,-1.52293136286326 6.01040764801395,-2.29809704188769 5.27624723807769,-2.11049889523108 5.62686527039529,4.59619408377535 9.89949494966999,4.59619408377535"
       id="path4613"
       inkscape:connector-curvature="0"
       transform="scale(0.2645833333333333)" />
    <path
       style="opacity:1;vector-effect:none;fill:none;fill-opacity:1;stroke:#505050;stroke-width:2;stroke-linecap:round;stroke-linejoin:round;stroke-miterlimit:4;stroke-dasharray:none;stroke-dashoffset:0;stroke-opacity:1;paint-order:normal"
       d="m 105.3589105357737,17.4937499978336 c 1.6107991293847,-0.88974360011923 2.7358103045153,-1.22052296392083 3.1819805195368,-3.00520382400697"
       id="path4615"
       inkscape:connector-curvature="0"
       transform="scale(0.2645833333333333)" />
    <path
       style="opacity:1;vector-effect:none;fill:none;fill-opacity:1;stroke:#505050;stroke-width:2;stroke-linecap:round;stroke-linejoin:round;stroke-miterlimit:4;stroke-dasharray:none;stroke-dashoffset:0;stroke-opacity:1;paint-order:normal"
       d="m 121.6223665245173,19.08474025760199 c -3.9751974966366,5.30439452105662 -0.2143964228231,21.23201332722524 -5.8336309524841,24.04163059205576 -0.7803917304651,0.39019586523256 -2.4883535163093,4.75949100041346 -1.4142135642386,5.83363095248411 1.4645068905723,1.46450689057226 3.5806958182546,2.03486746614431 4.4194173882456,3.71231060612625 1.2411217167715,2.48224343354319 -1.8978889509308,5.21983357015941 -0.8838834776492,7.24784451672268 1.0985952797691,2.19719055953809 2.7631358623476,3.55463101345551 1.7677669552983,6.54073773460337 -0.2986754662152,0.89602639864553 -1.9114665177079,1.91146651770784 -2.6516504329474,2.65165043294732"
       id="path4617"
       inkscape:connector-curvature="0"
       transform="scale(0.2645833333333333)" />
    <path
       style="opacity:1;vector-effect:none;fill:none;fill-opacity:1;stroke:#505050;stroke-width:2;stroke-linecap:round;stroke-linejoin:round;stroke-miterlimit:4;stroke-dasharray:none;stroke-dashoffset:0;stroke-opacity:1;paint-order:normal"
       d="m 118.0868326139209,56.73817640545401 c 2.2069456187617,0.73183284590931 4.9085263358179,0.15616612602129 7.0710678211928,1.23743686870875"
       id="path4619"
       inkscape:connector-curvature="0"
       transform="scale(0.2645833333333333)" />
    <path
       style="opacity:1;vector-effect:none;fill:none;fill-opacity:1;stroke:#505050;stroke-width:2;stroke-linecap:round;stroke-linejoin:round;stroke-miterlimit:4;stroke-dasharray:none;stroke-dashoffset:0;stroke-opacity:1;paint-order:normal"
       d="m 118.4403860049805,30.92877885810003 c -1.0954133563022,1.7146314478877 -2.6449352680829,2.47263534912938 -4.2426406927157,3.00520382400699 -2.2803966151179,0.76013220503928 -6.9692177356138,-0.98573356322824 -8.6620580809613,0.70710678211928 -0.5414086524563,0.54140865245631 -2.4057189474129,1.09912728869956 -2.6516504329473,1.5909902597684 -2.7471979197297,5.49439583945915 4.9790098287547,12.77241689503245 1.944543650828,17.32411616192252 -2.7341645150227,4.10124677253411 -7.47397195937052,0.4687051343349 -10.07627164519984,6.5407377346034 -1.02603626396078,2.3940846159084 -0.38885195895921,11.77329953668285 -2.65165043294735,12.90469877367695 -2.32115628791517,1.16057814395762 -8.52105482542244,-1.55521681977743 -10.42982503625949,0.35355339105963 -0.74974245103979,0.74974245103981 -0.36998621043507,3.40805567319299 -0.70710678211925,4.41941738824555 -1.0521549924203,3.1564649772608 -2.00407287513869,10.07717713390085 -3.53553391059646,12.37436868708751 -1.17741123725598,1.76611685588395 4.1334759445776,13.30685519986524 -5.65685425695429,21.03642676804884 -4.25410928392778,3.358665284226 -6.71506933025373,8.7068635298135 -13.2582521647366,7.0710678211928 -5.34243882269497,-1.3356097056737 -5.54708450347187,-5.7284908692073 -12.90469877367698,-3.889087301656"
       id="path4623"
       inkscape:connector-curvature="0"
       transform="scale(0.2645833333333333)"
       sodipodi:nodetypes="csssssssssssc" />
    <path
       style="opacity:1;vector-effect:none;fill:none;fill-opacity:1;stroke:#505050;stroke-width:2;stroke-linecap:round;stroke-linejoin:round;stroke-miterlimit:4;stroke-dasharray:none;stroke-dashoffset:0;stroke-opacity:1;paint-order:normal"
       d="m 92.63098845762654,72.64807900313795 c -0.69375472384192,3.87380891924637 -0.87316242799463,7.64428210640035 0,11.13693181837877"
       id="path4625"
       inkscape:connector-curvature="0"
       transform="scale(0.2645833333333333)" />
    <path
       style="opacity:1;vector-effect:none;fill:none;fill-opacity:1;stroke:#505050;stroke-width:2;stroke-linecap:round;stroke-linejoin:round;stroke-miterlimit:4;stroke-dasharray:none;stroke-dashoffset:0;stroke-opacity:1;paint-order:normal"
       d="m 105.0053571447141,51.43487553955936 c -1.4320853181188,3.25110964027628 4.4133458898078,12.38954743318175 3.7123106061262,14.14213564238573 -0.9001931119363,2.25048277984092 -3.4845281055027,3.68506408128127 -4.0658639971859,6.01040764801394"
       id="path4627"
       inkscape:connector-curvature="0"
       transform="scale(0.2645833333333333)" />
    <path
       style="opacity:1;vector-effect:none;fill:none;fill-opacity:1;stroke:#505050;stroke-width:2;stroke-linecap:round;stroke-linejoin:round;stroke-miterlimit:4;stroke-dasharray:none;stroke-dashoffset:0;stroke-opacity:1;paint-order:normal"
       d="m 102.0001533207071,36.58563311505434 c -1.1676692590168,1.76174853687755 -3.98034296557022,3.88908730165607 -6.18718434354376,3.88908730165607 -3.19087122068692,0 -2.80396847879895,-4.14202302011169 -5.12652417036483,-5.30330086589464 -1.05270501792559,-0.52635250896279 -2.56399811853346,-0.23619294960713 -3.53553391059644,-0.8838834776491 -2.68646396016814,-1.7909759734454 -5.00970096926231,4.1857709860405 -5.65685425695429,5.48007756142446 -1.69189660304913,3.38379320609822 -6.89196782191877,0.79433347801206 -9.54594155861038,2.12132034635786 -0.93566156928145,0.46783078464074 -0.94947044055897,2.7728322621672 -2.12132034635785,3.35875721506661"
       id="path4629"
       inkscape:connector-curvature="0"
       transform="scale(0.2645833333333333)" />
    <path
       style="opacity:1;vector-effect:none;fill:none;fill-opacity:1;stroke:#505050;stroke-width:2;stroke-linecap:round;stroke-linejoin:round;stroke-miterlimit:4;stroke-dasharray:none;stroke-dashoffset:0;stroke-opacity:1;paint-order:normal"
       d="m 73.89265873146544,41.35860389435952 c 3.81408414504746,-1.89317440892455 0.17087824601575,-4.33397826523767 -1.76776695529821,-5.30330086589464"
       id="path4631"
       inkscape:connector-curvature="0"
       transform="scale(0.2645833333333333)" />
    <path
       style="opacity:1;vector-effect:none;fill:none;fill-opacity:1;stroke:#505050;stroke-width:2;stroke-linecap:round;stroke-linejoin:round;stroke-miterlimit:4;stroke-dasharray:none;stroke-dashoffset:0;stroke-opacity:1;paint-order:normal"
       d="m 22.62741702781717,11.8368957408793 c 0.003622863804,4.18216930271173 -0.7538349948405,10.35532340017579 3.71231060612625,11.84403860049806 1.47822983933784,0.49274327977929 3.48506140145718,0.32831713649 4.94974747483501,1.06066017317892 3.54123556612546,1.77061778306275 7.24035078340013,2.36730897343509 11.31370851390858,3.18198051953679"
       id="path4633"
       inkscape:connector-curvature="0"
       transform="scale(0.2645833333333333)" />
    <path
       style="opacity:1;vector-effect:none;fill:none;fill-opacity:1;stroke:#505050;stroke-width:2;stroke-linecap:round;stroke-linejoin:round;stroke-miterlimit:4;stroke-dasharray:none;stroke-dashoffset:0;stroke-opacity:1;paint-order:normal"
       d="m 29.69848484901003,23.85771103690717 c 5.40354856379678,0.39564063579836 2.88920591067334,7.06550817013407 1.94454365082804,9.89949494967002 -0.64520914204472,1.93562742613422 1.05784679764909,4.77859753036489 0.17677669552982,6.5407377346034 -1.08951896462744,2.17903792925485 -3.26470267602431,5.06004368348506 -4.77297077930518,7.07106782119287"
       id="path4635"
       inkscape:connector-curvature="0"
       transform="scale(0.2645833333333333)" />
    <path
       style="opacity:1;vector-effect:none;fill:none;fill-opacity:1;stroke:#505050;stroke-width:2;stroke-linecap:round;stroke-linejoin:round;stroke-miterlimit:4;stroke-dasharray:none;stroke-dashoffset:0;stroke-opacity:1;paint-order:normal"
       d="m 33.23401875960647,38.17662337482274 c 11.67917316991445,3.88364069580312 3.37820246428428,5.51896805985956 6.36396103907358,11.49048520943841 2.89304353455538,5.78608706911099 9.4678313556659,0.15622040588894 4.24264069271572,10.60660173178929"
       id="path4637"
       inkscape:connector-curvature="0"
       transform="scale(0.2645833333333333)" />
    <path
       style="opacity:1;vector-effect:none;fill:none;fill-opacity:1;stroke:#505050;stroke-width:2;stroke-linecap:round;stroke-linejoin:round;stroke-miterlimit:4;stroke-dasharray:none;stroke-dashoffset:0;stroke-opacity:1;paint-order:normal"
       d="m 39.77475649420987,50.55099206191025 c -0.33420108487161,1.6561255492785 -1.65667234662212,2.01022573768175 -2.65165043294732,3.00520382400697 -1.05548417192882,1.05548417192884 -3.31202593438744,0.72539820886547 -4.24264069271572,2.12132034635786 -2.72586954870196,4.08880432305284 3.21125043697819,11.80282927790378 -3.18198051953679,13.08147546920679"
       id="path4639"
       inkscape:connector-curvature="0"
       transform="scale(0.2645833333333333)" />
    <path
       style="opacity:1;vector-effect:none;fill:none;fill-opacity:1;stroke:#505050;stroke-width:2;stroke-linecap:round;stroke-linejoin:round;stroke-miterlimit:4;stroke-dasharray:none;stroke-dashoffset:0;stroke-opacity:1;paint-order:normal"
       d="m 43.48706710033613,73.17840908972742 c -0.5756902093126,4.71199275290438 2.20367512760725,15.10837390128428 5.12652417036482,18.0312229440418 1.14826365178758,1.14826365178756 2.92778883832937,1.86712866515043 4.0658639971859,3.00520382400697 1.46947780797181,1.4694778079718 -1.21094084240523,7.37162915964551 -1.76776695529822,8.48528138543141"
       id="path4641"
       inkscape:connector-curvature="0"
       transform="scale(0.2645833333333333)" />
    <path
       style="opacity:1;vector-effect:none;fill:none;fill-opacity:1;stroke:#505050;stroke-width:2;stroke-linecap:round;stroke-linejoin:round;stroke-miterlimit:4;stroke-dasharray:none;stroke-dashoffset:0;stroke-opacity:1;paint-order:normal"
       d="m 50.38135822599917,92.44706890247798 c 1.28949512688663,-0.94311128202719 2.30949735190273,-1.4199137192461 3.71231060612626,-2.12132034635788 1.8949401423392,-0.94747007116962 4.97007061192799,2.37632382110611 7.24784451672268,1.23743686870877 0.77889393907722,-0.3894469695386 3.77524128955494,-2.94227314057824 5.12652417036483,-1.59099025976842 1.38423370946343,1.3842337094634 1.42312802860998,5.18001095659335 1.76776695529821,7.24784451672271"
       id="path4643"
       inkscape:connector-curvature="0"
       transform="scale(0.2645833333333333)" />
  </g>
  <g
     inkscape:groupmode="layer"
     id="layer6"
     inkscape:label="crack4">
    <path
       style="opacity:1;vector-effect:none;fill:none;fill-opacity:1;stroke:#505050;stroke-width:2;stroke-linecap:round;stroke-linejoin:round;stroke-miterlimit:4;stroke-dasharray:none;stroke-dashoffset:0;stroke-opacity:1;paint-order:normal"
       d="m 22.80419372334699,12.01367243640914 c 0.94261252419957,3.9755297915558 -0.0689714803305,10.74889268715381 4.24264069271572,12.90469877367697 1.31187421774873,0.65593710887438 3.79541302940852,-0.1042461212128 4.41941738824554,1.76776695529821 1.05004124174615,3.15012372523829 -0.7095574852266,9.18748676133606 0.35355339105964,11.3137085139086 0.85069120549428,1.70138241098854 4.57433409024263,-0.0218599935326 5.83363095248412,1.23743686870875 2.34825310400696,2.34825310400678 2.1119626542398,7.75010152695804 3.18198051953679,10.96015512284893 0.66010684353017,1.98032053059048 4.89397749868938,2.59588045680171 6.36396103907358,4.0658639971859 0.74424425480527,0.74424425480529 -3.7431502007511,6.41260673937524 -1.76776695529821,7.07106782119287 4.58197007649394,1.52732335883134 8.84151589110789,1.76910751260661 13.0814754692068,3.88908730165602"
       id="path4646"
       inkscape:connector-curvature="0"
       transform="scale(0.2645833333333333)" />
    <path
       style="opacity:1;vector-effect:none;fill:none;fill-opacity:1;stroke:#505050;stroke-width:2;stroke-linecap:round;stroke-linejoin:round;stroke-miterlimit:4;stroke-dasharray:none;stroke-dashoffset:0;stroke-opacity:1;paint-order:normal"
       d="m 54.09366883212543,63.10213744452759 c 1.42130197219182,-0.63358801834264 2.45365467909528,-1.74654789697601 3.53553391059643,-2.82842712847715"
       id="path4648"
       inkscape:connector-curvature="0"
       transform="scale(0.2645833333333333)" />
    <path
       style="opacity:1;vector-effect:none;fill:none;fill-opacity:1;stroke:#505050;stroke-width:2;stroke-linecap:round;stroke-linejoin:round;stroke-miterlimit:4;stroke-dasharray:none;stroke-dashoffset:0;stroke-opacity:1;paint-order:normal"
       d="m 40.48186327632916,50.1974386708506 c -0.0275775830605,0.83388939053093 -0.72217939789211,1.4831875399304 -1.41421356423857,1.94454365082804 -1.41785370006158,0.94523580004102 -4.78272671618543,1.43372543799905 -5.6568542569543,3.1819805195368 -2.29484154484062,4.58968308968123 2.59227635688266,9.60531563467494 -1.5909902597684,13.78858225132608 -1.2347256835936,1.23472568359361 -5.23193892249025,1.02497920147671 -7.07106782119286,1.94454365082804 -3.86344189547581,1.93172094773792 -2.47487373741751,11.38138372625991 -2.47487373741751,15.37957251109448"
       id="path4650"
       inkscape:connector-curvature="0"
       transform="scale(0.2645833333333333)" />
    <path
       style="opacity:1;vector-effect:none;fill:none;fill-opacity:1;stroke:#505050;stroke-width:2;stroke-linecap:round;stroke-linejoin:round;stroke-miterlimit:4;stroke-dasharray:none;stroke-dashoffset:0;stroke-opacity:1;paint-order:normal"
       d="m 31.11269841324861,38.17662337482274 c -0.0713929712847,3.51812875528053 -1.22839816272635,6.35492233309115 -3.35875721506661,8.48528138543144"
       id="path4652"
       inkscape:connector-curvature="0"
       transform="scale(0.2645833333333333)" />
    <path
       style="opacity:1;vector-effect:none;fill:none;fill-opacity:1;stroke:#505050;stroke-width:2;stroke-linecap:round;stroke-linejoin:round;stroke-miterlimit:4;stroke-dasharray:none;stroke-dashoffset:0;stroke-opacity:1;paint-order:normal"
       d="m 30.75914502218897,25.27192460114575 c 4.58601803853811,-0.17753342939902 7.67645471120375,2.65165043294732 12.02081529602787,2.65165043294732"
       id="path4654"
       inkscape:connector-curvature="0"
       transform="scale(0.2645833333333333)" />
    <path
       style="opacity:1;vector-effect:none;fill:none;fill-opacity:1;stroke:#505050;stroke-width:2;stroke-linecap:round;stroke-linejoin:round;stroke-miterlimit:4;stroke-dasharray:none;stroke-dashoffset:0;stroke-opacity:1;paint-order:normal"
       d="m 51.26524170364828,19.26151695313182 c -1.51731653859112,-7.51493878369156 17.12846114404252,-2.02349283741792 19.44543650828037,-3.1819805195368 3.27564343289569,-1.63782171644777 7.25145933771054,-3.00791493974777 10.07627164519984,-5.12652417036483"
       id="path4656"
       inkscape:connector-curvature="0"
       transform="scale(0.2645833333333333)" />
    <path
       style="opacity:1;vector-effect:none;fill:none;fill-opacity:1;stroke:#505050;stroke-width:2;stroke-linecap:round;stroke-linejoin:round;stroke-miterlimit:4;stroke-dasharray:none;stroke-dashoffset:0;stroke-opacity:1;paint-order:normal"
       d="m 69.65001803874972,15.19565295594592 c 4.08689386859096,2.96726943118351 11.86874836115788,13.59945067546634 18.91510642169092,10.07627164519983 1.34516155159616,-0.67258077579808 0.36071040845272,-4.48788564327955 1.23743686870874,-5.65685425695429 2.32502712096253,-3.10003616128337 8.70929708897836,-7.40100170824396 13.25825216473662,-5.12652417036483 0.8472685423635,0.42363427118177 1.250627087838,2.21630380368738 2.1213203463579,2.65165043294732 2.4809423504272,1.24047117521362 10.0762716451998,2.27781204127431 10.0762716451998,5.83363095248412"
       id="path4658"
       inkscape:connector-curvature="0"
       transform="scale(0.2645833333333333)" />
    <path
       style="opacity:1;vector-effect:none;fill:none;fill-opacity:1;stroke:#505050;stroke-width:2;stroke-linecap:round;stroke-linejoin:round;stroke-miterlimit:4;stroke-dasharray:none;stroke-dashoffset:0;stroke-opacity:1;paint-order:normal"
       d="m 106.2427940134228,16.96341991124413 c -0.00525191927,-4.62797330520483 2.7282995597815,-4.59619408377536 6.5407377346034,-4.59619408377536"
       id="path4660"
       inkscape:connector-curvature="0"
       transform="scale(0.2645833333333333)" />
    <path
       style="opacity:1;vector-effect:none;fill:none;fill-opacity:1;stroke:#505050;stroke-width:2;stroke-linecap:round;stroke-linejoin:round;stroke-miterlimit:4;stroke-dasharray:none;stroke-dashoffset:0;stroke-opacity:1;paint-order:normal"
       d="m 121.0920364379278,18.90796356207217 c -0.2575570632577,3.48479045212706 -3.7718032288833,13.58248453760309 -7.4246212122525,14.49568903344539 -2.0096720133722,0.50241800334307 -7.4046673072198,-1.25739077374139 -8.8388347764911,0.17677669552981 -0.3335626234644,0.33356262346442 -1.4805351123328,0.66297318277789 -1.7677669552982,1.23743686870875 -0.4764678678608,0.95293573572171 -0.3857289211513,3.19806828458261 -1.4142135642385,3.71231060612626 -0.8142672131526,0.4071336065763 -8.60576992924908,0.94017162936135 -9.3691648630806,0.17677669552981 -1.67515715467917,-1.67515715467917 -3.75914808541374,-5.10310543072098 -7.24784451672268,-3.35875721506659 -1.90378790902578,0.95189395451287 -1.19510174635694,4.52315681114811 -3.53553391059644,5.30330086589464 -3.10326314741677,1.03442104913893 -8.23161446480222,-1.08760716306311 -10.25304834072965,1.94454365082804 -0.77678318131035,1.16517477196556 -0.78237580089103,2.90369614724888 -1.59099025976839,3.71231060612625"
       id="path4662"
       inkscape:connector-curvature="0"
       transform="scale(0.2645833333333333)" />
    <path
       style="opacity:1;vector-effect:none;fill:none;fill-opacity:1;stroke:#505050;stroke-width:2;stroke-linecap:round;stroke-linejoin:round;stroke-miterlimit:4;stroke-dasharray:none;stroke-dashoffset:0;stroke-opacity:1;paint-order:normal"
       d="m 75.1300956001742,40.65149711224024 c 2.85604366423676,-5.86598029406138 -4.14032041330221,-4.89858733512826 -7.07106782119287,-6.36396103907357"
       id="path4664"
       inkscape:connector-curvature="0"
       transform="scale(0.2645833333333333)" />
    <path
       style="opacity:1;vector-effect:none;fill:none;fill-opacity:1;stroke:#505050;stroke-width:2;stroke-linecap:round;stroke-linejoin:round;stroke-miterlimit:4;stroke-dasharray:none;stroke-dashoffset:0;stroke-opacity:1;paint-order:normal"
       d="m 119.8545995692191,27.74679833856325 c -2.5727140567392,2.12579877696483 -1.5909902597684,6.84333307508155 -1.5909902597684,10.07627164519984 0,2.14318827333368 -5.1606012893094,9.31804918466371 -3.3587572150666,12.02081529602788 0.9593846051741,1.43907690776116 2.5867311021103,1.70284762446124 3.7123106061262,2.82842712847714 1.3889006302678,1.38890063026772 -1.0606601731789,5.41742970044452 -1.0606601731789,6.36396103907358 0,2.3632953547627 2.6423232114487,5.32195530889198 1.4142135642386,7.77817460331209 -0.3800075392961,0.7600150785921 -1.2804608503609,1.61250225059446 -1.9445436508281,1.94454365082807"
       id="path4666"
       inkscape:connector-curvature="0"
       transform="scale(0.2645833333333333)" />
    <path
       style="opacity:1;vector-effect:none;fill:none;fill-opacity:1;stroke:#505050;stroke-width:2;stroke-linecap:round;stroke-linejoin:round;stroke-miterlimit:4;stroke-dasharray:none;stroke-dashoffset:0;stroke-opacity:1;paint-order:normal"
       d="m 119.1474927870998,57.09172979651365 c 2.3802858558712,0.11551776293685 4.6077166246855,0.88388347764911 7.0710678211929,0.88388347764911"
       id="path4668"
       inkscape:connector-curvature="0"
       transform="scale(0.2645833333333333)" />
    <path
       style="opacity:1;vector-effect:none;fill:none;fill-opacity:1;stroke:#505050;stroke-width:2;stroke-linecap:round;stroke-linejoin:round;stroke-miterlimit:4;stroke-dasharray:none;stroke-dashoffset:0;stroke-opacity:1;paint-order:normal"
       d="m 105.0053571447141,33.93398268210702 c 0.1326671406603,0.41470570177082 0.1894978611493,0.85844114641013 0,1.23743686870875 -0.4249985551566,0.84999711031301 -1.8931256069448,13.48644690414969 -1.060660173179,14.31891233791555 0.9710203633842,0.97102036338417 1.7677669552982,3.48322618145309 1.7677669552982,5.12652417036483 0,0.7245309747522 0.1987085483321,1.84906499764775 -0.1767766955298,2.4748737374175 -0.060042999167,0.10007166527812 -1.2095488646031,1.97243165493364 -1.0606601731789,2.12132034635786 2.0388792613366,2.03887926133675 5.7018996356385,1.057255353972 4.5961940837754,5.48007756142447 -0.7463226759193,2.98529070367694 -4.5961940837754,3.63436768441646 -4.5961940837754,7.07106782119287"
       id="path4670"
       inkscape:connector-curvature="0"
       transform="scale(0.2645833333333333)" />
    <path
       style="opacity:1;vector-effect:none;fill:none;fill-opacity:1;stroke:#505050;stroke-width:2;stroke-linecap:round;stroke-linejoin:round;stroke-miterlimit:4;stroke-dasharray:none;stroke-dashoffset:0;stroke-opacity:1;paint-order:normal"
       d="m 104.2982503625948,52.67231240826811 c -7.62290852752064,5.30136204595826 -11.31370851390864,7.11539662722754 -11.31370851390864,17.67766955298215 0,1.04934658279943 0.5603544045304,4.28599256356921 0,5.12652417036483 -0.97535416270166,1.46303124405256 -1.66081947667314,6.11735512663886 -0.17677669552981,7.60139790778233 2.82050681206752,2.82050681206775 9.79911635132325,7.71599505355691 11.49048520943845,10.25304834072966 0.5406155533987,0.81092333009806 -5.34122013080513,6.87533149320791 -2.8284271284772,8.13172799437182 4.6925734083801,2.3462867041899 10.5541304495707,1.0344245320696 15.2027958155647,3.3587572150666"
       id="path4672"
       inkscape:connector-curvature="0"
       transform="scale(0.2645833333333333)" />
    <path
       style="opacity:1;vector-effect:none;fill:none;fill-opacity:1;stroke:#505050;stroke-width:2;stroke-linecap:round;stroke-linejoin:round;stroke-miterlimit:4;stroke-dasharray:none;stroke-dashoffset:0;stroke-opacity:1;paint-order:normal"
       d="m 92.4542117620967,71.41064213442919 c -7.80304761417861,-0.75150703225013 -7.12687455587408,1.93986540508503 -10.42982503625946,6.89429112566305 -0.68913523841663,1.03370285762493 -2.08866723643493,1.0116805082945 -2.82842712847714,2.12132034635786 -2.54212211385224,3.81318317077847 0.1597420076109,13.66290961955309 -1.41421356423858,18.38477633510146 -0.97044353305301,2.91133059915903 -2.27678642855108,7.12749024895294 -3.88908730165608,9.54594155861034 -2.4599636300086,3.6899454450129 -12.38956746346292,11.3813794368455 -17.14733946639269,10.4298250362595 -3.19949776319259,-0.6398995526385 -8.91917727540956,-7.2532084159536 -12.90469877367698,-4.5961940837754 -3.18645095508171,2.1243006367212 -6.39054400305525,4.3946952347323 -9.54594155861037,5.6568542569543"
       id="path4674"
       inkscape:connector-curvature="0"
       transform="scale(0.2645833333333333)" />
    <path
       style="opacity:1;vector-effect:none;fill:none;fill-opacity:1;stroke:#505050;stroke-width:2;stroke-linecap:round;stroke-linejoin:round;stroke-miterlimit:4;stroke-dasharray:none;stroke-dashoffset:0;stroke-opacity:1;paint-order:normal"
       d="m 44.01739718692559,73.35518578525723 c -3.12538006023645,5.51894989966509 0.27138937385788,11.40832119223664 4.41941738824553,15.55634920662432 1.22570971456153,1.22570971456153 3.75792466112598,1.68221836976784 4.59619408377537,3.3587572150666 1.52970282110156,3.05940564220309 -0.91513482512228,8.61028677532414 -1.59099025976838,11.31370851390865"
       id="path4676"
       inkscape:connector-curvature="0"
       transform="scale(0.2645833333333333)" />
    <path
       style="opacity:1;vector-effect:none;fill:none;fill-opacity:1;stroke:#505050;stroke-width:2;stroke-linecap:round;stroke-linejoin:round;stroke-miterlimit:4;stroke-dasharray:none;stroke-dashoffset:0;stroke-opacity:1;paint-order:normal"
       d="m 50.55813492152899,91.56318542482887 c 2.16543158003513,-3.49369472738741 9.67106081589936,1.08648889229934 10.78337842731912,0.53033008658946 6.60069021372858,-3.3003451068643 7.60139790778231,-6.75977537180836 7.60139790778231,4.24264069271572"
       id="path4678"
       inkscape:connector-curvature="0"
       transform="scale(0.2645833333333333)" />
  </g>
  <g
     inkscape:label="crack5"
     inkscape:groupmode="layer"
     id="layer1"
     transform="translate(0,-259.9583290100097)"
     sodipodi:insensitive="true"
     style="display:inline;opacity:0.1185897528">
    <path
       style="opacity:1;vector-effect:none;fill:#fefefe;fill-opacity:1;stroke:#505050;stroke-width:2;stroke-linecap:round;stroke-linejoin:round;stroke-miterlimit:4;stroke-dasharray:none;stroke-dashoffset:0;stroke-opacity:1;paint-order:normal"
       d="m 22.98097041887676,13.78143939170761 c -2.74509080698922,15.52420415966445 6.46042396095733,10.89599049744056 7.77817460331213,14.84924242450498 0.74010954926865,2.22032864780594 -1.34312605835456,7.14215532707685 0.35355339105965,8.83883477649107 4.41376470035735,4.4137647003574 7.88938205104836,-1.29723001226154 8.83883477649107,7.24784451672268 0.17854422045384,1.60689798408454 0.72001788843031,4.55746076484237 0.17677669552982,6.18718434354373 -0.44735528775523,1.34206586326563 -5.37843766590271,1.26175372095591 -6.54073773460339,3.00520382400697 -1.7814181775398,2.67212726630957 1.04235615420351,8.71697013788739 0,11.84403860049802 -1.0247430191326,3.0742290573979 -7.22749321370427,2.43417113138041 -8.66205808096129,5.30330086589464 -2.04498168178887,4.08996336357781 -1.22848559123347,10.48688391286089 -2.4748737374175,14.84924242450499"
       id="path4501"
       inkscape:connector-curvature="0"
       transform="matrix(0.2645833333333333,0,0,0.2645833333333333,0,259.9583290100097)" />
    <path
       style="opacity:1;vector-effect:none;fill:#fefefe;fill-opacity:1;stroke:#505050;stroke-width:2;stroke-linecap:round;stroke-linejoin:round;stroke-miterlimit:4;stroke-dasharray:none;stroke-dashoffset:0;stroke-opacity:1;paint-order:normal"
       d="m 39.77475649420979,49.84388527979115 c 0.7576159577032,2.60200731143734 4.44447284436812,2.67670588906984 6.18718434354374,4.41941738824552 0.54408882496245,0.54408882496246 -1.67480912747375,4.16796078512944 -1.23743686870875,5.48007756142448 1.06089826312902,3.18269478938705 11.02921141491934,4.20673389156255 13.78858225132607,5.1265241703648 1.34387379486185,0.44795793162064 0.63776414395337,6.65598459670926 5.8336309524841,7.95495129884195"
       id="path4503"
       inkscape:connector-curvature="0"
       transform="matrix(0.2645833333333333,0,0,0.2645833333333333,0,259.9583290100097)" />
    <path
       style="opacity:1;vector-effect:none;fill:#fefefe;fill-opacity:1;stroke:#505050;stroke-width:2;stroke-linecap:round;stroke-linejoin:round;stroke-miterlimit:4;stroke-dasharray:none;stroke-dashoffset:0;stroke-opacity:1;paint-order:normal"
       d="m 53.56333874553585,63.27891414005758 c 2.87657095325605,-0.99863419010632 5.36658193080028,-3.40094459167038 7.95495129884197,-5.12652417036482"
       id="path4505"
       inkscape:connector-curvature="0"
       transform="matrix(0.2645833333333333,0,0,0.2645833333333333,0,259.9583290100097)" />
    <path
       style="opacity:1;vector-effect:none;fill:#fefefe;fill-opacity:1;stroke:#505050;stroke-width:2;stroke-linecap:round;stroke-linejoin:round;stroke-miterlimit:4;stroke-dasharray:none;stroke-dashoffset:0;stroke-opacity:1;paint-order:normal"
       d="m 30.40559163112926,27.39324494750384 c 4.24707429526238,0.32920530754157 8.9323612380256,1.43759517962218 13.08147546920678,2.4748737374175"
       id="path4507"
       inkscape:connector-curvature="0"
       transform="matrix(0.2645833333333333,0,0,0.2645833333333333,0,259.9583290100097)" />
    <path
       style="opacity:1;vector-effect:none;fill:#fefefe;fill-opacity:1;stroke:#505050;stroke-width:2;stroke-linecap:round;stroke-linejoin:round;stroke-miterlimit:4;stroke-dasharray:none;stroke-dashoffset:0;stroke-opacity:1;paint-order:normal"
       d="m 31.64302849983801,37.46951659270366 c -1.14691633350663,3.07217792816085 -3.23070791434408,5.97981313690599 -4.24264069271571,9.01561147202089"
       id="path4509"
       inkscape:connector-curvature="0"
       transform="matrix(0.2645833333333333,0,0,0.2645833333333333,0,259.9583290100097)" />
    <path
       style="opacity:1;vector-effect:none;fill:none;fill-opacity:1;stroke:#505050;stroke-width:2;stroke-linecap:round;stroke-linejoin:round;stroke-miterlimit:4;stroke-dasharray:none;stroke-dashoffset:0;stroke-opacity:1;paint-order:normal"
       d="m 121.0920364379276,20.32217712631099 c -1.8923677369097,3.59473136788161 -0.446922410756,8.55377850222255 -2.1213203463579,12.02081529602785 -0.6258292979373,1.29585276979569 -14.3263661892659,2.66655813564812 -15.2027958155646,4.41941738824552 -0.964455370568,1.92891074113584 1.6767209096803,13.1778369105308 0.5303300865895,16.61700937980321 -0.629387815146,1.88816344543771 -6.54974885185719,0.54835232109694 -7.24784451672274,1.94454365082804 -2.54169879836614,5.08339759673231 -1.87866028801973,12.41937865700086 -4.41941738824552,17.50089285745215 -0.96776242507494,1.93552485014983 -10.07837106578326,-1.05436191142861 -11.13693181837874,2.12132034635786 -1.17311742221729,3.51935226665195 -1.85081683356394,8.12105105537347 -3.35875721506662,11.13693181837874 -1.33789811989159,2.67579623978318 0.1778327666067,8.99871433479058 0,11.84403860049807 -0.5506839940725,8.81094390516067 -6.68051451396998,16.41556607349797 -13.61180555579622,21.03642676804887 -2.4613413168981,1.6408942112654 -7.45701271635653,-3.2865646193537 -9.36916486308052,-4.2426406927157 -2.38429585404249,-1.1921479270213 -8.23405735379982,-0.2481101500568 -10.7833784273191,0.1767766955298 -5.34661524024061,0.8911025400401 -3.49211439014784,3.0718824115476 -6.54073773460339,4.5961940837753 -2.72512532034439,1.3625626601722 -10.89225151621403,0.8294469332017 -13.25825216473659,-0.3535533910596"
       id="path4511"
       inkscape:connector-curvature="0"
       transform="matrix(0.2645833333333333,0,0,0.2645833333333333,0,259.9583290100097)"
       sodipodi:nodetypes="cssssssssssssc" />
    <path
       style="opacity:1;vector-effect:none;fill:#fefefe;fill-opacity:1;stroke:#505050;stroke-width:2;stroke-linecap:round;stroke-linejoin:round;stroke-miterlimit:4;stroke-dasharray:none;stroke-dashoffset:0;stroke-opacity:1;paint-order:normal"
       d="m 92.80776515315615,71.58741882995916 c -0.082693172248,11.50090251142326 -4.30412605481439,8.8734234324196 4.94974747483502,16.97056277086284 1.43239236210916,1.2533433168455 4.41936263473653,2.12121083933964 5.30330086589463,3.88908730165606 1.4748621052869,2.94972421057399 -4.15683270205305,7.29074851205401 1.0606601731789,9.89949494967003 4.6061509231041,2.303075461552 12.0994048997617,0.7202383246558 14.849242424505,5.3033008658946 3.9173157438779,6.5288595731296 -6.3918940417945,5.9545416425717 -3.3587572150666,12.0208152960279 0.4786447812946,0.9572895625893 2.4255906178391,0.4173001790353 3.3587572150666,0.8838834776491 1.3961995270426,0.6980997635213 5.1167939265544,5.6665845007647 7.6013979077823,3.1819805195367 1.0564955446254,-1.0564955446253 -0.1243855783719,-5.2889019736518 1.2374368687088,-5.8336309524841 2.4467858779513,-0.9787143511805 4.0658639971859,1.7669201006469 4.0658639971859,3.7123106061263"
       id="path4513"
       inkscape:connector-curvature="0"
       transform="matrix(0.2645833333333333,0,0,0.2645833333333333,0,259.9583290100097)" />
    <path
       style="opacity:1;vector-effect:none;fill:none;fill-opacity:1;stroke:#505050;stroke-width:2;stroke-linecap:round;stroke-linejoin:round;stroke-miterlimit:4;stroke-dasharray:none;stroke-dashoffset:0;stroke-opacity:1;paint-order:normal"
       d="m 105.5356872313033,36.05530302846509 c -1.8733459031664,0.0703535830028 -10.27507926560958,4.75093985442523 -12.37436868708748,2.65165043294732 -0.88866597247716,-0.88866597247715 -1.10126658098825,-2.93711868014669 -2.29809704188767,-3.53553391059642 -4.56663832244021,-2.2833191612202 -5.96672921291336,1.94523130253726 -7.95495129884196,4.59619408377534 -0.84639260418544,1.12852347224721 -6.67908142175769,3.04363683238245 -7.95495129884196,1.76776695529821 C 74.20610126407774,40.7881629493231 75.41428241020946,38.63758688038823 74.77654220911439,37.99984667929312 71.69116292482033,34.9144673949988 69.26298169325119,33.5804292910476 64.52349386838476,33.5804292910476"
       id="path4515"
       inkscape:connector-curvature="0"
       transform="matrix(0.2645833333333333,0,0,0.2645833333333333,0,259.9583290100097)" />
    <path
       style="opacity:1;vector-effect:none;fill:none;fill-opacity:1;stroke:#505050;stroke-width:2;stroke-linecap:round;stroke-linejoin:round;stroke-miterlimit:4;stroke-dasharray:none;stroke-dashoffset:0;stroke-opacity:1;paint-order:normal"
       d="m 76.01397911793091,41.80054558137063 c -2.76176804356176,-0.40363151811417 -4.2186266307762,5.27111372687608 -6.45234939024297,4.15425234714274"
       id="path4517"
       inkscape:connector-curvature="0"
       transform="matrix(0.2645833333333333,0,0,0.2645833333333333,0,259.9583290100097)" />
    <path
       style="opacity:1;vector-effect:none;fill:none;fill-opacity:1;stroke:#505050;stroke-width:2;stroke-linecap:round;stroke-linejoin:round;stroke-miterlimit:4;stroke-dasharray:none;stroke-dashoffset:0;stroke-opacity:1;paint-order:normal"
       d="m 104.5634154610608,53.29103079687182 c -0.8552963378296,4.54447801473194 1.1349128135063,5.0982527569822 2.9168154777811,8.66205808553167 0.1336460773922,0.2672921547844 0.1930043591088,1.37813322282188 0.4419417390577,1.50260191279633 0.2370323341626,0.11851616708131 0.6403370026287,0.22001383151887 0.7954951303039,0.53033008686927 1.0347190104798,2.06943802095964 -1.8195430883862,4.52296965488792 -2.5632620865348,6.01040765118524"
       id="path4519"
       inkscape:connector-curvature="0"
       transform="matrix(0.2645833333333333,0,0,0.2645833333333333,0,259.9583290100097)" />
    <path
       style="opacity:1;vector-effect:none;fill:none;fill-opacity:1;stroke:#505050;stroke-width:2;stroke-linecap:round;stroke-linejoin:round;stroke-miterlimit:4;stroke-dasharray:none;stroke-dashoffset:0;stroke-opacity:1;paint-order:normal"
       d="m 119.5894345890239,31.63588558304266 c -0.5283679179933,0.56619089513607 -1.0417598096882,1.25022376097166 -1.2374368693617,2.03293199966561 -0.1049029370001,0.41961174800057 -0.7293090286615,0.78460432565182 -0.972271825927,1.1490485215501 -0.8163058615725,1.22445879235878 0.7717737949045,3.5894735770471 0.5303300868693,5.03813582525821 -0.3223020601524,1.93381236091423 -2.5135504118203,2.9306363135208 -3.4471455646504,4.33102904276584 -1.2267341500698,1.8401012251047 2.1158473881255,4.13783346908759 2.5632620865349,5.48007756431594 0.1313584033589,0.39407521007675 -0.1538333916769,0.94124173798101 0,1.32582521717322 0.3408894762632,0.85222369065795 0.9100616715516,1.63841976372845 1.1490485215501,2.47487373872334 0.1832722998892,0.64145304961212 -0.3238548046948,3.85974242307798 -0.2651650434346,3.88908730370809 2.1273718182577,1.06368590912882 4.5701489021971,0.39123626915115 6.8942911293007,0.97227182592702"
       id="path4521"
       inkscape:connector-curvature="0"
       transform="matrix(0.2645833333333333,0,0,0.2645833333333333,0,259.9583290100097)" />
    <path
       style="opacity:1;vector-effect:none;fill:none;fill-opacity:1;stroke:#505050;stroke-width:2;stroke-linecap:round;stroke-linejoin:round;stroke-miterlimit:4;stroke-dasharray:none;stroke-dashoffset:0;stroke-opacity:1;paint-order:normal"
       d="m 118.4403860674738,57.00334140495682 c -0.071992344774,0.61656762802519 -0.9820914323795,1.57135104770297 -0.6187184346809,2.29809704310024 1.4969745355708,2.99394907114155 2.5222141484687,5.70973730044165 -0.7071067824923,8.13172799866236"
       id="path4523"
       inkscape:connector-curvature="0"
       transform="matrix(0.2645833333333333,0,0,0.2645833333333333,0,259.9583290100097)" />
    <path
       style="opacity:1;vector-effect:none;fill:none;fill-opacity:1;stroke:#505050;stroke-width:2;stroke-linecap:round;stroke-linejoin:round;stroke-miterlimit:4;stroke-dasharray:none;stroke-dashoffset:0;stroke-opacity:1;paint-order:normal"
       d="m 44.00000004643205,73.74999993008809 c -0.55733244749586,2.59037357098444 4.32504599595584,16.33126151508189 6.00000000633165,16.75000001767583 2.31255508456162,0.57813877114043 4.04391517315714,0.75000000079146 6.50000000685926,0.75000000079146 1.12862531816171,0 4.2310904293007,0.50945478811974 5.25000000554018,0 1.25871208570677,-0.62935604285336 2.75988951624276,-2.16337016450615 4.75000000501249,-1.50000000158292 2.15477433818695,0.71825811272899 1.89069104814902,6.20345523731548 2.25000000237436,8.0000000084422"
       id="path4525"
       inkscape:connector-curvature="0"
       transform="matrix(0.2645833333333333,0,0,0.2645833333333333,0,259.9583290100097)" />
    <path
       style="opacity:1;vector-effect:none;fill:none;fill-opacity:1;stroke:#505050;stroke-width:2;stroke-linecap:round;stroke-linejoin:round;stroke-miterlimit:4;stroke-dasharray:none;stroke-dashoffset:0;stroke-opacity:1;paint-order:normal"
       d="m 49.25000005197225,90.24999994750011 c 5.24447924767256,3.215352138841 -0.69022617352398,9.80977383755649 2.50000000263819,13.00000001371859"
       id="path4527"
       inkscape:connector-curvature="0"
       transform="matrix(0.2645833333333333,0,0,0.2645833333333333,0,259.9583290100097)" />
    <path
       style="opacity:1;vector-effect:none;fill:none;fill-opacity:1;stroke:#505050;stroke-width:2;stroke-linecap:round;stroke-linejoin:round;stroke-miterlimit:4;stroke-dasharray:none;stroke-dashoffset:0;stroke-opacity:1;paint-order:normal"
       d="m 52.7500000556657,19.74999987310332 c 3.65886625832477,-3.50593939237946 8.68264962665448,-4.25000000448492 13.75000001451001,-4.25000000448492 4.96351212262299,0 13.21789074360298,13.39105464930404 19.50000002057783,10.25000001081657 3.76484189004107,-1.88242094502056 4.16548405120676,-7.83274203167122 7.00000000738693,-9.2500000097613 1.59592151867098,-0.79796075933549 6.54088865289259,-1.98637045343281 8.75000000923363,-1.25000000131909 1.0694358128757,0.35647860429189 2.1721675727824,2.66391621756614 3.5000000036935,2.00000000211055 6.8449332163153,-3.42246660815773 -2.9090004680171,-7.23180010062091 9.5000000100251,-4.75000000501255"
       id="path4529"
       inkscape:connector-curvature="0"
       transform="matrix(0.2645833333333333,0,0,0.2645833333333333,0,259.9583290100097)" />
    <path
       style="opacity:1;vector-effect:none;fill:none;fill-opacity:1;stroke:#505050;stroke-width:2;stroke-linecap:round;stroke-linejoin:round;stroke-miterlimit:4;stroke-dasharray:none;stroke-dashoffset:0;stroke-opacity:1;paint-order:normal"
       d="m 104.2982504176263,17.14019654194874 c 0.047913384258,0.57517628735874 0.7297465088171,0.89520334127789 1.2374368693616,1.14904852155013 0.8721492252406,0.43607461262028 1.5391994901906,0.89852250907319 2.3864853909118,1.23743686936166 1.1629491059635,0.46517964238536 2.8113383870934,-0.58306863221309 3.8006989558966,-0.0883883478115 0.9549624771168,0.47748123855837 1.7637034137404,2.55513500155374 2.2097086952886,3.44714556465036"
       id="path4533"
       inkscape:connector-curvature="0"
       transform="matrix(0.2645833333333333,0,0,0.2645833333333333,0,259.9583290100097)" />
    <path
       style="opacity:1;vector-effect:none;fill:none;fill-opacity:1;stroke:#505050;stroke-width:2;stroke-linecap:round;stroke-linejoin:round;stroke-miterlimit:4;stroke-dasharray:none;stroke-dashoffset:0;stroke-opacity:1;paint-order:normal"
       d="m 67.88225111926857,15.81437132477552 c 5.54605201811796,1.8360281585046 7.32824702715989,-4.77297078182357 12.28598034580516,-4.77297078182357"
       id="path4535"
       inkscape:connector-curvature="0"
       transform="matrix(0.2645833333333333,0,0,0.2645833333333333,0,259.9583290100097)"
       sodipodi:nodetypes="cc" />
  </g>
</svg>
