<?xml version="1.0" encoding="UTF-8" standalone="no"?>
<!-- Created with Inkscape (http://www.inkscape.org/) -->

<svg
   xmlns:dc="http://purl.org/dc/elements/1.1/"
   xmlns:cc="http://creativecommons.org/ns#"
   xmlns:rdf="http://www.w3.org/1999/02/22-rdf-syntax-ns#"
   xmlns:svg="http://www.w3.org/2000/svg"
   xmlns="http://www.w3.org/2000/svg"
   xmlns:sodipodi="http://sodipodi.sourceforge.net/DTD/sodipodi-0.dtd"
   xmlns:inkscape="http://www.inkscape.org/namespaces/inkscape"
   width="1000"
   height="500"
   viewBox="0 0 264.5833272454602 132.2916704048346"
   version="1.1"
   id="svg8"
   inkscape:version="0.92.1 r15371"
   sodipodi:docname="delete.svg"
   inkscape:export-filename="D:\deving-games\qeqe\art\delete.png"
   inkscape:export-xdpi="96"
   inkscape:export-ydpi="96">
  <defs
     id="defs2" />
  <sodipodi:namedview
     id="base"
     pagecolor="#ffffff"
     bordercolor="#666666"
     borderopacity="1.0"
     inkscape:pageopacity="0.0"
     inkscape:pageshadow="2"
     inkscape:zoom="0.6118164065728157"
     inkscape:cx="87.64473638993616"
     inkscape:cy="155.564123082164"
     inkscape:document-units="mm"
     inkscape:current-layer="layer1"
     showgrid="false"
     units="px"
     inkscape:snap-global="false"
     inkscape:window-width="1920"
     inkscape:window-height="1027"
     inkscape:window-x="-8"
     inkscape:window-y="-8"
     inkscape:window-maximized="1" />
  <metadata
     id="metadata5">
    <rdf:RDF>
      <cc:Work
         rdf:about="">
        <dc:format>image/svg+xml</dc:format>
        <dc:type
           rdf:resource="http://purl.org/dc/dcmitype/StillImage" />
        <dc:title></dc:title>
      </cc:Work>
    </rdf:RDF>
  </metadata>
  <g
     inkscape:label="Layer 1"
     inkscape:groupmode="layer"
     id="layer1"
     transform="translate(0,-164.7083165486653)">
    <path
       style="opacity:1;vector-effect:none;fill:#ffffff;fill-opacity:0.5747663379;stroke:#000000;stroke-width:10;stroke-linecap:round;stroke-linejoin:round;stroke-miterlimit:4;stroke-dasharray:none;stroke-dashoffset:0;stroke-opacity:1;paint-order:normal"
       d="m 425.7813248204312,29.27055067837165 c 4.1106302230603,-8.46952852525749 23.8301622477934,-16.92514100229755 35.9584996009578,-13.8930566640064 15.1727954053483,3.79319885133714 29.4519416702642,30.1751270345713 21.2482043096568,46.58260175578615 -6.0485807632496,12.09716152649921 -73.3021743648394,66.213661898929 -87.4445331205109,76.8204309656824 -13.1972430080827,9.8979322560618 -23.4150253553012,29.6680395374182 -30.2378292098961,43.3136472466081 -5.6936372551232,11.3872745102463 -23.7724319033343,24.5896705306288 -32.6895450917797,33.5067837190743 -5.8540797694399,5.8540797694399 -41.6818352076306,33.5014532878517 -39.2274541101358,38.4102154828412 9.413502355329,18.8270047106577 29.8955264469861,22.5403788013355 44.1308858739027,36.7757382282522 8.0205695423072,8.0205695423073 10.5197630925141,21.9611038746372 18.7964884277734,30.2378292098963 4.9844053109022,4.9844053109021 13.9470151966238,7.4091061782679 19.6137270550678,13.075818036712 9.3492734913516,9.3492734913516 24.9951038460182,20.3306445958427 32.6895450917796,31.8723064644853 6.3801064915705,9.5701597373558 12.3137341119117,20.4861203848567 20.4309656823624,28.6033519553072 22.3554086811824,22.3554086811818 42.7866836357516,37.211150752909 58.8411811652036,61.292897047087 1.4562926356279,2.1844389534421 0,10.3387515309771 0,13.075818036712 0,23.0157349936666 -33.3524034119873,23.3298959546649 -51.4860335195532,18.7964884277734 -16.3807240102406,-4.0951810025602 -73.6584022393732,-82.6480271396127 -88.2617717478053,-97.2513966480447 -12.0533286494379,-12.0533286494379 -89.035170667037,-78.3233890960827 -93.1652035115722,-90.7134876296889 -4.9520566764978,-14.8561700294936 -37.0223089871007,27.215445459567 -43.3136472466082,33.5067837190743 -16.2512883096166,16.2512883096161 -34.5918289248061,30.6395390775525 -47.3998403830807,49.8515562649641 -6.0090218541014,9.0135327811519 -13.6852336686932,28.0908211440033 -24.5171588188347,33.5067837190741 -10.8590483947676,5.4295241973838 -28.2356681918983,15.9770887824809 -36.7757382282523,24.5171588188349 -7.91520982094724,7.9152098209474 -12.83401041989049,19.3719194382466 -21.2482043096567,27.7861133280127 -16.98983961112292,16.989839611123 -57.72954045951743,27.5576788575015 -71.916999201915402,-0.8172386272944 -3.612551177771914,-7.2251023555439 -1.301088521735588,-25.0924724989088 5.72067039106145,-28.6033519553073 14.06893209988857,-7.0344660499442 76.40760164475814,-74.3602950692446 84.17557861133279,-89.8962490023943 0.41518499948576,-0.8303699989717 39.85657994874357,-25.1462846574425 46.58260175578626,-31.8723064644853 8.7884723090269,-8.7884723090273 17.6658004656436,-25.5862920923589 28.6033519553072,-31.0550678371908 7.7285217826535,-3.8642608913266 36.6771476546885,-27.9832944751403 31.0550678371907,-39.2274541101356 -8.8821359472713,-17.7642718945423 -35.9734564492845,-25.3493542944563 -49.8515562649641,-39.2274541101357 -16.1772141743388,-16.1772141743388 -29.501737045417,-36.8568846910674 -44.9481245011973,-52.3032721468478 C 88.45591412562281,133.2539987225896 -10.53377309463618,78.12421019565715 12.25857940941741,32.5395051875496 c 4.28861728179075,-8.57723456358162 19.21162192462836,-7.77028114250539 24.51715881883482,-13.0758180367119 2.72785466360092,-2.72785466360097 12.82836154693939,-4.08619313647245 17.16201117318436,-4.08619313647245 30.9440896669123,0 33.21566757010918,27.49499717904764 50.66879489225861,44.94812450119713 9.1909247431786,9.19092474317864 23.5409521511606,18.55803636720354 30.2378292098963,28.60335195530729 5.0372042249788,7.55580633746843 7.856876523961,16.95167134052843 15.5275339185953,22.06544293695133 8.3915601534149,5.59437343561 19.5138801109698,8.0725393288466 26.9688747007183,15.5275339185954 9.8869333400626,9.8869333400629 19.9279826401782,26.780147243644 26.1516360734238,39.2274541101357 2.2673197822838,4.5346395645677 42.7443702996868,38.8479361455214 48.2170790103752,42.4964086193137 2.7643107632454,1.8428738421636 8.9178554985814,-12.1150406061015 9.8068635275339,-13.8930566640064 4.220257436725,-8.4405148734497 36.2339241852674,-37.8684014398564 44.9481245011971,-46.5826017557862 11.7751377117695,-11.7751377117695 23.3395630141078,-24.9740402686971 35.1412609736633,-36.7757382282522 7.9977545566416,-7.9977545566414 22.5582859676263,-11.36336670084103 30.2378292098963,-22.88268156424588 6.0719562286478,-9.10793434297177 14.0329265535447,-23.02255145378416 21.2482043096566,-30.23782920989626 8.9675319495141,-8.96753194951423 30.3299372313326,-16.80531265307189 32.6895450917799,-28.6033519553072 z"
       id="path4489"
       inkscape:connector-curvature="0"
       transform="matrix(0.2645833333333333,0,0,0.2645833333333333,0,164.7083165486653)" />
  </g>
  <g
     inkscape:groupmode="layer"
     id="layer2"
     inkscape:label="Layer 2"
     style="display:inline">
    <path
       style="opacity:1;vector-effect:none;fill:#ffffff;fill-opacity:0.5747663379;stroke:#1a1a1a;stroke-width:10;stroke-linecap:round;stroke-linejoin:round;stroke-miterlimit:4;stroke-dasharray:none;stroke-dashoffset:0;stroke-opacity:1;paint-order:normal"
       d="M 478.0845969672788,38.26017557861104 C 469.2381152570323,34.87315397851831 467.4079761674287,27.2011947876245 460.1053471668,23.54988028731014 c -13.202643433732,-6.60132171686599 -75.8793213641017,34.13821588493944 -82.5411013567438,44.13088587390268 -13.5969196027357,20.39537940410339 -33.5729643971753,40.17705409363059 -44.1308858739027,61.2928970470871 -3.0724514736877,6.1449029473758 -18.3870362163881,11.0318885707377 -23.6999201915403,16.3447725458899 -19.7207187674637,19.7207187674637 -40.2472796266852,44.333472763159 -59.658419792498,63.7446129289704 -2.4304723091728,2.4304723091729 -43.5481300272261,-40.2791755180481 -49.8515562649641,-46.582601755786 C 169.1056441134409,131.3626273536636 135.6103102008964,98.68453206841434 105.4237829209897,68.49800478850733 90.3735917201992,53.44781358771673 75.48192856880109,34.64371188970864 58.84118116520355,23.54988028731014 46.65245253058557,15.42406119756475 26.75647948193966,28.96812897411365 19.61372705506785,32.5395051875496 0.0626870960950825,42.31502516703609 25.89380125129076,83.58123594991582 37.59297685554671,91.38068635275317 c 23.1198867368849,15.41325782459003 98.5242239838586,80.77276853763893 114.4134078212291,104.60654429369512 13.6837044252805,20.5255566379211 32.187567967724,45.5143745664637 55.5722266560256,57.2067039106146 -12.6376882578667,8.9610273256299 -32.6361056194894,19.5424744253473 -42.4964086193137,32.6895450917797 -5.2375625315068,6.9834167086759 -7.3063839109869,19.5812178986256 -14.7102952913009,24.5171588188349 -16.9084342045794,11.2722894697196 -81.24608378186647,72.5959185613394 -90.7134876296883,91.5307262569832 -6.57929028855445,13.1585805771089 -27.41415589600267,18.4978547590377 -32.68954509177985,34.3240223463688 -4.92412365871542,14.7723709761462 -22.50833138252236,36.5542940054667 2.45171588188348,49.0343176376696 7.72637996455074,3.8631899822754 21.61021336779169,4.2379363261924 29.42059058260183,1.634477254589 23.36398197007546,-7.7879939900252 34.04507829738434,-43.4000974230501 49.85155626496392,-53.9377494014366 21.9741434480693,-14.6494289653794 37.2491244150703,-42.267173658996 57.2067039106145,-55.5722266560255 31.2392697377102,-20.8261798251403 57.6357404928259,-54.3667859836477 84.1755786113328,-80.9066241021549 10.5867288750666,21.3349632458765 36.4218089163093,30.1155545556287 49.0343176376697,49.0343176376696 5.2539153702293,7.8808730553443 10.8606862797748,17.8645596746782 19.613727055068,23.6999201915403 8.2728975502262,5.5152650334843 17.9082386113775,12.9693012530598 22.8826815642457,20.4309656823624 7.408421357447,11.1126320361702 21.939441102424,36.3041179973412 34.3240223463687,42.4964086193135 8.326855695704,4.163427847852 20.5359987043782,9.9118965495499 27.7861133280128,17.1620111731845 5.3419845145767,5.3419845145768 20.2086159265031,30.2378292098963 28.6033519553071,30.2378292098963 16.7354680658824,0 40.9804864296412,15.2904237887631 51.4860335195531,-5.7206703910615 12.496053791464,-24.9921075829298 -16.6729830128319,-45.2763349681394 -31.0550678371908,-59.6584197924981 -4.2739664626239,-4.2739664626237 -5.0574907642826,-14.0471156645218 -9.8068635275339,-18.7964884277732 -7.3378256367728,-7.3378256367728 -20.7170716146511,-9.8171333199269 -29.4205905826016,-16.3447725458898 -14.3857245302648,-10.7892933976989 -21.0171741304007,-32.458514912524 -34.3240223463687,-45.7653631284917 -28.5174025630575,-28.517402563057 -59.7167137927082,-54.8132820289416 -87.4445331205109,-82.5411013567439 3.916531484574,-7.702887483496 10.5323908089272,-16.2530611999891 16.3447725458897,-22.0654429369514 5.6050227984198,-5.6050227984196 16.2216941230685,-10.971182257065 23.6999201915404,-14.7102952913009 10.3368527311239,-5.1684263655619 23.0993485607279,-33.2606646527884 34.3240223463687,-41.6791699920192 13.4609327771012,-10.095699582826 29.3707207494948,-17.3679309381398 38.4102154828412,-29.4205905826017 14.8453619000148,-19.7938158666864 30.3222167961014,-41.7213637851217 53.1205107741421,-53.12051077414249 2.6106916740915,-1.30534583704579 22.0194594156005,-18.65853786372085 22.8826815642458,-21.24820430965684 2.2747719864115,-6.82431595923433 4.7029702272657,-28.44915768260891 -2.4517158818835,-30.23782920989593 z"
       id="path4494"
       inkscape:connector-curvature="0"
       transform="matrix(0.2645833333333333,0,0,0.2645833333333333,132.2916666666666,0)" />
  </g>
</svg>
