<?xml version="1.0" encoding="UTF-8" standalone="no"?>
<!-- Created with Inkscape (http://www.inkscape.org/) -->

<svg
   xmlns:dc="http://purl.org/dc/elements/1.1/"
   xmlns:cc="http://creativecommons.org/ns#"
   xmlns:rdf="http://www.w3.org/1999/02/22-rdf-syntax-ns#"
   xmlns:svg="http://www.w3.org/2000/svg"
   xmlns="http://www.w3.org/2000/svg"
   xmlns:sodipodi="http://sodipodi.sourceforge.net/DTD/sodipodi-0.dtd"
   xmlns:inkscape="http://www.inkscape.org/namespaces/inkscape"
   width="250"
   height="250"
   viewBox="0 0 66.14583282868068 66.14583282868068"
   version="1.1"
   id="svg8"
   inkscape:version="0.92.1 r15371"
   sodipodi:docname="engranaje.svg">
  <defs
     id="defs2" />
  <sodipodi:namedview
     id="base"
     pagecolor="#ffffff"
     bordercolor="#666666"
     borderopacity="1.0"
     inkscape:pageopacity="0.0"
     inkscape:pageshadow="2"
     inkscape:zoom="1.999999998944727"
     inkscape:cx="79.15790571181282"
     inkscape:cy="111.9356568020231"
     inkscape:document-units="mm"
     inkscape:current-layer="layer2"
     showgrid="false"
     units="px"
     inkscape:snap-global="false"
     inkscape:window-width="1920"
     inkscape:window-height="1027"
     inkscape:window-x="-8"
     inkscape:window-y="-8"
     inkscape:window-maximized="1" />
  <metadata
     id="metadata5">
    <rdf:RDF>
      <cc:Work
         rdf:about="">
        <dc:format>image/svg+xml</dc:format>
        <dc:type
           rdf:resource="http://purl.org/dc/dcmitype/StillImage" />
        <dc:title></dc:title>
      </cc:Work>
    </rdf:RDF>
  </metadata>
  <g
     inkscape:label="Layer 1"
     inkscape:groupmode="layer"
     id="layer1"
     transform="translate(0,-230.8541704813638)">
    <path
       style="opacity:1;vector-effect:none;fill:#cccccc;fill-opacity:1;stroke:#000000;stroke-width:10;stroke-linecap:round;stroke-linejoin:round;stroke-miterlimit:4;stroke-dasharray:none;stroke-dashoffset:0;stroke-opacity:1;paint-order:normal"
       d="M 114.990234375 13.16015625 C 106.3089649598226 13.16015625000001 99.3203125 20.14880870982262 99.3203125 28.830078125 L 99.3203125 45.23828125 A 82.47453368019544 82.47453368019544 0 0 0 82.03515625 52.4609375 L 70.388671875 40.814453125 C 64.25008740222066 34.67586865222067 54.36514697277926 34.67586865222067 48.2265625 40.814453125 L 38.314453125 50.7265625 C 32.17586865222073 56.8651469727792 32.17586865222069 66.75008740222069 38.314453125 72.888671875 L 49.912109375 84.486328125 A 82.47453368019544 82.47453368019544 0 0 0 42.775390625 101.8203125 L 26.330078125 101.8203125 C 17.6488087098226 101.8203125 10.66015625 108.8089649598226 10.66015625 117.490234375 L 10.66015625 131.509765625 C 10.66015625 140.1910350401775 17.6488087098226 147.1796875 26.330078125 147.1796875 L 42.73828125 147.1796875 A 82.47453368019544 82.47453368019544 0 0 0 49.9609375 164.46484375 L 38.314453125 176.111328125 C 32.17586865222069 182.2499125977793 32.17586865222069 192.1348530272207 38.314453125 198.2734375 L 48.2265625 208.185546875 C 54.36514697277929 214.3241313477793 64.25008740222066 214.3241313477793 70.388671875 208.185546875 L 81.986328125 196.587890625 A 82.47453368019544 82.47453368019544 0 0 0 99.3203125 203.724609375 L 99.3203125 220.169921875 C 99.3203125 228.8511912901774 106.3089649598226 235.8398437499999 114.990234375 235.83984375 L 129.009765625 235.83984375 C 137.6910350401774 235.83984375 144.6796875 228.8511912901775 144.6796875 220.169921875 L 144.6796875 203.76171875 A 82.47453368019544 82.47453368019544 0 0 0 161.96484375 196.5390625 L 173.611328125 208.185546875 C 179.7499125977793 214.3241313477793 189.6348530272207 214.3241313477793 195.7734375 208.185546875 L 205.685546875 198.2734375 C 211.8241313477793 192.1348530272207 211.8241313477793 182.2499125977793 205.685546875 176.111328125 L 194.087890625 164.513671875 A 82.47453368019544 82.47453368019544 0 0 0 201.224609375 147.1796875 L 217.669921875 147.1796875 C 226.3511912901774 147.1796875 233.33984375 140.1910350401773 233.33984375 131.509765625 L 233.33984375 117.490234375 C 233.33984375 108.8089649598226 226.3511912901774 101.8203125 217.669921875 101.8203125 L 201.26171875 101.8203125 A 82.47453368019544 82.47453368019544 0 0 0 194.0390625 84.53515625 L 205.685546875 72.888671875 C 211.8241313477793 66.75008740222074 211.8241313477793 56.86514697277931 205.685546875 50.7265625 L 195.7734375 40.814453125 C 189.6348530272207 34.67586865222067 179.7499125977792 34.67586865222073 173.611328125 40.814453125 L 162.013671875 52.412109375 A 82.47453368019544 82.47453368019544 0 0 0 144.6796875 45.275390625 L 144.6796875 28.830078125 C 144.6796875 20.14880870982262 137.6910350401774 13.16015625 129.009765625 13.16015625 L 114.990234375 13.16015625 z M 122 94.80859375 A 29.69083209701974 29.69083209701974 0 0 1 151.69140625 124.5 A 29.69083209701974 29.69083209701974 0 0 1 122 154.19140625 A 29.69083209701974 29.69083209701974 0 0 1 92.30859375 124.5 A 29.69083209701974 29.69083209701974 0 0 1 122 94.80859375 z "
       transform="matrix(0.2645833333333333,0,0,0.2645833333333333,0,230.8541704813638)"
       id="rect4491" />
  </g>
  <g
     inkscape:groupmode="layer"
     id="layer2"
     inkscape:label="Layer 2" />
</svg>
