<?xml version="1.0" encoding="UTF-8" standalone="no"?>
<!-- Created with Inkscape (http://www.inkscape.org/) -->

<svg
   xmlns:dc="http://purl.org/dc/elements/1.1/"
   xmlns:cc="http://creativecommons.org/ns#"
   xmlns:rdf="http://www.w3.org/1999/02/22-rdf-syntax-ns#"
   xmlns:svg="http://www.w3.org/2000/svg"
   xmlns="http://www.w3.org/2000/svg"
   xmlns:sodipodi="http://sodipodi.sourceforge.net/DTD/sodipodi-0.dtd"
   xmlns:inkscape="http://www.inkscape.org/namespaces/inkscape"
   width="300"
   height="250"
   viewBox="0 0 79.37499922030345 66.14583114109884"
   version="1.1"
   id="svg7746"
   sodipodi:docname="exit.svg"
   inkscape:export-filename="D:\deving-games\qeqe\art\exit.png"
   inkscape:export-xdpi="96"
   inkscape:export-ydpi="96"
   inkscape:version="0.92.1 r15371">
  <defs
     id="defs7740" />
  <sodipodi:namedview
     id="base"
     pagecolor="#ffffff"
     bordercolor="#666666"
     borderopacity="1.0"
     inkscape:pageopacity="0.0"
     inkscape:pageshadow="2"
     inkscape:zoom="0.7071067813730945"
     inkscape:cx="166.1044482522804"
     inkscape:cy="320.339099692626"
     inkscape:document-units="mm"
     inkscape:current-layer="layer3"
     showgrid="false"
     inkscape:snap-global="false"
     fit-margin-top="0"
     fit-margin-left="0"
     fit-margin-right="0"
     fit-margin-bottom="0"
     units="px"
     inkscape:window-width="1920"
     inkscape:window-height="1027"
     inkscape:window-x="-8"
     inkscape:window-y="-8"
     inkscape:window-maximized="1" />
  <metadata
     id="metadata7743">
    <rdf:RDF>
      <cc:Work
         rdf:about="">
        <dc:format>image/svg+xml</dc:format>
        <dc:type
           rdf:resource="http://purl.org/dc/dcmitype/StillImage" />
        <dc:title></dc:title>
      </cc:Work>
    </rdf:RDF>
  </metadata>
  <g
     inkscape:label="Layer 1"
     inkscape:groupmode="layer"
     id="layer1"
     transform="translate(-58.21788955804531,-82.89675257086256)">
    <path
       transform="matrix(0.2645833333333333,0,0,0.2645833333333333,-83.07916662031823,-4.762499999999989)"
       inkscape:connector-curvature="0"
       id="path8415"
       d="m 557.2001437219994,536.3281632810741 c 0.00256204598,-0.4515946719039 -2.5930153133503,-14.1412642825155 -0.7071067813731,-19.7989898784467 1.6930681629983,-5.0792044889948 8.8136523733117,-3.6362634822738 7.0710678137309,-10.6066017205965 -0.6188048939164,-2.4752195756648 -2.1753095566959,-3.7514907571717 -2.8284271254927,-6.3639610323578 -1.2009548066826,-4.80381922673 2.1878059402102,-12.5949508725349 0,-16.9705627529539 -5.5573919656402,-11.1147839312804 -9.3094765799458,-22.3932401597465 -2.8284271254921,-35.355339068655 1.8856180836609,-3.771236167323 -1.8856180836616,-10.3708994601386 0,-14.1421356274618 0.7770411308462,-1.5540822616929 2.0423763074796,0.07894403664 2.8284271254921,-0.7071067813733 2.644671147243,-2.6446711472427 -1.4761256210315,-11.3756205602554 -2.8284271254921,-12.7279220647158 -2.0409112049274,-2.0409112049274 0,-16.8570791447194 0,-19.7989898784465 0,-0.8023742693113 -0.4281305163847,-3.8145101718541 0,-4.2426406882386 4.3203493608048,-4.3203493608046 2.8255063668712,-14.8463216502142 5.6568542509848,-17.6776695343274 3.212410752752,-3.212410752752 7.7349288407248,-4.1993949338596 10.6066017205965,-7.071067813731 0.5892556511438,-0.5892556511437 -0.5892556511441,-2.9462782557214 0,-3.5355339068653 1.2293273019937,-1.2293273019939 4.5066574088754,-12.5063770343476 6.3639610323579,-13.4350288460892 15.892336079415,-7.946168039708 27.2706645025748,-9.19238815785 45.9619407892511,-9.19238815785 12.3670869607986,0 38.0292671269609,-0.8616058485593 45.9619407892512,7.0710678137309 3.6563200555419,3.656320055542 8.3144043402596,8.1435273040423 10.6066017205965,12.7279220647158 1.5376396458465,3.0752792916935 0.1434190973765,13.0147602594691 3.5355339068652,19.7989898784467 0.4714045209156,0.9428090418311 -0.4714045209156,2.5927248650346 0,3.5355339068657 2.2585883242665,4.5171766485332 4.7281019180033,7.3348834918868 7.0710678137312,12.0208152833427 1.5370601481812,3.0741202963624 1.2068227044809,6.1565701740926 3.5355339068655,8.4852813764769 0.7039151926731,0.7039151926731 0,5.2284023295447 0,6.3639610323578 0,5.1638861936443 1.8330234742798,23.9111175249916 0,27.5771644735506 -0.8602515979602,1.7205031959195 -3.368973703415,3.1615475323937 -2.1213203441193,5.6568542509848 1.8422003479761,3.6844006959528 2.8598425828993,6.3953764897648 5.6568542509848,9.1923881578505 2.6565897609765,2.6565897609769 0,26.3626208686344 0,31.8198051617892 0,1.4879606135389 -0.8494022096925,45.2850391593751 -2.0000000021106,45.3756658468031 l -102.2428200238916,-0.1504603036643 z"
       style="opacity:1;vector-effect:none;fill:#333333;fill-opacity:1;stroke:#000000;stroke-width:5;stroke-linecap:round;stroke-linejoin:round;stroke-miterlimit:4;stroke-dasharray:none;stroke-dashoffset:0;stroke-opacity:0.9882352941;paint-order:normal"
       sodipodi:nodetypes="cssssssssssssssssssssssssssccc" />
    <path
       style="opacity:1;vector-effect:none;fill:none;fill-opacity:1;stroke:#000000;stroke-width:5;stroke-linecap:round;stroke-linejoin:round;stroke-miterlimit:4;stroke-dasharray:none;stroke-dashoffset:0;stroke-opacity:0.9882352941;paint-order:normal"
       d="m 557.2001437219994,536.3281632810741 c 0.00256204598,-0.4515946719039 -2.5930153133503,-14.1412642825155 -0.7071067813731,-19.7989898784467 1.6930681629983,-5.0792044889948 8.8136523733117,-3.6362634822738 7.0710678137309,-10.6066017205965 -0.6188048939164,-2.475219575665 -2.1753095566959,-3.7514907571717 -2.8284271254927,-6.3639610323578 -1.2009548066826,-4.80381922673 2.1878059402102,-12.5949508725349 0,-16.9705627529542 -5.5573919656402,-11.1147839312803 -9.3094765799458,-22.3932401597462 -2.8284271254921,-35.3553390686549 1.8856180836609,-3.7712361673231 -1.8856180836616,-10.3708994601389 0,-14.1421356274619 0.7770411308462,-1.5540822616927 2.0423763074796,0.07894403664 2.8284271254921,-0.707106781373 2.644671147243,-2.6446711472427 -1.4761256210315,-11.3756205602553 -2.8284271254921,-12.7279220647158 -2.0409112049274,-2.0409112049274 0,-16.8570791447193 0,-19.7989898784466 0,-0.8023742693111 -0.4281305163847,-3.814510171854 0,-4.2426406882387 4.3203493608048,-4.3203493608045 2.8255063668712,-14.8463216502141 5.6568542509848,-17.6776695343273 3.212410752752,-3.2124107527519 7.7349288407248,-4.1993949338596 10.6066017205965,-7.0710678137311 0.5892556511438,-0.5892556511437 -0.5892556511441,-2.9462782557213 0,-3.5355339068653 1.2293273019937,-1.229327301994 4.5066574088754,-12.5063770343477 6.3639610323579,-13.435028846089 15.892336079415,-7.9461680397081 27.2706645025748,-9.1923881578502 45.9619407892511,-9.1923881578502 12.3670869607986,0 38.0292671269609,-0.8616058485593 45.9619407892512,7.0710678137309 3.6563200555419,3.656320055542 8.3144043402596,8.1435273040424 10.6066017205965,12.7279220647157 1.5376396458465,3.0752792916935 0.1434190973765,13.0147602594692 3.5355339068652,19.7989898784468 0.4714045209156,0.942809041831 -0.4714045209156,2.5927248650346 0,3.5355339068655 2.2585883242665,4.5171766485332 4.7281019180033,7.3348834918868 7.0710678137312,12.0208152833427 1.5370601481812,3.0741202963624 1.2068227044809,6.1565701740926 3.5355339068655,8.485281376477 0.7039151926731,0.7039151926731 0,5.2284023295447 0,6.3639610323578 0,5.1638861936444 1.8330234742798,23.9111175249915 0,27.5771644735507 -0.8602515979602,1.7205031959195 -3.368973703415,3.1615475323936 -2.1213203441193,5.6568542509848 1.8422003479761,3.6844006959527 2.8598425828993,6.3953764897648 5.6568542509848,9.1923881578503 2.6565897609765,2.6565897609769 0,26.3626208686345 0,31.8198051617893 0,1.4879606135389 1.1505977924182,11.5773242722973 0,12.7279220647157 -2.1151731223021,2.1151731223018 -3.167579191707,33.425207077092 -1.4142135627466,33.7014143144942 1.6060179499223,0.2529955953505 4.9497474696118,0.6202996325649 4.9497474696118,0.9468179727876"
       id="path8411"
       inkscape:connector-curvature="0"
       transform="matrix(0.2645833333333333,0,0,0.2645833333333333,-83.07916662031823,-4.762499999999989)"
       sodipodi:nodetypes="cssssssssssssssssssssssssssssc" />
    <path
       transform="matrix(0.2645833333333333,0,0,0.2645833333333333,-83.07916662031823,-4.762499999999989)"
       inkscape:connector-curvature="0"
       id="path8413"
       d="m 626.4966082965627,344.7022255289651 c -18.6912762866763,0 -30.0696047098361,1.2462201181422 -45.9619407892511,9.1923881578502 -1.8573036234825,0.9286518117413 -5.1346337303642,12.2057015440951 -6.3639610323579,13.435028846089 -0.5892556511441,0.5892556511439 0.5892556511438,2.9462782557216 0,3.5355339068652 -2.8716728798717,2.8716728798715 -7.3941909678445,3.8586570609791 -10.6066017205965,7.0710678137311 -2.8313478841136,2.8313478841132 -1.33650489018,13.3573201735226 -5.6568542509848,17.6776695343273 -0.4281305163847,0.4281305163847 0,3.4402664189275 0,4.2426406882387 0,2.9419107337271 -2.0409112049274,17.7580786735193 0,19.7989898784467 1.3523015044606,1.3523015044603 5.4730982727351,10.083250917473 2.8284271254921,12.7279220647158 -0.7860508180125,0.7860508180129 -2.0513859946459,-0.8469754803199 -2.8284271254921,0.7071067813729 -1.8856180836616,3.7712361673232 1.8856180836609,10.3708994601388 0,14.142135627462 -6.4810494544537,12.9620989089086 -2.7289648401481,24.2405551373744 2.8284271254921,35.3553390686549 2.1878059402102,4.3756118804192 -1.2009548066826,12.1667435262241 0,16.970562752954 0.6531175687968,2.6124702751861 2.2096222315763,3.888741456693 2.8284271254927,6.3639610323578 1.7425845595808,6.9703382383226 -5.3779996507326,5.5273972316018 -7.0710678137309,10.606601720595 -1.8859085319772,5.6577255959307 0.7096688273531,19.3473952065444 0.7071067813731,19.7989898784483 3.4990298152287,-0.1021657672989 5.6102248117793,-0.2293581574692 8.2998565763794,-0.2999743243677 1.9776802905343,-0.051923911409 2.2453048835381,-0.2949984584626 3.5000000018466,-0.3938243584023 1.3926465485114,-0.1096916266316 3.9120026595181,-0.1552193768963 5.5000000029022,-0.1969121792009 1.9273027183523,-0.050601250407 4.1298382530688,-0.3218772821689 5.500000002902,-0.3938243584023 4.1198625253239,-0.2163336286517 18.0359375850995,-0.5541847202926 20.5000000108164,-0.7482662809646 0.3533883091703,-0.02783458481 0,-0.243483147437 0,-0.2756770508815 0,-0.3577203990349 1.4162304103305,-38.7513087916964 1e-13,-43.0000000226881 -1.3044981602752,-3.9134944808262 -2.5216559157267,-6.5866236610597 -3.5000000018471,-10.5000000055402 -1.7492808541732,-6.9971234166932 2.2682313316009,-30.4635373552657 0,-35.0000000184671 -1.2867211887185,-2.5734423774381 0.4611589377197,-7.808261597906 -1.0000000005275,-10.0000000052763 -2.4101978317683,-3.6152967476531 -3.5632211394784,-15.3735577329148 -1.5000000007911,-19.5000000102889 2.1410187866464,-4.2820375732937 -2.1389054246662,-15.7221891612203 0,-20.000000010553 1.4591042885589,-2.9182085771181 2.9489733242301,-4.8469199705796 4.0000000021101,-8.0000000042209 1.132071520591,-3.3962145617733 -1.2732006942183,-7.2267993102658 1.5000000007916,-10.0000000052765 0.9946696486869,-0.994669648687 3.406034072,-0.4060340704169 4.5000000023746,-1.5000000007913 2.064886844541,-2.064886844541 10.9258548793381,-13.9752849652316 12.5000000065954,-14.5000000076508 6.6047511864598,-2.2015837288202 13.2658096409358,-1.8829048179612 19.500000010289,-5.0000000026382 1.278730722065,-0.6393653610326 5.4959158325521,1.0040841708769 6.5000000034296,0 0.787116067145,-0.7871160671453 1.0501270338871,-1.0000000005278 2.5000000013191,-1.0000000005278 15.0261770601121,0 11.7249614290738,-4.0000000021104 26.9792743797351,-4.1231956471754 -7.9533992968013,-8.0558693073552 -33.6155794629636,-7.1942634587957 -45.9826664237622,-7.1942634587951 z"
       style="opacity:1;vector-effect:none;fill:#999999;fill-opacity:1;stroke:#000000;stroke-width:5;stroke-linecap:round;stroke-linejoin:round;stroke-miterlimit:4;stroke-dasharray:none;stroke-dashoffset:0;stroke-opacity:0.9882352941;paint-order:normal"
       sodipodi:nodetypes="ssssssssssssssscssssssssssssssssssscs" />
    <path
       transform="matrix(0.2645833333333333,0,0,0.2645833333333333,-95.77916662031822,-9.276938797819866)"
       style="opacity:1;vector-effect:none;fill:#999999;fill-opacity:1;stroke:#000000;stroke-width:5;stroke-linecap:round;stroke-linejoin:round;stroke-miterlimit:4;stroke-dasharray:none;stroke-dashoffset:0;stroke-opacity:0.9882352941;paint-order:normal"
       d="m 857.75000090516,411.5196842890716 c -5.5206498342668,0.5145322234441 -10.7039195292208,-1.9783766579019 -16.2483293266692,-1.7345257908727 -10.5804915074812,-0.3902871253943 -21.1645943463812,0.6164381174831 -31.7371505531653,-0.058919221512 -5.2338696392981,0.3568787376309 -10.3738364026482,1.0298055209189 -15.4390022385375,2.4214190934067 -8.1199101891484,1.3421873959144 -16.4157853103952,0.7623083712303 -24.5755179744923,0.8720259205608 -4.9527765339144,1.4664634699699 -9.8711039217861,3.6958247610543 -15.0980751542654,3.6610117623845 -4.6058628030179,0.1002005029383 -8.488279436954,1.3967855221936 -13.0543112189372,2.4062478099759 l -14.3476136716464,12.1827404468984 c 2.7901896460479,4.3246120029053 7.9463858490182,9.1955721871389 12.3319599495261,9.5005494351652 11.4953291788593,0.3949915696969 22.9928758036948,-0.5741615994555 34.2518243588602,-2.9392184890087 6.0934082622201,-1.1691606790962 12.3202874165213,-1.6536037746964 18.3222037881238,-3.2493727914291 7.534534113824,0.5338659594165 13.9566941188463,-4.6676922722893 21.3918569396681,-5.1066583771652 4.4986887446331,-0.9536845315719 9.1484421429983,-0.8945240146779 13.5160809279823,-2.1060580440166 4.8274866449757,-0.829449037632 9.7316608885418,-1.629510468538 14.6321778004784,-0.7781522471177 3.9000960851646,0.2174641157774 10.0735763104415,1.3700042929943 11.4126680063755,-3.5682782765409 0.7919343361092,-4.2232496262461 3.0472046992121,-7.7951187135404 4.6412283666989,-11.5028112307287 z"
       id="path8449"
       inkscape:connector-curvature="0"
       sodipodi:nodetypes="cccccccccccccccc" />
    <path
       transform="matrix(0.3028496472345568,0,0,0.2655836341245283,-127.6252827482782,-9.732558481719991)"
       style="opacity:1;vector-effect:none;fill:#999999;fill-opacity:1;stroke:#000000;stroke-width:4.6646418571;stroke-linecap:round;stroke-linejoin:round;stroke-miterlimit:4;stroke-dasharray:none;stroke-dashoffset:0;stroke-opacity:0.9882352941;paint-order:normal"
       d="m 846.2500008930244,419.0196842969862 c 2.6616973484481,-2.1310524711698 5.3893670061018,-4.3267342032274 8.5000000089698,-5.7500000060678 0.081618341288,1.1641602079116 -0.055443558605,2.6123731250991 -6e-13,3.9038741616026 0.1136965712343,2.5059750106594 -0.7536234363074,5.3231503700841 0.9206908674655,7.4854713432588 0.4105835129831,4.5557401025451 0.6032689643894,9.2540032855266 2.0793091357009,13.6106545215204 2.3031409416599,1.8175393185582 3.685067388834,4.730399950632 0.7805055974808,6.8723074225547 -2.4709686699251,3.0782070174459 3.4401346754313,6.2481648168496 0.5105634313683,8.7141389082434 -1.7488301925785,1.2140184847639 -5.2661005864243,2.2995054756801 -5.0555114495618,4.635297036128 2.3430914244386,-0.098585597019 4.3068289944407,1.0713518848339 6.1637823941751,1.9666591274193 3.3872200754234,2.3396143046087 1.6771059549155,6.4114436842153 0.5019729519175,9.5098877998739 -1.1473190782708,4.5397329985366 -0.8853452389451,9.2686642446541 -1.1461727664948,13.9031798457084 0.4354832201544,3.4672034710952 2.0223901163358,6.6899638034415 2.3189590136027,10.1997553429084 -2.7768992293616,0.7317786599682 -5.1947817082454,3.1533764116649 -8.2297892962005,3.5888493489531 -3.2463488578469,0.3291189743623 -3.7235658876766,-3.4958441536454 -5.3443098863124,-5.3900747748043 -2.8985855362223,-3.3526145690671 -5.6056126974588,-6.9882566684677 -7.5345683793145,-10.9835910666526 -0.9694766196272,-2.6992976187582 -3.3596365369068,-4.6510637652206 -4.140949672234,-7.4762611798027 -0.7721710465106,-3.2515829561119 -2.2615120623368,-6.4163614240316 -2.3664243222797,-9.7604679156746 -0.6592410512186,-3.5799645957661 -1.0733993198418,-7.2201693288337 -0.7119047481457,-10.9173965302282 0.078185636177,-5.0305776190533 -0.459934634937,-10.1208724597714 0.2538471066723,-15.1122833648904 1.8920894932585,-2.4986992416511 1.590571207479,-5.6544139528227 3.2662572194755,-8.2784135240998 2.2904070382615,-4.0395433530424 7.0896167994828,-5.6308738980412 10.2382240959961,-8.8625071042421 0.9053735487876,-0.8431508366955 -0.2691012880323,-1.5584766206885 -1.0044813022805,-1.8590793917085 z"
       id="path8447"
       inkscape:connector-curvature="0" />
    <path
       style="opacity:1;vector-effect:none;fill:#ffffff;fill-opacity:1;stroke:#000000;stroke-width:5;stroke-linecap:round;stroke-linejoin:round;stroke-miterlimit:4;stroke-dasharray:none;stroke-dashoffset:0;stroke-opacity:0.9882352941;paint-order:normal"
       d="m 807.5000004260662,471.5196846958793 v 35.7423219104785 49.1456926269079 c 0,1.3016516236549 -0.6211055837114,10.1347956396639 0,10.5312198486228 3.0162100731156,1.9251134165363 20.474984332741,2.1488076951026 23.0000000121356,0 2.2057659506829,-1.8771237292111 0.4774680445628,-5.5664046609843 3.16116522984,-6.7083280973627 3.3817886016404,-1.4389640091574 3.795408514248,-1.9635586256761 1.8388347727982,-4.4611474996617 -3.5623410984815,-4.5473693653462 5.3473801419191,-9.325222491785 3.0000000015823,-15.318137961634 -0.2522493712927,-0.643998444694 0.3098135929463,-1.9598020740269 0,-2.5530229936052 -6.3813226647999,-12.2187476131927 10.1010123997993,-32.9314119511525 5.0000000026388,-45.9544138849007 -0.3945587113443,-1.0073174618581 0.2189073302844,-2.7117835956272 0,-3.8295344904085 -1.0636414052368,-5.4310019261739 -2.3511937596938,-12.3852092117672 -4.0000000021106,-16.5946494584364 -0.7428459722389,-1.8965028468314 -30.6242589301735,0.4390373282207 -32.0000000168843,0 z"
       id="path8434"
       inkscape:connector-curvature="0"
       sodipodi:nodetypes="ccssssssssssc"
       transform="matrix(0.2645833333333333,0,0,0.2645833333333333,-97.19059270266923,-8.341495451628246)" />
    <path
       style="opacity:1;vector-effect:none;fill:#999999;fill-opacity:1;stroke:#000000;stroke-width:5;stroke-linecap:round;stroke-linejoin:round;stroke-miterlimit:4;stroke-dasharray:none;stroke-dashoffset:0;stroke-opacity:0.9882352941;paint-order:normal"
       d="m 821.3750008628825,545.5258969715158 c 1.0188040868818,-1.3005151292082 -1.250000001319,-6.7699704966601 -1.250000001319,-7.6590689848581 0,-4.3223322172217 -0.1997447114094,-6.4458942436198 -2.0000000021106,-9.8929641054417 -0.5100971274171,-0.976717270936 -0.7500000007915,-8.7225305558439 -0.7500000007915,-10.2120919798108 0,-0.5091281217109 -1.4182512749487,-12.0225060366828 -1.5000000015832,-12.1268592260251 -0.6027744873263,-0.7694485626455 -0.090451072314,-2.492076414447 -0.2500000002633,-3.51040661806 -0.1410322439144,-0.9001464034081 -0.5973203114763,-1.2058446145724 -0.7500000007917,-1.5956393718454 -0.4458835449616,-1.1383509421571 0.1289528103764,-2.9443641263351 -0.5000000005275,-4.1486623667982 -0.6690794354347,-1.2811313867338 -0.6431678110912,-1.5056496912883 -1.0000000010557,-2.8721508693216 -0.1316351366245,-0.5041012955893 -0.8362955887717,-0.3304719303682 -1.0000000010548,-0.9573836231066 -0.8666194989339,-3.3187492594751 3.2567939865469,-6.8352315211767 2.3750000063974,-10.212091979811 -0.1002807125244,-0.3840284471328 -1.1315725200477,-1.8307903296801 -1.5000000015825,-1.5956393718455 -0.5495238315498,0.3507367441851 -0.3998291879225,2.2328048999854 -0.5000000005275,2.8721508693216 -0.2896667837597,1.8488148975799 -1.1862879097653,4.1862324780168 -2.0000000021105,5.7443017386444 -1.848038718289,3.5385640037808 -3.4673418500838,11.2384724261354 -4.0000000042212,15.3181379697158 -0.1415499676225,1.0841409656805 0.3788232660679,2.8623899841548 0,3.829534492429 -2.1778038144921,5.5599832110273 0.6685611800217,12.2453270200438 1.500000001583,17.5520330902984 0.2655030810963,1.6945886763865 -0.016050121126,2.5018025846251 0.5000000005275,4.1486623667984 0.9846855331741,3.1424060079224 -0.3224585510957,30.3435559072367 0.2500000002635,31.0743058291041 z"
       id="path8445"
       inkscape:connector-curvature="0"
       sodipodi:nodetypes="cssssssssssssssssscc"
       transform="matrix(0.2645833333333333,0,0,0.2645833333333333,-91.01666661780538,-6.844786097721963)" />
    <path
       transform="matrix(0.2036842178010355,0,0,0.2030264964279446,-54.02202197992586,20.96204808083107)"
       style="opacity:1;vector-effect:none;fill:#ffffff;fill-opacity:1;stroke:#000000;stroke-width:6.5054512024;stroke-linecap:round;stroke-linejoin:round;stroke-miterlimit:4;stroke-dasharray:none;stroke-dashoffset:0;stroke-opacity:0.9882352941;paint-order:normal"
       d="m 742.0000003915057,416.0196846665955 c 2.0268008277251,-0.4119217684682 4.5515316592429,0.6494894480623 6.5000000034297,0 4.5330635810647,-1.5110211936882 8.4032078982553,-2.0806415798621 13.0000000068593,-3.000000001583 3.408922448971,-0.6817844897943 19.2945617526998,-0.029707828362 21.5000000113439,-1.5000000007914 6.0183182478617,-4.0122121652407 14.1562653456482,-4.2187551149518 21.0000000110806,-6.5000000034296 7.2292616797089,-2.4097538932367 14.6660570457749,2.5559619759908 23.0000000121355,-3.0000000015828 3.4357550531701,-2.2905033687798 19.2853060814131,1.5715646437504 24.0000000126635,0 5.8696048363911,-1.956534945464 10.2659774163778,-2.5000000013191 17.0000000089699,-2.5000000013191 7.3320797148259,0 25.2998096333093,-2.8002855715369 25.5000000134547,-2.5000000013191 3.1024751742658,4.6537127613986 -1.9168341143363,17.6663317826717 0.5000000002634,22.5000000118718 0.5577882710495,1.1155765420988 1.7398960170414,5.2398960188877 2.5000000013191,6.0000000031659 0.8184589374099,0.8184589374097 2.6164541524992,2.7329083036786 3.0000000015831,3.5000000018467 0.8514352165215,1.7028704330431 -0.1830475556436,4.6830475580181 -1.0000000005275,5.500000002902 -1.1634855875343,1.1634855875342 0.5524226190845,6.3427321469672 0,8.000000004221 -0.58822663508,1.7646799052389 -10.0007873017163,4.4984254094951 -9.0000000047487,6.5000000034296 1.4567889221104,2.9135778442204 11.8257743936192,2.6515487761588 14.0000000073868,7.0000000036936 1.7066419732702,3.4132839465397 -0.6135862299345,10.8407586945526 -1.5000000007915,13.5000000071231 -1.0633565681405,3.1900697044218 0,8.6094663739982 0,12.0000000063316 0,2.6481815846703 0.8451148689478,12.1902297434358 2.0000000010555,14.5000000076508 0.1222218590344,0.2444437180693 0.9693126563401,1.0306873447149 0.5000000002635,1.5000000007914 -2.5706896360689,2.5706896360693 -8.2554254645105,2.8369503082666 -11.5000000060677,5.0000000026381 -2.8018539983583,1.8679026655723 -11.1857756739875,-2.3142243331361 -13.5000000071229,0 -3.8438435830715,3.8438435830723 -11.4145484531098,3.4430322998746 -16.0000000084423,6.5000000034296 -2.1360916023019,1.4240610682016 -7.2003228770758,-0.6498385637047 -9.5000000050128,0.5000000002637 -2.0962297753681,1.0481148876843 -5.1404767658538,0.4101191910019 -7.5000000039571,1.0000000005277 -14.0361025822932,3.5090256455722 -29.5889358982847,3.0000000015819 -45.0000000237436,3.0000000015819 -3.6664509815997,0 -9.4838392283691,-1.1720535928298 -13.0000000068593,0 -3.6849920782647,1.2283306927548 -28.6141652043475,6.6929174089069 -33.0000000174118,4.5000000023743 -0.2458193455416,-0.1229096727704 -4.6733874326152,-13.3467748673402 -5.5000000029021,-15.000000007914 -0.5801674899118,-1.1603349798238 0.023685476206,-4.0473709545232 0.5000000002639,-5.0000000026382 0.1984402928144,-0.3968805856289 16.5423713460741,-3.9576286647424 15.0000000079144,-5.5000000029021 -0.2670199040019,-0.2670199040022 -3.1240656374787,-0.3746885454745 -3.5000000018466,-0.5000000002639 -1.8246675520276,-0.6082225173425 -3.1672175104724,-4.3890725052495 -5.0000000026382,-5.000000002638 -1.7850757434481,-0.595025247816 -6.6348433836785,-1.1348433807764 -8.0000000042211,-2.5000000013191 -1.7177614119469,-1.7177614119467 -4.5000000023746,-27.7612899982046 -4.5000000023746,-32.0000000168844 0,-0.928248082101 -0.5878157138261,-4.9121842890757 0,-5.500000002902 1.1287033713925,-1.1287033713922 2.7739574791276,-0.3869787390362 4.0000000021107,-1.0000000005277 2.6309309681915,-1.3154654840959 4.501295089848,-2.7506475451876 7.0000000036936,-4.0000000021107 2.3181756438513,-1.1590878219259 5.9667846135495,0.5332153898801 8.0000000042211,-1.5000000007913 0.1380786116991,-0.1380786116995 0.020035946856,-2.4599281076063 0,-2.5000000013193 -3.467474149231,-6.9349482984616 -19.3399949114735,-4.1799898047438 -21.0000000110804,-7.5000000039574 -0.6269470025252,-1.2538940050498 -3.6416733073065,-16.7166533980499 -3.5000000018467,-17.0000000089697 0.742103519452,-1.4842070389041 3.9646306269168,-1.3585225000162 3.0000000015827,2.50000000132 z"
       id="path8432"
       inkscape:connector-curvature="0" />
    <path
       transform="matrix(0.2036842178010355,0,0,0.2030264964279446,-52.3925482366578,20.96204808083107)"
       style="opacity:1;vector-effect:none;fill:#ffffff;fill-opacity:1;stroke:#000000;stroke-width:6.5054512024;stroke-linecap:round;stroke-linejoin:round;stroke-miterlimit:4;stroke-dasharray:none;stroke-dashoffset:0;stroke-opacity:0.9882352941;paint-order:normal"
       d="m 803.5000004239553,429.0196846734547 c -4.9946051532324,3.2521335880427 -12.5903637486451,8.3614549724201 -14.000000007387,14.0000000073869 -0.1731185817325,0.6924743269302 -12.3308625535028,13.6617251012028 -14.0000000073869,17.0000000089698 -0.8976219644079,1.7952439288159 -4.0495620162974,2.4008759729444 -2.500000001319,5.5000000029019 1.1224395980173,2.2448791960347 17.8910248722351,9.1955124362496 21.5000000113445,11.0000000058041 8.339501720946,4.1697508604726 14.6892541634049,9.5946270828892 22.5000000118715,13.500000007123"
       id="path8436"
       inkscape:connector-curvature="0"
       sodipodi:nodetypes="cssssc" />
    <path
       transform="matrix(0.2036842178010355,0,0,0.2030264964279446,-52.3925482366578,20.96204808083107)"
       style="opacity:1;vector-effect:none;fill:#ffffff;fill-opacity:1;stroke:#000000;stroke-width:6.5054512024;stroke-linecap:round;stroke-linejoin:round;stroke-miterlimit:4;stroke-dasharray:none;stroke-dashoffset:0;stroke-opacity:0.9882352941;paint-order:normal"
       d="m 773.5000004081264,463.5196846916581 c 13.4152187070123,-2.2622803083449 27.1803283687648,-0.9344182745646 40.5246853716162,-3.8410957500652 9.5957008552018,-0.091140341233 19.1988456388441,0.8181465192563 28.5334572640903,-2.4071869157335 3.4468797056068,-0.7606255632195 23.9193393400027,-4.4566544637994 27.4418574152102,-4.7517173400054"
       id="path8438"
       inkscape:connector-curvature="0"
       sodipodi:nodetypes="cccc" />
  </g>
  <g
     inkscape:groupmode="layer"
     id="layer3"
     inkscape:label="Layer 2"
     style="display:inline">
    <path
       style="opacity:1;vector-effect:none;fill:#333333;fill-opacity:1;stroke:#000000;stroke-width:5;stroke-linecap:round;stroke-linejoin:round;stroke-miterlimit:4;stroke-dasharray:none;stroke-dashoffset:0;stroke-opacity:0.9882352941;paint-order:normal"
       d="m 557.2001437219994,536.3281632810741 c -1.8114249771729,-9.2524163413774 -3.5726285025321,-21.2974068467016 5.7897566096991,-26.6526415287634 -0.7729352132767,-8.9150894987123 -3.2429085153251,-17.5199840222552 -2.1907269699534,-26.439215842883 -3.5047215334613,-8.4476524911775 -7.9352566418138,-17.2901644707797 -5.8858732722074,-26.7443623272625 3.3982443159838,-7.6292233305035 2.8270923522772,-15.2202158083083 3.4326109668109,-23.1480785551092 8.1891965183338,-6.7321823144421 -6.2533715553437,-18.646044496945 -0.8497327561173,-28.0027264147162 -0.080069492453,-9.25750579056 3.5459520765285,-18.54162494942 6.3935663166593,-27.0608793702627 6.9633379888245,-4.8308851203718 13.1091238619116,-10.2373366255176 13.4149556766613,-19.2956825771542 5.7694129269211,-9.8426474089976 18.4901475816679,-11.1037497545805 28.6343695809616,-13.1570871922601 16.4322467013089,-1.9728377010815 33.1072720008758,-1.3126008659112 49.5678881997803,-0.1163347604717 11.0941625633984,0.4648379749979 20.9655481399527,7.3124495170034 26.2556464299986,16.8338205688771 4.2955057497571,9.2550053767929 1.4492788395329,20.2661249706 7.2377099927646,29.113524588285 5.2733064463431,8.7653832511779 9.7160315763565,18.3128474424766 8.4743107210093,28.8437620492459 0.7556329002458,9.1904230687203 1.4288222182649,18.742792862844 -2.3886591283133,27.4375536908384 6.2808479942358,8.2039981662885 8.5567474069636,18.4713752822393 6.3063762174321,28.5348526541834 -1.1388144094449,18.6299388057957 -0.7892621300707,37.323717954729 -2.23323705541,55.9382807333583 -6.603075002982,4.4306927175204 -17.5807623081571,0.6255785896251 -25.8798819928312,1.897267186004 -28.9219052013732,0.186873365461 -57.8756465798623,-0.7271566920092 -86.7783530906831,0.4142678963724 -9.7669088154211,0.534559733906 -19.5338176308402,1.0691194678127 -29.3007264462614,1.6036792017185 z"
       id="path8415-4"
       inkscape:connector-curvature="0"
       transform="matrix(0.2645833333333333,0,0,0.2645833333333333,-141.2970561783635,-87.65925257086253)" />
    <path
       style="opacity:1;vector-effect:none;fill:none;fill-opacity:1;stroke:#000000;stroke-width:5;stroke-linecap:round;stroke-linejoin:round;stroke-miterlimit:4;stroke-dasharray:none;stroke-dashoffset:0;stroke-opacity:0.9882352941;paint-order:normal"
       d="m 557.2001437219994,536.3281632810741 c -1.8114249771735,-9.2524163413772 -3.5726285025329,-21.2974068467021 5.789756609699,-26.6526415287634 -0.7729352132769,-8.9150894987136 -3.2429085153244,-17.5199840222548 -2.1907269699535,-26.4392158428833 -3.5047215334611,-8.447652491177 -7.9352566418137,-17.2901644707801 -5.8858732722075,-26.7443623272622 3.398244315983,-7.6292233305039 2.8270923522784,-15.2202158083085 3.4326109668111,-23.1480785551095 8.1891965183336,-6.732182314441 -6.2533715553429,-18.6460444969458 -0.8497327561172,-28.0027264147162 -0.080069492453,-9.2575057905601 3.5459520765278,-18.5416249494203 6.3935663166593,-27.0608793702628 6.9633379888252,-4.8308851203721 13.1091238619099,-10.2373366255182 13.4149556766617,-19.2956825771543 5.7694129269202,-9.8426474089978 18.4901475816681,-11.1037497545799 28.6343695809607,-13.1570871922601 16.4322467013094,-1.9728377010816 33.1072720008757,-1.312600865912 49.5678881997806,-0.116334760472 11.0941625633977,0.4648379749983 20.9655481399529,7.3124495170026 26.2556464299988,16.8338205688771 4.2955057497576,9.2550053767932 1.4492788395339,20.2661249706001 7.2377099927638,29.1135245882845 5.2733064463453,8.7653832511776 9.7160315763573,18.3128474424774 8.4743107210103,28.8437620492463 0.7556329002447,9.1904230687195 1.4288222182655,18.7427928628448 -2.3886591283135,27.4375536908382 6.1557768379181,8.0988278072499 8.5676343555898,18.1986512724812 6.3577151370525,28.1418078238332 -1.4127459769719,9.8818750744232 0.9671649007438,20.0018654496345 -1.6492204629634,29.6493538857846 -1.6311248429771,9.5934858298135 -1.6154146410214,19.4182565989883 -0.8536963286449,29.0894394007789 1.1954052119142,1.7534310972752 3.8378466730101,0.2221160584861 5.3375898124058,1.5077465612401"
       id="path8411-8"
       inkscape:connector-curvature="0"
       transform="matrix(0.2645833333333333,0,0,0.2645833333333333,-141.2970561783635,-87.65925257086253)" />
    <path
       style="opacity:1;vector-effect:none;fill:#999999;fill-opacity:1;stroke:#000000;stroke-width:5;stroke-linecap:round;stroke-linejoin:round;stroke-miterlimit:4;stroke-dasharray:none;stroke-dashoffset:0;stroke-opacity:0.9882352941;paint-order:normal"
       d="m 626.4966082965627,344.7022255289651 c -15.9816276611316,-0.2013530658062 -32.8474714766696,1.3248144776105 -46.7182198947627,9.9858775672213 -4.6495850336424,7.8631905415704 -4.3913646716435,19.4131466242101 -15.1312669227059,22.0577396049554 -4.0378010353853,8.9168908459288 -6.4655705514659,18.5931908912821 -7.1611296575503,28.3092144155547 -4.1669547899877,9.7661303345366 5.8824966757684,17.8704663931818 2.7185623391972,27.0155469912476 -4.3113744319985,5.4335852164163 -0.5386945129793,15.2805481338359 -4.7490590076253,22.3893916157903 -3.4064725665753,10.7841655824881 2.4535423431314,21.0506937448534 5.989683866841,30.9073582867912 -4.5813015937916,8.5554940561718 6.1323599769975,20.8876197140036 -1.2630686990567,26.5504100099399 -5.7836573580854,5.5528056702919 -6.7345424561998,20.681673730715 -0.3525077868754,24.1063751947765 11.7579438227467,0.4713136363697 23.3996201479633,-2.4697648094051 35.1458874185813,-1.0796756116973 10.2037422585772,0.1336279648724 4.1410627627408,-12.4272747955372 5.9978434563185,-18.6813450756327 -0.022373727387,-8.8668575152998 1.0591418559728,-18.0982373742486 -1.1165059118937,-26.7144984795423 -7.2454656443733,-15.2126634221235 0.4825012882511,-31.9811865540858 -3.3534205626639,-47.7460053872719 -1.2814387112418,-10.2303023861701 -5.0280492299254,-20.2862079596097 -1.5145443809618,-30.5026003579479 -3.2618745013114,-9.7798583566626 1.6696794829999,-17.9596960127597 3.6849305452015,-26.8837379309146 -0.802243948247,-8.9286031996431 10.4604929484507,-8.5804927330305 12.8515890639932,-16.680688209403 5.7254762205539,-9.0720453617117 17.4909516111452,-7.5919190393013 26.5614017439758,-10.3206292335158 9.954314434283,-1.2762104578638 19.7732363618251,-2.7561884239186 29.4829568021622,-5.3923975987762 10.8037732065318,0.2674802147459 -6.4461300152452,-6.3640307073875 -10.9164385979927,-6.1951018638754 -9.9963665504936,-1.1285140057173 -20.1085319307829,-1.2038944366252 -30.1566938141823,-1.1252339376998 z"
       id="path8413-3"
       inkscape:connector-curvature="0"
       transform="matrix(0.2645833333333333,0,0,0.2645833333333333,-141.2970561783635,-87.65925257086253)" />
    <path
       sodipodi:nodetypes="cccccccccccccc"
       transform="matrix(0.2645833333333333,0,0,0.2645833333333333,-153.9970561783636,-92.17369136868242)"
       inkscape:connector-curvature="0"
       id="path8449-3"
       d="m 857.75000090516,411.5196842890716 c -6.8030482523477,0.2345837836797 -13.3597665045672,-2.4731344331539 -20.2161533177374,-1.8214123654573 -9.9081120504655,1.4283659756106 -19.8344777183796,4.0925580674155 -29.7276632880173,0.1773980356204 -9.6848465923119,-4.4983399706415 -18.0779439211176,3.0762191739772 -27.2944947598415,3.177288059381 -8.1434920312095,5.9202087826494 -14.9294908370853,3.6575790163216 -21.9920453500594,3.276613105829 -4.6534462533491,-2.7892489675579 -11.3859166600679,-1.0673712787565 -17.5303272641471,3.2738858601201 l -13.7393161579106,11.6662273253485 c 3.5924633923186,5.58297541179 9.5368123087643,10.7221767482773 16.6423419915742,9.5846649599071 15.5491233488581,0.3364845297356 30.7552053829628,-3.2591628446623 46.0030824009167,-5.722878928988 8.5583507432383,-0.065083749937 16.0819178129608,-4.8766272158106 24.4975893155597,-5.8239903298988 9.636441905869,-0.7584220895889 19.124799148446,-4.2909481793897 28.8583086015974,-2.6050479394057 8.6554158230264,2.6392293674656 10.9644392486822,-6.1581354197953 13.2123729270628,-12.415145225657 l 0.661699662468,-1.3820470783783 z"
       style="opacity:1;vector-effect:none;fill:#999999;fill-opacity:1;stroke:#000000;stroke-width:5;stroke-linecap:round;stroke-linejoin:round;stroke-miterlimit:4;stroke-dasharray:none;stroke-dashoffset:0;stroke-opacity:0.9882352941;paint-order:normal" />
    <path
       sodipodi:nodetypes="ccccccccccccc"
       transform="matrix(0.3028496472345568,0,0,0.2655836341245283,-185.8431723063236,-92.62931105258252)"
       inkscape:connector-curvature="0"
       id="path8447-6"
       d="m 846.2500008930244,419.0196842969863 c 3.3074297935277,-2.6017928793979 10.4385511576164,-9.2661140980821 8.5035312485718,-0.8936845247739 -1.0870419045523,6.3200056714267 -1.1864682232057,12.944045763062 2.1066105703519,16.8197084878358 0.6061835199017,4.1044636015598 5.9870422317971,7.598313300995 1.1030219882249,11.3533577603275 1.2955431339228,3.7187811250273 3.3135205184176,8.1548976654346 -2.1846327394851,9.4540482424052 -5.6633622325385,4.4695286555892 10.3176576788005,2.9563881216437 6.1234850293167,10.4611419532686 -2.0156086851058,5.9862457638164 0.2933932594672,12.6158542455719 -2.1843657993594,18.9466793065421 -2.289389882207,4.918771436075 2.7695962827212,10.1292828275189 -2.9178302972632,11.3648687703952 -6.8343796276833,4.1872688634232 -8.5389607173831,-6.1301478690661 -12.6807153832918,-9.5068955161089 -3.1177498141332,-5.484729516061 -7.099225234191,-10.6371928906929 -8.6050446793593,-16.844521162901 -2.976651675747,-9.4949238659348 -1.9060906401207,-19.5403918589517 -2.0458404872777,-29.3376509643409 1.2971151027873,-5.6958516295821 2.6979814457493,-12.629069940562 8.3453247070089,-15.8296857138857 1.2322326447403,-1.447236224381 8.2870273935612,-4.0132267939732 4.4364558425623,-5.987366638764 z"
       style="opacity:1;vector-effect:none;fill:#999999;fill-opacity:1;stroke:#000000;stroke-width:4.6646418571;stroke-linecap:round;stroke-linejoin:round;stroke-miterlimit:4;stroke-dasharray:none;stroke-dashoffset:0;stroke-opacity:0.9882352941;paint-order:normal" />
    <path
       style="opacity:1;vector-effect:none;fill:#ffffff;fill-opacity:1;stroke:#000000;stroke-width:5;stroke-linecap:round;stroke-linejoin:round;stroke-miterlimit:4;stroke-dasharray:none;stroke-dashoffset:0;stroke-opacity:0.9882352941;paint-order:normal"
       d="m 807.5000004260662,471.5196846958793 c -0.057848584599,29.0079811205131 -8.2104787352469,58.0239107759274 -0.087342972709,87.0269047630783 3.3920009834692,10.464178462827 8.8484722153944,9.3159482415017 12.7181773811542,9.9193047367484 5.8089947903652,0.5291966564071 11.9882647316274,-0.4163313868784 13.5303308335308,-8.2353032111802 6.4744877076339,-1.2070193566562 -2.4814384201565,-8.6350958231145 3.4428182565059,-12.5288466458804 4.7253546626921,-6.6541087391521 -2.2178557945606,-14.3051793985787 0.4486021710443,-21.7686351878141 1.8291825777462,-10.9248713457778 8.6817814749312,-21.1412019455983 6.3637582133889,-32.7462996506336 -0.7660381189454,-7.238220683952 -1.9447000629233,-14.8277246705734 -4.4163438660304,-21.6671248043182 -9.6793010325441,-1.8393022159803 -19.6857279483936,0.060900815535 -29.4871989388298,0.029310758034 -0.8371602012985,0.007127557 -1.6778962107071,0.084737234581 -2.5128010780547,-0.029310758034 z"
       id="path8434-8"
       inkscape:connector-curvature="0"
       transform="matrix(0.2645833333333333,0,0,0.2645833333333333,-155.4084822607147,-91.23824802249079)"
       sodipodi:nodetypes="cccccccccc" />
    <path
       style="opacity:1;vector-effect:none;fill:#999999;fill-opacity:1;stroke:#000000;stroke-width:5;stroke-linecap:round;stroke-linejoin:round;stroke-miterlimit:4;stroke-dasharray:none;stroke-dashoffset:0;stroke-opacity:0.9882352941;paint-order:normal"
       d="m 821.3750008628825,545.5258969715158 c -0.061379541798,-8.1628877908281 -3.2605576439911,-15.9699883887522 -3.8971935824892,-24.1358957936545 -0.204554851249,-7.7822921846855 -1.5821759912651,-15.6181602986566 -2.7841554499055,-22.9107354389211 -2.4329027811254,-5.189704295084 -2.7631098977656,-9.476663462433 0.1719246259036,-14.8684793446004 -2.4273607790888,-7.8347700836359 -2.8467458035507,7.1433240777796 -5.4453118828417,9.061192468015 -2.3699547470676,7.1703504549066 -2.9601709317035,14.8809085891177 -3.3719240716523,22.4327805097405 -1.7315883254537,9.1973170956011 -2.1288762272086,18.2135915092314 3.0625438292361,26.1233661465892 5.6352143529182,5.3876012180536 3.3346741280366,17.9083092200872 0.7366184926366,18.9748780361414 z"
       id="path8445-6"
       inkscape:connector-curvature="0"
       transform="matrix(0.2645833333333333,0,0,0.2645833333333333,-149.2345561758508,-89.74153866858452)"
       sodipodi:nodetypes="ccccccccc" />
    <path
       sodipodi:nodetypes="cccccccccccccccccccccccc"
       transform="matrix(0.2036842178010355,0,0,0.2030264964279446,-112.2399115379713,-61.93470449003147)"
       inkscape:connector-curvature="0"
       id="path8432-3"
       d="m 742.0000003915056,416.0196846665954 c 10.0926445778707,-1.050107582672 19.5627109315833,-8.9807242935401 30.7013065873334,-3.4543096209905 9.7246120914889,3.4650360612522 18.0821007714526,2.8106525891264 25.9765688852747,-6.131882532688 8.2178771486733,-7.0783117894882 17.0294184476502,-9.6184746088654 26.7698553517173,-3.4909964743774 12.1561769378678,4.0390287848668 21.3743462916359,7.2218907238262 28.7236625509463,-1.8800598296603 10.8662669401292,-2.407579904605 22.1505366154074,-1.3096403621865 33.105536243316,-3.3836973591162 12.576248831959,-4.1429108519283 4.8671349395695,13.0982393420829 6.1349403127997,19.6772324164052 1.1985839085638,7.4168268399787 9.1896382348275,12.1929072897716 4.7224910816199,19.7692858655591 5.7769705450316,8.2467867842225 -16.7320158058126,10.1524339050817 -4.1377651328119,14.243087903512 13.3364760848383,0.4028576270051 9.6874254731024,13.7460193001685 7.5361088373678,22.4561124020761 0.6429512790104,7.8779685584191 0.2999581872317,16.3489933863696 2.9672953681776,23.6952272722824 -6.3581545135876,7.8535531163676 -14.2979821875082,9.621369226344 -25.0000000131905,5.0000000026381 -9.2722888785942,-2.621019990127 -14.7218454560863,4.1041310205904 -20.6886554388358,6.8528334426489 -9.1305994025454,3.308270462675 -18.0621557114497,7.3093054606738 -27.2563781254619,3.5253663367841 -15.831861240997,-3.9927211846713 -30.1404324209727,-5.6413234880898 -41.6372317884535,0.2852926518649 -10.9115998836281,2.615733584895 -22.0663384969299,5.6423548857971 -33.3648504704646,5.1608469642014 -2.4192879922923,-4.9925487869772 -11.0719005390572,-17.7010944213682 -3.4085212756529,-21.1342524259616 3.9211250149804,-1.181618757825 18.7975680377308,-4.0915462991262 7.5623404509082,-6.1420191706749 -5.1322309384701,-5.955400249563 -15.6221571255871,-5.4162602950545 -13.8854071671319,-16.3103148159813 -1.116143436578,-9.1881932623838 -2.6874926753494,-18.510123600076 -2.3212962561389,-27.7377530121666 6.4427598848847,-1.912724901039 12.292996221518,-5.7338685005607 19.0000000100255,-6.5000000034297 -0.3742853096918,-11.1222680408131 -16.8835334266925,-4.3671092271671 -21.3362038173822,-11.0788518414296 0.1592068483618,-4.6603373400572 -6.3417532449598,-15.9309886323004 -0.4934331752713,-16.2991472208452 0.6872868939051,0.7840113674233 0.5482510752679,1.9563800936989 0.329636981309,2.8779990493491 z"
       style="opacity:1;vector-effect:none;fill:#ffffff;fill-opacity:1;stroke:#000000;stroke-width:6.5054512024;stroke-linecap:round;stroke-linejoin:round;stroke-miterlimit:4;stroke-dasharray:none;stroke-dashoffset:0;stroke-opacity:0.9882352941;paint-order:normal" />
    <path
       sodipodi:nodetypes="ccccc"
       transform="matrix(0.2036842178010355,0,0,0.2030264964279446,-110.6104377947032,-61.93470449003147)"
       inkscape:connector-curvature="0"
       id="path8436-1"
       d="m 805.7732292426666,431.3002778076926 c -6.9909333235893,3.7969459155532 -15.2249830820996,10.0067305802999 -18.948534722672,16.8047417257341 -3.71314809664,6.6927686784891 -15.7301058020967,10.951992523149 -12.7266274261227,18.45783508699 11.3086780905137,6.5810582875419 18.8609683680812,8.2366023247323 29.3532765064629,16.2879702655506 2.7090858960424,1.752589516997 13.5824929138759,4.0969726249498 16.4713795976578,5.5398647237888"
       style="opacity:1;vector-effect:none;fill:#ffffff;fill-opacity:1;stroke:#000000;stroke-width:6.5054512024;stroke-linecap:round;stroke-linejoin:round;stroke-miterlimit:4;stroke-dasharray:none;stroke-dashoffset:0;stroke-opacity:0.9882352941;paint-order:normal" />
    <path
       sodipodi:nodetypes="cccc"
       transform="matrix(0.2036842178010355,0,0,0.2030264964279446,-110.6104377947032,-61.93470449003147)"
       inkscape:connector-curvature="0"
       id="path8438-2"
       d="m 773.500000408126,463.519684691658 c 13.9269463808319,-1.5034493124705 26.9326175843061,7.3036253923974 42.3238991382844,-3.8477144814815 10.8473249458076,-6.4492014356563 22.6885090903495,-2.3731424461698 33.9168054598438,-3.780265449302 13.4548147918451,2.1710669232692 14.5937896721042,-1.927265903484 20.2592954527887,-3.3720200750204"
       style="opacity:1;vector-effect:none;fill:#ffffff;fill-opacity:1;stroke:#000000;stroke-width:6.5054512024;stroke-linecap:round;stroke-linejoin:round;stroke-miterlimit:4;stroke-dasharray:none;stroke-dashoffset:0;stroke-opacity:0.9882352941;paint-order:normal" />
  </g>
</svg>
