<?xml version="1.0" encoding="UTF-8" standalone="no"?>
<!-- Created with Inkscape (http://www.inkscape.org/) -->

<svg
   xmlns:dc="http://purl.org/dc/elements/1.1/"
   xmlns:cc="http://creativecommons.org/ns#"
   xmlns:rdf="http://www.w3.org/1999/02/22-rdf-syntax-ns#"
   xmlns:svg="http://www.w3.org/2000/svg"
   xmlns="http://www.w3.org/2000/svg"
   xmlns:sodipodi="http://sodipodi.sourceforge.net/DTD/sodipodi-0.dtd"
   xmlns:inkscape="http://www.inkscape.org/namespaces/inkscape"
   width="132"
   height="132"
   viewBox="0 0 34.92500084976574 34.9250010874138"
   version="1.1"
   id="svg4630"
   inkscape:version="0.92.1 r15371"
   sodipodi:docname="explossion.svg">
  <defs
     id="defs4624" />
  <sodipodi:namedview
     id="base"
     pagecolor="#ffffff"
     bordercolor="#666666"
     borderopacity="1.0"
     inkscape:pageopacity="0.0"
     inkscape:pageshadow="2"
     inkscape:zoom="4.894531244834932"
     inkscape:cx="72.64340923214718"
     inkscape:cy="70.26483314320578"
     inkscape:document-units="mm"
     inkscape:current-layer="layer9"
     showgrid="false"
     fit-margin-top="0"
     fit-margin-left="0"
     fit-margin-right="0"
     fit-margin-bottom="0"
     units="px"
     inkscape:snap-global="false"
     inkscape:window-width="1920"
     inkscape:window-height="1027"
     inkscape:window-x="-8"
     inkscape:window-y="-8"
     inkscape:window-maximized="1" />
  <metadata
     id="metadata4627">
    <rdf:RDF>
      <cc:Work
         rdf:about="">
        <dc:format>image/svg+xml</dc:format>
        <dc:type
           rdf:resource="http://purl.org/dc/dcmitype/StillImage" />
        <dc:title></dc:title>
      </cc:Work>
    </rdf:RDF>
  </metadata>
  <g
     inkscape:label="0"
     inkscape:groupmode="layer"
     id="layer1"
     transform="translate(-85.07930241307576,-37.55424985283598)"
     style="display:inline">
    <path
       style="opacity:1;vector-effect:none;fill:none;fill-opacity:0.4018691717;stroke:#4d4d4d;stroke-width:5.4455676079;stroke-linecap:round;stroke-linejoin:round;stroke-miterlimit:4;stroke-dasharray:none;stroke-dashoffset:0;stroke-opacity:1;paint-order:normal"
       d="M 69.87390270741518,60.90023935034944 C 68.26818133795717,60.45386530248246 67.38218876946035,58.57139721941019 65.78770956663068,58.0399041518003 52.41651852578473,53.58284047151821 56.38667843841659,70.09278046490973 60.88427779768927,72.34158014454608 72.29967771340004,78.04928010240148 74.07915081973135,60.05918972788624 69.87390270741518,60.90023935034944 Z"
       id="path5223"
       inkscape:connector-curvature="0"
       transform="matrix(0.2550668176577092,0,0,0.2550728798605005,85.69873623927992,38.1810459673251)" />
  </g>
  <g
     inkscape:groupmode="layer"
     id="layer3"
     inkscape:label="1"
     style="display:inline">
    <path
       style="opacity:1;vector-effect:none;fill:none;fill-opacity:0.4018691717;stroke:#4d4d4d;stroke-width:5.4455676079;stroke-linecap:round;stroke-linejoin:round;stroke-miterlimit:4;stroke-dasharray:none;stroke-dashoffset:0;stroke-opacity:1;paint-order:normal"
       d="m 70.61678058187543,72.16807171925381 c 0.51753277404775,6.23407504941829 -9.04343369439695,-2.16625352285858 -7.89371587083312,10.18468162021432 0.17302236772403,1.85870654369464 -0.23475736352173,3.90791904605862 0.40861931407845,5.5163607400591"
       id="path5230"
       inkscape:connector-curvature="0"
       transform="matrix(0.2550668176577092,0,0,0.2550728798605005,0.6194338262041529,0.6267961144891245)"
       sodipodi:nodetypes="csc" />
    <path
       style="opacity:1;vector-effect:none;fill:none;fill-opacity:0.4018691717;stroke:#4d4d4d;stroke-width:5.4455676079;stroke-linecap:round;stroke-linejoin:round;stroke-miterlimit:4;stroke-dasharray:none;stroke-dashoffset:0;stroke-opacity:1;paint-order:normal"
       d="M 59.37665378089607,72.76781496309638 C 51.12328382378965,69.92439073190624 62.68852494758404,64.82203404351176 41.89593575780989,63.81075283556463"
       id="path5232"
       inkscape:connector-curvature="0"
       transform="matrix(0.2550668176577092,0,0,0.2550728798605005,0.6194338262041529,0.6267961144891245)"
       sodipodi:nodetypes="cc" />
    <path
       style="opacity:1;vector-effect:none;fill:none;fill-opacity:0.4018691717;stroke:#4d4d4d;stroke-width:5.4455676079;stroke-linecap:round;stroke-linejoin:round;stroke-miterlimit:4;stroke-dasharray:none;stroke-dashoffset:0;stroke-opacity:1;paint-order:normal"
       d="m 56.34281015705465,58.75434679582895 c -1.06381259236458,-1.80466650623641 5.49736336020659,-1.90074693738253 5.63428101570547,-2.31149990387916 0.4104300857695,-1.2312902573085 2.20666342465118,-1.62878844868141 3.17831236783385,-2.60043739186407 1.85654181033181,-1.85654181033181 -1.27975283000745,-11.66103653153911 -2.1670311598867,-13.43559319129764"
       id="path5234"
       inkscape:connector-curvature="0"
       transform="matrix(0.2550668176577092,0,0,0.2550728798605005,0.6194338262041529,0.6267961144891245)" />
    <path
       style="opacity:1;vector-effect:none;fill:none;fill-opacity:0.4018691717;stroke:#4d4d4d;stroke-width:5.4455676079;stroke-linecap:round;stroke-linejoin:round;stroke-miterlimit:4;stroke-dasharray:none;stroke-dashoffset:0;stroke-opacity:1;paint-order:normal"
       d="m 69.63393460435985,59.62115925978364 c 1.21466374823621,0.14994141346472 3.37521534373293,-0.50796266676093 4.18959357578099,0.57787497596979 1.39421910987151,1.85895881316204 0.12309197686155,4.00237129752672 1.01128120794714,5.77874975969792 1.61167262898677,3.22334525797353 9.62906738456785,0.14446874399245 12.27984323935806,0.14446874399245"
       id="path5236"
       inkscape:connector-curvature="0"
       transform="matrix(0.2550668176577092,0,0,0.2550728798605005,0.6194338262041529,0.6267961144891245)" />
  </g>
  <g
     inkscape:groupmode="layer"
     id="layer4"
     inkscape:label="2"
     style="display:inline">
    <path
       style="opacity:1;vector-effect:none;fill:none;fill-opacity:0.4018691717;stroke:#4d4d4d;stroke-width:5.4455676079;stroke-linecap:round;stroke-linejoin:round;stroke-miterlimit:4;stroke-dasharray:none;stroke-dashoffset:0;stroke-opacity:1;paint-order:normal"
       d="M 64.43305982063172,49.94175341228963 C 65.75586847986291,44.98595401370315 66.70059411730102,35.32529050503345 63.85518484466195,30.58294171730162 62.62622780620585,28.53467998654146 61.5356954485833,26.36139017272269 60.965809964813,24.08184823764146"
       id="path5239"
       inkscape:connector-curvature="0"
       transform="matrix(0.2550668176577092,0,0,0.2550728798605005,0.6194338262041529,0.6267961144891245)" />
    <path
       style="opacity:1;vector-effect:none;fill:none;fill-opacity:0.4018691717;stroke:#4d4d4d;stroke-width:5.4455676079;stroke-linecap:round;stroke-linejoin:round;stroke-miterlimit:4;stroke-dasharray:none;stroke-dashoffset:0;stroke-opacity:1;paint-order:normal"
       d="m 78.73546547588405,67.27800269138336 c 7.136266067918,-1.92526141903393 24.76782769171414,-5.71507729069236 30.48290498240654,0"
       id="path5241"
       inkscape:connector-curvature="0"
       transform="matrix(0.2550668176577092,0,0,0.2550728798605005,0.6194338262041529,0.6267961144891245)" />
    <path
       style="opacity:1;vector-effect:none;fill:none;fill-opacity:0.4018691717;stroke:#4d4d4d;stroke-width:5.4455676079;stroke-linecap:round;stroke-linejoin:round;stroke-miterlimit:4;stroke-dasharray:none;stroke-dashoffset:0;stroke-opacity:1;paint-order:normal"
       d="m 62.84390363671482,82.01381457861305 c -2.62310155183386,9.16809897719554 2.65390967031841,15.80056537363117 8.52365589555441,21.67031159886714 0.98596002223606,0.9859600222361 1.79387519408158,1.9653906104411 3.17831236783385,2.3114999038792"
       id="path5243"
       inkscape:connector-curvature="0"
       transform="matrix(0.2550668176577092,0,0,0.2550728798605005,0.6194338262041529,0.6267961144891245)" />
    <path
       style="opacity:1;vector-effect:none;fill:none;fill-opacity:0.4018691717;stroke:#4d4d4d;stroke-width:5.4455676079;stroke-linecap:round;stroke-linejoin:round;stroke-miterlimit:4;stroke-dasharray:none;stroke-dashoffset:0;stroke-opacity:1;paint-order:normal"
       d="M 48.10809174948514,64.3886278115344 C 38.75909051399828,64.61479545840906 28.7794200503159,64.69263529742869 20.65903039092005,60.63244046773079"
       id="path5245"
       inkscape:connector-curvature="0"
       transform="matrix(0.2550668176577092,0,0,0.2550728798605005,0.6194338262041529,0.6267961144891245)" />
    <path
       style="opacity:1;vector-effect:none;fill:none;fill-opacity:0.4018691717;stroke:#4d4d4d;stroke-width:5.4455676079;stroke-linecap:round;stroke-linejoin:round;stroke-miterlimit:4;stroke-dasharray:none;stroke-dashoffset:0;stroke-opacity:1;paint-order:normal"
       d="m 58.50984131694137,58.03200307586671 c -1.49337181604741,0.032008101223 -1.89168058272914,2.07691005920357 -2.16703115988672,3.17831236783386"
       id="path5247"
       inkscape:connector-curvature="0"
       transform="matrix(0.2550668176577092,0,0,0.2550728798605005,0.6194338262041529,0.6267961144891245)" />
    <path
       style="opacity:1;vector-effect:none;fill:none;fill-opacity:0.4018691717;stroke:#4d4d4d;stroke-width:5.4455676079;stroke-linecap:round;stroke-linejoin:round;stroke-miterlimit:4;stroke-dasharray:none;stroke-dashoffset:0;stroke-opacity:1;paint-order:normal"
       d="m 66.88902846850334,58.75434679582895 c 0.91471203575905,1.05374189200957 2.60403871902291,2.67537275922942 4.04512483178854,3.75618734380366"
       id="path5249"
       inkscape:connector-curvature="0"
       transform="matrix(0.2550668176577092,0,0,0.2550728798605005,0.6194338262041529,0.6267961144891245)" />
    <path
       style="opacity:1;vector-effect:none;fill:none;fill-opacity:0.4018691717;stroke:#4d4d4d;stroke-width:5.4455676079;stroke-linecap:round;stroke-linejoin:round;stroke-miterlimit:4;stroke-dasharray:none;stroke-dashoffset:0;stroke-opacity:1;paint-order:normal"
       d="m 72.23437199622391,70.16737757123232 c -1.6881929873894,1.20591155154973 -2.32954394977544,2.76295018175277 -3.6117185998112,4.04512483178854"
       id="path5251"
       inkscape:connector-curvature="0"
       transform="matrix(0.2550668176577092,0,0,0.2550728798605005,0.6194338262041529,0.6267961144891245)" />
    <path
       style="opacity:1;vector-effect:none;fill:none;fill-opacity:0.4018691717;stroke:#4d4d4d;stroke-width:5.4455676079;stroke-linecap:round;stroke-linejoin:round;stroke-miterlimit:4;stroke-dasharray:none;stroke-dashoffset:0;stroke-opacity:1;paint-order:normal"
       d="M 60.38793498884319,74.21250240302086 C 57.12363650038005,74.58058591989473 56.50372833729201,73.55595642803827 55.9094039250773,71.17865877917947"
       id="path5253"
       inkscape:connector-curvature="0"
       transform="matrix(0.2550668176577092,0,0,0.2550728798605005,0.6194338262041529,0.6267961144891245)" />
  </g>
  <g
     inkscape:groupmode="layer"
     id="layer5"
     inkscape:label="3"
     style="display:inline">
    <path
       style="opacity:1;vector-effect:none;fill:none;fill-opacity:0.4018691717;stroke:#4d4d4d;stroke-width:5.4455676079;stroke-linecap:round;stroke-linejoin:round;stroke-miterlimit:4;stroke-dasharray:none;stroke-dashoffset:0;stroke-opacity:1;paint-order:normal"
       d="M 64.43305982063172,42.71831621266725 C 70.31125909170657,28.87108228027443 56.79565697394917,21.1147110181238 60.53240373283564,6.167723982577943"
       id="path5258"
       inkscape:connector-curvature="0"
       transform="matrix(0.2550668176577092,0,0,0.2550728798605005,0.6194338262041529,0.6267961144891245)" />
    <path
       style="opacity:1;vector-effect:none;fill:none;fill-opacity:0.4018691717;stroke:#4d4d4d;stroke-width:5.4455676079;stroke-linecap:round;stroke-linejoin:round;stroke-miterlimit:4;stroke-dasharray:none;stroke-dashoffset:0;stroke-opacity:1;paint-order:normal"
       d="m 85.09209021155176,65.83331525145888 c 5.71338500488615,-2.13163514993717 15.00639859417113,-5.29856649874962 20.94796787890493,-1.73362492790936 3.8430269942806,2.30581619656833 7.1012043019627,6.50665244124333 11.7019682633883,7.65684343159974 2.2653958356291,0.56634895890727 5.4224169298811,0 7.8013121755922,0"
       id="path5260"
       inkscape:connector-curvature="0"
       transform="matrix(0.2550668176577092,0,0,0.2550728798605005,0.6194338262041529,0.6267961144891245)" />
    <path
       style="opacity:1;vector-effect:none;fill:none;fill-opacity:0.4018691717;stroke:#4d4d4d;stroke-width:5.4455676079;stroke-linecap:round;stroke-linejoin:round;stroke-miterlimit:4;stroke-dasharray:none;stroke-dashoffset:0;stroke-opacity:1;paint-order:normal"
       d="m 63.27730986869215,87.21468936234117 c -1.40212033462069,6.89588390173782 -0.27799337833648,15.83815198543162 7.07896845562994,18.78093671901823 2.97693472389767,1.1907738895591 4.00174572801829,2.0802729523463 5.34534352772057,4.7674685517508 2.614578123537,5.229156247074 -1.44468743992448,13.606455673729 -1.44468743992448,18.9254054630106"
       id="path5262"
       inkscape:connector-curvature="0"
       transform="matrix(0.2550668176577092,0,0,0.2550728798605005,0.6194338262041529,0.6267961144891245)" />
    <path
       style="opacity:1;vector-effect:none;fill:none;fill-opacity:0.4018691717;stroke:#4d4d4d;stroke-width:5.4455676079;stroke-linecap:round;stroke-linejoin:round;stroke-miterlimit:4;stroke-dasharray:none;stroke-dashoffset:0;stroke-opacity:1;paint-order:normal"
       d="M 43.1961544537419,65.11097153149664 C 40.98791921897914,62.33448958351356 14.28340893023589,59.22574647783918 12.42431198335051,62.94394037160994"
       id="path5264"
       inkscape:connector-curvature="0"
       transform="matrix(0.2550668176577092,0,0,0.2550728798605005,0.6194338262041529,0.6267961144891245)" />
    <path
       style="opacity:1;vector-effect:none;fill:none;fill-opacity:0.4018691717;stroke:#4d4d4d;stroke-width:5.4455676079;stroke-linecap:round;stroke-linejoin:round;stroke-miterlimit:4;stroke-dasharray:none;stroke-dashoffset:0;stroke-opacity:1;paint-order:normal"
       d="m 58.65431006093382,72.91228370708884 c -2.68410216750532,1.08421326774503 -4.9888885734795,2.96632615758523 -6.79003096764505,4.76746855175077"
       id="path5270"
       inkscape:connector-curvature="0"
       transform="matrix(0.2550668176577092,0,0,0.2550728798605005,0.6194338262041529,0.6267961144891245)" />
    <path
       style="opacity:1;vector-effect:none;fill:none;fill-opacity:0.4018691717;stroke:#4d4d4d;stroke-width:5.4455676079;stroke-linecap:round;stroke-linejoin:round;stroke-miterlimit:4;stroke-dasharray:none;stroke-dashoffset:0;stroke-opacity:1;paint-order:normal"
       d="m 69.63393460435985,73.05675245108128 c 4.64100879574144,-0.47004389458426 8.12055348829206,2.48627247258659 11.12409328741849,5.48981227171302"
       id="path5272"
       inkscape:connector-curvature="0"
       transform="matrix(0.2550668176577092,0,0,0.2550728798605005,0.6194338262041529,0.6267961144891245)" />
    <path
       style="opacity:1;vector-effect:none;fill:none;fill-opacity:0.4018691717;stroke:#4d4d4d;stroke-width:5.4455676079;stroke-linecap:round;stroke-linejoin:round;stroke-miterlimit:4;stroke-dasharray:none;stroke-dashoffset:0;stroke-opacity:1;paint-order:normal"
       d="M 71.945434508239,61.49925293168546 C 70.73980728515896,58.238725023046 71.434862058589,56.6644818536149 73.67905943614839,54.42028447605552"
       id="path5274"
       inkscape:connector-curvature="0"
       transform="matrix(0.2550668176577092,0,0,0.2550728798605005,0.6194338262041529,0.6267961144891245)" />
    <path
       style="opacity:1;vector-effect:none;fill:none;fill-opacity:0.4018691717;stroke:#4d4d4d;stroke-width:5.4455676079;stroke-linecap:round;stroke-linejoin:round;stroke-miterlimit:4;stroke-dasharray:none;stroke-dashoffset:0;stroke-opacity:1;paint-order:normal"
       d="M 56.1983414130622,62.5105341396326 C 55.60311162783631,57.17354779765823 53.45659987351352,54.43952979267 48.39702923747002,52.54219080415369 47.3947491709112,52.16633577919413 46.04566045266496,52.06891569125044 45.36318561362863,51.38644085221411"
       id="path5276"
       inkscape:connector-curvature="0"
       transform="matrix(0.2550668176577092,0,0,0.2550728798605005,0.6194338262041529,0.6267961144891245)" />
  </g>
  <g
     inkscape:groupmode="layer"
     id="layer6"
     inkscape:label="4"
     style="display:inline">
    <path
       style="opacity:1;vector-effect:none;fill:none;fill-opacity:0.4018691717;stroke:#4d4d4d;stroke-width:5.4455676079;stroke-linecap:round;stroke-linejoin:round;stroke-miterlimit:4;stroke-dasharray:none;stroke-dashoffset:0;stroke-opacity:1;paint-order:normal"
       d="M 72.52330948420879,56.87625312392713 C 76.64243423687422,47.52963898092615 86.16831413183284,43.0470167164814 95.2049022910231,38.52872263688626"
       id="path5279"
       inkscape:connector-curvature="0"
       transform="matrix(0.2550668176577092,0,0,0.2550728798605005,0.6194338262041529,0.6267961144891245)" />
    <path
       style="opacity:1;vector-effect:none;fill:none;fill-opacity:0.4018691717;stroke:#4d4d4d;stroke-width:5.4455676079;stroke-linecap:round;stroke-linejoin:round;stroke-miterlimit:4;stroke-dasharray:none;stroke-dashoffset:0;stroke-opacity:1;paint-order:normal"
       d="m 72.37884074021636,73.20122119507374 c 2.7752559924989,0.27566125579989 9.90158075937761,3.15040287567811 11.26856203141092,5.20087478372811 1.08611151118282,1.62916726677423 1.83136712131416,3.6260809201015 2.88937487984896,5.34534352772057 1.45245409370477,2.36023790227028 3.48275725025688,4.3650771086497 4.76746855175078,6.9344997116375 0.79153390034173,1.58306780068347 2.75487101708721,2.62036715432545 3.46724985581875,4.04512483178854"
       id="path5281"
       inkscape:connector-curvature="0"
       transform="matrix(0.2550668176577092,0,0,0.2550728798605005,0.6194338262041529,0.6267961144891245)" />
    <path
       style="opacity:1;vector-effect:none;fill:none;fill-opacity:0.4018691717;stroke:#4d4d4d;stroke-width:5.4455676079;stroke-linecap:round;stroke-linejoin:round;stroke-miterlimit:4;stroke-dasharray:none;stroke-dashoffset:0;stroke-opacity:1;paint-order:normal"
       d="M 54.60918522914528,75.07931486697555 C 42.52928490864913,82.49818420509689 41.11730608483455,86.86195819842369 37.85081092602133,99.92793883367659"
       id="path5283"
       inkscape:connector-curvature="0"
       transform="matrix(0.2550668176577092,0,0,0.2550728798605005,0.6194338262041529,0.6267961144891245)" />
    <path
       style="opacity:1;vector-effect:none;fill:none;fill-opacity:0.4018691717;stroke:#4d4d4d;stroke-width:5.4455676079;stroke-linecap:round;stroke-linejoin:round;stroke-miterlimit:4;stroke-dasharray:none;stroke-dashoffset:0;stroke-opacity:1;paint-order:normal"
       d="m 54.46471648515284,56.73178437993468 c -1.8316358494926,-2.29537993273487 -2.72590139222757,-5.59436560534926 -5.20087478372813,-7.65684343159974 -2.64074173689805,-2.2006181140817 -6.28115386060928,-2.99610818631217 -9.24599961551666,-4.47853106376587 -2.97572742606477,-1.48786371303238 -5.48924623939221,-3.82813869963945 -8.23471840756953,-5.20087478372812 -0.8147397056663,-0.40736985283316 -2.2792378802789,-0.43340623197735 -3.17831236783385,-0.43340623197735"
       id="path5285"
       inkscape:connector-curvature="0"
       transform="matrix(0.2550668176577092,0,0,0.2550728798605005,0.6194338262041529,0.6267961144891245)" />
    <path
       style="opacity:1;vector-effect:none;fill:none;fill-opacity:0.4018691717;stroke:#4d4d4d;stroke-width:5.4455676079;stroke-linecap:round;stroke-linejoin:round;stroke-miterlimit:4;stroke-dasharray:none;stroke-dashoffset:0;stroke-opacity:1;paint-order:normal"
       d="M 65.44434102857886,30.29400422931673 C 65.75763119303387,22.8665074825269 55.58464843695261,9.128734862706508 58.94324754891871,2.411536638774294"
       id="path5287"
       inkscape:connector-curvature="0"
       transform="matrix(0.2550668176577092,0,0,0.2550728798605005,0.6194338262041529,0.6267961144891245)" />
    <path
       style="opacity:1;vector-effect:none;fill:none;fill-opacity:0.4018691717;stroke:#4d4d4d;stroke-width:5.4455676079;stroke-linecap:round;stroke-linejoin:round;stroke-miterlimit:4;stroke-dasharray:none;stroke-dashoffset:0;stroke-opacity:1;paint-order:normal"
       d="m 100.4057770747512,63.37734660358729 c 9.1538499515936,0.90772963870094 16.9502690022418,7.51237468760728 26.437780150618,7.51237468760728"
       id="path5289"
       inkscape:connector-curvature="0"
       transform="matrix(0.2550668176577092,0,0,0.2550728798605005,0.6194338262041529,0.6267961144891245)" />
    <path
       style="opacity:1;vector-effect:none;fill:none;fill-opacity:0.4018691717;stroke:#4d4d4d;stroke-width:5.4455676079;stroke-linecap:round;stroke-linejoin:round;stroke-miterlimit:4;stroke-dasharray:none;stroke-dashoffset:0;stroke-opacity:1;paint-order:normal"
       d="m 66.31115349253353,103.8285949214727 c 0.25715792861421,2.0327193279496 4.45987012772649,2.0877989368757 6.21215599167526,2.7449061358565 14.45897014603013,5.4221138047613 7.72124132859256,11.4460827723825 9.67940584749401,21.2369053668898"
       id="path5291"
       inkscape:connector-curvature="0"
       transform="matrix(0.2550668176577092,0,0,0.2550728798605005,0.6194338262041529,0.6267961144891245)" />
    <path
       style="opacity:1;vector-effect:none;fill:none;fill-opacity:0.4018691717;stroke:#4d4d4d;stroke-width:5.4455676079;stroke-linecap:round;stroke-linejoin:round;stroke-miterlimit:4;stroke-dasharray:none;stroke-dashoffset:0;stroke-opacity:1;paint-order:normal"
       d="M 31.92759242233097,60.63244046773078 C 23.89636067308977,60.50395247088237 14.04216740135858,57.85883509778312 8.234718407569527,63.66628409157218 7.652741797025268,64.24826070211642 6.420942449409947,64.21991686892484 5.923218503690363,64.96650278750421 4.88324775435873,66.52645891150166 4.048848779341059,68.62017105605869 3.033843623841407,70.31184631522478"
       id="path5295"
       inkscape:connector-curvature="0"
       transform="matrix(0.2550668176577092,0,0,0.2550728798605005,0.6194338262041529,0.6267961144891245)" />
  </g>
  <g
     inkscape:groupmode="layer"
     id="layer7"
     inkscape:label="5"
     style="display:inline">
    <path
       style="opacity:1;vector-effect:none;fill:none;fill-opacity:0.4018691717;stroke:#4d4d4d;stroke-width:5.4455676079;stroke-linecap:round;stroke-linejoin:round;stroke-miterlimit:4;stroke-dasharray:none;stroke-dashoffset:0;stroke-opacity:1;paint-order:normal"
       d="M 43.4850919417268,45.17428486053886 C 33.81242967768077,40.84557996377687 26.36493018783572,32.35237603581611 17.04731179110884,27.69356683745266 14.87599811955164,26.60791000167406 11.26890440787377,20.64362908120635 7.945780919584631,19.3143796858907"
       id="path5298"
       inkscape:connector-curvature="0"
       transform="matrix(0.2550668176577092,0,0,0.2550728798605005,0.6194338262041529,0.6267961144891245)" />
    <path
       style="opacity:1;vector-effect:none;fill:none;fill-opacity:0.4018691717;stroke:#4d4d4d;stroke-width:5.4455676079;stroke-linecap:round;stroke-linejoin:round;stroke-miterlimit:4;stroke-dasharray:none;stroke-dashoffset:0;stroke-opacity:1;paint-order:normal"
       d="m 78.01312175592181,49.21940969232739 c 2.32868453243252,-1.24576929890749 4.63602583046874,-3.69046598316261 7.07896845562995,-4.91193729574321 2.06247028199516,-1.03123514099758 2.81444299743076,-3.99337190322843 4.04512483178854,-5.63428101570547 1.10678884757391,-1.47571846343191 3.06642917273308,-2.63302294075572 4.33406231977344,-3.9006560877961 5.46907875483531,-5.46907875483531 17.72955213686856,-9.63447074901452 24.70415522270856,-12.42431198335052"
       id="path5300"
       inkscape:connector-curvature="0"
       transform="matrix(0.2550668176577092,0,0,0.2550728798605005,0.6194338262041529,0.6267961144891245)" />
    <path
       style="opacity:1;vector-effect:none;fill:none;fill-opacity:0.4018691717;stroke:#4d4d4d;stroke-width:5.4455676079;stroke-linecap:round;stroke-linejoin:round;stroke-miterlimit:4;stroke-dasharray:none;stroke-dashoffset:0;stroke-opacity:1;paint-order:normal"
       d="m 81.62484035573301,76.95740853887737 c 3.38402642370981,1.55604830537263 14.80571068659269,9.67473470222758 16.18049932715415,12.42431198335051 1.72067366721345,3.44134733442687 3.93022443489764,7.11510754653176 6.50109347966013,10.25728082346382 3.0127543617142,3.68225533098401 8.3975082878712,5.76112873888251 10.8351557994336,9.8238745914864 1.1063717760891,1.8439529601486 2.3091332535251,4.0427581814345 3.9006560877961,5.6342810157055"
       id="path5302"
       inkscape:connector-curvature="0"
       transform="matrix(0.2550668176577092,0,0,0.2550728798605005,0.6194338262041529,0.6267961144891245)" />
    <path
       style="opacity:1;vector-effect:none;fill:none;fill-opacity:0.4018691717;stroke:#4d4d4d;stroke-width:5.4455676079;stroke-linecap:round;stroke-linejoin:round;stroke-miterlimit:4;stroke-dasharray:none;stroke-dashoffset:0;stroke-opacity:1;paint-order:normal"
       d="M 42.32934198978722,84.18084573849975 C 37.15710603818999,95.54401921254624 31.34971744636118,107.5098916868445 31.34971744636118,120.1535629926193"
       id="path5304"
       inkscape:connector-curvature="0"
       transform="matrix(0.2550668176577092,0,0,0.2550728798605005,0.6194338262041529,0.6267961144891245)" />
    <path
       style="opacity:1;vector-effect:none;fill:none;fill-opacity:0.4018691717;stroke:#4d4d4d;stroke-width:5.4455676079;stroke-linecap:round;stroke-linejoin:round;stroke-miterlimit:4;stroke-dasharray:none;stroke-dashoffset:0;stroke-opacity:1;paint-order:normal"
       d="m 82.05824658771037,128.8216876321662 c 0.21259572079161,-2.4886422166873 0.43340623197734,-4.8454313766777 0.43340623197734,-7.3679059436149"
       id="path5308"
       inkscape:connector-curvature="0"
       transform="matrix(0.2550668176577092,0,0,0.2550728798605005,0.6194338262041529,0.6267961144891245)" />
    <path
       style="opacity:1;vector-effect:none;fill:none;fill-opacity:0.4018691717;stroke:#4d4d4d;stroke-width:5.4455676079;stroke-linecap:round;stroke-linejoin:round;stroke-miterlimit:4;stroke-dasharray:none;stroke-dashoffset:0;stroke-opacity:1;paint-order:normal"
       d="m 127.5659009453314,71.03419003518699 c -4.4630092628157,2.32344025392854 -9.5832019793909,-2.88937487984894 -12.4243119833505,-2.88937487984894"
       id="path5310"
       inkscape:connector-curvature="0"
       transform="matrix(0.2550668176577092,0,0,0.2550728798605005,0.6194338262041529,0.6267961144891245)" />
    <path
       style="opacity:1;vector-effect:none;fill:none;fill-opacity:0.4018691717;stroke:#4d4d4d;stroke-width:5.4455676079;stroke-linecap:round;stroke-linejoin:round;stroke-miterlimit:4;stroke-dasharray:none;stroke-dashoffset:0;stroke-opacity:1;paint-order:normal"
       d="M 2.600437391864061,72.04547124313414 C 4.43272066900062,68.84934450972977 6.222589284284878,62.50531749332778 9.679405847494004,60.77690921172322"
       id="path5312"
       inkscape:connector-curvature="0"
       transform="matrix(0.2550668176577092,0,0,0.2550728798605005,0.6194338262041529,0.6267961144891245)" />
    <path
       style="opacity:1;vector-effect:none;fill:none;fill-opacity:0.4018691717;stroke:#4d4d4d;stroke-width:5.4455676079;stroke-linecap:round;stroke-linejoin:round;stroke-miterlimit:4;stroke-dasharray:none;stroke-dashoffset:0;stroke-opacity:1;paint-order:normal"
       d="M 58.36537257294892,2.122599150789398 C 57.5849583835596,5.531693804310894 57.49856010899424,9.081044539156252 57.49856010899424,12.81328620623054"
       id="path5314"
       inkscape:connector-curvature="0"
       transform="matrix(0.2550668176577092,0,0,0.2550728798605005,0.6194338262041529,0.6267961144891245)" />
  </g>
  <g
     inkscape:groupmode="layer"
     id="layer8"
     inkscape:label="6"
     style="display:inline">
    <path
       style="opacity:1;vector-effect:none;fill:none;fill-opacity:0.4018691717;stroke:#4d4d4d;stroke-width:5.4455676079;stroke-linecap:round;stroke-linejoin:round;stroke-miterlimit:4;stroke-dasharray:none;stroke-dashoffset:0;stroke-opacity:1;paint-order:normal"
       d="m 91.93934566765159,34.33998393525008 c 8.327120762532,-7.87537598624711 22.48863464584761,-12.52542680184192 33.71109341147231,-15.7318435920204"
       id="path5317"
       inkscape:connector-curvature="0"
       transform="matrix(0.2550668176577092,0,0,0.2550728798605005,0.6194338262041529,0.6267961144891245)" />
    <path
       style="opacity:1;vector-effect:none;fill:none;fill-opacity:0.4018691717;stroke:#4d4d4d;stroke-width:5.4455676079;stroke-linecap:round;stroke-linejoin:round;stroke-miterlimit:4;stroke-dasharray:none;stroke-dashoffset:0;stroke-opacity:1;paint-order:normal"
       d="M 27.78611335733471,33.72705496413239 C 20.80125255214005,32.57242499692841 21.01971700839329,24.30946860701049 16.95770153425574,21.05985622770039 14.77244119050447,19.31164795269936 9.921754668511907,16.9289538237108 7.150837996372906,15.54349548764129"
       id="path5319"
       inkscape:connector-curvature="0"
       transform="matrix(0.2550668176577092,0,0,0.2550728798605005,0.6194338262041529,0.6267961144891245)" />
    <path
       style="opacity:1;vector-effect:none;fill:none;fill-opacity:0.4018691717;stroke:#4d4d4d;stroke-width:5.4455676079;stroke-linecap:round;stroke-linejoin:round;stroke-miterlimit:4;stroke-dasharray:none;stroke-dashoffset:0;stroke-opacity:1;paint-order:normal"
       d="m 33.91540306851148,105.0311252708222 c -2.98605581596434,6.9241411109994 -1.63447725631381,14.3097162234198 -1.63447725631381,21.6568236461579"
       id="path5321"
       inkscape:connector-curvature="0"
       transform="matrix(0.2550668176577092,0,0,0.2550728798605005,0.6194338262041529,0.6267961144891245)" />
    <path
       style="opacity:1;vector-effect:none;fill:none;fill-opacity:0.4018691717;stroke:#4d4d4d;stroke-width:5.4455676079;stroke-linecap:round;stroke-linejoin:round;stroke-miterlimit:4;stroke-dasharray:none;stroke-dashoffset:0;stroke-opacity:1;paint-order:normal"
       d="m 101.9505188625737,98.6975259026062 c 2.9517948165478,0.71820578639996 9.2584281813676,4.6237996840679 10.8284118230789,7.7637669674906 1.5089610678261,3.0179221356519 7.5159311513515,14.5361906704245 7.9680766245298,16.344772563138"
       id="path5323"
       inkscape:connector-curvature="0"
       transform="matrix(0.2550668176577092,0,0,0.2550728798605005,0.6194338262041529,0.6267961144891245)" />
  </g>
  <g
     inkscape:groupmode="layer"
     id="layer9"
     inkscape:label="7">
    <path
       style="opacity:1;vector-effect:none;fill:none;fill-opacity:0.4018691717;stroke:#4d4d4d;stroke-width:5.4455676079;stroke-linecap:round;stroke-linejoin:round;stroke-miterlimit:4;stroke-dasharray:none;stroke-dashoffset:0;stroke-opacity:1;paint-order:normal"
       d="m 112.5746210286134,22.49002382697497 c 3.7527179923498,-1.88477884598343 9.0204032095381,-4.04281030147771 13.2801277075497,-5.10774142598064"
       id="path5326"
       inkscape:connector-curvature="0"
       transform="matrix(0.2550668176577092,0,0,0.2550728798605005,0.6194338262041529,0.6267961144891245)" />
    <path
       style="opacity:1;vector-effect:none;fill:none;fill-opacity:0.4018691717;stroke:#4d4d4d;stroke-width:5.4455676079;stroke-linecap:round;stroke-linejoin:round;stroke-miterlimit:4;stroke-dasharray:none;stroke-dashoffset:0;stroke-opacity:1;paint-order:normal"
       d="m 116.0478851982803,111.5690342960774 c 1.089087103253,0.1800321980798 1.216302390427,1.7910091543115 1.4301675992745,2.8603351985492 1.3246413319275,6.6232066596371 1.7411843437497,5.9539329554546 7.1508379963729,10.0111731949221"
       id="path5328"
       inkscape:connector-curvature="0"
       transform="matrix(0.2550668176577092,0,0,0.2550728798605005,0.6194338262041529,0.6267961144891245)" />
    <path
       style="opacity:1;vector-effect:none;fill:none;fill-opacity:0.4018691717;stroke:#4d4d4d;stroke-width:5.4455676079;stroke-linecap:round;stroke-linejoin:round;stroke-miterlimit:4;stroke-dasharray:none;stroke-dashoffset:0;stroke-opacity:1;paint-order:normal"
       d="m 31.46368718404077,113.8164405235089 c 0.3978716862848,3.9401466867589 -1.20940231404667,8.8072560902716 1.22585794223536,12.0542697653143"
       id="path5330"
       inkscape:connector-curvature="0"
       transform="matrix(0.2550668176577092,0,0,0.2550728798605005,0.6194338262041529,0.6267961144891245)" />
    <path
       style="opacity:1;vector-effect:none;fill:none;fill-opacity:0.4018691717;stroke:#4d4d4d;stroke-width:5.4455676079;stroke-linecap:round;stroke-linejoin:round;stroke-miterlimit:4;stroke-dasharray:none;stroke-dashoffset:0;stroke-opacity:1;paint-order:normal"
       d="m 4.699122111902195,14.31763754540594 c 4.13602545117994,1.98479915348998 7.886738147503746,2.77899672152315 11.237031137157414,6.12928971117677"
       id="path5332"
       inkscape:connector-curvature="0"
       transform="matrix(0.2550668176577092,0,0,0.2550728798605005,0.6194338262041529,0.6267961144891245)" />
  </g>
</svg>
