<?xml version="1.0" encoding="UTF-8" standalone="no"?>
<!-- Created with Inkscape (http://www.inkscape.org/) -->

<svg
   xmlns:dc="http://purl.org/dc/elements/1.1/"
   xmlns:cc="http://creativecommons.org/ns#"
   xmlns:rdf="http://www.w3.org/1999/02/22-rdf-syntax-ns#"
   xmlns:svg="http://www.w3.org/2000/svg"
   xmlns="http://www.w3.org/2000/svg"
   xmlns:sodipodi="http://sodipodi.sourceforge.net/DTD/sodipodi-0.dtd"
   xmlns:inkscape="http://www.inkscape.org/namespaces/inkscape"
   width="512"
   height="512"
   viewBox="0 0 135.46667 135.46667"
   version="1.1"
   id="svg8"
   inkscape:version="0.92.1 r15371"
   sodipodi:docname="ico.svg"
   inkscape:export-filename="C:\Users\VG\qeqe\art\ico.png"
   inkscape:export-xdpi="95.971603"
   inkscape:export-ydpi="95.971603">
  <defs
     id="defs2">
    <clipPath
       id="clipPath4580"
       clipPathUnits="userSpaceOnUse">
      <path
         sodipodi:nodetypes="zsssz"
         inkscape:connector-curvature="0"
         id="path4582"
         d="m 64.243735,1000.5448 c 0,3.9276 -1.143476,8.9889 -8.142724,8.9889 -6.99925,0 -17.326247,-3.2267 -17.326247,-8.8665 0,-5.63989 5.79646,-7.52136 12.795708,-7.52136 11.89713,0 12.673263,3.47129 12.673263,7.39896 z"
         style="color:#000000;display:inline;overflow:visible;visibility:visible;fill:#262626;fill-opacity:1;fill-rule:nonzero;stroke:none;stroke-width:1.65699995;marker:none;enable-background:accumulate" />
    </clipPath>
    <clipPath
       clipPathUnits="userSpaceOnUse"
       id="clipPath4580-7">
      <path
         style="color:#000000;display:inline;overflow:visible;visibility:visible;fill:#262626;fill-opacity:1;fill-rule:nonzero;stroke:none;stroke-width:1.65699995;marker:none;enable-background:accumulate"
         d="m 64.243735,1000.5448 c 0,3.9276 -1.143476,8.9889 -8.142724,8.9889 -6.99925,0 -17.326247,-3.2267 -17.326247,-8.8665 0,-5.63989 5.79646,-7.52136 12.795708,-7.52136 11.89713,0 12.673263,3.47129 12.673263,7.39896 z"
         id="path4582-0"
         inkscape:connector-curvature="0"
         sodipodi:nodetypes="zsssz" />
    </clipPath>
  </defs>
  <sodipodi:namedview
     id="base"
     pagecolor="#ffffff"
     bordercolor="#666666"
     borderopacity="1.0"
     inkscape:pageopacity="0.0"
     inkscape:pageshadow="2"
     inkscape:zoom="0.35"
     inkscape:cx="-11.405538"
     inkscape:cy="372.99734"
     inkscape:document-units="mm"
     inkscape:current-layer="layer1"
     showgrid="false"
     inkscape:window-width="716"
     inkscape:window-height="406"
     inkscape:window-x="409"
     inkscape:window-y="134"
     inkscape:window-maximized="0"
     fit-margin-top="0"
     fit-margin-left="0"
     fit-margin-right="0"
     fit-margin-bottom="0"
     units="px" />
  <metadata
     id="metadata5">
    <rdf:RDF>
      <cc:Work
         rdf:about="">
        <dc:format>image/svg+xml</dc:format>
        <dc:type
           rdf:resource="http://purl.org/dc/dcmitype/StillImage" />
        <dc:title></dc:title>
      </cc:Work>
    </rdf:RDF>
  </metadata>
  <g
     inkscape:label="Layer 1"
     inkscape:groupmode="layer"
     id="layer1"
     transform="translate(-73.423548,8.639382)">
    <g
       id="g6250"
       transform="matrix(2.9610986,0,0,2.9161382,-117.69042,-245.85294)"
       style="stroke-width:0.34030592">
      <path
         inkscape:connector-curvature="0"
         id="path6170"
         d="m 366.26758,314.43945 c -4.80405,-0.17862 -11.29163,4.19033 -29.45117,13.95508 -1.83647,0.98756 -3.44253,2.15286 -4.82813,3.44922 l -7.25195,-10.84961 a 3.5848244,3.5848244 0 0 0 -3.01953,-1.63086 3.5848244,3.5848244 0 0 0 -2.9375,5.61719 l 8.67382,12.98242 c -0.74161,1.50578 -1.2936,3.07252 -1.66015,4.66992 l -16.38867,-5.11133 a 3.5848244,3.5848244 0 0 0 -1.05469,-0.17578 3.5848244,3.5848244 0 0 0 -1.08594,7.01953 l 18.11328,5.64844 c 0.61185,5.37389 3.20115,10.40111 7.52344,13.63281 3.24299,2.42474 7.40531,2.74389 11.91016,1.6543 -3.24579,9.09396 -3.22445,17.11027 -2.17188,24.44922 -4.81551,-1.0973 -11.70557,-1.21759 -21.65039,0.0645 -11.35949,1.46443 -21.15575,4.79153 -25.93945,10.89649 -2.49019,0.17429 -3.69362,-0.58201 -4.81445,-2.00782 -1.28204,-1.63079 -2.20561,-4.68773 -2.24415,-8.52539 -0.0771,-7.67538 3.32186,-17.98801 8.6875,-24.39843 a 3.5848244,3.5848244 0 0 0 -2.7832,-5.91992 3.5848244,3.5848244 0 0 0 -2.7168,1.32226 c -6.73805,8.05007 -10.4528,19.37753 -10.35546,29.07031 0.0487,4.84638 1.03392,9.40637 3.77148,12.88867 1.78515,2.2708 4.42804,3.84098 7.49805,4.43946 -0.20866,1.44801 -0.22113,2.99376 -0.008,4.64844 0.38658,2.99867 1.93367,5.56246 4.29102,7.71875 l -1.58594,18.72851 -2.97461,9.94336 a 3.5848244,3.5848244 0 0 0 -0.0977,1.66211 l 4.11914,22.79492 a 3.5866171,3.5866171 0 1 0 7.05859,-1.27734 l -3.96484,-21.94727 2.82812,-9.47851 a 3.5848244,3.5848244 0 0 0 0.13867,-0.72266 l 1.3086,-15.40039 c 1.20093,0.53946 2.46495,1.03283 3.78515,1.47656 l -0.89257,10.55078 -2.97461,9.94336 a 3.5848244,3.5848244 0 0 0 -0.0742,1.75586 l 4.11914,19.79102 a 3.5848244,3.5848244 0 1 0 7.01172,-1.46094 l -3.92578,-18.9043 2.8125,-9.42773 a 3.5848244,3.5848244 0 0 0 0.14062,-0.72266 l 0.82227,-9.67968 c 6.28773,1.24288 13.06234,1.61916 19.12695,1.23828 l -0.21094,15.43164 a 3.5848244,3.5848244 0 0 0 0.0156,0.32422 l 1.57226,20.3457 a 3.5848244,3.5848244 0 1 0 7.14453,-0.55469 l -1.55664,-20.18164 0.21875,-16.29297 c 1.65941,-0.38527 3.13085,-0.8904 4.44532,-1.49023 l -0.19922,14.55078 a 3.5848244,3.5848244 0 0 0 0.008,0.32422 l 1.58008,20.34375 a 3.5848244,3.5848244 0 1 0 7.14648,-0.55274 l -1.5664,-20.18359 0.28906,-20.83984 c 2.87043,-4.85829 2.91798,-10.94933 2.25,-16.13086 -0.47858,-3.71235 -1.22653,-7.2173 -3.63672,-9.90821 -2.15524,-10.04303 -3.19641,-19.56549 3.76367,-32.73828 7.72065,-4.46396 15.30816,-11.48285 20.24219,-18.08203 10.01588,-13.3954 4.04967,-21.46695 -2.92969,-26.48828 -1.96295,-1.41223 -3.585,-2.17815 -5.46484,-2.24805 z"
         style="color:#000000;display:inline;overflow:visible;visibility:visible;fill:#262626;fill-opacity:1;fill-rule:nonzero;stroke:#cccccc;stroke-width:6.80611849;stroke-miterlimit:4;stroke-dasharray:none;marker:none;paint-order:stroke markers fill;enable-background:accumulate"
         transform="scale(0.26458333)" />
      <g
         transform="matrix(0.26458333,0,0,0.26458333,144.39509,33.472061)"
         id="g4911"
         style="stroke-width:0.34030592">
        <g
           style="display:inline;stroke-width:0.34030592"
           id="g3311"
           inkscape:label="sniff3"
           transform="translate(-234.93823,250.35365)">
          <path
             inkscape:transform-center-y="-10.426808"
             inkscape:transform-center-x="-21.74821"
             style="color:#000000;display:inline;overflow:visible;visibility:visible;fill:#262626;fill-opacity:1;fill-rule:nonzero;stroke:none;stroke-width:0.56388694;marker:none;enable-background:accumulate"
             d="m 27.49147,24.466824 c 0.30939,2.399939 0.0094,5.58252 -4.267336,6.133856 -4.276711,0.551337 -10.840923,-0.606782 -11.285178,-4.052864 -0.444256,-3.446082 2.949306,-5.052359 7.226018,-5.603696 7.269432,-0.937146 8.017105,1.122765 8.326496,3.522704 z"
             id="path3313"
             inkscape:connector-curvature="0"
             sodipodi:nodetypes="zsssz"
             transform="matrix(4,0,0,4,-66.479362,-70.824828)" />
          <path
             inkscape:transform-center-y="-35.461618"
             inkscape:transform-center-x="11.149194"
             style="color:#000000;display:inline;overflow:visible;visibility:visible;fill:none;stroke:#262626;stroke-width:0.60990751;stroke-linecap:round;stroke-linejoin:round;stroke-miterlimit:4;stroke-dasharray:none;stroke-opacity:1;marker:none;enable-background:accumulate"
             d="M 13.106381,24.521319 C 8.8427624,25.182886 9.3744027,17.975579 12.400329,14.360456"
             id="path3315"
             inkscape:connector-curvature="0"
             sodipodi:nodetypes="cc"
             transform="matrix(4,0,0,4,-66.479362,-70.824828)" />
          <path
             inkscape:transform-center-y="-73.484824"
             inkscape:transform-center-x="-22.59444"
             style="color:#000000;display:inline;overflow:visible;visibility:visible;fill:none;stroke:#262626;stroke-width:0.60990751;stroke-linecap:round;stroke-linejoin:round;stroke-miterlimit:4;stroke-dasharray:none;stroke-dashoffset:0;stroke-opacity:1;marker:none;enable-background:accumulate"
             d="M 23.901047,11.189778 16.001759,8.7258851"
             id="path3317"
             inkscape:connector-curvature="0"
             transform="matrix(4,0,0,4,-66.479362,-70.824828)" />
          <path
             inkscape:transform-center-y="-82.607008"
             inkscape:transform-center-x="-29.415708"
             inkscape:connector-curvature="0"
             id="path3319"
             d="M 23.955449,11.117158 19.357991,4.2374115"
             style="color:#000000;display:inline;overflow:visible;visibility:visible;fill:none;stroke:#262626;stroke-width:0.60990751;stroke-linecap:round;stroke-linejoin:round;stroke-miterlimit:4;stroke-dasharray:none;stroke-dashoffset:0;stroke-opacity:1;marker:none;enable-background:accumulate"
             transform="matrix(4,0,0,4,-66.479362,-70.824828)" />
          <path
             inkscape:transform-center-y="-39.351159"
             inkscape:transform-center-x="-46.860912"
             style="color:#000000;display:inline;overflow:visible;visibility:visible;fill:none;stroke:#262626;stroke-width:0.60990751;stroke-linecap:round;stroke-linejoin:round;stroke-miterlimit:4;stroke-dasharray:none;stroke-dashoffset:0;stroke-opacity:1;marker:none;enable-background:accumulate"
             d="m 26.739784,13.366124 c -2.204776,4.15863 -1.405435,7.183656 -0.715778,10.250247"
             id="path3321"
             inkscape:connector-curvature="0"
             sodipodi:nodetypes="cc"
             transform="matrix(4,0,0,4,-66.479362,-70.824828)" />
          <path
             inkscape:transform-center-y="-79.184148"
             inkscape:transform-center-x="-51.065832"
             sodipodi:nodetypes="zsssz"
             inkscape:connector-curvature="0"
             id="path3323"
             d="m 31.851023,2.6625783 c 1.74484,1.2553324 3.236744,3.2730035 0.732773,6.6218553 C 30.079935,12.633302 24.841723,16.42002 22.143211,14.402384 19.444858,12.38487 19.439422,7.5698723 23.12211,5.5895177 29.438475,2.1930841 30.106173,1.4072597 31.851023,2.6625783 Z"
             style="color:#000000;display:inline;overflow:visible;visibility:visible;fill:#262626;fill-opacity:1;fill-rule:nonzero;stroke:none;stroke-width:0.56388694;marker:none;enable-background:accumulate"
             clip-path="none"
             transform="matrix(4,0,0,4,-66.479362,-70.824828)" />
          <path
             inkscape:transform-center-y="-80.08852"
             inkscape:transform-center-x="-46.843488"
             style="color:#000000;display:inline;overflow:visible;visibility:visible;fill:#ffffff;stroke:none;stroke-width:1.02091777;marker:none;enable-background:accumulate"
             d="m 26.937642,6.5834358 c 0.462288,0.3456475 -0.456694,1.3487425 -0.80234,1.8110311 -0.345649,0.4622891 -0.49948,2.0014761 -0.96177,1.6558291 -0.462288,-0.3456475 -0.07132,-1.8656592 0.27433,-2.327948 0.345646,-0.4622886 1.02749,-1.4845593 1.48978,-1.1389122 z"
             id="path3325"
             inkscape:connector-curvature="0"
             sodipodi:nodetypes="sssss"
             transform="matrix(4,0,0,4,-66.479362,-70.824828)" />
          <path
             style="color:#000000;display:inline;overflow:visible;visibility:visible;fill:none;stroke:#262626;stroke-width:0.60990751;stroke-linecap:round;stroke-linejoin:round;stroke-miterlimit:4;stroke-dasharray:none;stroke-dashoffset:0;stroke-opacity:1;marker:none;enable-background:accumulate"
             d="m 13.927143,28.2878 -0.427619,5.04 -0.769541,2.5736 1.029289,5.6981"
             id="path3327"
             inkscape:connector-curvature="0"
             sodipodi:nodetypes="cccc"
             transform="matrix(4,0,0,4,-66.479362,-70.824828)" />
          <path
             sodipodi:nodetypes="cccc"
             inkscape:connector-curvature="0"
             id="path3329"
             d="m 16.754462,27.6882 -0.427619,5.0399 -0.769542,2.5736 1.02929,4.9481"
             style="color:#000000;display:inline;overflow:visible;visibility:visible;fill:none;stroke:#262626;stroke-width:0.60990751;stroke-linecap:round;stroke-linejoin:round;stroke-miterlimit:4;stroke-dasharray:none;stroke-dashoffset:0;stroke-opacity:1;marker:none;enable-background:accumulate"
             transform="matrix(4,0,0,4,-66.479362,-70.824828)" />
          <path
             inkscape:connector-curvature="0"
             id="path3331"
             d="m 26.048788,27.2774 -0.08792,6.4609 0.394247,5.0862"
             style="color:#000000;display:inline;overflow:visible;visibility:visible;fill:none;stroke:#262626;stroke-width:0.60990751;stroke-linecap:round;stroke-linejoin:round;stroke-miterlimit:4;stroke-dasharray:none;stroke-dashoffset:0;stroke-opacity:1;marker:none;enable-background:accumulate"
             sodipodi:nodetypes="ccc"
             transform="matrix(4,0,0,4,-66.479362,-70.824828)" />
          <path
             inkscape:connector-curvature="0"
             id="path3333"
             d="m 23.13874,28.1022 -0.08792,6.4609 0.394245,5.0863"
             style="color:#000000;display:inline;overflow:visible;visibility:visible;fill:none;stroke:#262626;stroke-width:0.60990751;stroke-linecap:round;stroke-linejoin:round;stroke-miterlimit:4;stroke-dasharray:none;stroke-dashoffset:0;stroke-opacity:1;marker:none;enable-background:accumulate"
             sodipodi:nodetypes="ccc"
             transform="matrix(4,0,0,4,-66.479362,-70.824828)" />
        </g>
      </g>
    </g>
  </g>
</svg>
