<?xml version="1.0" encoding="UTF-8" standalone="no"?>
<!-- Created with Inkscape (http://www.inkscape.org/) -->

<svg
   xmlns:dc="http://purl.org/dc/elements/1.1/"
   xmlns:cc="http://creativecommons.org/ns#"
   xmlns:rdf="http://www.w3.org/1999/02/22-rdf-syntax-ns#"
   xmlns:svg="http://www.w3.org/2000/svg"
   xmlns="http://www.w3.org/2000/svg"
   xmlns:sodipodi="http://sodipodi.sourceforge.net/DTD/sodipodi-0.dtd"
   xmlns:inkscape="http://www.inkscape.org/namespaces/inkscape"
   width="500"
   height="250"
   viewBox="0 0 132.2916656573614 66.14583282868068"
   version="1.1"
   id="svg8"
   inkscape:version="0.92.1 r15371"
   sodipodi:docname="menu.svg"
   inkscape:export-filename="D:\deving-games\qeqe\art\menu.png"
   inkscape:export-xdpi="96"
   inkscape:export-ydpi="96">
  <defs
     id="defs2" />
  <sodipodi:namedview
     id="base"
     pagecolor="#ffffff"
     bordercolor="#666666"
     borderopacity="1.0"
     inkscape:pageopacity="0.0"
     inkscape:pageshadow="2"
     inkscape:zoom="0.7071067813730941"
     inkscape:cx="150.7775151078306"
     inkscape:cy="-7.289996296449146"
     inkscape:document-units="mm"
     inkscape:current-layer="layer3"
     showgrid="false"
     units="px"
     inkscape:snap-global="false"
     inkscape:window-width="1920"
     inkscape:window-height="1027"
     inkscape:window-x="-32000"
     inkscape:window-y="-32000"
     inkscape:window-maximized="0"
     showguides="true"
     inkscape:guide-bbox="true">
    <sodipodi:guide
       position="9.392708266628594,41.80416636978359"
       orientation="1,0"
       id="guide4535"
       inkscape:locked="false" />
    <sodipodi:guide
       position="56.09166626831723,36.51249974069707"
       orientation="1,0"
       id="guide4537"
       inkscape:locked="false" />
  </sodipodi:namedview>
  <metadata
     id="metadata5">
    <rdf:RDF>
      <cc:Work
         rdf:about="">
        <dc:format>image/svg+xml</dc:format>
        <dc:type
           rdf:resource="http://purl.org/dc/dcmitype/StillImage" />
        <dc:title></dc:title>
      </cc:Work>
    </rdf:RDF>
  </metadata>
  <g
     inkscape:groupmode="layer"
     id="layer2"
     inkscape:label="Layer 2"
     style="display:inline">
    <g
       id="g4544">
      <path
         transform="matrix(0.2401286510694732,0,0,0.2645833333333333,3.033743417515628,4.037221273733849e-6)"
         inkscape:connector-curvature="0"
         id="path4527"
         d="m 35.00000001846728,32.49999988523905 c 11.55862951551913,-0.35342550033809 22.9059287956187,3.51567853793282 35.00000001846728,1.50000000079143 41.83354286325013,-6.97225714387489 85.59584721311243,-3.00000000158289 129.50000006832891,-3.00000000158289 11.3942747648723,0 21.5000000113442,-3.31447550422991 21.5000000113442,10.00000000527635 0,2.25527155766238 0.9668671979247,7.06626560889927 0,9.00000000474876 -6.9251922433113,13.85038448662294 -0.9091514734911,8.50000000448489 -20.0000000105527,8.50000000448489 -15.5593397685013,0 -47.7173340553884,-4.42755532559933 -61.0000000321859,0 -21.0821146563779,7.02737155212621 -45.51735404048728,5.50000000290199 -69.00000003640717,5.50000000290199 -7.98482965258353,0 -33.07467397436062,4.28355069765388 -39.50000002084166,0 -7.46248459487197,-4.97498972991457 -6.22690533580142,-31.50000001662053 3.50000000184701,-31.50000001662053 z"
         style="opacity:1;vector-effect:none;fill:#000000;fill-opacity:1;stroke:none;stroke-width:10.4968566895;stroke-linecap:round;stroke-linejoin:round;stroke-miterlimit:4;stroke-dasharray:none;stroke-dashoffset:0;stroke-opacity:1;paint-order:normal" />
      <path
         transform="matrix(0.2645833333333333,0,0,0.2645833333333333,0,-3.811750540888923)"
         inkscape:connector-curvature="0"
         id="path4529"
         d="m 35.00000001846728,99.49999992059068 c 20.88156597392903,5.86382309193652 44.5172451725711,-1.00000000052762 65.00000003429641,-1.00000000052762 6.7360674770098,0 16.6688707201366,-2.11037643066631 23.0000000121356,0 4.191634286933,1.39721142897764 9.6502303843481,3.50000000184674 14.0000000073869,3.50000000184674 13.876193928537,0 67.6784001330003,-3.32159990446196 74.5000000393089,3.5000000018467 0.8792837889503,0.8792837889502 0.7874099106106,16.4251801882764 0,18.0000000094975 -2.4024142434113,4.8048284868228 -14.3637758876237,10.5000000055402 -19.5000000102889,10.5000000055402 -35.4818185020235,0 -71.3338883415327,-0.5000000002639 -107.00000005645742,-0.5000000002639 -7.95065205682401,0 -39.31955918559926,3.6804408370892 -45.00000002374358,-2.0000000010552 -6.99292826394197,-6.9929282639421 -3.01349158332141,-22.0674579203006 -5.00000000263792,-32.00000001688443 z"
         style="opacity:1;vector-effect:none;fill:#000000;fill-opacity:1;stroke:none;stroke-width:10;stroke-linecap:round;stroke-linejoin:round;stroke-miterlimit:4;stroke-dasharray:none;stroke-dashoffset:0;stroke-opacity:1;paint-order:normal" />
      <path
         transform="matrix(0.273065049611102,0,0,0.2645833333333333,-0.7125617708598666,-5.170281555013477)"
         inkscape:connector-curvature="0"
         id="path4531"
         d="m 42.00000002216074,160.9999999530404 c 34.57258155745255,5.202849536584 67.97545089598676,0 103.50000005461035,0 4.3408905826079,0 24.2093173711804,2.7906826430659 27.0000000142462,0 1.1048017126567,-1.1048017126567 27.2757788103491,-2.6494808040931 30.5000000160929,-0.5000000002639 4.3435251996052,2.8956834664035 7.7491623121299,15.5016753920973 4.5000000023744,22.000000011608 -2.4701049149865,4.9402098299728 -18.7889233127562,5.500000002902 -24.5000000129271,5.500000002902 -17.05474860687,0 -132.66646475675781,5.4001211907942 -140.0000000738687,1.0000000005277 -8.13230738979528,-4.8793844338772 -6.94794135581683,-25.0260293371293 -1.00000000052806,-28.0000000147738 z"
         style="opacity:1;vector-effect:none;fill:#000000;fill-opacity:1;stroke:none;stroke-width:9.8434696198;stroke-linecap:round;stroke-linejoin:round;stroke-miterlimit:4;stroke-dasharray:none;stroke-dashoffset:0;stroke-opacity:1;paint-order:normal" />
      <path
         transform="matrix(0.280472977553778,0,0,0.2645833333333333,-1.685766710301075,0)"
         inkscape:connector-curvature="0"
         id="path4533"
         d="m 206.0000001086932,191.9999999693971 c -18.5979290050111,2.2879925817317 -38.2830863876013,1.5000000007914 -57.5000000303391,1.5000000007914 -22.1124823105864,0 -40.5568507869375,6.0000000031659 -62.00000003271357,6.0000000031659 -4.37491057761338,0 -39.10738159757367,-3.3926184248509 -41.5000000218969,-1.0000000005277 -3.9345080241644,3.9345080241644 -2.5069246654631,7.5207739963893 -4.00000000211054,12.0000000063317 -0.70806891963563,2.1242067589069 -2.34184431683773,10.4872335321303 -1.00000000052762,12.5000000065954 3.33036526610376,4.9955478991557 22.06127660583848,3.5000000018468 28.00000001477378,3.5000000018468 8.05394158788275,0 14.97417341811543,-1.1185433531439 22.50000001187185,-3.000000001583 21.7660798688928,-5.4415199672231 95.9296406671839,9.0703593882183 109.00000005751239,-4.0000000021105 7.5607803949182,-7.5607803949184 2.0949015750023,-18.6898031576555 6.5000000034297,-27.50000001451 z"
         style="opacity:1;vector-effect:none;fill:#000000;fill-opacity:1;stroke:none;stroke-width:9.7126045227;stroke-linecap:round;stroke-linejoin:round;stroke-miterlimit:4;stroke-dasharray:none;stroke-dashoffset:0;stroke-opacity:1;paint-order:normal" />
    </g>
  </g>
  <g
     inkscape:groupmode="layer"
     id="layer3"
     inkscape:label="Layer 3"
     style="display:inline">
    <g
       id="g4558"
       transform="translate(66.14583333333331)">
      <path
         transform="scale(0.2645833333333333)"
         inkscape:connector-curvature="0"
         id="path4546"
         d="m 211.5000001115951,32.99999988550286 c -8.0761665021054,-9.05555231002851 -166.61780404859732,-0.69109802002293 -173.00000009128109,2.50000000131908 -4.14225723047003,2.0711286152351 -3.96542364333215,20.60372908715172 -2.50000000131909,25.00000001319091 3.17368970979601,9.52106912938805 20.4978116097611,6.00000000316582 28.50000001503765,6.00000000316582 29.98186656219401,0 59.61700584133992,-1.00000000052763 90.0000000474873,-1.00000000052763 15.3688518855954,0 35.7844404488119,3.17888989419455 50.5000000266456,-0.50000000026381 7.1483387760505,-1.7870846940126 12.8106351833549,-27.26702363194036 6.5000000034296,-32.00000001688437 z"
         style="opacity:1;vector-effect:none;fill:#000000;fill-opacity:1;stroke:none;stroke-width:10;stroke-linecap:round;stroke-linejoin:round;stroke-miterlimit:4;stroke-dasharray:none;stroke-dashoffset:0;stroke-opacity:1;paint-order:normal" />
      <path
         transform="matrix(0.2586997130379829,0,0,0.2645833333333333,1.245747034007514,0)"
         inkscape:connector-curvature="0"
         id="path4548"
         d="m 208.0000001097484,89.49999991531433 c -14.6615883550931,-5.82023317470794 -31.1655596831779,-5.500000002902 -47.5000000250627,-5.500000002902 -18.1959897528772,0 -36.9018606068266,-1.00000000052765 -55.5000000292839,-1.00000000052765 -10.50314339937412,0 -20.8293454417559,1.00000000052765 -31.00000001635669,1.00000000052765 -10.89641606287167,0 -41.00000002163285,-2.55395775031458 -41.00000002163285,11.000000005804 0,5.48856720853647 -5.03573305524524,23.50000001239947 6.00000000316584,23.50000001239947 37.26799855621005,0 74.5277613217912,2.0000000010553 112.000000059095,2.0000000010553 7.791543107063,0 37.4532546086197,3.0233727071661 43.5000000229522,0 3.2726242558942,-1.6363121279471 7.4826608298022,-0.4913304131862 10.5000000055402,-2.0000000010553 7.7877329021476,-3.8938664510739 8.8591751444405,-23.14082487244393 3.0000000015829,-29.00000001530147 z"
         style="opacity:1;vector-effect:none;fill:#000000;fill-opacity:1;stroke:none;stroke-width:10.11307621;stroke-linecap:round;stroke-linejoin:round;stroke-miterlimit:4;stroke-dasharray:none;stroke-dashoffset:0;stroke-opacity:1;paint-order:normal" />
      <path
         transform="scale(0.2645833333333333)"
         inkscape:connector-curvature="0"
         id="path4550"
         d="m 211.424927742111,142.8733225654522 c -1.3779098305628,6.8719513429878 1.0892831163958,18.7097067724973 -3.8890872996041,23.6880771884973 -3.3151683132978,3.315168313298 -14.2234744199285,1.4142135634924 -18.738329716274,1.4142135634924 -17.3907578556937,0 -32.7793857305187,3.1819805178579 -49.8510281131065,3.1819805178579 -10.1994940471799,0 -30.8419707791441,-3.0365207965052 -39.95153316865975,0 -9.69574545764837,3.2319151525494 -51.59754859632244,3.8997105351789 -61.51829001191856,-1.0606601726193 -3.54657756965824,-1.7732887848292 -5.99706573784581,-18.7650135302677 -3.53553390873094,-23.6880771884974 0.38599405658691,-0.7719881131738 2.53211331774088,-1.1178997542485 3.18198051785786,-1.7677669543655 3.42195221429003,-3.4219522142899 25.51462915889357,-0.3535533908731 30.40559161508618,-0.3535533908731 14.14213563492379,0 28.28427126984759,0 42.42640690477141,0 14.1421356349238,0 28.2842712698477,0 42.4264069047714,0 19.6840134663628,0 39.2366517286658,-1.4142135634923 59.043416275807,-1.4142135634923 z"
         style="opacity:1;vector-effect:none;fill:#000000;fill-opacity:1;stroke:none;stroke-width:10;stroke-linecap:round;stroke-linejoin:round;stroke-miterlimit:4;stroke-dasharray:none;stroke-dashoffset:0;stroke-opacity:1;paint-order:normal" />
      <path
         transform="scale(0.2645833333333333)"
         inkscape:connector-curvature="0"
         id="path4552"
         d="m 212.4855879147303,192.3707972876855 c -18.0239963266381,-2.3070612136961 -36.5380828855059,0.7071067817462 -55.1543289762029,0.7071067817462 -2.3451379479532,0 -6.4750600150439,1.1162096622834 -8.4852813809543,2.1213203452386 -4.2004063202133,2.1002031601066 -27.6519938564961,0 -33.9411255238171,0 -6.1218827468895,0 -14.8561488501911,0.8272600565442 -20.85965006151267,2.8284271269847 -6.13788086447069,2.0459602881569 -46.65012367668869,1.0606601726193 -55.86143575794876,1.0606601726193 -8.12103497731766,0 -7.18831286529122,22.9223478828366 -1.41421356349236,25.809397533736 6.58573861595524,3.2928693079776 44.1006074927431,-2.4748737361117 53.74011541271033,-2.4748737361117 23.33452379762416,0 46.66904759524847,0 70.00357139287267,0 16.0660592379113,0 34.8707008203881,2.0471641736303 49.4974747222334,-2.8284271269848 4.9058471092344,-1.6352823697448 -0.2612827795003,-21.7512980660046 2.4748737361117,-27.2236110972283 z"
         style="opacity:1;vector-effect:none;fill:#000000;fill-opacity:1;stroke:none;stroke-width:10;stroke-linecap:round;stroke-linejoin:round;stroke-miterlimit:4;stroke-dasharray:none;stroke-dashoffset:0;stroke-opacity:1;paint-order:normal" />
    </g>
  </g>
</svg>
