<?xml version="1.0" encoding="UTF-8" standalone="no"?>
<!-- Created with Inkscape (http://www.inkscape.org/) -->

<svg
   xmlns:dc="http://purl.org/dc/elements/1.1/"
   xmlns:cc="http://creativecommons.org/ns#"
   xmlns:rdf="http://www.w3.org/1999/02/22-rdf-syntax-ns#"
   xmlns:svg="http://www.w3.org/2000/svg"
   xmlns="http://www.w3.org/2000/svg"
   xmlns:sodipodi="http://sodipodi.sourceforge.net/DTD/sodipodi-0.dtd"
   xmlns:inkscape="http://www.inkscape.org/namespaces/inkscape"
   width="1000"
   height="500"
   viewBox="0 0 264.5833272454602 132.2916704048346"
   version="1.1"
   id="svg4502"
   sodipodi:docname="mouse.svg"
   inkscape:export-filename="D:\deving-games\qeqe\art\mouse.png"
   inkscape:export-xdpi="96"
   inkscape:export-ydpi="96"
   inkscape:version="0.92.1 r15371">
  <defs
     id="defs4496" />
  <sodipodi:namedview
     id="base"
     pagecolor="#ffffff"
     bordercolor="#666666"
     borderopacity="1.0"
     inkscape:pageopacity="0.0"
     inkscape:pageshadow="2"
     inkscape:zoom="0.4326195300429563"
     inkscape:cx="-9.254075047410083"
     inkscape:cy="325.330812143789"
     inkscape:document-units="mm"
     inkscape:current-layer="layer1"
     showgrid="false"
     fit-margin-top="0"
     fit-margin-left="0"
     fit-margin-right="0"
     fit-margin-bottom="0"
     units="px"
     inkscape:snap-global="false"
     inkscape:window-width="1920"
     inkscape:window-height="1027"
     inkscape:window-x="-8"
     inkscape:window-y="-8"
     inkscape:window-maximized="1" />
  <metadata
     id="metadata4499">
    <rdf:RDF>
      <cc:Work
         rdf:about="">
        <dc:format>image/svg+xml</dc:format>
        <dc:type
           rdf:resource="http://purl.org/dc/dcmitype/StillImage" />
        <dc:title></dc:title>
      </cc:Work>
    </rdf:RDF>
  </metadata>
  <g
     inkscape:label="Layer 1"
     inkscape:groupmode="layer"
     id="layer1"
     transform="translate(0,-164.7083165486654)">
    <path
       sodipodi:nodetypes="cssssssssccssc"
       transform="matrix(0.3124299832742996,0,0,0.3115623578267872,2.242193829000988,170.9716570575328)"
       inkscape:connector-curvature="0"
       id="path5138"
       d="m 34.32402234636879,49.70151636073342 c 8.91657213190638,28.72344578813151 -1.31370805397705,184.19946034187358 9.80686352753393,195.32003192338419 10.92661879587521,10.926618795875 86.03054010500579,-61.5722025131788 94.04962443047068,-37.5149495367832 6.0856992606929,18.2570977820793 18.2553377659028,27.1034195257435 23.6327378999366,43.2356199278448 10.1286333933303,30.3859001799905 54.3710246464099,100.1363877749018 78.4549082202715,124.2202713487631 10.4545923693266,10.4545923693266 39.8119301889104,10.0396260760535 49.8515562649641,0 8.5162234670321,-8.5162234670318 -0.312052983794,-22.6895489045388 -4.0861931364725,-30.237829209896 -10.6080876687219,-21.216175337445 -28.5537111131762,-40.3788507878812 -42.4964086193136,-61.2928970470873 -17.2590093933156,-25.8885140899728 -37.0944883359892,-56.4589711312781 -53.9377494014367,-81.7238627294494 -4.0298497909406,-6.0447746864109 -13.3177352259849,-17.8288196706811 -11.4413407821229,-25.3343974461293 28.8669562542765,-35.1625531146379 111.1639361721236,-40.92058120598 78.4549082202718,-74.368715083799 C 240.770779564262,86.16263910137161 169.0347159423073,66.01286892971012 146.2857142857146,60.32561851556187 131.8938892150173,56.72766224788751 37.02530612148702,26.56926690325281 31.0550678371908,32.53950518754908 c -3.6705366167856,3.67053661678557 1.98319659780628,14.59049535044091 3.26895450917799,17.16201117318434 z"
       style="opacity:0.4010000191;vector-effect:none;fill:#000000;fill-opacity:1;stroke:#000000;stroke-width:21.2008686066;stroke-linecap:round;stroke-linejoin:round;stroke-miterlimit:4;stroke-dasharray:none;stroke-dashoffset:0;stroke-opacity:1;paint-order:normal" />
    <path
       style="opacity:1;vector-effect:none;fill:#ffffff;fill-opacity:1;stroke:#000000;stroke-width:21.2008686066;stroke-linecap:round;stroke-linejoin:round;stroke-miterlimit:4;stroke-dasharray:none;stroke-dashoffset:0;stroke-opacity:1;paint-order:normal"
       d="m 34.32402234636879,49.70151636073342 c 8.91657213190638,28.72344578813151 -1.31370805397705,184.19946034187358 9.80686352753393,195.32003192338419 10.92661879587521,10.926618795875 86.03054010500579,-61.5722025131788 94.04962443047068,-37.5149495367832 6.0856992606929,18.2570977820793 18.2553377659028,27.1034195257435 23.6327378999366,43.2356199278448 10.1286333933303,30.3859001799905 54.3710246464099,100.1363877749018 78.4549082202715,124.2202713487631 10.4545923693266,10.4545923693266 39.8119301889104,10.0396260760535 49.8515562649641,0 8.5162234670321,-8.5162234670318 -0.312052983794,-22.6895489045388 -4.0861931364725,-30.237829209896 -10.6080876687219,-21.216175337445 -28.5537111131762,-40.3788507878812 -42.4964086193136,-61.2928970470873 -17.2590093933156,-25.8885140899728 -37.0944883359892,-56.4589711312781 -53.9377494014367,-81.7238627294494 -4.0298497909406,-6.0447746864109 -13.3177352259849,-17.8288196706811 -11.4413407821229,-25.3343974461293 28.8669562542765,-35.1625531146379 111.1639361721236,-40.92058120598 78.4549082202718,-74.368715083799 C 240.770779564262,86.16263910137161 169.0347159423073,66.01286892971012 146.2857142857146,60.32561851556187 131.8938892150173,56.72766224788751 37.02530612148702,26.56926690325281 31.0550678371908,32.53950518754908 c -3.6705366167856,3.67053661678557 1.98319659780628,14.59049535044091 3.26895450917799,17.16201117318434 z"
       id="path5131"
       inkscape:connector-curvature="0"
       transform="matrix(0.3124299832742996,0,0,0.3115623578267872,8.433079528222311,166.4368482661909)"
       sodipodi:nodetypes="cssssssssccssc" />
  </g>
  <g
     inkscape:groupmode="layer"
     id="layer5"
     inkscape:label="Layer 2">
    <path
       transform="matrix(0.2525123628000413,0,0,0.2522245835648759,126.9809144454697,8.561069348877282)"
       inkscape:connector-curvature="0"
       id="path5140"
       d="m 44.13088587390272,30.08778930566564 c -3.01962861121955,4.18028969595696 -5.2476145311236,15.31222424381991 -3.26895450917798,21.24820430965684 4.21896975200734,12.65690925602212 5.61771377423251,24.20828896834791 9.80686352753393,36.77573822825224 3.44991815399132,10.34975446197393 0,28.39870699537518 0,39.22745411013578 0,26.4693830337458 -2.73106755154961,119.3064313941441 8.17238627294494,135.6616121308861 7.01587968910322,10.5238195336549 -3.70122166952115,25.1182638659577 9.80686352753393,31.8723064644853 17.9860792021922,8.9930396010962 93.70239521735796,-54.2177963229455 101.33758978451736,-46.5826017557862 6.4950334205495,6.4950334205494 10.4060529814866,19.9948673356787 14.7102952913009,28.6033519553073 5.090762900983,10.1815258019659 15.7728551389292,18.4698922411466 21.2482043096568,29.4205905826018 10.687324528047,21.3746490560939 40.8667543052469,94.8045037066835 54.7549880287312,108.6927374301678 3.9387216821888,3.9387216821889 11.1562112507785,31.5871769331406 18.7964884277734,39.2274541101357 25.0844721231461,25.0844721231467 69.2084447008605,19.0533270469446 91.5307262569834,-3.268954509178 18.8293364068524,-18.8293364068522 -11.3593163788693,-60.0938796730229 -22.0654429369514,-74.368715083799 -10.6550737841717,-14.2067650455621 -28.6815388874289,-20.5482460805441 -38.4102154828412,-35.1412609736631 -9.1116366947859,-13.6674550421792 -21.2197366466891,-30.9411971853197 -25.3343974461294,-47.3998403830807 -2.2849834516046,-9.1399338064187 -39.1940846153101,-59.6250502976726 -47.3998403830807,-67.830806065443 -2.2657940102786,-2.2657940102786 -17.4349889201193,-16.0717947989551 -14.7102952913009,-18.7964884277734 16.3137461525794,-16.3137461525794 123.26624598572,-57.4802773821136 111.1444533120513,-81.7238627294494 C 327.9402644330906,113.0840404384066 255.5266149078879,84.2448039839044 238.6336791699924,77.48762968874642 227.1112174906696,72.87864501701743 210.8464430930933,75.44397174606682 200.2234636871512,70.1324820430959 174.8156996486584,57.42860002384981 73.15370625749682,22.83208420976706 44.13088587390272,30.08778930566564 Z"
       style="opacity:0.4010000191;vector-effect:none;fill:#000000;fill-opacity:1;stroke:#000000;stroke-width:26.2100276947;stroke-linecap:round;stroke-linejoin:round;stroke-miterlimit:4;stroke-dasharray:none;stroke-dashoffset:0;stroke-opacity:1;paint-order:normal" />
    <path
       style="opacity:1;vector-effect:none;fill:#ffffff;fill-opacity:1;stroke:#000000;stroke-width:26.2100276947;stroke-linecap:round;stroke-linejoin:round;stroke-miterlimit:4;stroke-dasharray:none;stroke-dashoffset:0;stroke-opacity:1;paint-order:normal"
       d="m 44.13088587390272,30.08778930566564 c -3.01962861121955,4.18028969595696 -5.2476145311236,15.31222424381991 -3.26895450917798,21.24820430965684 4.21896975200734,12.65690925602212 5.61771377423251,24.20828896834791 9.80686352753393,36.77573822825224 3.44991815399132,10.34975446197393 0,28.39870699537518 0,39.22745411013578 0,26.4693830337458 -2.73106755154961,119.3064313941441 8.17238627294494,135.6616121308861 7.01587968910322,10.5238195336549 -3.70122166952115,25.1182638659577 9.80686352753393,31.8723064644853 17.9860792021922,8.9930396010962 93.70239521735796,-54.2177963229455 101.33758978451736,-46.5826017557862 6.4950334205495,6.4950334205494 10.4060529814866,19.9948673356787 14.7102952913009,28.6033519553073 5.090762900983,10.1815258019659 15.7728551389292,18.4698922411466 21.2482043096568,29.4205905826018 10.687324528047,21.3746490560939 40.8667543052469,94.8045037066835 54.7549880287312,108.6927374301678 3.9387216821888,3.9387216821889 11.1562112507785,31.5871769331406 18.7964884277734,39.2274541101357 25.0844721231461,25.0844721231467 69.2084447008605,19.0533270469446 91.5307262569834,-3.268954509178 18.8293364068524,-18.8293364068522 -11.3593163788693,-60.0938796730229 -22.0654429369514,-74.368715083799 -10.6550737841717,-14.2067650455621 -28.6815388874289,-20.5482460805441 -38.4102154828412,-35.1412609736631 -9.1116366947859,-13.6674550421792 -21.2197366466891,-30.9411971853197 -25.3343974461294,-47.3998403830807 -2.2849834516046,-9.1399338064187 -39.1940846153101,-59.6250502976726 -47.3998403830807,-67.830806065443 -2.2657940102786,-2.2657940102786 -17.4349889201193,-16.0717947989551 -14.7102952913009,-18.7964884277734 16.3137461525794,-16.3137461525794 123.26624598572,-57.4802773821136 111.1444533120513,-81.7238627294494 C 327.9402644330906,113.0840404384066 255.5266149078879,84.2448039839044 238.6336791699924,77.48762968874642 227.1112174906696,72.87864501701743 210.8464430930933,75.44397174606682 200.2234636871512,70.1324820430959 174.8156996486584,57.42860002384981 73.15370625749682,22.83208420976706 44.13088587390272,30.08778930566564 Z"
       id="path5134"
       inkscape:connector-curvature="0"
       transform="matrix(0.2525123628000413,0,0,0.2522245835648759,133.1718001446911,4.026260557535352)" />
  </g>
</svg>
