<?xml version="1.0" encoding="UTF-8" standalone="no"?>
<!-- Created with Inkscape (http://www.inkscape.org/) -->

<svg
   xmlns:dc="http://purl.org/dc/elements/1.1/"
   xmlns:cc="http://creativecommons.org/ns#"
   xmlns:rdf="http://www.w3.org/1999/02/22-rdf-syntax-ns#"
   xmlns:svg="http://www.w3.org/2000/svg"
   xmlns="http://www.w3.org/2000/svg"
   xmlns:sodipodi="http://sodipodi.sourceforge.net/DTD/sodipodi-0.dtd"
   xmlns:inkscape="http://www.inkscape.org/namespaces/inkscape"
   width="132"
   height="132"
   viewBox="0 0 34.92500084976574 34.9250010874138"
   version="1.1"
   id="svg4630"
   inkscape:version="0.92.1 r15371"
   sodipodi:docname="next.svg">
  <defs
     id="defs4624" />
  <sodipodi:namedview
     id="base"
     pagecolor="#ffffff"
     bordercolor="#666666"
     borderopacity="1.0"
     inkscape:pageopacity="0.0"
     inkscape:pageshadow="2"
     inkscape:zoom="4.277935028076164"
     inkscape:cx="37.44628220540443"
     inkscape:cy="65.39134465612244"
     inkscape:document-units="mm"
     inkscape:current-layer="layer4"
     showgrid="false"
     fit-margin-top="0"
     fit-margin-left="0"
     fit-margin-right="0"
     fit-margin-bottom="0"
     units="px"
     inkscape:snap-global="false"
     inkscape:window-width="1920"
     inkscape:window-height="1027"
     inkscape:window-x="-8"
     inkscape:window-y="-8"
     inkscape:window-maximized="1" />
  <metadata
     id="metadata4627">
    <rdf:RDF>
      <cc:Work
         rdf:about="">
        <dc:format>image/svg+xml</dc:format>
        <dc:type
           rdf:resource="http://purl.org/dc/dcmitype/StillImage" />
        <dc:title></dc:title>
      </cc:Work>
    </rdf:RDF>
  </metadata>
  <g
     inkscape:groupmode="layer"
     id="layer3"
     inkscape:label="1"
     style="display:inline">
    <path
       style="opacity:1;vector-effect:none;fill:none;fill-opacity:0.4018691717;stroke:#4d4d4d;stroke-width:5.2497639656;stroke-linecap:round;stroke-linejoin:round;stroke-miterlimit:4;stroke-dasharray:none;stroke-dashoffset:0;stroke-opacity:1;paint-order:normal"
       d="M 69.65977698217028,62.80773829958926 C 55.20635016604818,64.896515557073 41.76705063210913,54.85997850967719 27.5834016238124,54.85997850967719 c -1.70972297561647,0 -7.8275356009351,-0.94172130059318 -8.64903271255135,0.70127292263932 -1.58593194663762,3.17186389327523 -0.93503056351906,13.96359781900745 -0.93503056351906,18.23309598862171 0,1.79050295449754 -1.20508502844469,11.18406993818293 0,12.38915496662763 4.37845035905024,4.37845035905023 41.01030443837876,-5.77842084376411 45.81649761243415,-8.18151743079183 8.96479112668042,-4.48239556334022 2.92769288541258,18.0606389451697 7.01272922639298,20.1031571156599 1.34734126046504,0.67367063023252 3.58173847779483,-0.46751528175955 4.67515281759532,-0.46751528175955 3.96595159198692,0 18.3153963120006,-6.4442423996328 21.97321824269801,-8.88279035343109 C 100.5801731232704,86.6860118529713 128.1559024364728,75.3103237349387 125.5278531524344,70.05422516686198 123.7807750898295,66.56006904165225 116.001570417672,65.90436817233417 113.1386981858068,63.04149594046901 108.6386078881489,58.54140564281114 74.10407355521113,36.27479536157306 68.72474641865122,38.9644589298531 c -5.01767711537377,2.50883855768695 -1.04862518305501,19.87596787658795 0.93503056351906,23.84327936973616 z"
       id="path5226"
       inkscape:connector-curvature="0"
       transform="scale(0.2645833333333333)" />
  </g>
  <g
     inkscape:groupmode="layer"
     id="layer4"
     inkscape:label="2"
     style="display:inline">
    <path
       style="opacity:1;vector-effect:none;fill:none;fill-opacity:0.4018691717;stroke:#4d4d4d;stroke-width:5.2497639656;stroke-linecap:round;stroke-linejoin:round;stroke-miterlimit:4;stroke-dasharray:none;stroke-dashoffset:0;stroke-opacity:1;paint-order:normal"
       d="m 18.70061127038129,54.62622086879743 c -1.37460862114808,3.3741267140908 -1.4025458452786,6.67400110439725 -1.4025458452786,10.2853361987097 0,6.10095070192622 -0.46751528175953,12.66878177265762 -0.46751528175953,18.46685362950153 0,3.97142147945615 4.55892540393614,3.50636461319648 7.94775978991204,3.50636461319648 5.75363816654323,0 41.07823816986172,-11.51723102808565 43.01140592187694,-9.58406327607041 4.36750071610598,4.36750071610598 0.0505587757494,13.94337713915449 1.87006112703814,19.40188419302058 0.38471754150927,1.15415262452778 5.97967369918381,0.46751528175953 7.01272922639298,0.46751528175953 8.64938165971145,0 14.78234743585544,-8.04421769034869 22.20697588357778,-10.51909383958949 C 102.554286547695,85.42608285080737 129.8922104682105,72.93899877642022 127.6316719203523,68.41792168070361 124.9726485219451,63.09987488388906 113.2188465764699,61.50982779815836 107.9960300864519,59.76888896815228 106.2469809101846,59.18587257606315 103.6525382999812,56.8958701522776 101.918331423578,56.02876671407603 97.2564518059995,53.69782690528686 91.87407375393323,52.36900396968811 86.7240847663932,50.65234097384141 84.04952329377107,49.76082048296735 81.81801501315584,47.49803317458347 79.24384025824069,46.21094579712585 77.92879464768843,45.5534229918497 69.03806982950267,41.92374249131838 67.32220057337262,43.63961174744843 c -2.0925942737349,2.0925942737349 -0.89736194411469,18.21426167891955 -0.93503056351906,18.23309598862174 -1.42704770636125,0.7135238531806 -14.21189931821869,-5.36853961099345 -17.0643077842229,-5.84394102199414 -5.07976098470321,-0.84662683078385 -27.38825723048091,-7.87053329481552 -30.62225095524937,-1.4025458452786 z"
       id="path5233"
       inkscape:connector-curvature="0"
       transform="scale(0.2645833333333333)" />
  </g>
</svg>
