<?xml version="1.0" encoding="UTF-8" standalone="no"?>
<!-- Created with Inkscape (http://www.inkscape.org/) -->

<svg
   xmlns:dc="http://purl.org/dc/elements/1.1/"
   xmlns:cc="http://creativecommons.org/ns#"
   xmlns:rdf="http://www.w3.org/1999/02/22-rdf-syntax-ns#"
   xmlns:svg="http://www.w3.org/2000/svg"
   xmlns="http://www.w3.org/2000/svg"
   xmlns:sodipodi="http://sodipodi.sourceforge.net/DTD/sodipodi-0.dtd"
   xmlns:inkscape="http://www.inkscape.org/namespaces/inkscape"
   width="840"
   height="280"
   viewBox="0 0 222.2499948861866 74.08333542670738"
   version="1.1"
   id="svg8"
   inkscape:version="0.92.1 r15371"
   sodipodi:docname="pro-tiling.svg"
   inkscape:export-filename="D:\deving-games\qeqe\art\pro-tiling.png"
   inkscape:export-xdpi="48"
   inkscape:export-ydpi="48">
  <defs
     id="defs2" />
  <sodipodi:namedview
     id="base"
     pagecolor="#335033"
     bordercolor="#666666"
     borderopacity="1.0"
     inkscape:pageopacity="0"
     inkscape:pageshadow="2"
     inkscape:zoom="1.414213561999999"
     inkscape:cx="551.2822928031923"
     inkscape:cy="158.6954424597272"
     inkscape:document-units="mm"
     inkscape:current-layer="layer1"
     showgrid="false"
     units="px"
     showguides="true"
     inkscape:guide-bbox="true"
     inkscape:showpageshadow="false"
     borderlayer="true"
     inkscape:window-width="1920"
     inkscape:window-height="1027"
     inkscape:window-x="-8"
     inkscape:window-y="-8"
     inkscape:window-maximized="1"
     inkscape:snap-global="false">
    <sodipodi:guide
       position="92.60416453591121,68.79166684716681"
       orientation="0,1"
       id="guide4485"
       inkscape:locked="false"
       inkscape:label=""
       inkscape:color="rgb(0,0,255)" />
    <sodipodi:guide
       position="65.61666515687415,5.291666680551294"
       orientation="0,1"
       id="guide4487"
       inkscape:locked="false"
       inkscape:label=""
       inkscape:color="rgb(0,0,255)" />
    <sodipodi:guide
       position="5.291666680551294,33.33750094201834"
       orientation="1,0"
       id="guide4489"
       inkscape:locked="false"
       inkscape:label=""
       inkscape:color="rgb(0,0,255)" />
    <sodipodi:guide
       position="68.79166684716681,27.51666744420562"
       orientation="1,0"
       id="guide4491"
       inkscape:locked="false"
       inkscape:label=""
       inkscape:color="rgb(0,0,255)" />
  </sodipodi:namedview>
  <metadata
     id="metadata5">
    <rdf:RDF>
      <cc:Work
         rdf:about="">
        <dc:format>image/svg+xml</dc:format>
        <dc:type
           rdf:resource="http://purl.org/dc/dcmitype/StillImage" />
        <dc:title></dc:title>
      </cc:Work>
    </rdf:RDF>
  </metadata>
  <g
     inkscape:label="Layer 1"
     inkscape:groupmode="layer"
     id="layer1"
     transform="translate(0,-222.9166498819986)">
    <rect
       style="opacity:1;vector-effect:none;fill:#ffffff;fill-opacity:1;stroke:#ffffff;stroke-width:5;stroke-linecap:round;stroke-linejoin:round;stroke-miterlimit:4;stroke-dasharray:none;stroke-dashoffset:0;stroke-opacity:1;paint-order:normal"
       id="rect4493"
       width="240"
       height="240"
       x="20"
       y="20"
       transform="matrix(0.2645833333333333,0,0,0.2645833333333333,0,222.9166498819986)" />
    <path
       style="opacity:1;vector-effect:none;fill:#ffffff;fill-opacity:1;stroke:#000000;stroke-width:8;stroke-linecap:round;stroke-linejoin:round;stroke-miterlimit:4;stroke-dasharray:none;stroke-dashoffset:0;stroke-opacity:1;paint-order:normal"
       d="m 20,20 c 9.48531809062331,-7.40725404231068 21.80240396915349,-2.6136622299909 32.46655023435335,-1.65145262610838 20.46741088709631,-0.31634976653805 54.99176271297096,-6.4723368660118 69.17950460214964,1.65145262610667 36.2534135305077,8.26451361196584 55.7593626178404,-3.17236566052372 83.3321395530818,-7.92281314131281 C 226.8209341526321,18.81343835639336 240.1159938654488,12.33117295950876 260,20"
       id="path4495"
       inkscape:connector-curvature="0"
       transform="matrix(0.2645833333333333,0,0,0.2645833333333333,74.08333333333331,222.9166498819986)"
       sodipodi:nodetypes="ccccc" />
    <g
       id="g4567"
       transform="translate(148.1666666666666)">
      <path
         transform="matrix(0.2645833333333333,0,0,0.2645833333333333,0,222.9166498819986)"
         inkscape:connector-curvature="0"
         id="path4498"
         d="m 61.00000003218598,71.99999989025113 c -4.54956437378024,0.96633041164932 -8.66636748557954,5.55545582993355 -13.0000000068593,7.00000000369346 -5.42080078210394,1.8069335940346 -23.18623526193461,6.6275295040958 -18.00000000949751,17.00000000896986 1.784001471514,3.56800294302795 7.50945524138074,1.51418285692658 9.50000000501257,4.50000000237435 5.58957140593223,8.3843571088984 -8.3227216912836,6.8924261080061 7.00000000369348,12.0000000063317 1.06890117482166,0.3563003916072 4.20102585152947,1.1494870759501 5.50000000290201,0.5000000002638 10.90970098497234,-5.454850492486 5.31026706374329,-11.6205341280142 9.50000000501258,-20.00000001055277 1.2718109517387,-2.54362190347743 4.12981554948484,-3.62981554922092 6.0000000031658,-5.500000002902 0.72783698979799,-0.72783698979802 0.4069614803159,-13.59303852707107 0,-14.00000000738694 -1.42186557159505,-1.42186557159505 -4.48355638421464,-0.99588909598771 -6.50000000342963,-1.50000000079146 z"
         style="opacity:1;vector-effect:none;fill:#808080;fill-opacity:1;stroke:#000000;stroke-width:8;stroke-linecap:round;stroke-linejoin:round;stroke-miterlimit:4;stroke-dasharray:none;stroke-dashoffset:0;stroke-opacity:1;paint-order:normal" />
      <path
         transform="matrix(0.2645833333333333,0,0,0.2645833333333333,0,221.4614415478975)"
         inkscape:connector-curvature="0"
         id="path4504"
         d="m 136.0000000717589,29.9999998680903 c -5.7313168798894,-1.35565602126946 -23.157488194686,-4.18502363727376 -26.5000000139824,2.50000000131908 -2.1518745063231,4.30374901264597 3.5982235090765,6.09822351039569 5.500000002902,8.00000000422114 3.2244528175043,3.2244528175043 -3.1285435368245,14.29048549581566 3.5000000018467,16.50000000870602 16.3457232533994,5.44857441779971 28.0000000147739,-0.53906029639944 28.0000000147739,-17.50000000923366 0,-0.8894119311841 1.4031076412148,-4.59689236195104 0.5000000002638,-5.50000000290203 -2.7045467117089,-2.70454671170907 -8.0911358217853,-1.09113581809182 -11.000000005804,-4.00000000211055 z"
         style="opacity:1;vector-effect:none;fill:#808080;fill-opacity:1;stroke:#000000;stroke-width:8;stroke-linecap:round;stroke-linejoin:round;stroke-miterlimit:4;stroke-dasharray:none;stroke-dashoffset:0;stroke-opacity:1;paint-order:normal" />
      <path
         transform="matrix(0.2645833333333333,0,0,0.2645833333333333,0,222.9166498819986)"
         inkscape:connector-curvature="0"
         id="path4506"
         d="m 133.000000070176,71.99999989025113 c -16.6210403373996,-7.37552500387976 -34.01813570841319,11.48186431559475 -21.5000000113443,24.00000001266332 10.7233255123841,10.72332551238375 26.9899355087385,5.52012901391704 33.0000000174121,-6.50000000342965 1.9871133586185,-3.97422671723666 -1.0000000005276,-11.43070626721513 -1.0000000005276,-15.00000000791459 0,-3.55679506830589 -9.3396522437829,-7.14139104834834 -10.5000000055402,-2.50000000131908 z"
         style="opacity:1;vector-effect:none;fill:#808080;fill-opacity:1;stroke:#000000;stroke-width:8;stroke-linecap:round;stroke-linejoin:round;stroke-miterlimit:4;stroke-dasharray:none;stroke-dashoffset:0;stroke-opacity:1;paint-order:normal" />
      <path
         transform="matrix(0.2645833333333333,0,0,0.2645833333333333,-0.729551318880766,229.6518419745775)"
         inkscape:connector-curvature="0"
         id="path4510"
         d="m 51.00000002690958,129.9999999208542 c -5.77541753065042,0.101581235731 -14.00000000738693,3.865145157841 -14.00000000738693,10.5000000055402 0,3.6689892212215 -2.05989793164462,8.2604082821275 -1.00000000052762,12.5000000065955 4.29855850394592,17.1942340157835 35.00515328173015,7.5103065304833 24.50000001292713,-13.5000000071231 -2.39591775904384,-4.7918355180878 -7.23585214028729,-4.9717042755621 -9.50000000501258,-9.5000000050126 z"
         style="opacity:1;vector-effect:none;fill:#808080;fill-opacity:1;stroke:#000000;stroke-width:8;stroke-linecap:round;stroke-linejoin:round;stroke-miterlimit:4;stroke-dasharray:none;stroke-dashoffset:0;stroke-opacity:1;paint-order:normal" />
      <path
         transform="matrix(0.2645833333333333,0,0,0.2645833333333333,5.425571407910667,216.5556351278965)"
         inkscape:connector-curvature="0"
         id="path4514"
         d="m 84.50000004458547,141.9999999271859 c -18.12416987236814,-2.5289565645388 -10.18074567805516,10.5422370236124 -14.00000000738694,22.000000011608 -1.17563945073478,3.5269183522044 -11.99087185866987,11.5182563013914 -11.50000000606782,12.5000000065955 4.37651797314544,8.7530359462909 28.09367882638504,11.8126423831093 33.00000001741207,2.0000000010553 7.18406964341892,-14.3681392868378 -19.49789487702475,-20.502806855169 -7.5000000039573,-36.5000000192588 z"
         style="opacity:1;vector-effect:none;fill:#808080;fill-opacity:1;stroke:#000000;stroke-width:8;stroke-linecap:round;stroke-linejoin:round;stroke-miterlimit:4;stroke-dasharray:none;stroke-dashoffset:0;stroke-opacity:1;paint-order:normal" />
      <path
         transform="matrix(0.2645833333333333,0,0,0.2645833333333333,11.03823148505958,212.8138617431308)"
         inkscape:connector-curvature="0"
         id="path4518"
         d="m 111.0000000585679,176.9999999456532 c 1.6630829996085,15.757903016669 -17.6064127916166,17.7128255739995 -22.00000001160805,26.5000000139824 -4.70858148736185,9.4171629747237 8.07680021094339,12.2153600477817 14.50000000765074,13.5000000071232 26.1158609039339,5.2231721807867 34.331556421233,-40.0000000211056 7.5000000039573,-40.0000000211056 z"
         style="opacity:1;vector-effect:none;fill:#808080;fill-opacity:1;stroke:#000000;stroke-width:8;stroke-linecap:round;stroke-linejoin:round;stroke-miterlimit:4;stroke-dasharray:none;stroke-dashoffset:0;stroke-opacity:1;paint-order:normal" />
      <path
         transform="matrix(0.2645833333333333,0,0,0.2645833333333333,10.47696547734469,196.1629701809221)"
         inkscape:connector-curvature="0"
         id="path4526"
         d="m 149.9066376510962,174.6410895754088 c -12.9001297457253,-8.4148866089773 -10.9641892540501,10.5985334350621 -7.7781745951041,16.9705627529543 9.2433876854495,18.4867753708992 -13.1965427557611,19.9182329236106 4.9497474696117,28.9913780362969 2.5399189871011,1.2699594935505 11.7308934566982,1.7465564320854 14.849242408835,0.7071067813731 12.8555320053887,-4.2851773351296 1.8718252204544,-27.3276693498858 9.1923881578503,-34.6482322872817 3.4485687237503,-3.4485687237503 25.3013709038001,-21.3161855916137 14.849242408835,-28.2842712549238 -11.51470931546,-7.6764728769732 -23.0353730901805,19.5202241615431 -36.0624458500279,16.2634559715812 z"
         style="opacity:1;vector-effect:none;fill:#808080;fill-opacity:1;stroke:#000000;stroke-width:8;stroke-linecap:round;stroke-linejoin:round;stroke-miterlimit:4;stroke-dasharray:none;stroke-dashoffset:0;stroke-opacity:1;paint-order:normal" />
      <path
         transform="matrix(0.2645833333333333,0,0,0.2645833333333333,0.4810176552987571,219.3619651674583)"
         inkscape:connector-curvature="0"
         id="path4534"
         d="m 249.6086938247026,120.1938674096805 c -8.0718241483228,1.1358052465281 -7.0215532414439,7.580116305956 -8.4852813764771,13.4350288460888 -1.3966669632535,5.5866678530141 -4.8743347537621,11.1628830702704 -7.071067813731,15.5563491902081 -2.8550891761814,5.7101783523627 8.1870741271089,12.9267268976279 12.7279220647158,9.8994949392233 9.4502220487012,-6.3001480324674 4.5287199646162,-15.2864527329729 7.0710678137309,-25.4558441294314 1.6978921008805,-6.7915684035216 0.4332087001092,-10.6295192130801 -4.2426406882386,-13.4350288460888 z"
         style="opacity:1;vector-effect:none;fill:#808080;fill-opacity:1;stroke:#000000;stroke-width:8;stroke-linecap:round;stroke-linejoin:round;stroke-miterlimit:4;stroke-dasharray:none;stroke-dashoffset:0;stroke-opacity:1;paint-order:normal" />
      <path
         transform="matrix(0.2645833333333333,0,0,0.2645833333333333,-4.851009417499114,216.1814577894201)"
         inkscape:connector-curvature="0"
         id="path4542"
         d="m 251.0229075198976,213.178409124985 c -16.4343303803518,10.0642865765479 -24.4980657942953,-2.9762168697547 -34.2946789146902,16.6170093710355 -0.2720493296285,0.5440986592569 -1.5467103189199,5.0383073522415 -1.4142135634924,5.3033008630964 0.4718845442277,0.9437690884553 3.1667847202098,1.7069837637731 3.535533908731,3.1819805178579 0.7613689683871,3.0454758735487 -1.0596176196352,8.8409198777956 0.353553390873,11.6672618988121 3.2829587461867,6.5659174923735 28.0866591412293,5.5009129917149 32.5269119603248,1.0606601726193 2.867698336413,-2.867698336413 5.4586529902863,-39.3716527664293 -0.7071067817462,-37.8302128234212 z"
         style="opacity:1;vector-effect:none;fill:#808080;fill-opacity:1;stroke:#000000;stroke-width:8;stroke-linecap:round;stroke-linejoin:round;stroke-miterlimit:4;stroke-dasharray:none;stroke-dashoffset:0;stroke-opacity:1;paint-order:normal" />
    </g>
    <path
       style="opacity:1;vector-effect:none;fill:#808080;fill-opacity:1;stroke:#000000;stroke-width:8;stroke-linecap:round;stroke-linejoin:round;stroke-miterlimit:4;stroke-dasharray:none;stroke-dashoffset:0;stroke-opacity:1;paint-order:normal"
       d="m 759.0000008009517,196.4999999118847 c -2.0754040374626,-1.2370486003335 -4.8545111496189,-0.7500000007914 -7.2500000076508,-0.7500000007914 -12.2691867670347,0 -2.3768807705055,16.3806423212776 -5.0000000052763,24.2500000255904 -1.5665173470493,4.6995520411481 -4.7733309009036,6.2733309024864 -8.0000000084424,9.5000000100251 -0.2908374116093,0.2908374116096 -15.7500000166204,14.5833055678759 -15.7500000166204,15.7500000166205 0,2.3019224484547 9.9021604827528,8.0543209531057 10.7500000113442,9.7500000102889 3.7913598785035,7.5827197570093 10.1114233538426,-1.072284669766 16.0000000168842,-2.2500000023744 4.988583713725,-0.997716742745 9.8348671261184,3.9151328883927 14.5000000153016,-0.7500000007914 2.631215947389,-2.6312159473897 -1.5424338330984,-15.2878308587793 -0.7500000007914,-19.250000020314 0.3143094969938,-1.5715474849709 3.5508723069594,-3.601744610225 4.2500000044847,-5.0000000052764 1.7163332671579,-3.4326665343167 5.1654414688486,-15.7536756264321 3.7500000039571,-20.0000000211054 -1.8500086176898,-5.5500258530679 -10.5434619177772,-9.2934619164583 -12.5000000131905,-11.2500000118719 z"
       id="path4571"
       inkscape:connector-curvature="0"
       transform="matrix(0.2645833333333333,0,0,0.2645833333333333,-21.88937430088089,220.6715858511393)"
       sodipodi:nodetypes="cssssssssssc" />
  </g>
</svg>
