<?xml version="1.0" encoding="UTF-8" standalone="no"?>
<!-- Created with Inkscape (http://www.inkscape.org/) -->

<svg
   xmlns:dc="http://purl.org/dc/elements/1.1/"
   xmlns:cc="http://creativecommons.org/ns#"
   xmlns:rdf="http://www.w3.org/1999/02/22-rdf-syntax-ns#"
   xmlns:svg="http://www.w3.org/2000/svg"
   xmlns="http://www.w3.org/2000/svg"
   xmlns:sodipodi="http://sodipodi.sourceforge.net/DTD/sodipodi-0.dtd"
   xmlns:inkscape="http://www.inkscape.org/namespaces/inkscape"
   width="1000"
   height="500"
   viewBox="0 0 264.5833272454602 132.2916704048346"
   version="1.1"
   id="svg4502"
   inkscape:version="0.92.1 r15371"
   sodipodi:docname="question.svg"
   inkscape:export-filename="D:\deving-games\qeqe\art\question.png"
   inkscape:export-xdpi="96"
   inkscape:export-ydpi="96">
  <defs
     id="defs4496" />
  <sodipodi:namedview
     id="base"
     pagecolor="#ffffff"
     bordercolor="#666666"
     borderopacity="1.0"
     inkscape:pageopacity="0.0"
     inkscape:pageshadow="2"
     inkscape:zoom="0.4326195300429563"
     inkscape:cx="41.21010130169338"
     inkscape:cy="494.452732317458"
     inkscape:document-units="mm"
     inkscape:current-layer="layer1"
     showgrid="false"
     fit-margin-top="0"
     fit-margin-left="0"
     fit-margin-right="0"
     fit-margin-bottom="0"
     units="px"
     inkscape:snap-global="false"
     inkscape:window-width="1920"
     inkscape:window-height="1027"
     inkscape:window-x="-8"
     inkscape:window-y="-8"
     inkscape:window-maximized="1" />
  <metadata
     id="metadata4499">
    <rdf:RDF>
      <cc:Work
         rdf:about="">
        <dc:format>image/svg+xml</dc:format>
        <dc:type
           rdf:resource="http://purl.org/dc/dcmitype/StillImage" />
        <dc:title></dc:title>
      </cc:Work>
    </rdf:RDF>
  </metadata>
  <g
     inkscape:label="Layer 1"
     inkscape:groupmode="layer"
     id="layer1"
     transform="translate(0,-164.7083165486653)">
    <g
       id="g5116"
       transform="translate(132.2916666666666)">
      <path
         transform="matrix(0.2645833333333333,0,0,0.2645833333333333,0,164.7083165486653)"
         inkscape:connector-curvature="0"
         id="path5110"
         d="m 202.6751795690347,128.9736632082993 c -1.7321540414956,15.84397300379 3.2333998777824,34.4306862405556 -1.634477254589,49.0343176376697 -3.9573183233637,11.8719549700911 -32.7375599754491,11.1369179839119 -40.8619313647247,5.7206703910615 -6.7766140195138,-4.5177426796756 -9.771098157826,-11.7963120412081 -13.8930566640064,-17.9792498004789 -8.922627997848,-13.3839419967719 -9.7721640684604,-41.7485689101664 -2.4517158818835,-56.3894652833201 5.2429453066344,-10.48589061326878 8.1170293134282,-22.7719676452125 13.0758180367119,-32.68954509177981 22.8055608322556,-45.61112166450957 105.053807291467,-60.32657075386867 153.640861931365,-44.13088587390268 17.3870818937101,5.79569396457007 34.765741380906,22.50716197148906 48.2170790103752,35.95849960095779 11.6745317250923,11.67453172509194 2.8310620133947,37.09653799549139 8.172386272945,53.12051077414209 9.066395737723,27.1991872131691 1.2802714651542,53.828922353011 -10.6241021548284,77.637669592977 -16.5659697933693,33.1319395867397 -56.2026903416759,29.2338156409576 -77.6376695929772,50.6687948922587 -20.1855387766031,20.1855387766031 3.1740644234756,111.5767951471243 -17.9792498004789,116.8651237031127 -41.779857911454,10.4449644778632 -46.5826017557861,-28.3061959973359 -46.5826017557861,-59.658419792498 0,-36.6239413005451 9.278198931551,-83.0940076860465 44.1308858739027,-100.5203511572229 8.4190807068206,-4.2095403534104 23.8856780924363,-10.8098600557244 30.2378292098963,-17.1620111731844 15.6316314134616,-15.6316314134616 28.1182043640949,-38.589249963793 35.1412609736633,-59.6584197924982 21.3483928668932,-64.04517860067943 -91.9698887976083,-85.30980687134052 -111.1444533120513,-27.7861133280127 -2.6971348356252,8.0914045068751 -11.7888533778329,17.0589254492237 -9.8068635275339,26.9688747007182 z"
         style="opacity:1;vector-effect:none;fill:#ffffff;fill-opacity:0.5747663311;stroke:#000000;stroke-width:10;stroke-linecap:round;stroke-linejoin:round;stroke-miterlimit:4;stroke-dasharray:none;stroke-dashoffset:0;stroke-opacity:1;paint-order:normal" />
      <path
         transform="matrix(0.2645833333333333,0,0,0.2645833333333333,0,164.7083165486653)"
         inkscape:connector-curvature="0"
         id="path5112"
         d="m 261.5163607342383,398.6624102154826 c -20.5177194351969,-3.6024539716031 -21.8281411520575,5.4833686061677 -32.6895450917798,16.3447725458899 -33.454022436182,33.454022436182 7.1304633616878,77.7500117349583 49.8515562649642,56.3894652833202 11.4400665066642,-5.7200332533321 17.7374983544897,-72.7342378292101 -17.1620111731844,-72.7342378292101 z"
         style="opacity:1;vector-effect:none;fill:#ffffff;fill-opacity:0.5747663311;stroke:#000000;stroke-width:10;stroke-linecap:round;stroke-linejoin:round;stroke-miterlimit:4;stroke-dasharray:none;stroke-dashoffset:0;stroke-opacity:1;paint-order:normal" />
    </g>
  </g>
  <g
     inkscape:groupmode="layer"
     id="layer3"
     inkscape:label="Layer 2"
     style="display:inline"
     sodipodi:insensitive="true">
    <path
       style="opacity:1;vector-effect:none;fill:#ffffff;fill-opacity:0.5747663311;stroke:#000000;stroke-width:10;stroke-linecap:round;stroke-linejoin:round;stroke-miterlimit:4;stroke-dasharray:none;stroke-dashoffset:0;stroke-opacity:1;paint-order:normal"
       d="M 157.1819932149786,150.9635150667386 C 108.2464787567266,12.48168051579285 296.9438827444348,-43.90613317762495 358.2824845341424,48.10176950693648 c 8.4075120233636,12.61126803504533 9.2459996008811,38.44669066018587 9.2459996008811,54.32024765517642 0,117.180240204558 -95.9272458591413,87.7879394611232 -95.9272458591413,179.1412422670712 0,8.6992079694008 0.8299342191092,58.5282803460624 -4.6229998004407,61.2547473558372 -4.1466602605607,2.0733301302804 -15.0085536895505,0 -19.6477491518723,0 -47.694851580648,0 -22.489525686615,-117.0910799576212 -8.0902496532102,-138.6899940077281 15.3377604060622,-23.0066406090931 44.9764086943225,-27.0107203270705 60.6768723774282,-48.541497910114 17.4462394684945,-23.9248412810168 28.0299273146021,-60.457459985407 6.3566247192026,-82.05824645233174 -29.2216580619425,-29.12388609106095 -88.2304705366161,-32.33632552211032 -103.439620518697,13.29112442413224 -7.5793648521674,22.7380945565029 9.8711453494646,45.55758147101241 -1.733624929129,68.7671220281995 -6.7915736981891,13.5831473963783 -39.2002933428704,8.7289728592379 -43.9184981041852,-4.6229998004406 z"
       id="path5106"
       inkscape:connector-curvature="0"
       transform="matrix(0.2645833333333333,0,0,0.2645833333333333,0,6.115843485999463)"
       sodipodi:nodetypes="ssssssssssss" />
    <path
       style="opacity:1;vector-effect:none;fill:#ffffff;fill-opacity:0.5747663311;stroke:#000000;stroke-width:10;stroke-linecap:round;stroke-linejoin:round;stroke-miterlimit:4;stroke-dasharray:none;stroke-dashoffset:0;stroke-opacity:1;paint-order:normal"
       d="m 283.1587377769836,383.2692550388762 c -6.6947063938046,-5.7742259095218 -11.7703496512089,-3.3100998836633 -19.6477491518724,-4.6229998004407 -56.2507308579548,-9.3751218096592 -51.7852976027519,60.5587307731653 -28.8937487527534,68.1892470564981 36.7759600169973,12.2586533389992 58.9432474598856,-0.5557541056596 58.9432474598856,-38.1397483536345 0,-10.1628874946257 -2.215523387613,-15.1937161928647 -10.4017495552598,-25.4264989024228 z"
       id="path5108"
       inkscape:connector-curvature="0"
       transform="matrix(0.2645833333333333,0,0,0.2645833333333333,0,6.115843485999463)"
       sodipodi:nodetypes="csssc" />
  </g>
</svg>
