<?xml version="1.0" encoding="UTF-8" standalone="no"?>
<!-- Created with Inkscape (http://www.inkscape.org/) -->

<svg
   xmlns:dc="http://purl.org/dc/elements/1.1/"
   xmlns:cc="http://creativecommons.org/ns#"
   xmlns:rdf="http://www.w3.org/1999/02/22-rdf-syntax-ns#"
   xmlns:svg="http://www.w3.org/2000/svg"
   xmlns="http://www.w3.org/2000/svg"
   xmlns:sodipodi="http://sodipodi.sourceforge.net/DTD/sodipodi-0.dtd"
   xmlns:inkscape="http://www.inkscape.org/namespaces/inkscape"
   width="132"
   height="66"
   viewBox="0 0 34.92499919640073 17.46250049343817"
   version="1.1"
   id="svg8"
   inkscape:version="0.92.1 r15371"
   sodipodi:docname="scent-arrow.svg">
  <defs
     id="defs2" />
  <sodipodi:namedview
     id="base"
     pagecolor="#3b3b3b"
     bordercolor="#666666"
     borderopacity="1.0"
     inkscape:pageopacity="0"
     inkscape:pageshadow="2"
     inkscape:zoom="3.460956234865277"
     inkscape:cx="1.918363818336843"
     inkscape:cy="24.7509224219873"
     inkscape:document-units="mm"
     inkscape:current-layer="layer1"
     showgrid="false"
     units="px"
     inkscape:snap-global="false"
     inkscape:window-width="1920"
     inkscape:window-height="1027"
     inkscape:window-x="-8"
     inkscape:window-y="-8"
     inkscape:window-maximized="1" />
  <metadata
     id="metadata5">
    <rdf:RDF>
      <cc:Work
         rdf:about="">
        <dc:format>image/svg+xml</dc:format>
        <dc:type
           rdf:resource="http://purl.org/dc/dcmitype/StillImage" />
        <dc:title></dc:title>
      </cc:Work>
    </rdf:RDF>
  </metadata>
  <g
     inkscape:label="0"
     inkscape:groupmode="layer"
     id="layer1"
     transform="translate(0,-279.5374832153319)">
    <g
       id="g4595"
       transform="translate(-53.83003714381915,261.6003588610105)">
      <g
         style="display:inline"
         transform="translate(-85.07930241307576,-37.55424985283598)"
         id="layer1-9"
         inkscape:label="0">
        <path
           transform="matrix(0.2550668176577092,0,0,0.2550728798605005,85.69873623927992,38.1810459673251)"
           inkscape:connector-curvature="0"
           id="path5223"
           d="M 69.87390270741518,60.90023935034944 C 68.26818133795717,60.45386530248246 67.38218876946035,58.57139721941019 65.78770956663068,58.0399041518003 52.41651852578473,53.58284047151821 56.38667843841659,70.09278046490973 60.88427779768927,72.34158014454608 72.29967771340004,78.04928010240148 74.07915081973135,60.05918972788624 69.87390270741518,60.90023935034944 Z"
           style="opacity:1;vector-effect:none;fill:none;fill-opacity:0.4018691717;stroke:#4d4d4d;stroke-width:5.4455676079;stroke-linecap:round;stroke-linejoin:round;stroke-miterlimit:4;stroke-dasharray:none;stroke-dashoffset:0;stroke-opacity:1;paint-order:normal" />
      </g>
      <g
         style="display:inline"
         inkscape:label="1"
         id="layer3">
        <path
           sodipodi:nodetypes="csc"
           transform="matrix(0.2550668176577092,0,0,0.2550728798605005,0.6194338262041529,0.6267961144891245)"
           inkscape:connector-curvature="0"
           id="path5230"
           d="m 70.61678058187543,72.16807171925381 c 0.51753277404775,6.23407504941829 -9.04343369439695,-2.16625352285858 -7.89371587083312,10.18468162021432 0.17302236772403,1.85870654369464 -0.23475736352173,3.90791904605862 0.40861931407845,5.5163607400591"
           style="opacity:1;vector-effect:none;fill:none;fill-opacity:0.4018691717;stroke:#4d4d4d;stroke-width:5.4455676079;stroke-linecap:round;stroke-linejoin:round;stroke-miterlimit:4;stroke-dasharray:none;stroke-dashoffset:0;stroke-opacity:1;paint-order:normal" />
        <path
           sodipodi:nodetypes="cc"
           transform="matrix(0.2550668176577092,0,0,0.2550728798605005,0.6194338262041529,0.6267961144891245)"
           inkscape:connector-curvature="0"
           id="path5232"
           d="M 59.37665378089607,72.76781496309638 C 51.12328382378965,69.92439073190624 62.68852494758404,64.82203404351176 41.89593575780989,63.81075283556463"
           style="opacity:1;vector-effect:none;fill:none;fill-opacity:0.4018691717;stroke:#4d4d4d;stroke-width:5.4455676079;stroke-linecap:round;stroke-linejoin:round;stroke-miterlimit:4;stroke-dasharray:none;stroke-dashoffset:0;stroke-opacity:1;paint-order:normal" />
        <path
           transform="matrix(0.2550668176577092,0,0,0.2550728798605005,0.6194338262041529,0.6267961144891245)"
           inkscape:connector-curvature="0"
           id="path5234"
           d="m 56.34281015705465,58.75434679582895 c -1.06381259236458,-1.80466650623641 5.49736336020659,-1.90074693738253 5.63428101570547,-2.31149990387916 0.4104300857695,-1.2312902573085 2.20666342465118,-1.62878844868141 3.17831236783385,-2.60043739186407 1.85654181033181,-1.85654181033181 -1.27975283000745,-11.66103653153911 -2.1670311598867,-13.43559319129764"
           style="opacity:1;vector-effect:none;fill:none;fill-opacity:0.4018691717;stroke:#4d4d4d;stroke-width:5.4455676079;stroke-linecap:round;stroke-linejoin:round;stroke-miterlimit:4;stroke-dasharray:none;stroke-dashoffset:0;stroke-opacity:1;paint-order:normal" />
        <path
           transform="matrix(0.2550668176577092,0,0,0.2550728798605005,0.6194338262041529,0.6267961144891245)"
           inkscape:connector-curvature="0"
           id="path5236"
           d="m 69.63393460435985,59.62115925978364 c 1.21466374823621,0.14994141346472 3.37521534373293,-0.50796266676093 4.18959357578099,0.57787497596979 1.39421910987151,1.85895881316204 0.12309197686155,4.00237129752672 1.01128120794714,5.77874975969792 1.61167262898677,3.22334525797353 9.62906738456785,0.14446874399245 12.27984323935806,0.14446874399245"
           style="opacity:1;vector-effect:none;fill:none;fill-opacity:0.4018691717;stroke:#4d4d4d;stroke-width:5.4455676079;stroke-linecap:round;stroke-linejoin:round;stroke-miterlimit:4;stroke-dasharray:none;stroke-dashoffset:0;stroke-opacity:1;paint-order:normal" />
      </g>
      <g
         style="display:inline"
         inkscape:label="2"
         id="layer4">
        <path
           transform="matrix(0.2550668176577092,0,0,0.2550728798605005,0.6194338262041529,0.6267961144891245)"
           inkscape:connector-curvature="0"
           id="path5239"
           d="M 64.43305982063172,49.94175341228963 C 65.75586847986291,44.98595401370315 66.70059411730102,35.32529050503345 63.85518484466195,30.58294171730162 62.62622780620585,28.53467998654146 61.5356954485833,26.36139017272269 60.965809964813,24.08184823764146"
           style="opacity:1;vector-effect:none;fill:none;fill-opacity:0.4018691717;stroke:#4d4d4d;stroke-width:5.4455676079;stroke-linecap:round;stroke-linejoin:round;stroke-miterlimit:4;stroke-dasharray:none;stroke-dashoffset:0;stroke-opacity:1;paint-order:normal" />
        <path
           transform="matrix(0.2550668176577092,0,0,0.2550728798605005,0.6194338262041529,0.6267961144891245)"
           inkscape:connector-curvature="0"
           id="path5241"
           d="m 78.73546547588405,67.27800269138336 c 7.136266067918,-1.92526141903393 24.76782769171414,-5.71507729069236 30.48290498240654,0"
           style="opacity:1;vector-effect:none;fill:none;fill-opacity:0.4018691717;stroke:#4d4d4d;stroke-width:5.4455676079;stroke-linecap:round;stroke-linejoin:round;stroke-miterlimit:4;stroke-dasharray:none;stroke-dashoffset:0;stroke-opacity:1;paint-order:normal" />
        <path
           transform="matrix(0.2550668176577092,0,0,0.2550728798605005,0.6194338262041529,0.6267961144891245)"
           inkscape:connector-curvature="0"
           id="path5243"
           d="m 62.84390363671482,82.01381457861305 c -2.62310155183386,9.16809897719554 2.65390967031841,15.80056537363117 8.52365589555441,21.67031159886714 0.98596002223606,0.9859600222361 1.79387519408158,1.9653906104411 3.17831236783385,2.3114999038792"
           style="opacity:1;vector-effect:none;fill:none;fill-opacity:0.4018691717;stroke:#4d4d4d;stroke-width:5.4455676079;stroke-linecap:round;stroke-linejoin:round;stroke-miterlimit:4;stroke-dasharray:none;stroke-dashoffset:0;stroke-opacity:1;paint-order:normal" />
        <path
           transform="matrix(0.2550668176577092,0,0,0.2550728798605005,0.6194338262041529,0.6267961144891245)"
           inkscape:connector-curvature="0"
           id="path5245"
           d="M 48.10809174948514,64.3886278115344 C 38.75909051399828,64.61479545840906 28.7794200503159,64.69263529742869 20.65903039092005,60.63244046773079"
           style="opacity:1;vector-effect:none;fill:none;fill-opacity:0.4018691717;stroke:#4d4d4d;stroke-width:5.4455676079;stroke-linecap:round;stroke-linejoin:round;stroke-miterlimit:4;stroke-dasharray:none;stroke-dashoffset:0;stroke-opacity:1;paint-order:normal" />
        <path
           transform="matrix(0.2550668176577092,0,0,0.2550728798605005,0.6194338262041529,0.6267961144891245)"
           inkscape:connector-curvature="0"
           id="path5247"
           d="m 58.50984131694137,58.03200307586671 c -1.49337181604741,0.032008101223 -1.89168058272914,2.07691005920357 -2.16703115988672,3.17831236783386"
           style="opacity:1;vector-effect:none;fill:none;fill-opacity:0.4018691717;stroke:#4d4d4d;stroke-width:5.4455676079;stroke-linecap:round;stroke-linejoin:round;stroke-miterlimit:4;stroke-dasharray:none;stroke-dashoffset:0;stroke-opacity:1;paint-order:normal" />
        <path
           transform="matrix(0.2550668176577092,0,0,0.2550728798605005,0.6194338262041529,0.6267961144891245)"
           inkscape:connector-curvature="0"
           id="path5249"
           d="m 66.88902846850334,58.75434679582895 c 0.91471203575905,1.05374189200957 2.60403871902291,2.67537275922942 4.04512483178854,3.75618734380366"
           style="opacity:1;vector-effect:none;fill:none;fill-opacity:0.4018691717;stroke:#4d4d4d;stroke-width:5.4455676079;stroke-linecap:round;stroke-linejoin:round;stroke-miterlimit:4;stroke-dasharray:none;stroke-dashoffset:0;stroke-opacity:1;paint-order:normal" />
        <path
           transform="matrix(0.2550668176577092,0,0,0.2550728798605005,0.6194338262041529,0.6267961144891245)"
           inkscape:connector-curvature="0"
           id="path5251"
           d="m 72.23437199622391,70.16737757123232 c -1.6881929873894,1.20591155154973 -2.32954394977544,2.76295018175277 -3.6117185998112,4.04512483178854"
           style="opacity:1;vector-effect:none;fill:none;fill-opacity:0.4018691717;stroke:#4d4d4d;stroke-width:5.4455676079;stroke-linecap:round;stroke-linejoin:round;stroke-miterlimit:4;stroke-dasharray:none;stroke-dashoffset:0;stroke-opacity:1;paint-order:normal" />
        <path
           transform="matrix(0.2550668176577092,0,0,0.2550728798605005,0.6194338262041529,0.6267961144891245)"
           inkscape:connector-curvature="0"
           id="path5253"
           d="M 60.38793498884319,74.21250240302086 C 57.12363650038005,74.58058591989473 56.50372833729201,73.55595642803827 55.9094039250773,71.17865877917947"
           style="opacity:1;vector-effect:none;fill:none;fill-opacity:0.4018691717;stroke:#4d4d4d;stroke-width:5.4455676079;stroke-linecap:round;stroke-linejoin:round;stroke-miterlimit:4;stroke-dasharray:none;stroke-dashoffset:0;stroke-opacity:1;paint-order:normal" />
      </g>
      <g
         style="display:inline"
         inkscape:label="3"
         id="layer5">
        <path
           transform="matrix(0.2550668176577092,0,0,0.2550728798605005,0.6194338262041529,0.6267961144891245)"
           inkscape:connector-curvature="0"
           id="path5258"
           d="M 64.43305982063172,42.71831621266725 C 70.31125909170657,28.87108228027443 56.79565697394917,21.1147110181238 60.53240373283564,6.167723982577943"
           style="opacity:1;vector-effect:none;fill:none;fill-opacity:0.4018691717;stroke:#4d4d4d;stroke-width:5.4455676079;stroke-linecap:round;stroke-linejoin:round;stroke-miterlimit:4;stroke-dasharray:none;stroke-dashoffset:0;stroke-opacity:1;paint-order:normal" />
        <path
           transform="matrix(0.2550668176577092,0,0,0.2550728798605005,0.6194338262041529,0.6267961144891245)"
           inkscape:connector-curvature="0"
           id="path5260"
           d="m 85.09209021155176,65.83331525145888 c 5.71338500488615,-2.13163514993717 15.00639859417113,-5.29856649874962 20.94796787890493,-1.73362492790936 3.8430269942806,2.30581619656833 7.1012043019627,6.50665244124333 11.7019682633883,7.65684343159974 2.2653958356291,0.56634895890727 5.4224169298811,0 7.8013121755922,0"
           style="opacity:1;vector-effect:none;fill:none;fill-opacity:0.4018691717;stroke:#4d4d4d;stroke-width:5.4455676079;stroke-linecap:round;stroke-linejoin:round;stroke-miterlimit:4;stroke-dasharray:none;stroke-dashoffset:0;stroke-opacity:1;paint-order:normal" />
        <path
           transform="matrix(0.2550668176577092,0,0,0.2550728798605005,0.6194338262041529,0.6267961144891245)"
           inkscape:connector-curvature="0"
           id="path5262"
           d="m 63.27730986869215,87.21468936234117 c -1.40212033462069,6.89588390173782 -0.27799337833648,15.83815198543162 7.07896845562994,18.78093671901823 2.97693472389767,1.1907738895591 4.00174572801829,2.0802729523463 5.34534352772057,4.7674685517508 2.614578123537,5.229156247074 -1.44468743992448,13.606455673729 -1.44468743992448,18.9254054630106"
           style="opacity:1;vector-effect:none;fill:none;fill-opacity:0.4018691717;stroke:#4d4d4d;stroke-width:5.4455676079;stroke-linecap:round;stroke-linejoin:round;stroke-miterlimit:4;stroke-dasharray:none;stroke-dashoffset:0;stroke-opacity:1;paint-order:normal" />
        <path
           transform="matrix(0.2550668176577092,0,0,0.2550728798605005,0.6194338262041529,0.6267961144891245)"
           inkscape:connector-curvature="0"
           id="path5264"
           d="M 43.1961544537419,65.11097153149664 C 40.98791921897914,62.33448958351356 14.28340893023589,59.22574647783918 12.42431198335051,62.94394037160994"
           style="opacity:1;vector-effect:none;fill:none;fill-opacity:0.4018691717;stroke:#4d4d4d;stroke-width:5.4455676079;stroke-linecap:round;stroke-linejoin:round;stroke-miterlimit:4;stroke-dasharray:none;stroke-dashoffset:0;stroke-opacity:1;paint-order:normal" />
        <path
           transform="matrix(0.2550668176577092,0,0,0.2550728798605005,0.6194338262041529,0.6267961144891245)"
           inkscape:connector-curvature="0"
           id="path5270"
           d="m 58.65431006093382,72.91228370708884 c -2.68410216750532,1.08421326774503 -4.9888885734795,2.96632615758523 -6.79003096764505,4.76746855175077"
           style="opacity:1;vector-effect:none;fill:none;fill-opacity:0.4018691717;stroke:#4d4d4d;stroke-width:5.4455676079;stroke-linecap:round;stroke-linejoin:round;stroke-miterlimit:4;stroke-dasharray:none;stroke-dashoffset:0;stroke-opacity:1;paint-order:normal" />
        <path
           transform="matrix(0.2550668176577092,0,0,0.2550728798605005,0.6194338262041529,0.6267961144891245)"
           inkscape:connector-curvature="0"
           id="path5272"
           d="m 69.63393460435985,73.05675245108128 c 4.64100879574144,-0.47004389458426 8.12055348829206,2.48627247258659 11.12409328741849,5.48981227171302"
           style="opacity:1;vector-effect:none;fill:none;fill-opacity:0.4018691717;stroke:#4d4d4d;stroke-width:5.4455676079;stroke-linecap:round;stroke-linejoin:round;stroke-miterlimit:4;stroke-dasharray:none;stroke-dashoffset:0;stroke-opacity:1;paint-order:normal" />
        <path
           transform="matrix(0.2550668176577092,0,0,0.2550728798605005,0.6194338262041529,0.6267961144891245)"
           inkscape:connector-curvature="0"
           id="path5274"
           d="M 71.945434508239,61.49925293168546 C 70.73980728515896,58.238725023046 71.434862058589,56.6644818536149 73.67905943614839,54.42028447605552"
           style="opacity:1;vector-effect:none;fill:none;fill-opacity:0.4018691717;stroke:#4d4d4d;stroke-width:5.4455676079;stroke-linecap:round;stroke-linejoin:round;stroke-miterlimit:4;stroke-dasharray:none;stroke-dashoffset:0;stroke-opacity:1;paint-order:normal" />
        <path
           transform="matrix(0.2550668176577092,0,0,0.2550728798605005,0.6194338262041529,0.6267961144891245)"
           inkscape:connector-curvature="0"
           id="path5276"
           d="M 56.1983414130622,62.5105341396326 C 55.60311162783631,57.17354779765823 53.45659987351352,54.43952979267 48.39702923747002,52.54219080415369 47.3947491709112,52.16633577919413 46.04566045266496,52.06891569125044 45.36318561362863,51.38644085221411"
           style="opacity:1;vector-effect:none;fill:none;fill-opacity:0.4018691717;stroke:#4d4d4d;stroke-width:5.4455676079;stroke-linecap:round;stroke-linejoin:round;stroke-miterlimit:4;stroke-dasharray:none;stroke-dashoffset:0;stroke-opacity:1;paint-order:normal" />
      </g>
      <g
         style="display:inline"
         inkscape:label="4"
         id="layer6">
        <path
           transform="matrix(0.2550668176577092,0,0,0.2550728798605005,0.6194338262041529,0.6267961144891245)"
           inkscape:connector-curvature="0"
           id="path5279"
           d="M 72.52330948420879,56.87625312392713 C 76.64243423687422,47.52963898092615 86.16831413183284,43.0470167164814 95.2049022910231,38.52872263688626"
           style="opacity:1;vector-effect:none;fill:none;fill-opacity:0.4018691717;stroke:#4d4d4d;stroke-width:5.4455676079;stroke-linecap:round;stroke-linejoin:round;stroke-miterlimit:4;stroke-dasharray:none;stroke-dashoffset:0;stroke-opacity:1;paint-order:normal" />
        <path
           transform="matrix(0.2550668176577092,0,0,0.2550728798605005,0.6194338262041529,0.6267961144891245)"
           inkscape:connector-curvature="0"
           id="path5281"
           d="m 72.37884074021636,73.20122119507374 c 2.7752559924989,0.27566125579989 9.90158075937761,3.15040287567811 11.26856203141092,5.20087478372811 1.08611151118282,1.62916726677423 1.83136712131416,3.6260809201015 2.88937487984896,5.34534352772057 1.45245409370477,2.36023790227028 3.48275725025688,4.3650771086497 4.76746855175078,6.9344997116375 0.79153390034173,1.58306780068347 2.75487101708721,2.62036715432545 3.46724985581875,4.04512483178854"
           style="opacity:1;vector-effect:none;fill:none;fill-opacity:0.4018691717;stroke:#4d4d4d;stroke-width:5.4455676079;stroke-linecap:round;stroke-linejoin:round;stroke-miterlimit:4;stroke-dasharray:none;stroke-dashoffset:0;stroke-opacity:1;paint-order:normal" />
        <path
           transform="matrix(0.2550668176577092,0,0,0.2550728798605005,0.6194338262041529,0.6267961144891245)"
           inkscape:connector-curvature="0"
           id="path5283"
           d="M 54.60918522914528,75.07931486697555 C 42.52928490864913,82.49818420509689 41.11730608483455,86.86195819842369 37.85081092602133,99.92793883367659"
           style="opacity:1;vector-effect:none;fill:none;fill-opacity:0.4018691717;stroke:#4d4d4d;stroke-width:5.4455676079;stroke-linecap:round;stroke-linejoin:round;stroke-miterlimit:4;stroke-dasharray:none;stroke-dashoffset:0;stroke-opacity:1;paint-order:normal" />
        <path
           transform="matrix(0.2550668176577092,0,0,0.2550728798605005,0.6194338262041529,0.6267961144891245)"
           inkscape:connector-curvature="0"
           id="path5285"
           d="m 54.46471648515284,56.73178437993468 c -1.8316358494926,-2.29537993273487 -2.72590139222757,-5.59436560534926 -5.20087478372813,-7.65684343159974 -2.64074173689805,-2.2006181140817 -6.28115386060928,-2.99610818631217 -9.24599961551666,-4.47853106376587 -2.97572742606477,-1.48786371303238 -5.48924623939221,-3.82813869963945 -8.23471840756953,-5.20087478372812 -0.8147397056663,-0.40736985283316 -2.2792378802789,-0.43340623197735 -3.17831236783385,-0.43340623197735"
           style="opacity:1;vector-effect:none;fill:none;fill-opacity:0.4018691717;stroke:#4d4d4d;stroke-width:5.4455676079;stroke-linecap:round;stroke-linejoin:round;stroke-miterlimit:4;stroke-dasharray:none;stroke-dashoffset:0;stroke-opacity:1;paint-order:normal" />
        <path
           transform="matrix(0.2550668176577092,0,0,0.2550728798605005,0.6194338262041529,0.6267961144891245)"
           inkscape:connector-curvature="0"
           id="path5287"
           d="M 65.44434102857886,30.29400422931673 C 65.75763119303387,22.8665074825269 55.58464843695261,9.128734862706508 58.94324754891871,2.411536638774294"
           style="opacity:1;vector-effect:none;fill:none;fill-opacity:0.4018691717;stroke:#4d4d4d;stroke-width:5.4455676079;stroke-linecap:round;stroke-linejoin:round;stroke-miterlimit:4;stroke-dasharray:none;stroke-dashoffset:0;stroke-opacity:1;paint-order:normal" />
        <path
           transform="matrix(0.2550668176577092,0,0,0.2550728798605005,0.6194338262041529,0.6267961144891245)"
           inkscape:connector-curvature="0"
           id="path5289"
           d="m 100.4057770747512,63.37734660358729 c 9.1538499515936,0.90772963870094 16.9502690022418,7.51237468760728 26.437780150618,7.51237468760728"
           style="opacity:1;vector-effect:none;fill:none;fill-opacity:0.4018691717;stroke:#4d4d4d;stroke-width:5.4455676079;stroke-linecap:round;stroke-linejoin:round;stroke-miterlimit:4;stroke-dasharray:none;stroke-dashoffset:0;stroke-opacity:1;paint-order:normal" />
        <path
           transform="matrix(0.2550668176577092,0,0,0.2550728798605005,0.6194338262041529,0.6267961144891245)"
           inkscape:connector-curvature="0"
           id="path5291"
           d="m 66.31115349253353,103.8285949214727 c 0.25715792861421,2.0327193279496 4.45987012772649,2.0877989368757 6.21215599167526,2.7449061358565 14.45897014603013,5.4221138047613 7.72124132859256,11.4460827723825 9.67940584749401,21.2369053668898"
           style="opacity:1;vector-effect:none;fill:none;fill-opacity:0.4018691717;stroke:#4d4d4d;stroke-width:5.4455676079;stroke-linecap:round;stroke-linejoin:round;stroke-miterlimit:4;stroke-dasharray:none;stroke-dashoffset:0;stroke-opacity:1;paint-order:normal" />
        <path
           transform="matrix(0.2550668176577092,0,0,0.2550728798605005,0.6194338262041529,0.6267961144891245)"
           inkscape:connector-curvature="0"
           id="path5295"
           d="M 31.92759242233097,60.63244046773078 C 23.89636067308977,60.50395247088237 14.04216740135858,57.85883509778312 8.234718407569527,63.66628409157218 7.652741797025268,64.24826070211642 6.420942449409947,64.21991686892484 5.923218503690363,64.96650278750421 4.88324775435873,66.52645891150166 4.048848779341059,68.62017105605869 3.033843623841407,70.31184631522478"
           style="opacity:1;vector-effect:none;fill:none;fill-opacity:0.4018691717;stroke:#4d4d4d;stroke-width:5.4455676079;stroke-linecap:round;stroke-linejoin:round;stroke-miterlimit:4;stroke-dasharray:none;stroke-dashoffset:0;stroke-opacity:1;paint-order:normal" />
      </g>
      <g
         style="display:inline"
         inkscape:label="5"
         id="layer7">
        <path
           transform="matrix(0.2550668176577092,0,0,0.2550728798605005,0.6194338262041529,0.6267961144891245)"
           inkscape:connector-curvature="0"
           id="path5298"
           d="M 43.4850919417268,45.17428486053886 C 33.81242967768077,40.84557996377687 26.36493018783572,32.35237603581611 17.04731179110884,27.69356683745266 14.87599811955164,26.60791000167406 11.26890440787377,20.64362908120635 7.945780919584631,19.3143796858907"
           style="opacity:1;vector-effect:none;fill:none;fill-opacity:0.4018691717;stroke:#4d4d4d;stroke-width:5.4455676079;stroke-linecap:round;stroke-linejoin:round;stroke-miterlimit:4;stroke-dasharray:none;stroke-dashoffset:0;stroke-opacity:1;paint-order:normal" />
        <path
           transform="matrix(0.2550668176577092,0,0,0.2550728798605005,0.6194338262041529,0.6267961144891245)"
           inkscape:connector-curvature="0"
           id="path5300"
           d="m 78.01312175592181,49.21940969232739 c 2.32868453243252,-1.24576929890749 4.63602583046874,-3.69046598316261 7.07896845562995,-4.91193729574321 2.06247028199516,-1.03123514099758 2.81444299743076,-3.99337190322843 4.04512483178854,-5.63428101570547 1.10678884757391,-1.47571846343191 3.06642917273308,-2.63302294075572 4.33406231977344,-3.9006560877961 5.46907875483531,-5.46907875483531 17.72955213686856,-9.63447074901452 24.70415522270856,-12.42431198335052"
           style="opacity:1;vector-effect:none;fill:none;fill-opacity:0.4018691717;stroke:#4d4d4d;stroke-width:5.4455676079;stroke-linecap:round;stroke-linejoin:round;stroke-miterlimit:4;stroke-dasharray:none;stroke-dashoffset:0;stroke-opacity:1;paint-order:normal" />
        <path
           transform="matrix(0.2550668176577092,0,0,0.2550728798605005,0.6194338262041529,0.6267961144891245)"
           inkscape:connector-curvature="0"
           id="path5302"
           d="m 81.62484035573301,76.95740853887737 c 3.38402642370981,1.55604830537263 14.80571068659269,9.67473470222758 16.18049932715415,12.42431198335051 1.72067366721345,3.44134733442687 3.93022443489764,7.11510754653176 6.50109347966013,10.25728082346382 3.0127543617142,3.68225533098401 8.3975082878712,5.76112873888251 10.8351557994336,9.8238745914864 1.1063717760891,1.8439529601486 2.3091332535251,4.0427581814345 3.9006560877961,5.6342810157055"
           style="opacity:1;vector-effect:none;fill:none;fill-opacity:0.4018691717;stroke:#4d4d4d;stroke-width:5.4455676079;stroke-linecap:round;stroke-linejoin:round;stroke-miterlimit:4;stroke-dasharray:none;stroke-dashoffset:0;stroke-opacity:1;paint-order:normal" />
        <path
           transform="matrix(0.2550668176577092,0,0,0.2550728798605005,0.6194338262041529,0.6267961144891245)"
           inkscape:connector-curvature="0"
           id="path5304"
           d="M 42.32934198978722,84.18084573849975 C 37.15710603818999,95.54401921254624 31.34971744636118,107.5098916868445 31.34971744636118,120.1535629926193"
           style="opacity:1;vector-effect:none;fill:none;fill-opacity:0.4018691717;stroke:#4d4d4d;stroke-width:5.4455676079;stroke-linecap:round;stroke-linejoin:round;stroke-miterlimit:4;stroke-dasharray:none;stroke-dashoffset:0;stroke-opacity:1;paint-order:normal" />
        <path
           transform="matrix(0.2550668176577092,0,0,0.2550728798605005,0.6194338262041529,0.6267961144891245)"
           inkscape:connector-curvature="0"
           id="path5308"
           d="m 82.05824658771037,128.8216876321662 c 0.21259572079161,-2.4886422166873 0.43340623197734,-4.8454313766777 0.43340623197734,-7.3679059436149"
           style="opacity:1;vector-effect:none;fill:none;fill-opacity:0.4018691717;stroke:#4d4d4d;stroke-width:5.4455676079;stroke-linecap:round;stroke-linejoin:round;stroke-miterlimit:4;stroke-dasharray:none;stroke-dashoffset:0;stroke-opacity:1;paint-order:normal" />
        <path
           transform="matrix(0.2550668176577092,0,0,0.2550728798605005,0.6194338262041529,0.6267961144891245)"
           inkscape:connector-curvature="0"
           id="path5310"
           d="m 127.5659009453314,71.03419003518699 c -4.4630092628157,2.32344025392854 -9.5832019793909,-2.88937487984894 -12.4243119833505,-2.88937487984894"
           style="opacity:1;vector-effect:none;fill:none;fill-opacity:0.4018691717;stroke:#4d4d4d;stroke-width:5.4455676079;stroke-linecap:round;stroke-linejoin:round;stroke-miterlimit:4;stroke-dasharray:none;stroke-dashoffset:0;stroke-opacity:1;paint-order:normal" />
        <path
           transform="matrix(0.2550668176577092,0,0,0.2550728798605005,0.6194338262041529,0.6267961144891245)"
           inkscape:connector-curvature="0"
           id="path5312"
           d="M 2.600437391864061,72.04547124313414 C 4.43272066900062,68.84934450972977 6.222589284284878,62.50531749332778 9.679405847494004,60.77690921172322"
           style="opacity:1;vector-effect:none;fill:none;fill-opacity:0.4018691717;stroke:#4d4d4d;stroke-width:5.4455676079;stroke-linecap:round;stroke-linejoin:round;stroke-miterlimit:4;stroke-dasharray:none;stroke-dashoffset:0;stroke-opacity:1;paint-order:normal" />
        <path
           transform="matrix(0.2550668176577092,0,0,0.2550728798605005,0.6194338262041529,0.6267961144891245)"
           inkscape:connector-curvature="0"
           id="path5314"
           d="M 58.36537257294892,2.122599150789398 C 57.5849583835596,5.531693804310894 57.49856010899424,9.081044539156252 57.49856010899424,12.81328620623054"
           style="opacity:1;vector-effect:none;fill:none;fill-opacity:0.4018691717;stroke:#4d4d4d;stroke-width:5.4455676079;stroke-linecap:round;stroke-linejoin:round;stroke-miterlimit:4;stroke-dasharray:none;stroke-dashoffset:0;stroke-opacity:1;paint-order:normal" />
      </g>
      <g
         style="display:inline"
         inkscape:label="6"
         id="layer8">
        <path
           transform="matrix(0.2550668176577092,0,0,0.2550728798605005,0.6194338262041529,0.6267961144891245)"
           inkscape:connector-curvature="0"
           id="path5317"
           d="m 91.93934566765159,34.33998393525008 c 8.327120762532,-7.87537598624711 22.48863464584761,-12.52542680184192 33.71109341147231,-15.7318435920204"
           style="opacity:1;vector-effect:none;fill:none;fill-opacity:0.4018691717;stroke:#4d4d4d;stroke-width:5.4455676079;stroke-linecap:round;stroke-linejoin:round;stroke-miterlimit:4;stroke-dasharray:none;stroke-dashoffset:0;stroke-opacity:1;paint-order:normal" />
        <path
           transform="matrix(0.2550668176577092,0,0,0.2550728798605005,0.6194338262041529,0.6267961144891245)"
           inkscape:connector-curvature="0"
           id="path5319"
           d="M 27.78611335733471,33.72705496413239 C 20.80125255214005,32.57242499692841 21.01971700839329,24.30946860701049 16.95770153425574,21.05985622770039 14.77244119050447,19.31164795269936 9.921754668511907,16.9289538237108 7.150837996372906,15.54349548764129"
           style="opacity:1;vector-effect:none;fill:none;fill-opacity:0.4018691717;stroke:#4d4d4d;stroke-width:5.4455676079;stroke-linecap:round;stroke-linejoin:round;stroke-miterlimit:4;stroke-dasharray:none;stroke-dashoffset:0;stroke-opacity:1;paint-order:normal" />
        <path
           transform="matrix(0.2550668176577092,0,0,0.2550728798605005,0.6194338262041529,0.6267961144891245)"
           inkscape:connector-curvature="0"
           id="path5321"
           d="m 33.91540306851148,105.0311252708222 c -2.98605581596434,6.9241411109994 -1.63447725631381,14.3097162234198 -1.63447725631381,21.6568236461579"
           style="opacity:1;vector-effect:none;fill:none;fill-opacity:0.4018691717;stroke:#4d4d4d;stroke-width:5.4455676079;stroke-linecap:round;stroke-linejoin:round;stroke-miterlimit:4;stroke-dasharray:none;stroke-dashoffset:0;stroke-opacity:1;paint-order:normal" />
        <path
           transform="matrix(0.2550668176577092,0,0,0.2550728798605005,0.6194338262041529,0.6267961144891245)"
           inkscape:connector-curvature="0"
           id="path5323"
           d="m 101.9505188625737,98.6975259026062 c 2.9517948165478,0.71820578639996 9.2584281813676,4.6237996840679 10.8284118230789,7.7637669674906 1.5089610678261,3.0179221356519 7.5159311513515,14.5361906704245 7.9680766245298,16.344772563138"
           style="opacity:1;vector-effect:none;fill:none;fill-opacity:0.4018691717;stroke:#4d4d4d;stroke-width:5.4455676079;stroke-linecap:round;stroke-linejoin:round;stroke-miterlimit:4;stroke-dasharray:none;stroke-dashoffset:0;stroke-opacity:1;paint-order:normal" />
      </g>
      <g
         inkscape:label="7"
         id="layer9">
        <path
           transform="matrix(0.2550668176577092,0,0,0.2550728798605005,0.6194338262041529,0.6267961144891245)"
           inkscape:connector-curvature="0"
           id="path5326"
           d="m 112.5746210286134,22.49002382697497 c 3.7527179923498,-1.88477884598343 9.0204032095381,-4.04281030147771 13.2801277075497,-5.10774142598064"
           style="opacity:1;vector-effect:none;fill:none;fill-opacity:0.4018691717;stroke:#4d4d4d;stroke-width:5.4455676079;stroke-linecap:round;stroke-linejoin:round;stroke-miterlimit:4;stroke-dasharray:none;stroke-dashoffset:0;stroke-opacity:1;paint-order:normal" />
        <path
           transform="matrix(0.2550668176577092,0,0,0.2550728798605005,0.6194338262041529,0.6267961144891245)"
           inkscape:connector-curvature="0"
           id="path5328"
           d="m 116.0478851982803,111.5690342960774 c 1.089087103253,0.1800321980798 1.216302390427,1.7910091543115 1.4301675992745,2.8603351985492 1.3246413319275,6.6232066596371 1.7411843437497,5.9539329554546 7.1508379963729,10.0111731949221"
           style="opacity:1;vector-effect:none;fill:none;fill-opacity:0.4018691717;stroke:#4d4d4d;stroke-width:5.4455676079;stroke-linecap:round;stroke-linejoin:round;stroke-miterlimit:4;stroke-dasharray:none;stroke-dashoffset:0;stroke-opacity:1;paint-order:normal" />
        <path
           transform="matrix(0.2550668176577092,0,0,0.2550728798605005,0.6194338262041529,0.6267961144891245)"
           inkscape:connector-curvature="0"
           id="path5330"
           d="m 31.46368718404077,113.8164405235089 c 0.3978716862848,3.9401466867589 -1.20940231404667,8.8072560902716 1.22585794223536,12.0542697653143"
           style="opacity:1;vector-effect:none;fill:none;fill-opacity:0.4018691717;stroke:#4d4d4d;stroke-width:5.4455676079;stroke-linecap:round;stroke-linejoin:round;stroke-miterlimit:4;stroke-dasharray:none;stroke-dashoffset:0;stroke-opacity:1;paint-order:normal" />
        <path
           transform="matrix(0.2550668176577092,0,0,0.2550728798605005,0.6194338262041529,0.6267961144891245)"
           inkscape:connector-curvature="0"
           id="path5332"
           d="m 4.699122111902195,14.31763754540594 c 4.13602545117994,1.98479915348998 7.886738147503746,2.77899672152315 11.237031137157414,6.12928971117677"
           style="opacity:1;vector-effect:none;fill:none;fill-opacity:0.4018691717;stroke:#4d4d4d;stroke-width:5.4455676079;stroke-linecap:round;stroke-linejoin:round;stroke-miterlimit:4;stroke-dasharray:none;stroke-dashoffset:0;stroke-opacity:1;paint-order:normal" />
      </g>
    </g>
    <path
       style="opacity:1;vector-effect:none;fill:#ffffff;fill-opacity:0.4018691717;stroke:#ffffff;stroke-width:5.5494480133;stroke-linecap:round;stroke-linejoin:round;stroke-miterlimit:4;stroke-dasharray:none;stroke-dashoffset:0;stroke-opacity:1;paint-order:normal"
       d="m 3.756187341821738,116.1084381692157 c 2.951973889476684,0.9186851188324 4.749889700950592,-1.6293185640135 7.624221453126993,-0.8668124634972 1.4926032609039,0.395959544763 2.2102518096143,1.6826080040906 3.81211072656351,2.022562414827 3.2278955499289,0.6850399357795 12.26650378427393,0.5637718489685 14.15926841295015,-1.4446874391621 3.21459332226629,-3.4110843566347 13.7121172440219,2.548741476394 17.42679189286169,0.5778749756649 4.30328452691887,-2.2831607392211 10.79291145325097,-4.3602809789951 16.33761739955782,-2.8893748783245 1.55124889483192,0.4115171273576 3.50389651905486,1.7209195206905 5.17357884319333,2.3114999026596 1.1616471476857,0.4108841581871 30.45638413835519,-0.8453238001938 32.13064755246387,-1.7336249269947 5.6403673283884,-2.9925665287538 15.5946407509862,1.8584882723227 21.5111962427512,0.2889374878325"
       id="path5197"
       inkscape:connector-curvature="0"
       transform="matrix(0.2509465572991076,0,0,0.2496454527875763,0.3585136649606737,260.0543989190435)"
       sodipodi:nodetypes="csssssssc" />
    <path
       style="opacity:1;vector-effect:none;fill:#ffffff;fill-opacity:1;stroke:#ffffff;stroke-width:5.5494480133;stroke-linecap:round;stroke-linejoin:round;stroke-miterlimit:4;stroke-dasharray:none;stroke-dashoffset:0;stroke-opacity:1;paint-order:normal"
       d="m 131.6110257771199,114.2303444889289 c -1.8621968760472,-0.038830986051 -9.6568283352833,-7.3679059436148 -9.9683433354789,-7.3679059436148 -1.2015113146694,0 -12.8418929269587,-6.6297369352835 -14.1579369112598,-7.94578091958465 -0.8241910966685,-0.82419109666849 -3.3275052628014,-4.13986261079182 -4.4785310637659,-3.75618734380363 -0.6846815902294,0.22822719674311 -1.2110955862433,4.50009922268457 -1.4446874399245,5.20087478372807 -0.6087663400257,1.826299020077 -1.1185251000796,3.7889815322162 -1.7336249279094,5.6342810157055 -0.80711099605513,2.4213329881654 -0.32864026736948,24.1064288570465 0.8668124639547,24.7041552227086 0.5682774280958,0.2841387140478 19.269056976679,-7.914582066851 20.65903039092,-8.9570621275318 1.8398496831065,-1.3798872623299 3.3858831982608,-3.0590844584152 5.489812271713,-3.9006560877961 1.2427644311932,-0.4971057724772 5.2130777494823,-1.8292818088856 4.7674685517508,-3.6117185998112 z"
       id="path5199"
       inkscape:connector-curvature="0"
       transform="matrix(0.2509465572991076,0,0,0.2496454527875763,0.3585136649606737,260.0543989190435)" />
  </g>
  <g
     inkscape:groupmode="layer"
     id="layer2"
     inkscape:label="1"
     style="display:inline"
     transform="translate(0,-17.4625)">
    <path
       style="opacity:1;vector-effect:none;fill:#ffffff;fill-opacity:1;stroke:#ffffff;stroke-width:5.2497639656;stroke-linecap:round;stroke-linejoin:round;stroke-miterlimit:4;stroke-dasharray:none;stroke-dashoffset:0;stroke-opacity:1;paint-order:normal"
       d="m 6.645562223652603,112.3522508170271 c 5.422654330175527,1.7306227703591 19.776570743337387,-3.0689962460911 23.837342758753887,-1.4446874399245 1.35543153469691,0.5421726138788 4.45569864972556,1.3671391591452 6.06768724768283,0.7223437199623 3.69970611282746,-1.479882445131 8.34047238569294,-1.6042638950775 12.27984323935808,-2.1670311598868 3.40209938436842,-0.4860141977669 6.61404190965147,0.8578066599544 9.67940584749399,1.7336249279094 5.5891153924314,1.5968901121233 13.09414490646032,-1.2673887724579 18.4919992310333,-2.1670311598867 3.21745413053297,-0.5362423550888 6.94547185810201,1.4466823756453 10.11281207947134,2.0225624158943 5.59028291445972,1.0164150753563 11.14514651224668,-1.0112812079472 16.75837430312397,-1.0112812079472"
       id="path5202"
       inkscape:connector-curvature="0"
       transform="matrix(0.2645833333333333,0,0,0.2645833333333333,-0.3822402182783344,-2.905025658915342)" />
    <path
       style="opacity:1;vector-effect:none;fill:#ffffff;fill-opacity:1;stroke:#ffffff;stroke-width:5.2497639656;stroke-linecap:round;stroke-linejoin:round;stroke-miterlimit:4;stroke-dasharray:none;stroke-dashoffset:0;stroke-opacity:1;paint-order:normal"
       d="m 99.82790209878143,93.86025158599376 c 0.39719463205167,5.72011166470448 -4.93809896730203,10.55304850454793 -2.7449061358565,16.03603058316173 0.67207060784312,1.6801765196079 -0.0381254648492,15.7089676303277 0.57787497596979,16.3249680711466 0,0 2.23701097594714,-0.7104141268658 2.45596864787167,-0.8668124639547 4.1189615919465,-2.9421154228189 8.6883019853528,-3.9107447606991 13.0021869593203,-6.0676872476828 0.672955668473,-0.3364778342365 9.4796088146786,-3.3227811118263 9.9683433354789,-3.3227811118263 1.3509061026649,0 3.2939141001803,-0.8571901267394 4.6229998077583,-1.300218695932 0.1722640483697,-0.057421349457 1.4761981700796,-0.1694370207559 1.300218695932,-0.4334062319774 -2.3928885445896,-3.5893328168844 -10.9561578929178,-8.9187817185299 -15.0247493752145,-10.5462183114486 -5.2246038759621,-2.0898415503849 -5.5464354397043,-4.43460827576537 -8.5236558955545,-5.92321850369045 -2.5469231876245,-1.27346159381221 -3.97326647094,-1.68597002810887 -5.63428101570547,-3.90065608779608 z"
       id="path5204"
       inkscape:connector-curvature="0"
       transform="matrix(0.2645833333333333,0,0,0.2645833333333333,-0.3822402182783344,-2.905025658915342)"
       sodipodi:nodetypes="csssssssssc" />
  </g>
</svg>
