<?xml version="1.0" encoding="UTF-8" standalone="no"?>
<!-- Created with Inkscape (http://www.inkscape.org/) -->

<svg
   xmlns:dc="http://purl.org/dc/elements/1.1/"
   xmlns:cc="http://creativecommons.org/ns#"
   xmlns:rdf="http://www.w3.org/1999/02/22-rdf-syntax-ns#"
   xmlns:svg="http://www.w3.org/2000/svg"
   xmlns="http://www.w3.org/2000/svg"
   xmlns:sodipodi="http://sodipodi.sourceforge.net/DTD/sodipodi-0.dtd"
   xmlns:inkscape="http://www.inkscape.org/namespaces/inkscape"
   width="132"
   height="132"
   id="svg2"
   version="1.1"
   inkscape:version="0.92.1 r15371"
   sodipodi:docname="special-tiles.svg"
   inkscape:export-filename="D:\deving-games\qeqe\art\special-tiles.png"
   inkscape:export-xdpi="90"
   inkscape:export-ydpi="90">
  <defs
     id="defs4" />
  <sodipodi:namedview
     id="base"
     pagecolor="#707070"
     bordercolor="#cc0000"
     borderopacity="1"
     inkscape:pageopacity="0"
     inkscape:pageshadow="2"
     inkscape:zoom="1.999999998944728"
     inkscape:cx="-15.47310178518191"
     inkscape:cy="11.59082926841945"
     inkscape:document-units="px"
     inkscape:current-layer="layer2"
     showgrid="false"
     inkscape:window-width="1920"
     inkscape:window-height="1027"
     inkscape:window-x="-8"
     inkscape:window-y="-8"
     inkscape:window-maximized="1"
     inkscape:snap-global="false"
     borderlayer="true" />
  <metadata
     id="metadata7">
    <rdf:RDF>
      <cc:Work
         rdf:about="">
        <dc:format>image/svg+xml</dc:format>
        <dc:type
           rdf:resource="http://purl.org/dc/dcmitype/StillImage" />
        <dc:title></dc:title>
      </cc:Work>
    </rdf:RDF>
  </metadata>
  <g
     inkscape:groupmode="layer"
     id="layer2"
     inkscape:label="indestructible">
    <path
       style="opacity:1;vector-effect:none;fill:#ffffff;fill-opacity:0.401869148;stroke:#9a9a9a;stroke-width:5.2497637795;stroke-linecap:round;stroke-linejoin:round;stroke-miterlimit:4;stroke-dasharray:none;stroke-dashoffset:0;stroke-opacity:1;paint-order:normal"
       d="m 20.00000002110544,22.49999988444767 c -1.75402461224883,-0.54846759777582 -5.18878539593822,-1.58672876739683 -7.0000000073869,-0.50000000052763 -1.92653627041614,1.15592176224967 -0.49860925096639,2.2472185032519 -1.25000000131909,3.75000000395728 -4.734901625893015,9.46980325178597 7.54854423607527,10.64514558842256 14.00000001477381,10.00000001055272 4.5089440187505,-0.45089440187504 7.27366416605651,-10.11316793148182 3.00000000316582,-12.25000001292708 -2.47223538990382,-1.23611769495186 -6.01112430496971,-0.31528107498929 -8.75000000923364,-1.00000000105529 z"
       id="path4600"
       inkscape:connector-curvature="0" />
    <path
       style="opacity:1;vector-effect:none;fill:#ffffff;fill-opacity:0.401869148;stroke:#9a9a9a;stroke-width:5.2497637795;stroke-linecap:round;stroke-linejoin:round;stroke-miterlimit:4;stroke-dasharray:none;stroke-dashoffset:0;stroke-opacity:1;paint-order:normal"
       d="m 61.00000006437161,32.99999989552804 c -2.09274393245461,1.08837958582889 -6.47980930889563,0.45961860460033 -7.75000000817836,3.00000000316583 -0.72362597548191,1.44725195096386 -0.52597193124386,5.52597193652021 -1.50000000158291,6.50000000685926 -1.12716952686615,1.12716952686615 -3.72095512613263,3.58713463716736 -3.00000000316581,5.75000000606783 0.05182334468,0.1554700340401 1.50695701070127,0.62847850521873 1.75000000184672,0.75000000079146 6.10719130863069,3.05359565431533 11.43997291470217,-0.56991870849109 13.50000001424616,-6.75000000712307 0.68381665396899,-2.05144996190699 1.36042870916444,-5.0291425898496 0.25000000026384,-7.25000000765075 -0.98604068747729,-1.97208137495456 -3.79389247303267,0.17556987630159 -3.25000000342964,-2.00000000211056 z"
       id="path4602"
       inkscape:connector-curvature="0" />
    <path
       style="opacity:1;vector-effect:none;fill:#ffffff;fill-opacity:0.401869148;stroke:#9a9a9a;stroke-width:5.2497637795;stroke-linecap:round;stroke-linejoin:round;stroke-miterlimit:4;stroke-dasharray:none;stroke-dashoffset:0;stroke-opacity:1;paint-order:normal"
       d="m 26.50000002796472,53.24999991689731 c -1.54822931507424,3.88509346242393 -7.29480377022453,4.56720564860946 -9.25000000976127,7.50000000791454 -5.06383067750067,7.59574601625088 8.04750729204763,18.38099710597478 16.500000017412,15.00000001582904 4.27593765222067,-1.71037506088825 10.4951760188489,-11.63223600061475 7.25000000765071,-16.50000001741198 -2.24515831725271,-3.36773747587901 -10.02943719672061,-7.11764071097687 -14.50000001530144,-6.0000000063316 z"
       id="path4604"
       inkscape:connector-curvature="0" />
    <path
       style="opacity:1;vector-effect:none;fill:#ffffff;fill-opacity:0.401869148;stroke:#9a9a9a;stroke-width:5.2497637795;stroke-linecap:round;stroke-linejoin:round;stroke-miterlimit:4;stroke-dasharray:none;stroke-dashoffset:0;stroke-opacity:1;paint-order:normal"
       d="m 56.00000005909525,68.99999993351784 c -4.23076348715546,5.14624332583453 -6.35498170914513,12.712989034879 -12.25000001292709,16.25000001714818 -1.02148650842134,0.61289190505279 -4.56754423704804,1.38508846591773 -5.00000000527635,2.25000000237435 -0.65318238544948,1.30636477089895 4.21329664534811,7.63531866441812 5.75000000606781,8.25000000870598 4.32931368864351,1.73172547545741 17.80257554368463,1.99356118985857 19.50000002057779,-2.25000000237435 1.19973094741758,-2.99932736854389 -0.61332571030467,-7.77334858888797 0.75000000079146,-10.50000001108036 1.00561162874932,-2.0112232574987 4.08752740518757,-3.42505480536265 5.00000000527636,-5.25000000554016 0.67373864543886,-1.34747729087766 -0.3709534891818,-2.99190698073798 -0.75000000079145,-3.75000000395728 -2.39975335426251,-4.79950670852516 -6.32124958384234,-7.0893752188954 -11.50000001213563,-4.50000000474871 -0.89943627169611,0.44971813584804 -4.92246688998737,-1.35561672262877 -1.50000000158291,-0.50000000052765 z"
       id="path4606"
       inkscape:connector-curvature="0" />
    <path
       style="opacity:1;vector-effect:none;fill:#ffffff;fill-opacity:0.401869148;stroke:#9a9a9a;stroke-width:5.2497637795;stroke-linecap:round;stroke-linejoin:round;stroke-miterlimit:4;stroke-dasharray:none;stroke-dashoffset:0;stroke-opacity:1;paint-order:normal"
       d="m 70.7500000746605,20.74999988260096 c 2.76505210632982,-0.43790979041398 2.87627204561602,0.84470403282695 4.75000000501254,2.25000000237436 10.99222561555227,8.24416921166429 -1.53868834076526,21.69196751417872 1.50000000158292,26.2500000277009 3.97047666149321,5.9557149922397 14.5312021254674,-1.06240422138714 16.50000001741199,-5.00000000527636 2.21329852386674,-4.42659704773351 7.97233822641535,-9.05532357355105 4.75000000501255,-15.50000001635675 -3.75213423048643,-7.50426846097288 -19.95150276612304,-18.06466302563833 -27.50000002902,-8.00000000844215 z"
       id="path4608"
       inkscape:connector-curvature="0" />
    <path
       style="opacity:1;vector-effect:none;fill:#ffffff;fill-opacity:0.401869148;stroke:#9a9a9a;stroke-width:5.2497637795;stroke-linecap:round;stroke-linejoin:round;stroke-miterlimit:4;stroke-dasharray:none;stroke-dashoffset:0;stroke-opacity:1;paint-order:normal"
       d="m 92.50000009761268,71.2499999358922 c 1.80123021651626,2.55410985243104 7.40667598926399,2.9377839907321 10.50000001108042,5.00000000527635 1.0352109734011,0.69014064893413 -0.2670288119141,3.7159423806569 0.2500000002638,4.75000000501255 0.5324943449594,1.06498868991885 1.197704905764,4.73639346566465 0.2500000002638,6.00000000633165 -3.3417508941596,4.45566785887939 -20.75605438740517,12.24394564741877 -25.25000002664564,7.75000000817833 -0.4322551181609,-0.43225511816088 0.002335416889,-1.61916145949338 -0.25000000026381,-2.25000000237435 -2.59099794935875,-6.47749487339682 9.98358045784936,-4.7171608996059 12.5000000131909,-9.7500000102889 1.67957592162658,-3.35915184325313 -4.23076618774132,-4.44229855451806 -5.00000000527636,-6.75000000712309 -1.34417476588084,-4.03252429764234 4.71878178159268,-5.89060911790965 7.0000000073869,-4.75000000501254 z"
       id="path4610"
       inkscape:connector-curvature="0" />
    <path
       style="opacity:1;vector-effect:none;fill:#ffffff;fill-opacity:0.401869148;stroke:#9a9a9a;stroke-width:5.2497637795;stroke-linecap:round;stroke-linejoin:round;stroke-miterlimit:4;stroke-dasharray:none;stroke-dashoffset:0;stroke-opacity:1;paint-order:normal"
       d="m 114.7500001210925,45.99999990924658 c -1.0278858185221,-0.0965615170556 -1.7359380055987,0.22187600776782 -2.2500000023744,1.25000000131909 -2.4844308297263,4.9688616594526 -4.5500658842989,5.78754941573051 -8.5000000089698,8.75000000923363 -8.24212129504369,6.18159097128276 6.0961979529686,14.05126736598265 13.0000000137186,11.75000001239943 9.379076899837,-3.12635896661223 7.2674941442472,-21.75000002295215 -2.2500000023744,-21.75000002295215 z"
       id="path4612"
       inkscape:connector-curvature="0" />
    <path
       style="opacity:1;vector-effect:none;fill:#ffffff;fill-opacity:0.401869148;stroke:#9a9a9a;stroke-width:5.2497637795;stroke-linecap:round;stroke-linejoin:round;stroke-miterlimit:4;stroke-dasharray:none;stroke-dashoffset:0;stroke-opacity:1;paint-order:normal"
       d="m 31.7500000335049,106.4999999730906 c 0.27445241194137,-4.6598121343249 -5.73484505976119,-4.9412887417871 -9.50000001002509,-4.0000000042211 -8.09940141719005,2.0248503542975 -7.7634258610631,18.6651749249334 2.00000000211054,19.7500000208416 12.79821102504343,1.422023447227 14.29186302441496,-14.0520342624954 7.50000000791455,-15.7500000166205 z"
       id="path4614"
       inkscape:connector-curvature="0" />
    <path
       style="opacity:1;vector-effect:none;fill:#ffffff;fill-opacity:0.401869148;stroke:#9a9a9a;stroke-width:5.2497637795;stroke-linecap:round;stroke-linejoin:round;stroke-miterlimit:4;stroke-dasharray:none;stroke-dashoffset:0;stroke-opacity:1;paint-order:normal"
       d="m 67.00000007070325,104.2499999707162 c 2.84221353484783,8.693769608072 -11.000000011608,5.7679492523216 -11.000000011608,11.000000011608 0,15.9089033081332 28.58847020220201,10.9269403555973 22.00000002321598,-2.2500000023744 -1.32470682199541,-2.6494136439907 -4.67811110494215,-5.4281111057336 -6.75000000712309,-7.5000000079145 -1.54463058387294,-1.5446305838729 -3.24057103679534,0.7688579340601 -4.25000000448489,-1.2500000013191 z"
       id="path4616"
       inkscape:connector-curvature="0" />
    <path
       style="opacity:1;vector-effect:none;fill:#ffffff;fill-opacity:0.401869148;stroke:#9a9a9a;stroke-width:5.2497637795;stroke-linecap:round;stroke-linejoin:round;stroke-miterlimit:4;stroke-dasharray:none;stroke-dashoffset:0;stroke-opacity:1;paint-order:normal"
       d="m 115.2500001216201,93.99999995989965 c 1.1711826161067,4.78925176772286 -3.122612103489,10.12261211087585 -6.2500000065954,13.25000001398234 -0.4428321028094,0.4428321028094 -2.4453747787677,0.3907495527866 -2.750000002902,1.0000000010553 -0.9861058575889,1.9722117151776 -2.0410445337187,9.472636988953 0.2500000002638,11.000000011608 7.2819180397969,4.8546120265312 16.4607491360919,-14.1322473710776 17.7500000187311,-18.0000000189949 1.1842800993372,-3.55284029801146 -0.2499994860245,-8.41666650413546 -3.5000000036935,-9.5000000100251 -3.9183059191023,-1.30610197303412 -3.6310848691079,3.50000000369344 -7.7500000081783,3.50000000369344 -0.4723031213826,0 2.0846136319466,-1.20865340871215 2.2500000023743,-1.25000000131908 z"
       id="path4618"
       inkscape:connector-curvature="0" />
    <path
       style="opacity:1;vector-effect:none;fill:#ffffff;fill-opacity:0.401869148;stroke:#9a9a9a;stroke-width:5.2497637795;stroke-linecap:round;stroke-linejoin:round;stroke-miterlimit:4;stroke-dasharray:none;stroke-dashoffset:0;stroke-opacity:1;paint-order:normal"
       d="M 18.25000001925872,79.4999999445982 C -4.326019464422874,74.35133245454865 10.47086999763044,95.51456496820749 22.00000002321599,89.74999995541475 24.70046155746138,88.39976918829205 20.25669642876796,80.00167404697549 18.25000001925872,79.4999999445982 Z"
       id="path4620"
       inkscape:connector-curvature="0" />
    <path
       style="opacity:1;vector-effect:none;fill:#ffffff;fill-opacity:0.401869148;stroke:#9a9a9a;stroke-width:5.2497637795;stroke-linecap:round;stroke-linejoin:round;stroke-miterlimit:4;stroke-dasharray:none;stroke-dashoffset:0;stroke-opacity:1;paint-order:normal"
       d="m 118.250000124786,20.49999988233713 c -2.1067531451322,0.0341107334972 -3.6276230102549,1.39801917349758 -5.2500000055402,2.750000002902 -1.283966214906,1.06997184575501 -2.750000002902,2.75443184379252 -2.750000002902,4.50000000474873 0,1.39307508098507 -3.0721529446978,5.92784706479964 -1.5000000015829,7.50000000791454 0.3654711480057,0.36547114800573 2.8231619096282,0 3.5000000036934,0 1.4102659047943,0 5.6623752185742,0.72508319236597 6.7500000071231,0 6.2206932064935,-4.14712880432902 7.7029572792425,-13.05940855955842 -0.7500000007914,-14.75000001556527 z"
       id="path4622"
       inkscape:connector-curvature="0" />
  </g>
</svg>
