<?xml version="1.0" encoding="UTF-8" standalone="no"?>
<!-- Created with Inkscape (http://www.inkscape.org/) -->

<svg
   xmlns:dc="http://purl.org/dc/elements/1.1/"
   xmlns:cc="http://creativecommons.org/ns#"
   xmlns:rdf="http://www.w3.org/1999/02/22-rdf-syntax-ns#"
   xmlns:svg="http://www.w3.org/2000/svg"
   xmlns="http://www.w3.org/2000/svg"
   xmlns:sodipodi="http://sodipodi.sourceforge.net/DTD/sodipodi-0.dtd"
   xmlns:inkscape="http://www.inkscape.org/namespaces/inkscape"
   width="1152"
   height="640"
   viewBox="0 0 304.800004818746 169.3333257102346"
   version="1.1"
   id="svg8"
   sodipodi:docname="tiles.svg"
   inkscape:version="0.92.1 r15371">
  <defs
     id="defs2" />
  <sodipodi:namedview
     id="base"
     pagecolor="#ffffff"
     bordercolor="#666666"
     borderopacity="1.0"
     inkscape:pageopacity="0.0"
     inkscape:pageshadow="2"
     inkscape:zoom="1.15381239921409"
     inkscape:cx="502.2150678838818"
     inkscape:cy="346.9630221294644"
     inkscape:document-units="mm"
     inkscape:current-layer="layer1"
     showgrid="true"
     inkscape:snap-global="false"
     showguides="true"
     inkscape:guide-bbox="true"
     inkscape:window-width="1920"
     inkscape:window-height="1027"
     inkscape:window-x="-8"
     inkscape:window-y="-8"
     inkscape:window-maximized="1"
     fit-margin-top="0"
     fit-margin-left="0"
     fit-margin-right="0"
     fit-margin-bottom="0"
     units="px">
    <inkscape:grid
       type="xygrid"
       id="grid4487"
       spacingx="33.86666675552828"
       spacingy="33.86666675552828"
       originx="67.60750187934933"
       originy="-271.5277139238201" />
    <sodipodi:guide
       position="67.60749982314042,167.3605012855436"
       orientation="0,1"
       id="guide4495"
       inkscape:locked="false" />
    <sodipodi:guide
       position="6.143275229583045,126.6136933576121"
       orientation="1,0"
       id="guide4497"
       inkscape:locked="false" />
    <sodipodi:guide
       position="53.22835700493525,71.30133205916398"
       orientation="0,1"
       id="guide4499"
       inkscape:locked="false" />
    <sodipodi:guide
       position="97.09555477302835,126.9529323790929"
       orientation="1,0"
       id="guide4501"
       inkscape:locked="false" />
    <sodipodi:guide
       position="238.9807140402092,164.5759708522233"
       orientation="1,0"
       id="guide4507"
       inkscape:locked="false" />
  </sodipodi:namedview>
  <metadata
     id="metadata5">
    <rdf:RDF>
      <cc:Work
         rdf:about="">
        <dc:format>image/svg+xml</dc:format>
        <dc:type
           rdf:resource="http://purl.org/dc/dcmitype/StillImage" />
        <dc:title></dc:title>
      </cc:Work>
    </rdf:RDF>
  </metadata>
  <g
     inkscape:label="Layer 1"
     inkscape:groupmode="layer"
     id="layer1"
     transform="translate(67.60750081050622,143.8610449626635)">
    <path
       style="opacity:1;vector-effect:none;fill:#ffffff;fill-opacity:1;stroke:#000000;stroke-width:5;stroke-linecap:round;stroke-linejoin:round;stroke-miterlimit:4;stroke-dasharray:none;stroke-dashoffset:0;stroke-opacity:1;paint-order:normal"
       d="m -104.0174955099135,-530.0845419168083 c -6.223958199022,-3.7285642298448 -7.8267026761851,-3.4806465550021 -12.7132494512116,-5.3190764746962 -10.216550860718,-3.8436985550635 -20.1956534316642,2.7853990536338 -31.9249117681469,6.8404894079042 -18.6782090254361,6.4575118972789 -41.6077740691909,3.9312248617341 -55.9120844402244,-0.4575976382689 -4.4872999801453,-1.3767852211182 -8.1782158128254,-8.4700379326621 -15.0247493514319,-5.3190764746967 -2.0054226370122,0.9229501908558 -23.6811711898558,13.8080550664927 -24.2707489523132,14.8934141291493 -11.7668638489459,21.6617266300265 4.9049004197406,73.5852442344041 10.4017495509913,95.5726407594073 4.9528918939565,19.8115675758256 -6.3790682078517,32.4507725320673 -10.4017495509914,48.5414979046261 -1.7595460317255,7.0381841269021 8.7004010992352,15.0928664710227 8.7024118223565,22.473648257517 0.00395115923,14.5035603322708 -8.0013298687537,28.4282363164218 -1.7679121216956,41.0925989985415 3.7798505228573,7.6794785538409 4.1934624391912,16.8006075833958 4.6956096079165,26.4293626095535 0.2749647865131,5.272495266428 -4.2004378720081,11.3221980073004 -4.5277778867775,16.7457537499697 -0.3818700348707,6.3270401635287 3.2121857879319,12.0275193532905 0.9740042960115,18.1079673273414 -2.2220493384842,6.0366218946947 -13.2290715653026,10.5365077562642 -14.92349931773,16.1588705979289 -4.2609739007867,14.1385439979751 -1.6776650217388,27.8753689882037 1.0684138493679,33.5100409257809 3.8704999204704,7.9418685004774 18.2111692806692,22.9277790548071 25.4264989024233,27.7379988026434 2.5605254029684,1.7070169353124 12.2718579172284,-5.579506111839 29.2155426234725,-5.5788815905355 5.5883126623353,2.059776472e-4 15.0826274358935,7.9228684795227 21.2347295426667,7.7780577707074 9.1793077223386,-0.2160663192246 16.9598885764193,-5.8323444648583 26.0172498853087,-6.3153840644599 6.3557157609136,-0.3389577043072 14.2284141927533,4.5145902609057 19.8332066555222,4.0722020560921 4.9181514774996,-0.3881913947013 10.4981810382096,-3.5824197514817 14.4262809748369,-4.2546865366559 6.7141403184457,-1.1490780784365 14.5292747664659,8.6205834479893 16.82732227958338,8.1609739453657 6.88958465445036,-1.3779169308905 11.94289530615876,-8.4909231230445 28.62361986206453,-7.6331129642272 5.03194509750919,0.2587689526788 9.06080510727563,10.6614324669431 14.65536779060344,12.2227568175299 5.59726606826537,1.5620788082585 17.00307346416563,-11.7275430354748 22.85705578613829,-11.2786854055328 4.55246129612757,0.3490627192557 9.17402263329183,-6.2855105555293 13.82202013095333,-5.9133372069167 5.49889615073129,0.4403063029008 11.034793657840985,7.8900555102899 16.5370462489171714,8.333322350162 4.4280439246479801,0.3567275410941 8.8342975978312932,-3.7907432465262 13.1819393529276371,-3.4507127844081 4.06300597426761,0.3177690060129 8.07482333653741,5.1246222518322 12.00539931241758,5.413785157323 14.09211609377174,1.0367226735203 26.88995122668187,-7.4039471464501 37.50852182742401,-7.1342158582298 14.11148717984812,0.3584578149783 24.18266841961384,9.0139340512971 26.46293420701462,6.7336682638964 13.395171499797,-13.3951714997977 22.37038859279261,-22.0369177240849 28.89374875275371,-41.6069982039661 2.5542834511879,-16.6761103349247 -7.284221671352,-27.6317461630193 -9.9174722754496,-40.895526623731 -1.951800432829,-9.8312908022804 3.1850709098387,-22.4036698675709 3.8407448741798,-31.7862759161208 0.8934393274582,-9.9370074835795 6.4845417954423,-20.2084158836353 4.8289160685049,-29.3193089096885 -1.5520261555988,-8.5407855454464 -10.381485408033,-15.9102072269925 -8.9712321027534,-25.4362316972121 1.3486587640804,-9.1099636785162 16.2054194895763,-20.817321926038 15.997793186069,-30.9004000183384 -0.1585674919344,-7.7006062192686 -5.2981248017833,-15.2192494040064 -9.2459996008816,-23.1149990022027 -6.8520235124922,-13.7040470249851 -8.0120959857788,-30.5112158231279 -4.0853313238693,-49.5264817564357 3.3822775582779,-16.3785998826932 12.409692139659,-35.3632531570002 2.9295813737594,-44.0892642024869 -6.2228873092655,-5.7278849094034 -14.97719834419085,-22.3255316801392 -21.9592490520926,-24.4677517836021 -26.02229459080601,-7.9841131127232 -57.64805383107997,-20.0580305773956 -89.915637363783091,-23.3953122018852 -6.755420550759454,-0.6986807935864 -14.246079069885873,3.2282062288973 -21.012233515960684,3.4130762999844 -7.99811958976245,0.2185307694212 -15.26482303325002,-3.1060538726047 -23.13912333303349,-1.2940699968849 -4.0212940851638,0.925354604783 -7.25707141545863,5.3202639378496 -11.700775605461,6.5501580574032 -9.29043413673769,2.5713345948143 -19.57812573082265,-5.3897770326171 -28.98737272028521,-5.1430777493656 -7.08350666002529,0.185721133465 -14.57664119371196,6.436563346801 -20.56659903009232,2.8481808717204 z"
       id="path4493"
       inkscape:connector-curvature="0"
       transform="scale(0.2645833333333333)"
       sodipodi:nodetypes="ssssssssssssssssssssssssssssssscscsssssssssssss" />
    <path
       style="opacity:1;vector-effect:none;fill:#ffffff;fill-opacity:1;stroke:#000000;stroke-width:5;stroke-linecap:round;stroke-linejoin:round;stroke-miterlimit:4;stroke-dasharray:none;stroke-dashoffset:0;stroke-opacity:1;paint-order:normal"
       d="m 378.0747028268515,-535.8370263735114 c -5.0500733039604,-3.8044514977976 -8.7895730304571,-1.1787703021262 -10.2572808196527,0.2889374870699 -11.9166730882794,11.9166730882819 -39.9176476130449,-7.7791750243266 -49.9861853915069,-2.7449061350942 -5.1216425116404,2.5608212558209 -16.2019396442144,7.157073568005 -22.5371240509308,4.6229998053191 -12.8776428486371,-5.151057139454 -21.4162917836387,-7.4363886884787 -31.0094445530753,2.1567640809609 -5.9080506691971,5.9080506691988 -5.4151724728208,21.2194320949556 -1.9294290598237,26.4480472144514 3.6546745160056,5.4820117740084 -3.1200269143489,20.3421950518872 0,26.5822488805849 1.6316813062788,3.2633626125578 1.4446874391622,8.5497493736191 1.4446874391622,12.7132494646278 0,5.8489815889548 -0.6770094594653,11.129856107121 -0.9309061387254,16.5891186326953 -0.3664158016564,7.8786381160653 -3.3944908270827,24.1199495585669 3.5313435292174,30.5076918839934 6.0910634503577,2.0303544834531 53.9349699262545,2.3596700518652 58.0764350543219,0.2889374878323 2.4987549055686,-1.2493774527836 6.740019565091,-3.2422115049532 9.8238745863032,-3.7561873418217 5.2476170439947,-0.8746028406653 13.7407858762185,0.6582369497117 18.2030617334442,2.8893748783244 5.222112491987,2.6110562459934 11.672390861444,-3.4098041799147 16.180499318617,-1.1557499513297 1.3973263357404,0.6986631678699 4.9389516174449,2.0090552526806 6.6455622201463,1.1557499513297 5.8707024754961,-2.9353512377476 4.6229998053192,-12.8655711290978 4.6229998053192,-19.0698741969411 0,-5.4337751974047 -5.9343059108728,-22.2703613837143 -8.379187147141,-27.1601238562503 -1.3166517651957,-2.633303530391 2.6602630717305,-30.1392372564327 4.3340623174867,-32.6499361250667 3.4529523941846,-5.1794285912756 -3.5736565880246,-13.3672484600533 -0.8668124634974,-18.7809367091083 3.3251127171764,-6.650225434354 8.8780290155797,-14.5227129475076 3.0338436203351,-18.925405451577 z"
       id="path4505"
       inkscape:connector-curvature="0"
       transform="scale(0.2645833333333333)"
       sodipodi:nodetypes="ssssssssscssssssssss" />
    <g
       id="g4539"
       transform="translate(-33.86666666666666)">
      <g
         style="fill:#ffffff"
         id="g4533">
        <path
           style="opacity:1;vector-effect:none;fill:#ffffff;fill-opacity:1;stroke:none;stroke-width:5;stroke-linecap:round;stroke-linejoin:round;stroke-miterlimit:4;stroke-dasharray:none;stroke-dashoffset:0;stroke-opacity:1;paint-order:normal"
           d="m 647.7500006835548,-541.7303167168727 c 5.3082660319169,5.2165603830529 -4.214866008234,12.8202680059533 -1.000000001055,19.250000020314 2.4570164068531,4.9140328137086 7.9771051384156,21.5228948927176 2.5000000026382,27.0000000284924 -1.0753251313042,1.0753251313038 -2.4684756523202,3.9054269532655 -3.0000000031658,5.500000005804 -1.106960821954,3.3208824658629 2.9922425815548,6.2732722714285 2.2500000023742,8.5000000089698 -1.6093284119472,4.8279852358415 -6.8617259386773,10.941370354364 -5.7500000060677,16.5000000174121 1.2819423863416,6.4097119317105 13.685428988024,11.1937130910624 10.7500000113439,20.0000000211055 -1.6371380339943,4.9114141019852 -6.663875837683,8.5777516703513 -9.0000000094974,13.2500000139823 -0.1862882873259,0.3725765746524 3.0214276069834,17.0857104332097 3.5000000036937,19.0000000200503 l 109.7685212407072,0.00951872743 c -5.3082660319169,-5.2165603830529 4.214866008234,-12.8202680059533 1.000000001055,-19.250000020314 -2.4570164068531,-4.9140328137085 -7.9771051384156,-21.5228948927177 -2.5000000026382,-27.0000000284925 1.0753251313042,-1.0753251313037 2.4684756523202,-3.9054269532654 3.0000000031658,-5.5000000058039 1.106960821954,-3.3208824658627 -2.9922425815548,-6.2732722714284 -2.2500000023742,-8.5000000089697 1.6093284119472,-4.8279852358415 6.8617259386773,-10.941370354364 5.7500000060677,-16.500000017412 -1.2819423863416,-6.4097119317105 -13.685428988024,-11.1937130910624 -10.7500000113439,-20.0000000211054 1.6371380339943,-4.9114141019846 6.663875837683,-8.5777516703505 9.0000000094974,-13.2500000139814 0.1862882873259,-0.3725765746525 -3.0214276069834,-17.0857104332099 -3.5000000036937,-19.0000000200505"
           id="path4531"
           inkscape:connector-curvature="0"
           transform="matrix(-0.2645833333333333,0,0,-0.2645833333333333,371.876775773388,-252.5318573966961)"
           sodipodi:nodetypes="csssssssccsssssssc" />
      </g>
      <g
         id="g4515">
        <path
           sodipodi:nodetypes="csssssssccsssssssc"
           transform="matrix(-0.2645833333333333,0,0,-0.2645833333333333,371.876775773388,-252.5318573966961)"
           inkscape:connector-curvature="0"
           id="path4511"
           d="m 647.7500006835548,-541.7303167168727 c 5.3082660319169,5.2165603830529 -4.214866008234,12.8202680059533 -1.000000001055,19.250000020314 2.4570164068531,4.9140328137086 7.9771051384156,21.5228948927176 2.5000000026382,27.0000000284924 -1.0753251313042,1.0753251313038 -2.4684756523202,3.9054269532655 -3.0000000031658,5.500000005804 -1.106960821954,3.3208824658629 2.9922425815548,6.2732722714285 2.2500000023742,8.5000000089698 -1.6093284119472,4.8279852358415 -6.8617259386773,10.941370354364 -5.7500000060677,16.5000000174121 1.2819423863416,6.4097119317105 13.685428988024,11.1937130910624 10.7500000113439,20.0000000211055 -1.6371380339943,4.9114141019852 -6.663875837683,8.5777516703513 -9.0000000094974,13.2500000139823 -0.1862882873259,0.3725765746524 3.0214276069834,17.0857104332097 3.5000000036937,19.0000000200503 m 109.7685212407072,0.00951872743 c -5.3082660319169,-5.2165603830529 4.214866008234,-12.8202680059533 1.000000001055,-19.250000020314 -2.4570164068531,-4.9140328137085 -7.9771051384156,-21.5228948927177 -2.5000000026382,-27.0000000284925 1.0753251313042,-1.0753251313037 2.4684756523202,-3.9054269532654 3.0000000031658,-5.5000000058039 1.106960821954,-3.3208824658627 -2.9922425815548,-6.2732722714284 -2.2500000023742,-8.5000000089697 1.6093284119472,-4.8279852358415 6.8617259386773,-10.941370354364 5.7500000060677,-16.500000017412 -1.2819423863416,-6.4097119317105 -13.685428988024,-11.1937130910624 -10.7500000113439,-20.0000000211054 1.6371380339943,-4.9114141019846 6.663875837683,-8.5777516703505 9.0000000094974,-13.2500000139814 0.1862882873259,-0.3725765746525 -3.0214276069834,-17.0857104332099 -3.5000000036937,-19.0000000200505"
           style="opacity:1;vector-effect:none;fill:#ffffff;fill-opacity:1;stroke:#000000;stroke-width:5;stroke-linecap:round;stroke-linejoin:round;stroke-miterlimit:4;stroke-dasharray:none;stroke-dashoffset:0;stroke-opacity:1;paint-order:normal" />
      </g>
    </g>
    <path
       sodipodi:nodetypes="csssssssssssssc"
       transform="matrix(0.2645833333333333,0,0,0.2645833333333333,0,68.1682055704687)"
       inkscape:connector-curvature="0"
       id="path4523"
       d="m 381.7379519062322,-415.405856905162 c 0,0 -1.7851554065641,-16.7104642585038 -1.7851554065641,-22.9147673263471 0,-5.4337751974047 -5.9343059108728,-22.2703613837143 -8.379187147141,-27.1601238562503 -1.3166517651957,-2.633303530391 2.6602630717305,-30.1392372564326 4.3340623174867,-32.6499361250667 3.4529523941846,-5.1794285912756 -3.5736565880246,-13.3672484600533 -0.8668124634974,-18.7809367091085 3.3251127171764,-6.6502254343543 8.8780290155797,-14.5227129475079 3.0338436203351,-18.9254054515768 -5.0500733039604,-3.8044514977976 -8.7895730304571,-1.1787703021262 -10.2572808196527,0.2889374870699 -11.9166730882794,11.9166730882819 -39.9176476130449,-7.7791750243266 -49.9861853915069,-2.7449061350942 -5.1216425116404,2.5608212558209 -16.2019396442144,7.157073568005 -22.5371240509308,4.6229998053191 -12.8776428486371,-5.151057139454 -21.4162917836387,-7.4363886884787 -31.0094445530753,2.156764080961 -5.9080506691971,5.9080506691987 -5.4151724728208,21.2194320949553 -1.9294290598237,26.4480472144513 3.6546745160056,5.4820117740084 -3.1200269143489,20.3421950518872 0,26.5822488805848 1.6316813062788,3.2633626125578 1.4446874391622,8.5497493736191 1.4446874391622,12.7132494646278 0,5.8489815889548 -0.6770094594653,11.129856107121 -0.9309061387254,16.5891186326953 -0.3664158016564,7.8786381160653 -5.0423262130267,33.6896724068882 -5.0423262130267,33.6896724068882"
       style="opacity:1;vector-effect:none;fill:#ffffff;fill-opacity:1;stroke:#000000;stroke-width:5;stroke-linecap:round;stroke-linejoin:round;stroke-miterlimit:4;stroke-dasharray:none;stroke-dashoffset:0;stroke-opacity:1;paint-order:normal" />
    <path
       style="opacity:1;vector-effect:none;fill:#ffffff;fill-opacity:1;stroke:#000000;stroke-width:5;stroke-linecap:round;stroke-linejoin:round;stroke-miterlimit:4;stroke-dasharray:none;stroke-dashoffset:0;stroke-opacity:1;paint-order:normal"
       d="m 381.7379519062322,-415.405856905162 c 0,0 -1.7851554065641,-16.7104642585038 -1.7851554065641,-22.9147673263471 0,-5.4337751974047 -5.9343059108728,-22.2703613837143 -8.379187147141,-27.1601238562503 -1.3166517651957,-2.633303530391 2.6602630717305,-30.1392372564326 4.3340623174867,-32.6499361250667 3.4529523941846,-5.1794285912756 -3.5736565880246,-13.3672484600533 -0.8668124634974,-18.7809367091085 3.3251127171764,-6.6502254343543 8.8780290155797,-14.5227129475079 3.0338436203351,-18.9254054515768 -5.0500733039604,-3.8044514977976 -8.7895730304571,-1.1787703021262 -10.2572808196527,0.2889374870699 -11.9166730882794,11.9166730882819 -39.9176476130449,-7.7791750243266 -49.9861853915069,-2.7449061350942 -5.1216425116404,2.5608212558209 -16.2019396442144,7.157073568005 -22.5371240509308,4.6229998053191 -12.8776428486371,-5.151057139454 -21.4162917836387,-7.4363886884787 -31.0094445530753,2.156764080961 -5.9080506691971,5.9080506691987 -5.4151724728208,21.2194320949553 -1.9294290598237,26.4480472144513 3.6546745160056,5.4820117740084 -3.1200269143489,20.3421950518872 0,26.5822488805848 1.6316813062788,3.2633626125578 1.4446874391622,8.5497493736191 1.4446874391622,12.7132494646278 0,5.8489815889548 -0.6770094594653,11.129856107121 -0.9309061387254,16.5891186326953 -0.3664158016564,7.8786381160653 -5.0423262130267,33.6896724068882 -5.0423262130267,33.6896724068882"
       id="path4525"
       inkscape:connector-curvature="0"
       transform="matrix(0,-0.2645833333333333,0.2645833333333333,0,177.5954243058928,59.84572417335287)"
       sodipodi:nodetypes="csssssssssssssc" />
    <path
       sodipodi:nodetypes="csssssssssssssc"
       transform="matrix(0,0.2645833333333333,-0.2645833333333333,0,-8.286676999955471,-109.3717478818116)"
       inkscape:connector-curvature="0"
       id="path4527"
       d="m 381.7379519062322,-415.405856905162 c 0,0 -1.7851554065641,-16.7104642585038 -1.7851554065641,-22.9147673263471 0,-5.4337751974047 -5.9343059108728,-22.2703613837143 -8.379187147141,-27.1601238562503 -1.3166517651957,-2.633303530391 2.6602630717305,-30.1392372564326 4.3340623174867,-32.6499361250667 3.4529523941846,-5.1794285912756 -3.5736565880246,-13.3672484600533 -0.8668124634974,-18.7809367091085 3.3251127171764,-6.6502254343543 8.8780290155797,-14.5227129475079 3.0338436203351,-18.9254054515768 -5.0500733039604,-3.8044514977976 -8.7895730304571,-1.1787703021262 -10.2572808196527,0.2889374870699 -11.9166730882794,11.9166730882819 -39.9176476130449,-7.7791750243266 -49.9861853915069,-2.7449061350942 -5.1216425116404,2.5608212558209 -16.2019396442144,7.157073568005 -22.5371240509308,4.6229998053191 -12.8776428486371,-5.151057139454 -21.4162917836387,-7.4363886884787 -31.0094445530753,2.156764080961 -5.9080506691971,5.9080506691987 -5.4151724728208,21.2194320949553 -1.9294290598237,26.4480472144513 3.6546745160056,5.4820117740084 -3.1200269143489,20.3421950518872 0,26.5822488805848 1.6316813062788,3.2633626125578 1.4446874391622,8.5497493736191 1.4446874391622,12.7132494646278 0,5.8489815889548 -0.6770094594653,11.129856107121 -0.9309061387254,16.5891186326953 -0.3664158016564,7.8786381160653 -5.0423262130267,33.6896724068882 -5.0423262130267,33.6896724068882"
       style="opacity:1;vector-effect:none;fill:#ffffff;fill-opacity:1;stroke:#000000;stroke-width:5;stroke-linecap:round;stroke-linejoin:round;stroke-miterlimit:4;stroke-dasharray:none;stroke-dashoffset:0;stroke-opacity:1;paint-order:normal" />
    <path
       style="opacity:1;vector-effect:none;fill:#ffffff;fill-opacity:1;stroke:#000000;stroke-width:5;stroke-linecap:round;stroke-linejoin:round;stroke-miterlimit:4;stroke-dasharray:none;stroke-dashoffset:0;stroke-opacity:1;paint-order:normal"
       d="m 381.7379519062322,-415.405856905162 c 0,0 -1.7851554065641,-16.7104642585038 -1.7851554065641,-22.9147673263471 0,-5.4337751974047 -5.9343059108728,-22.2703613837143 -8.379187147141,-27.1601238562503 -1.3166517651957,-2.633303530391 2.6602630717305,-30.1392372564326 4.3340623174867,-32.6499361250667 3.4529523941846,-5.1794285912756 -3.5736565880246,-13.3672484600533 -0.8668124634974,-18.7809367091085 3.3251127171764,-6.6502254343543 8.8780290155797,-14.5227129475079 3.0338436203351,-18.9254054515768 -5.0500733039604,-3.8044514977976 -8.7895730304571,-1.1787703021262 -10.2572808196527,0.2889374870699 -11.9166730882794,11.9166730882819 -39.9176476130449,-7.7791750243266 -49.9861853915069,-2.7449061350942 -5.1216425116404,2.5608212558209 -16.2019396442144,7.157073568005 -22.5371240509308,4.6229998053191 -12.8776428486371,-5.151057139454 -21.4162917836387,-7.4363886884787 -31.0094445530753,2.156764080961 -5.9080506691971,5.9080506691987 -5.4151724728208,21.2194320949553 -1.9294290598237,26.4480472144513 3.6546745160056,5.4820117740084 -3.1200269143489,20.3421950518872 0,26.5822488805848 1.6316813062788,3.2633626125578 1.4446874391622,8.5497493736191 1.4446874391622,12.7132494646278 0,5.8489815889548 -0.6770094594653,11.129856107121 -0.9309061387254,16.5891186326953 -0.3664158016564,7.8786381160653 -5.0423262130267,33.6896724068882 -5.0423262130267,33.6896724068882"
       id="path4529"
       inkscape:connector-curvature="0"
       transform="matrix(-0.2645833333333333,0,0,-0.2645833333333333,169.2174720551645,-117.846187402116)"
       sodipodi:nodetypes="csssssssssssssc" />
    <g
       id="g4549"
       transform="matrix(0,-1,-1,0,94.02679073723494,59.67245918834553)">
      <g
         id="g4543"
         style="fill:#ffffff">
        <path
           sodipodi:nodetypes="csssssssccsssssssc"
           transform="matrix(-0.2645833333333333,0,0,-0.2645833333333333,371.876775773388,-252.5318573966961)"
           inkscape:connector-curvature="0"
           id="path4541"
           d="m 647.7500006835548,-541.7303167168727 c 5.3082660319169,5.2165603830529 -4.214866008234,12.8202680059533 -1.000000001055,19.250000020314 2.4570164068531,4.9140328137086 7.9771051384156,21.5228948927176 2.5000000026382,27.0000000284924 -1.0753251313042,1.0753251313038 -2.4684756523202,3.9054269532655 -3.0000000031658,5.500000005804 -1.106960821954,3.3208824658629 2.9922425815548,6.2732722714285 2.2500000023742,8.5000000089698 -1.6093284119472,4.8279852358415 -6.8617259386773,10.941370354364 -5.7500000060677,16.5000000174121 1.2819423863416,6.4097119317105 13.685428988024,11.1937130910624 10.7500000113439,20.0000000211055 -1.6371380339943,4.9114141019852 -6.663875837683,8.5777516703513 -9.0000000094974,13.2500000139823 -0.1862882873259,0.3725765746524 3.0214276069834,17.0857104332097 3.5000000036937,19.0000000200503 l 109.7685212407072,0.00951872743 c -5.3082660319169,-5.2165603830529 4.214866008234,-12.8202680059533 1.000000001055,-19.250000020314 -2.4570164068531,-4.9140328137085 -7.9771051384156,-21.5228948927177 -2.5000000026382,-27.0000000284925 1.0753251313042,-1.0753251313037 2.4684756523202,-3.9054269532654 3.0000000031658,-5.5000000058039 1.106960821954,-3.3208824658627 -2.9922425815548,-6.2732722714284 -2.2500000023742,-8.5000000089697 1.6093284119472,-4.8279852358415 6.8617259386773,-10.941370354364 5.7500000060677,-16.500000017412 -1.2819423863416,-6.4097119317105 -13.685428988024,-11.1937130910624 -10.7500000113439,-20.0000000211054 1.6371380339943,-4.9114141019841 6.663875837683,-8.5777516703505 9.0000000094974,-13.2500000139811 0.1862882873259,-0.3725765746523 -3.0214276069834,-17.0857104332097 -3.5000000036937,-19.0000000200503"
           style="opacity:1;vector-effect:none;fill:#ffffff;fill-opacity:1;stroke:none;stroke-width:5;stroke-linecap:round;stroke-linejoin:round;stroke-miterlimit:4;stroke-dasharray:none;stroke-dashoffset:0;stroke-opacity:1;paint-order:normal" />
      </g>
      <g
         id="g4547">
        <path
           style="opacity:1;vector-effect:none;fill:#ffffff;fill-opacity:1;stroke:#000000;stroke-width:5;stroke-linecap:round;stroke-linejoin:round;stroke-miterlimit:4;stroke-dasharray:none;stroke-dashoffset:0;stroke-opacity:1;paint-order:normal"
           d="m 647.7500006835548,-541.7303167168727 c 5.3082660319169,5.2165603830529 -4.214866008234,12.8202680059533 -1.000000001055,19.250000020314 2.4570164068531,4.9140328137086 7.9771051384156,21.5228948927176 2.5000000026382,27.0000000284924 -1.0753251313042,1.0753251313038 -2.4684756523202,3.9054269532655 -3.0000000031658,5.500000005804 -1.106960821954,3.3208824658629 2.9922425815548,6.2732722714285 2.2500000023742,8.5000000089698 -1.6093284119472,4.8279852358415 -6.8617259386773,10.941370354364 -5.7500000060677,16.5000000174121 1.2819423863416,6.4097119317105 13.685428988024,11.1937130910624 10.7500000113439,20.0000000211055 -1.6371380339943,4.9114141019852 -6.663875837683,8.5777516703513 -9.0000000094974,13.2500000139823 -0.1862882873259,0.3725765746524 3.0214276069834,17.0857104332097 3.5000000036937,19.0000000200503 m 109.7685212407072,0.00951872743 c -5.3082660319169,-5.2165603830529 4.214866008234,-12.8202680059533 1.000000001055,-19.250000020314 -2.4570164068531,-4.9140328137085 -7.9771051384156,-21.5228948927177 -2.5000000026382,-27.0000000284925 1.0753251313042,-1.0753251313037 2.4684756523202,-3.9054269532654 3.0000000031658,-5.5000000058039 1.106960821954,-3.3208824658627 -2.9922425815548,-6.2732722714284 -2.2500000023742,-8.5000000089697 1.6093284119472,-4.8279852358415 6.8617259386773,-10.941370354364 5.7500000060677,-16.500000017412 -1.2819423863416,-6.4097119317105 -13.685428988024,-11.1937130910624 -10.7500000113439,-20.0000000211054 1.6371380339943,-4.9114141019841 6.663875837683,-8.5777516703505 9.0000000094974,-13.2500000139811 0.1862882873259,-0.3725765746523 -3.0214276069834,-17.0857104332097 -3.5000000036937,-19.0000000200503"
           id="path4545"
           inkscape:connector-curvature="0"
           transform="matrix(-0.2645833333333333,0,0,-0.2645833333333333,371.876775773388,-252.5318573966961)"
           sodipodi:nodetypes="csssssssccsssssssc" />
      </g>
    </g>
  </g>
</svg>
