<?xml version="1.0" encoding="UTF-8" standalone="no"?>
<!-- Created with Inkscape (http://www.inkscape.org/) -->

<svg
   xmlns:dc="http://purl.org/dc/elements/1.1/"
   xmlns:cc="http://creativecommons.org/ns#"
   xmlns:rdf="http://www.w3.org/1999/02/22-rdf-syntax-ns#"
   xmlns:svg="http://www.w3.org/2000/svg"
   xmlns="http://www.w3.org/2000/svg"
   xmlns:sodipodi="http://sodipodi.sourceforge.net/DTD/sodipodi-0.dtd"
   xmlns:inkscape="http://www.inkscape.org/namespaces/inkscape"
   width="132"
   height="132"
   id="svg2"
   version="1.1"
   inkscape:version="0.92.1 r15371"
   sodipodi:docname="ui-energy.svg"
   inkscape:export-filename="/home/vg/learning/gamming/web/phaser/training/another-mess/GGJW-2015.github.io/spider-dog/img/map/tile.png"
   inkscape:export-xdpi="90"
   inkscape:export-ydpi="90">
  <defs
     id="defs4" />
  <sodipodi:namedview
     id="base"
     pagecolor="#707070"
     bordercolor="#cc0000"
     borderopacity="1"
     inkscape:pageopacity="0"
     inkscape:pageshadow="2"
     inkscape:zoom="2.408585597759542"
     inkscape:cx="40.78258614381619"
     inkscape:cy="74.85841104277142"
     inkscape:document-units="px"
     inkscape:current-layer="layer3"
     showgrid="false"
     inkscape:window-width="1920"
     inkscape:window-height="1027"
     inkscape:window-x="-8"
     inkscape:window-y="-8"
     inkscape:window-maximized="1"
     inkscape:snap-global="false"
     borderlayer="true" />
  <metadata
     id="metadata7">
    <rdf:RDF>
      <cc:Work
         rdf:about="">
        <dc:format>image/svg+xml</dc:format>
        <dc:type
           rdf:resource="http://purl.org/dc/dcmitype/StillImage" />
        <dc:title></dc:title>
      </cc:Work>
    </rdf:RDF>
  </metadata>
  <g
     inkscape:groupmode="layer"
     id="layer10"
     inkscape:label="13"
     style="display:none"
     transform="translate(0,105.3333339691162)">
    <path
       style="opacity:1;fill:#ffffff;stroke:#000000;stroke-width:1px;stroke-linecap:butt;stroke-linejoin:miter;stroke-opacity:1"
       d="M 22.213271,1.8831379 C 20.938529,0.7307576799999998 19.843627,1.0548464 17.318822,1.0548464 c -0.529819,0 -1.386413,-0.16535608 -1.882481,0 -0.396353,0.1321179 -0.805662,0.3011969 -1.280087,0.3011969 -1.385502,0 -2.409463,-0.207045 -3.689662,-0.5270946100000001 C 9.201890800000001,0.51277331 7.479027000000002,0.97954714 6.325134900000001,0.97954714 5.5777937,0.97954714 4.149718200000001,0.71186942 3.4637644,1.05484634 2.8594896,1.3569838 1.6352818,0.6996513699999995 1.1294884,1.2054449 0.8575808,1.4773524 0.55583985,4.576101300000003 0.75299225,4.9704061 0.8418772999999999,5.1481762 1.007324,5.238954900000003 1.1294884,5.4222015 c 0.1964203,0.2946304 0.8282915,1.661804700000001 0.8282915,1.9577798 0,0.7781137 -0.7810064,1.308101 -1.20478765,1.7318822 -0.0916228,0.091623 0,0.7596183 0,0.9035905 0,1.111958 -0.1527327899999999,3.603691 0.0752992,4.743851 C 0.9438198899999999,15.336947 1.9003661,15.853022 1.5059845,16.641786 1.1772316,17.299291 1.4396855,17.894873 1.2047876,18.599565 1.05195,19.058078 0.8919304399999996,19.526477 0.677693,19.954951 0.49678392,20.31677 0.9872523099999998,23.502377 1.2047876,23.719913 c 0.096472,0.09647 0.2052433,0.140271 0.3764961,0.225897 0.5681331,0.284067 2.0315281,-0.0753 2.6354729,-0.0753 1.0909875,0 2.350529100000002,0.373246 3.4637644,0.150599 0.383036000000001,-0.07661 0.790283899999999,-0.282194 1.1294884,-0.451796 C 9.0384176,23.455109 11.070989,23.721915 11.144285,23.795211 c 0.131096,0.131095 -0.06369,0.204667 0.225898,0.301197 0.412464,0.137488 0.930851,0.04447 1.355386,0.15059799999999 0.46303,0.115758 1.098871,0 1.581284,0 1.828298,0 3.647897,-0.15059799999999 5.421544,-0.15059799999999 0.156407,0 0.536015,0.15951899999998 0.602394,0.225898 0.242491,0.24249 2.057171,0 2.409575,0 0.08877,0 0.466909,0.06019 0.527095,0 0.193114,-0.193115 -0.06681,-1.146459 0.0753,-1.43068600000001 0.349519,-0.699038 1.481488,-2.684466 0.97889,-3.68966199999999 -0.154258,-0.308512 -0.412409,-0.48423 -0.527096,-0.82829 -0.196069,-0.588209 -0.187141,-1.202575 -0.451795,-1.731882 -0.427524,-0.855048 0.417569,-2.758692 0.677693,-3.539064 0.399324,-1.197973 -0.573226,-1.991706 -0.828292,-3.011969 C 23.054895,9.5416866 23.306985,8.957515799999999 23.493358,8.5847689 23.868792,7.8339012 23.327193,6.5049892 23.116862,5.8739968 22.91159,5.2581817 23.425702,2.2672767 23.192161,2.0337363 22.941234,1.7828094 22.672764,1.7912395 22.213271,1.8831379 Z"
       id="path4108"
       inkscape:connector-curvature="0"
       transform="matrix(5.248000000000001,0,0,5.248000000000001,-0.1017687671598191,-104.5604731410187)"
       inkscape:transform-center-x="-65.89234699355421"
       inkscape:transform-center-y="-64.63062735059708" />
  </g>
  <g
     inkscape:groupmode="layer"
     id="layer3"
     inkscape:label="14"
     style="display:inline">
    <path
       style="opacity:1;vector-effect:none;fill:#ffffff;fill-opacity:1;stroke:#000000;stroke-width:5.2497639656;stroke-linecap:round;stroke-linejoin:round;stroke-miterlimit:4;stroke-dasharray:none;stroke-dashoffset:0;stroke-opacity:1;paint-order:normal"
       d="M 8.220172825438963,6.935942012964321 C 39.09728030955886,11.87447416181917 69.81393445293177,2.403340046312991 99.8163843089017,8.40383001750699 c 4.2765599127878,0.855311982557566 13.7399302940959,-2.387432106338466 17.32107845360359,0 4.606771099149,3.071180732766049 4.6972416145365,8.099222306986188 4.6972416145365,13.504569641792578 0,13.16872286318476 -2.0468852322275,28.20792360961603 2.0550432063598,40.51370892537777 3.518713656447,10.55614096934104 -1.7614656054513,24.84934670050925 -1.7614656054513,34.9357345081156 0,3.81689536185007 1.6786873261981,26.58754064027437 1.1743104036342,27.59629448540227 -1.7377377161042,3.4754754322083 -6.0294893589496,-0.5871552018171 -8.220172825439,-0.5871552018171 -6.7092639431036,0 -14.0607198570267,1.1414888268435 -20.84400966450597,0.2935776009085 -8.19711241107234,-1.024639051384 -16.70605938023205,-3.3279284042922 -25.54125127904248,-1.4678880045426 -5.47615242523103,1.1528741947855 -11.18392987031955,2.7493846204114 -16.14676804996939,4.403664013628 -3.84903527784283,1.2830117592809 -44.555546079457911,-1.5805521756773 -46.678838544456979,-2.6421984081768 -1.59261036757289,-0.7963051837865 0.158642615605288,-8.5374580566496 0.587155201817068,-9.3944832290731 1.642267047939566,-3.2845340958792 -0.880732802725604,-9.2006556082848 -0.880732802725604,-12.3302592381585 0,-14.91954248744969 -3.928135699260647,-45.57485196683187 2.348620807268278,-58.12836497988971 C 10.97288306753403,39.00845444506661 6.011283017364587,15.77150124526183 8.220172825438963,6.935942012964321 Z"
       id="path5108"
       inkscape:connector-curvature="0" />
  </g>
</svg>
