<?xml version="1.0" encoding="UTF-8" standalone="no"?>
<!-- Created with Inkscape (http://www.inkscape.org/) -->

<svg
   xmlns:dc="http://purl.org/dc/elements/1.1/"
   xmlns:cc="http://creativecommons.org/ns#"
   xmlns:rdf="http://www.w3.org/1999/02/22-rdf-syntax-ns#"
   xmlns:svg="http://www.w3.org/2000/svg"
   xmlns="http://www.w3.org/2000/svg"
   xmlns:sodipodi="http://sodipodi.sourceforge.net/DTD/sodipodi-0.dtd"
   xmlns:inkscape="http://www.inkscape.org/namespaces/inkscape"
   width="64"
   height="64"
   viewBox="0 0 16.93333294370945 16.93333381181883"
   version="1.1"
   id="svg8"
   inkscape:version="0.92.1 r15371"
   sodipodi:docname="x.svg">
  <defs
     id="defs2" />
  <sodipodi:namedview
     id="base"
     pagecolor="#ffffff"
     bordercolor="#666666"
     borderopacity="1.0"
     inkscape:pageopacity="0.0"
     inkscape:pageshadow="2"
     inkscape:zoom="6.921912466078309"
     inkscape:cx="16.83336331382637"
     inkscape:cy="28.00593770926872"
     inkscape:document-units="mm"
     inkscape:current-layer="layer2"
     showgrid="false"
     units="px"
     inkscape:snap-global="false"
     inkscape:window-width="1920"
     inkscape:window-height="1027"
     inkscape:window-x="-8"
     inkscape:window-y="-8"
     inkscape:window-maximized="1" />
  <metadata
     id="metadata5">
    <rdf:RDF>
      <cc:Work
         rdf:about="">
        <dc:format>image/svg+xml</dc:format>
        <dc:type
           rdf:resource="http://purl.org/dc/dcmitype/StillImage" />
        <dc:title></dc:title>
      </cc:Work>
    </rdf:RDF>
  </metadata>
  <g
     inkscape:label="Layer 1"
     inkscape:groupmode="layer"
     id="layer1"
     transform="translate(0,-280.0666498819986)">
    <path
       style="opacity:1;vector-effect:none;fill:none;fill-opacity:1;stroke:#666666;stroke-width:5.2497639656;stroke-linecap:round;stroke-linejoin:round;stroke-miterlimit:4;stroke-dasharray:none;stroke-dashoffset:0;stroke-opacity:1;paint-order:normal"
       d="m 8.090249663577074,10.54656472279432 c 3.679961974129686,0.27088285428756 3.580420397800037,4.88063909373207 5.778749759697917,7.07896845562994 1.36890167864897,1.36890167864898 3.79639582525056,0.92712518612507 4.91193729574322,2.60043739186406 2.04121451325237,3.06182176987857 2.18725491605482,7.67706718776784 4.76746855175078,10.2572808234638 2.06225698480681,2.0622569848068 4.92273959866848,2.90017718277422 7.07896845562994,5.05640603973567 1.13534480284043,1.13534480284042 3.03229497914151,4.18649628638117 3.75618734380366,5.63428101570546 0.43943158953364,0.87886317906732 3.46082345749248,2.52498982070471 4.47853106376589,3.0338436238414 1.80358531837994,0.90179265918997 3.3186562574924,3.89653123346217 4.76746855175077,5.34534352772058 3.74984437797689,3.74984437797689 9.29676451289544,4.46975281349313 12.42431198335051,8.37918715156197"
       id="path4485"
       inkscape:connector-curvature="0"
       transform="matrix(0.2645833333333333,0,0,0.2645833333333333,0,280.0666498819986)" />
    <path
       style="opacity:1;vector-effect:none;fill:none;fill-opacity:1;stroke:#666666;stroke-width:5.2497639656;stroke-linecap:round;stroke-linejoin:round;stroke-miterlimit:4;stroke-dasharray:none;stroke-dashoffset:0;stroke-opacity:1;paint-order:normal"
       d="m 57.93196634097157,9.101877282869843 c -2.84067196937829,1.514147051062267 -7.57940341614077,2.175979876825988 -9.39046835950911,5.345343527720577 -1.31607856145732,2.30313748255032 -1.09246482918972,4.55971468500847 -3.03384362384142,6.50109347966014 -3.63637960679425,3.63637960679427 -9.69734724109122,4.10366875978319 -13.00218695932029,8.23471840756953 -2.53963371565358,3.17454214456696 -6.16936077492486,7.69432413371616 -7.65684343159975,11.41303077540337 -0.79957463995801,1.99893659989503 -3.66746285063608,3.25263803560037 -4.91193729574322,4.91193729574322 -0.87536601270028,1.16715468360039 -1.490060409748,2.93474784967249 -2.45596864787161,3.9006560877961 -1.47469616660201,1.47469616660201 -6.32257839352933,3.54362591553445 -6.79003096764504,4.47853106376588"
       id="path4487"
       inkscape:connector-curvature="0"
       transform="matrix(0.2645833333333333,0,0,0.2645833333333333,0,280.0666498819986)" />
  </g>
  <g
     inkscape:groupmode="layer"
     id="layer2"
     inkscape:label="Layer 2">
    <path
       style="opacity:1;vector-effect:none;fill:none;fill-opacity:1;stroke:#666666;stroke-width:5.2497639656;stroke-linecap:round;stroke-linejoin:round;stroke-miterlimit:4;stroke-dasharray:none;stroke-dashoffset:0;stroke-opacity:1;paint-order:normal"
       d="M 59.66559126888093,6.934846122983134 C 53.1129359953798,8.333903725215677 48.50597896559609,16.92686880237294 42.90721696575699,20.65937680226567 c -1.3114466412233,0.87429776081553 -2.5512084456801,4.40468764448994 -3.46724985581874,5.77874975969791 -1.29314851790174,1.93972277685261 -4.07267908978323,3.20586662582852 -5.63428101570547,4.76746855175077 -1.7806335016743,1.78063350167431 -2.53742340430845,4.46982024716816 -3.75618734380364,6.50109347966016 -2.49876457783092,4.16460762971819 -9.94878299776234,7.49281434989072 -13.14665570331275,10.69068705544113 -2.27356628044181,2.27356628044181 -2.81129591766128,4.70890933011003 -5.77874975969791,6.93449971163749"
       id="path4490"
       inkscape:connector-curvature="0"
       transform="scale(0.2645833333333333)" />
    <path
       style="opacity:1;vector-effect:none;fill:none;fill-opacity:1;stroke:#666666;stroke-width:5.2497639656;stroke-linecap:round;stroke-linejoin:round;stroke-miterlimit:4;stroke-dasharray:none;stroke-dashoffset:0;stroke-opacity:1;paint-order:normal"
       d="m 7.223437199622392,8.090596074922714 c 1.311654502940271,4.339634278849186 5.706465653093428,6.501027166849145 8.090249663577067,9.679405847493995 4.19681750945846,5.59575667927794 6.95534157308114,7.78082638567678 12.56878072734296,11.99090575137317 1.98994455571189,1.49245841678392 2.55878893401983,6.17050753383104 4.62299980775833,8.23471840756953 3.21176279428537,3.21176279428535 6.39764863468966,3.78353660981827 9.82387459148645,6.06768724768279 4.66315541505734,3.10877027670489 8.92177180301768,6.36434428975772 13.72453067928254,9.24599961551667"
       id="path4492"
       inkscape:connector-curvature="0"
       transform="scale(0.2645833333333333)" />
  </g>
</svg>
